<svg xmlns="http://www.w3.org/2000/svg" width="236.97" height="206.67" viewBox="0 0 236.97 206.67"><defs><style>.a{opacity:0.35;}.b{fill:#b9e3eb;}.c,.d,.i{fill:#fff;}.d{opacity:0.5;}.e{fill:#47a8b5;}.f{fill:#e2e2e5;}.g{fill:#3e4449;}.h{fill:#f47523;}.i{fill-rule:evenodd;}</style></defs><title>configuration</title><g class="a"><path class="b" d="M248.76,70.57S160.74,26.64,104,58.72s-71.63,117.72-70.25,145S74,268.8,120.87,240,311,110.32,248.76,70.57Z" transform="translate(-27.91 -43.64)"/></g><rect class="c" x="112.3" y="103.97" width="102.16" height="82.4"/><path class="d" d="M193,108.51c-8-2-13.59-8-13.14-15.35a15.76,15.76,0,0,1,4.83-10.43A19.54,19.54,0,0,1,187,80.79H54.81v92.53h141V108.47A5.41,5.41,0,0,1,193,108.51Z" transform="translate(-27.91 -43.64)"/><polygon class="e" points="111.55 103.25 111.55 95.97 114.06 93.54 121.32 93.08 186.62 93.54 186.62 103.25 111.55 103.7 111.55 103.25"/><path class="e" d="M47.8,200a8.64,8.64,0,0,0,.11-2.69l2.62-1.2-1.45-3.6-2.45,1.12a8.59,8.59,0,0,0-1.9-2.08l1-2.43-3.53-1.41L41.25,190a8,8,0,0,0-3,0l-.9-2.23-3.58,1.64.89,2.23A9.65,9.65,0,0,0,32.65,194l-2.21-.89L29,196.75l2.33.93a8.83,8.83,0,0,0,.09,2.9l-2.47,1.13,1.45,3.6,2.63-1.2a7.81,7.81,0,0,0,1.91,1.77l-1.13,2.83,3.53,1.41,1.17-2.94a8.17,8.17,0,0,0,2.41-.1l1.17,2.9,3.58-1.64-1.17-2.9a8.57,8.57,0,0,0,1.75-1.81L49,204.76l1.47-3.7Zm-6.29,2.44c-2.59,1.19-4.56.66-5.62-2s-.83-4.64,1.77-5.82,5.56-.89,6.62,1.76S44.1,201.24,41.51,202.42Z" transform="translate(-27.91 -43.64)"/><polygon class="f" points="44.28 175.81 44.27 175.79 44.27 175.79 44.28 175.81"/><path class="f" d="M72.26,219.43l-.68-1.29.61,1.29Z" transform="translate(-27.91 -43.64)"/><polygon class="f" points="44.27 175.79 44.27 175.79 43.67 174.5 40.19 167.88 44.27 175.79"/><path class="f" d="M54.05,143.47a11.17,11.17,0,0,0-10.79-6.3h0l5.88,12.53-3.55,3-4.31.67L35.4,140.88a11,11,0,0,0-1.92,12.24,11.31,11.31,0,0,0,10.73,6.53l17,36.28,0,0,2.17,4.73a11.32,11.32,0,0,0-1.86,12.43,11,11,0,0,0,10.59,6.36l-4.08-7.91,3.48,6.62-5.26-11.22L69.59,204l4.58-.8,5.88,12.53.06,0a11.14,11.14,0,0,0,2-12.32,11.4,11.4,0,0,0-10.86-6.51l-2.16-4.69,0,0L52.08,156A11.43,11.43,0,0,0,54.05,143.47Z" transform="translate(-27.91 -43.64)"/><path class="f" d="M35.4,140.87h0l0,0Z" transform="translate(-27.91 -43.64)"/><polygon class="b" points="186.62 98.2 186.62 93.08 190.15 92.18 215.78 93.11 219.26 89.11 234.53 90.15 236.63 91.92 235.18 125.79 235.97 127.64 234.53 127.64 190.15 128.84 187.1 128.22 185.89 125.79 186.6 99.18 186.62 98.2"/><path class="g" d="M139.15,173.32H60.34a7.56,7.56,0,0,1,.57,2.08h78.55a14.73,14.73,0,0,1-.3-1.67C139.15,173.59,139.16,173.46,139.15,173.32Z" transform="translate(-27.91 -43.64)"/><path class="g" d="M57.6,65.12a5.19,5.19,0,0,0-5.18,5.17v71.52a4.55,4.55,0,0,1,1.85,3.87v1l.23.23V70.29a3.11,3.11,0,0,1,3.1-3.09h124c.2-.72.42-1.41.68-2.08Z" transform="translate(-27.91 -43.64)"/><path class="g" d="M195.11,103.41v33.32a4.92,4.92,0,0,1,2.08-.21V103.45A5.81,5.81,0,0,1,195.11,103.41Z" transform="translate(-27.91 -43.64)"/><path class="g" d="M180.45,78.83H53.67a1,1,0,0,0-1,1,1,1,0,0,0,1,1.07h126.9C180.52,80.23,180.48,79.54,180.45,78.83Z" transform="translate(-27.91 -43.64)"/><path class="g" d="M89.25,79.74a1.06,1.06,0,0,1-1-1V67.06a1,1,0,0,1,2.08,0V78.7A1.05,1.05,0,0,1,89.25,79.74Z" transform="translate(-27.91 -43.64)"/><path class="g" d="M61.26,76.22a3.47,3.47,0,1,1,3.48-3.47A3.47,3.47,0,0,1,61.26,76.22Z" transform="translate(-27.91 -43.64)"/><path class="g" d="M71.06,76.22a3.47,3.47,0,1,1,3.47-3.47A3.48,3.48,0,0,1,71.06,76.22Z" transform="translate(-27.91 -43.64)"/><path class="g" d="M80.89,76.22a3.47,3.47,0,1,1,3.48-3.47A3.47,3.47,0,0,1,80.89,76.22Z" transform="translate(-27.91 -43.64)"/><path class="g" d="M156.7,71.63H94.77a1,1,0,0,1,0-2.08H156.7a1,1,0,0,1,0,2.08Z" transform="translate(-27.91 -43.64)"/><path class="g" d="M135.64,76.48H94.77a1,1,0,0,1,0-2.08h40.87a1,1,0,0,1,0,2.08Z" transform="translate(-27.91 -43.64)"/><path class="g" d="M95.51,141.09a9.67,9.67,0,1,1,9.67-9.68h0A9.69,9.69,0,0,1,95.51,141.09Zm0-17.25a7.6,7.6,0,1,0,7.59,7.59,7.59,7.59,0,0,0-7.59-7.59Z" transform="translate(-27.91 -43.64)"/><path class="g" d="M96,153.9a1,1,0,0,1-1-1,1,1,0,0,1,1-1.07,19.8,19.8,0,0,0,3.26-.33,1,1,0,0,1,1.21.83,1,1,0,0,1-.83,1.21h0a21.76,21.76,0,0,1-3.6.37Zm-6.17-.75a.9.9,0,0,1-.28,0,23,23,0,0,1-3.4-1.23,1.05,1.05,0,0,1-.52-1.38A1,1,0,0,1,87,150a20.12,20.12,0,0,0,3.1,1.12,1.06,1.06,0,0,1,.73,1.28,1,1,0,0,1-1,.76Zm15.48-1.62a1.06,1.06,0,0,1-.93-.56,1,1,0,0,1,.43-1.4h0a20.2,20.2,0,0,0,2.8-1.75,1,1,0,0,1,1.23,1.68h0a21.56,21.56,0,0,1-3.07,1.91.9.9,0,0,1-.48.12ZM81.37,148.6a1,1,0,0,1-.67-.27,21.42,21.42,0,0,1-2.53-2.6,1.05,1.05,0,0,1,.14-1.47,1,1,0,0,1,1.47.14,20.41,20.41,0,0,0,2.3,2.35,1,1,0,0,1,.09,1.47A1.11,1.11,0,0,1,81.37,148.6Zm31.29-3.27a1.08,1.08,0,0,1-.63-.21,1,1,0,0,1-.2-1.45,23.79,23.79,0,0,0,1.76-2.79,1,1,0,0,1,1.39-.44,1,1,0,0,1,.45,1.4,21.65,21.65,0,0,1-1.94,3.06,1,1,0,0,1-.83.43Zm-36.92-4.52a1,1,0,0,1-1-.64,20.81,20.81,0,0,1-1.14-3.45,1,1,0,0,1,2-.53v0a22,22,0,0,0,1,3.13,1,1,0,0,1-.55,1.35.82.82,0,0,1-.4.1Zm40.81-4.27a.61.61,0,0,1-.19,0,1,1,0,0,1-.82-1.2v0a20,20,0,0,0,.36-3.27,1,1,0,0,1,2.08.06,22.93,22.93,0,0,1-.4,3.6,1,1,0,0,1-1,.84Zm-42.46-5.21H74a1,1,0,0,1-1-1.09h0a21.66,21.66,0,0,1,.48-3.59,1,1,0,0,1,2,.44h0a18.91,18.91,0,0,0-.43,3.26,1,1,0,0,1-1,1Zm42.13-4.4a1,1,0,0,1-1-.78,19.09,19.09,0,0,0-1.11-3.1,1,1,0,0,1,1.9-.85,24.54,24.54,0,0,1,1.22,3.43,1,1,0,0,1-.73,1.27h0l-.28,0Zm-39.49-4.84a1.11,1.11,0,0,1-.5-.12,1.05,1.05,0,0,1-.4-1.41,22.63,22.63,0,0,1,2-3,1,1,0,1,1,1.67,1.22l0,0a20,20,0,0,0-1.82,2.74,1.07,1.07,0,0,1-.93.54Zm35-3.65a1.11,1.11,0,0,1-.79-.36,22.38,22.38,0,0,0-2.35-2.32,1,1,0,1,1,1.27-1.65l.08.06a23.9,23.9,0,0,1,2.59,2.54,1,1,0,0,1-.1,1.46h0a1.09,1.09,0,0,1-.69.26Zm-28.57-3.51a1,1,0,0,1-.85-.44,1,1,0,0,1,.25-1.45h0a22.27,22.27,0,0,1,3.12-1.85,1,1,0,0,1,.9,1.87,21.85,21.85,0,0,0-2.84,1.68.88.88,0,0,1-.58.19ZM104,112.76a1,1,0,0,1-.42-.09,21.18,21.18,0,0,0-3.12-1,1,1,0,0,1,.47-2h0a21.71,21.71,0,0,1,3.44,1.15,1,1,0,0,1,.55,1.35v0a1,1,0,0,1-.94.63Zm-11.9-1.46a1,1,0,0,1-.17-2.06,21.83,21.83,0,0,1,3.62-.29,1,1,0,0,1,0,2.07,20.19,20.19,0,0,0-3.29.27Z" transform="translate(-27.91 -43.64)"/><path class="g" d="M95.51,162a1,1,0,1,1-.06-2.07h.06A28.51,28.51,0,0,0,124,131.43a1,1,0,0,1,2.08-.06v.06A30.55,30.55,0,0,1,95.52,162Z" transform="translate(-27.91 -43.64)"/><path class="g" d="M66,132.47a1,1,0,0,1-1-1,30.56,30.56,0,0,1,30.55-30.56h0a1,1,0,0,1,1,1.07,1,1,0,0,1-1,1A28.5,28.5,0,0,0,67,131.43a1,1,0,0,1-1,1Z" transform="translate(-27.91 -43.64)"/><path class="g" d="M98.07,184.89a1.06,1.06,0,0,1-1-1v-1.8a1,1,0,0,1,2.08,0v1.8A1.05,1.05,0,0,1,98.07,184.89Z" transform="translate(-27.91 -43.64)"/><path class="g" d="M98.07,215.92a1.05,1.05,0,0,1-1-1v-3.74a1,1,0,0,1,2.08,0v3.74A1,1,0,0,1,98.07,215.92Zm0-10.39a1.05,1.05,0,0,1-1-1v-3.74a1.05,1.05,0,0,1,1-1.07,1,1,0,0,1,1.07,1v3.8A1,1,0,0,1,98.07,205.53Zm0-10.39a1.05,1.05,0,0,1-1-1v-3.74a1.05,1.05,0,0,1,1-1.07,1,1,0,0,1,1.07,1v3.8a1.05,1.05,0,0,1-1,1Z" transform="translate(-27.91 -43.64)"/><path class="g" d="M99.8,224H98.07a1.06,1.06,0,0,1-1-1v-1.74a1,1,0,0,1,2.08-.06V222h.69a1,1,0,1,1,.06,2.07H99.8Z" transform="translate(-27.91 -43.64)"/><path class="g" d="M125.57,224h-3a1,1,0,0,1-1.07-1,1,1,0,0,1,1-1.07h3.1a1,1,0,0,1,1.07,1,1,1,0,0,1-1,1.07ZM117,224h-3a1.05,1.05,0,0,1-1-1.07,1,1,0,0,1,1-1h3a1,1,0,0,1,1,1.07,1,1,0,0,1-1,1Zm-8.59,0h-3a1,1,0,0,1-1.07-1,1,1,0,0,1,1-1.07h3.1a1,1,0,0,1,1,1.07A1,1,0,0,1,108.39,224Z" transform="translate(-27.91 -43.64)"/><path class="g" d="M132.78,224H131a1,1,0,0,1-.05-2.08h1.86a1,1,0,0,1,0,2.08Z" transform="translate(-27.91 -43.64)"/><path class="g" d="M143,104.08h-7.28a1.22,1.22,0,0,1,0-2.43H143a1.22,1.22,0,1,1,0,2.43Z" transform="translate(-27.91 -43.64)"/><path class="g" d="M150.4,113.5H139.12a1.22,1.22,0,0,1,0-2.43H150.4a1.22,1.22,0,0,1,0,2.43Z" transform="translate(-27.91 -43.64)"/><path class="g" d="M132.41,113.5h-4a1.22,1.22,0,0,1,0-2.43h4a1.22,1.22,0,0,1,0,2.43Z" transform="translate(-27.91 -43.64)"/><path class="g" d="M164.39,122.92H139.12a1.21,1.21,0,0,1,0-2.42h25.27a1.21,1.21,0,1,1,0,2.42Z" transform="translate(-27.91 -43.64)"/><path class="g" d="M176.39,122.92h-3.86a1.21,1.21,0,1,1,0-2.42h3.86a1.21,1.21,0,1,1,0,2.42Z" transform="translate(-27.91 -43.64)"/><path class="g" d="M125.27,104.08h-9.71a1.22,1.22,0,0,1,0-2.43h9.71a1.22,1.22,0,0,1,0,2.43Z" transform="translate(-27.91 -43.64)"/><path class="h" d="M224.87,74.73a27.1,27.1,0,0,0-3-8l6.57-6.57-8.87-8.87-6.16,6.17a28,28,0,0,0-8.39-3.88V45.25H192.49v7.89a27.44,27.44,0,0,0-9.05,3.59L178,51.25l-9,9,5.48,5.49a29.2,29.2,0,0,0-3.55,9l-7.89,0,0,12.56h8.29a27.84,27.84,0,0,0,3.86,8.4L169,101.91l8.87,8.87,6.61-6.61a27,27,0,0,0,8,3v9.63h12.59l0-10a26.73,26.73,0,0,0,7.29-3.13l7.15,7.14,9-9-7.14-7.15a26.8,26.8,0,0,0,3.14-7.34h10.06V74.72ZM209.62,91.85a16.69,16.69,0,1,1,0-23.6A16.68,16.68,0,0,1,209.62,91.85Z" transform="translate(-27.91 -43.64)"/><path class="g" d="M197.82,98.35a18.3,18.3,0,0,1-12.94-31.24h0a18.3,18.3,0,1,1,12.94,31.24Zm0-33.38a15,15,0,0,0-10.66,4.42h0A15.06,15.06,0,1,0,197.82,65ZM186,68.25Z" transform="translate(-27.91 -43.64)"/><path class="g" d="M205.07,118.46h0l-12.59,0a1.62,1.62,0,0,1-1.6-1.62v-8.36a28.34,28.34,0,0,1-6.13-2.27L179,111.92a1.61,1.61,0,0,1-2.28,0l-8.87-8.87a1.61,1.61,0,0,1,0-2.27l5.29-5.3a28.82,28.82,0,0,1-3-6.51L163,89h0a1.66,1.66,0,0,1-1.14-.52,1.68,1.68,0,0,1-.47-1.17V74.76a1.51,1.51,0,0,1,.47-1.13,1.6,1.6,0,0,1,1.13-.46h6.61A31.54,31.54,0,0,1,172.43,66l-4.61-4.62a1.61,1.61,0,0,1,0-2.27l9-9a1.61,1.61,0,0,1,2.28,0l4.6,4.6a29.33,29.33,0,0,1,7.19-2.86V45.26a1.62,1.62,0,0,1,1.61-1.62h12.58a1.61,1.61,0,0,1,1.14.47,1.63,1.63,0,0,1,.47,1.14v7.09a29.7,29.7,0,0,1,6.56,3l5.24-5.25a1.61,1.61,0,0,1,2.28,0L229.63,59a1.61,1.61,0,0,1,.47,1.14,1.63,1.63,0,0,1-.47,1.14L223.9,67a27.91,27.91,0,0,1,2.26,6.15l8.39,0h0a1.58,1.58,0,0,1,1.13.44,1.56,1.56,0,0,1,.48,1.13V87.31a1.49,1.49,0,0,1-.47,1.08,1.58,1.58,0,0,1-1.14.41h0l-8.85,0a28.48,28.48,0,0,1-2.33,5.5l6.26,6.28a1.63,1.63,0,0,1,.47,1.14,1.61,1.61,0,0,1-.47,1.14l-9,9a1.61,1.61,0,0,1-2.28,0l-6.26-6.26a28.54,28.54,0,0,1-5.43,2.32l0,8.78a1.75,1.75,0,0,1-.47,1.19A1.65,1.65,0,0,1,205.07,118.46Zm-11-3.31h9.37l0-8.39a1.61,1.61,0,0,1,1.2-1.56,24.84,24.84,0,0,0,6.85-2.94,1.62,1.62,0,0,1,2,.23l6,6,6.73-6.73-6-6a1.6,1.6,0,0,1-.23-2,25.6,25.6,0,0,0,3-7,1.65,1.65,0,0,1,1.55-1.25h0l8.45.06V76.33l-8.07.06h0a1.63,1.63,0,0,1-1.58-1.32,25.3,25.3,0,0,0-2.77-7.57,1.62,1.62,0,0,1,.26-1.94l5.44-5.44-6.6-6.59-5,5a1.61,1.61,0,0,1-2,.2,26.35,26.35,0,0,0-7.9-3.65,1.62,1.62,0,0,1-1.19-1.56V46.86H194.1v6.28a1.62,1.62,0,0,1-1.29,1.58,26,26,0,0,0-8.53,3.38,1.6,1.6,0,0,1-2-.23L178,53.52l-6.73,6.73,4.35,4.35a1.62,1.62,0,0,1,.24,2,27.72,27.72,0,0,0-3.35,8.52,1.62,1.62,0,0,1-1.58,1.3h0l-6.27,0v9.29l6.69-.07h0a1.67,1.67,0,0,1,1.56,1.25,26.4,26.4,0,0,0,3.63,7.94,1.63,1.63,0,0,1-.19,2.06l-5.08,5.08,6.6,6.59,5.48-5.47a1.6,1.6,0,0,1,1.93-.26,25.08,25.08,0,0,0,7.55,2.78,1.61,1.61,0,0,1,1.29,1.58Z" transform="translate(-27.91 -43.64)"/><path class="g" d="M261.5,132.18H248.77a6,6,0,0,0-5,2.79H216.84a3.37,3.37,0,0,0-3.37,3.38v31.1a3.37,3.37,0,0,0,3.37,3.37H261.5a3.38,3.38,0,0,0,3.38-3.37V135.56A3.39,3.39,0,0,0,261.5,132.18Zm-19.55,6a3.56,3.56,0,0,1-3.13,1.87H215.59v-1.72a1.25,1.25,0,0,1,1.25-1.26h25.71Zm-26.36,4h23.23a5.68,5.68,0,0,0,5-3l1.57-2.89a3.88,3.88,0,0,1,3.39-2H261.5a1.27,1.27,0,0,1,1.26,1.26v33.88a1.26,1.26,0,0,1-1.26,1.25H216.84a1.25,1.25,0,0,1-1.25-1.25Z" transform="translate(-27.91 -43.64)"/><path class="g" d="M233,169.1h2.91a1.06,1.06,0,0,0,0-2.12H233a1.06,1.06,0,0,0,0,2.12Z" transform="translate(-27.91 -43.64)"/><path class="g" d="M240.46,169.1h6a1.06,1.06,0,0,0,0-2.12h-6a1.06,1.06,0,0,0,0,2.12Z" transform="translate(-27.91 -43.64)"/><path class="g" d="M250.38,169.1h8.89a2.05,2.05,0,0,0,2.05-2v-5.82a1.06,1.06,0,1,0-2.12,0V167h-8.82a1.06,1.06,0,0,0,0,2.12Z" transform="translate(-27.91 -43.64)"/><path class="g" d="M37.82,210.65a.81.81,0,0,1-.31-.05l-3.74-1.44a.87.87,0,0,1-.49-1.12l.7-1.82a8.92,8.92,0,0,1-1.3-1.23l-1.82.8a.87.87,0,0,1-1.14-.44l-1.65-3.72a.84.84,0,0,1,0-.66.82.82,0,0,1,.45-.48l1.83-.81a9.25,9.25,0,0,1,0-1.75l-1.83-.68a.9.9,0,0,1-.48-.46.84.84,0,0,1,0-.66l1.44-3.74a.85.85,0,0,1,.45-.48.91.91,0,0,1,.67,0l1.84.72a10,10,0,0,1,1.22-1.29l-.83-1.86a.88.88,0,0,1,.44-1.14l3.7-1.64a.84.84,0,0,1,.66,0,.82.82,0,0,1,.48.45l.82,1.84a8.78,8.78,0,0,1,1.78,0l.7-1.85a.94.94,0,0,1,.46-.48.84.84,0,0,1,.66,0L46.21,188a.9.9,0,0,1,.48.46.84.84,0,0,1,0,.66L46,191a10.55,10.55,0,0,1,1.28,1.22l1.8-.8a.88.88,0,0,1,1.14.44l1.6,3.61a.89.89,0,0,1,0,.66.85.85,0,0,1-.45.48l-1.78.79a10,10,0,0,1,.05,1.81l1.87.74a.87.87,0,0,1,.49,1.12l-1.44,3.74a.83.83,0,0,1-.45.47.84.84,0,0,1-.66,0l-1.85-.71a10.55,10.55,0,0,1-1.22,1.28l.8,1.81a.84.84,0,0,1-.44,1.13l-3.66,1.63a.89.89,0,0,1-.66,0,.87.87,0,0,1-.48-.46l-.8-1.81a9.72,9.72,0,0,1-1.79,0l-.72,1.84A.86.86,0,0,1,37.82,210.65Zm-2.62-2.79,2.12.82L38,207a.86.86,0,0,1,.92-.55,7.5,7.5,0,0,0,2.59-.06.87.87,0,0,1,1,.5l.72,1.62,2.08-.92L44.52,206a.87.87,0,0,1,.27-1,7.72,7.72,0,0,0,1.78-1.87.84.84,0,0,1,1-.32l1.66.64.82-2.14-1.68-.66a.86.86,0,0,1-.54-.92,8,8,0,0,0-.08-2.62.87.87,0,0,1,.5-.95l1.6-.71-.9-2-1.61.72a.87.87,0,0,1-1-.27A8.16,8.16,0,0,0,44.45,192a.85.85,0,0,1-.31-1l.64-1.67-2.13-.82L42,190.18a.86.86,0,0,1-.92.54,7.69,7.69,0,0,0-2.59,0,.88.88,0,0,1-1-.5l-.73-1.65-2.12.94.74,1.68a.85.85,0,0,1-.27,1,7.69,7.69,0,0,0-1.77,1.87.86.86,0,0,1-1,.32l-1.66-.64-.82,2.12,1.65.61a.88.88,0,0,1,.55.93,7.55,7.55,0,0,0,0,2.56.85.85,0,0,1-.5,1l-1.64.73.95,2.14,1.63-.72a.87.87,0,0,1,1,.27,7.57,7.57,0,0,0,1.88,1.78.87.87,0,0,1,.33,1Z" transform="translate(-27.91 -43.64)"/><path class="g" d="M40,203.91a5.34,5.34,0,0,1-1.92-.35,5.32,5.32,0,0,1-.24-9.82h0a5.32,5.32,0,0,1,4.31,9.72A5.38,5.38,0,0,1,40,203.91Zm-1.46-8.59a3.59,3.59,0,1,0,4.73,1.83,3.59,3.59,0,0,0-4.73-1.83Z" transform="translate(-27.91 -43.64)"/><path class="g" d="M246.28,79.68h-3.71a1.11,1.11,0,0,0,0,2.22h3.71a1.11,1.11,0,0,0,0-2.22Z" transform="translate(-27.91 -43.64)"/><path class="g" d="M254.5,83.75a1.12,1.12,0,0,0,1.11-1.11V80.79a1.12,1.12,0,0,0-1.11-1.11h-1.92a1.11,1.11,0,1,0,.07,2.22h.74v.74A1.11,1.11,0,0,0,254.5,83.75Z" transform="translate(-27.91 -43.64)"/><path class="g" d="M254.47,97.05a1.11,1.11,0,0,0-1.08,1.15v3.4a1.11,1.11,0,0,0,1.11,1.11h0a1.12,1.12,0,0,0,1.11-1.11V98.13A1.12,1.12,0,0,0,254.47,97.05Z" transform="translate(-27.91 -43.64)"/><path class="g" d="M254.47,106.53a1.11,1.11,0,0,0-1.08,1.15v3.4a1.11,1.11,0,1,0,2.22,0v-3.47A1.12,1.12,0,0,0,254.47,106.53Z" transform="translate(-27.91 -43.64)"/><path class="g" d="M254.47,87.57a1.11,1.11,0,0,0-1.08,1.15v3.4a1.11,1.11,0,0,0,1.11,1.11h0a1.11,1.11,0,0,0,1.11-1.11V88.65A1.12,1.12,0,0,0,254.47,87.57Z" transform="translate(-27.91 -43.64)"/><path class="g" d="M254.47,114.84a1.11,1.11,0,0,0-1.08,1.14v3.41a1.11,1.11,0,0,0,2.22,0v-3.47A1.11,1.11,0,0,0,254.47,114.84Z" transform="translate(-27.91 -43.64)"/><path class="g" d="M254.47,123a1.11,1.11,0,0,0-1.08,1.14v1.78a1.11,1.11,0,1,0,2.22,0v-1.84A1.11,1.11,0,0,0,254.47,123Z" transform="translate(-27.91 -43.64)"/><circle class="h" cx="130.83" cy="119.99" r="9.12"/><path class="i" d="M158.75,158.21a1.74,1.74,0,0,1,1.53,1,2.18,2.18,0,0,0-.42.33,1.59,1.59,0,0,1-2.23,0,1.91,1.91,0,0,0-.42-.33A1.74,1.74,0,0,1,158.75,158.21Zm1.69,1.52a1.28,1.28,0,0,1,0,.19,2,2,0,0,0,2,2h.19l-.16.19a2.13,2.13,0,0,0,0,3h0a1.56,1.56,0,0,1,.16.2h-.19a2,2,0,0,0-2,2,1.15,1.15,0,0,1,0,.19,1.54,1.54,0,0,1-.19-.17,2.13,2.13,0,0,0-3,0h0l-.2.17a1.15,1.15,0,0,1,0-.19,2,2,0,0,0-2-2h-.19l.16-.2a2.12,2.12,0,0,0,0-3h0a1.46,1.46,0,0,1-.16-.19H155a2,2,0,0,0,2-2,1.28,1.28,0,0,1,0-.19l.2.17a2.12,2.12,0,0,0,3,0h0Zm2.77,2.36a1.72,1.72,0,0,1,0,3.08,1.91,1.91,0,0,0-.33-.42,1.59,1.59,0,0,1,0-2.23A2,2,0,0,0,163.21,162.09Zm-2.93,6a1.72,1.72,0,0,1-2.3.78,1.76,1.76,0,0,1-.77-.78,2.22,2.22,0,0,0,.42-.32,1.59,1.59,0,0,1,2.23,0A2.59,2.59,0,0,0,160.28,168.09Zm-6-2.92a1.73,1.73,0,0,1,0-3.08,2.88,2.88,0,0,0,.33.43,1.53,1.53,0,0,1,.46,1.11,1.62,1.62,0,0,1-.46,1.12A2.78,2.78,0,0,0,154.28,165.17Zm4.47,4.16a2,2,0,0,0,1.78-1.11,2.14,2.14,0,0,0,3-2,2.12,2.12,0,0,0-.17-.83,2,2,0,0,0,.91-2.66,1.91,1.91,0,0,0-.91-.91,2.2,2.2,0,0,0,.17-.83,2.14,2.14,0,0,0-3-2,2,2,0,0,0-1.78-1.13,2,2,0,0,0-1.79,1.13,2.14,2.14,0,0,0-3,2,2.2,2.2,0,0,0,.17.83,2,2,0,0,0,0,3.57,2.12,2.12,0,0,0-.17.83,2.15,2.15,0,0,0,2.14,2.14,2.12,2.12,0,0,0,.83-.17,2,2,0,0,0,1.79,1.11Zm2-1.65a2,2,0,0,0,0-.35,1.72,1.72,0,0,1,1.72-1.71,2,2,0,0,0,.34,0,1.52,1.52,0,0,1,.15.66,1.66,1.66,0,0,1-.46,1.11,1.57,1.57,0,0,1-1.12.46A1.62,1.62,0,0,1,160.71,167.68Zm2.08-6a2,2,0,0,0-.34,0,1.72,1.72,0,0,1-1.72-1.71,2.06,2.06,0,0,0,0-.35,1.59,1.59,0,0,1,1.77.32,1.66,1.66,0,0,1,.46,1.12A1.47,1.47,0,0,1,162.79,161.67Zm-6-2.09c0,.12,0,.23,0,.35a1.71,1.71,0,0,1-1.72,1.71,2,2,0,0,0-.34,0,1.34,1.34,0,0,1-.14-.65,1.57,1.57,0,0,1,2.22-1.44Zm-2.08,6a2,2,0,0,0,.34,0,1.72,1.72,0,0,1,1.72,1.71c0,.12,0,.24,0,.35a1.44,1.44,0,0,1-.65.14,1.56,1.56,0,0,1-1.57-1.56h0A1.38,1.38,0,0,1,154.7,165.59Z" transform="translate(-27.91 -43.64)"/><path class="g" d="M83.86,203.16a12.47,12.47,0,0,0-5.12-5.47A12.82,12.82,0,0,0,72.53,196l-1.87-3.93h0v0L53.49,156.57a13,13,0,0,0,2.56-5.93,12.6,12.6,0,0,0-1.1-7.41,12,12,0,0,0-5.08-5.36,13.08,13.08,0,0,0-7-1.55,1.2,1.2,0,0,0-.87.41,1.24,1.24,0,0,0-.32.92,1.2,1.2,0,0,0,.14.5l5.62,11.63L44.87,152l-3,.51-5.58-11.55a1.21,1.21,0,0,0-.33-.52,1.25,1.25,0,0,0-1.78.1h0l0,.05a12.26,12.26,0,0,0-2,13.68,12.68,12.68,0,0,0,11.22,7.16L60.53,197h0l1.89,4a12.66,12.66,0,0,0-1.37,13.24,12.23,12.23,0,0,0,11.19,7H73l.09,0h0a.74.74,0,0,0,.14,0,1.36,1.36,0,0,0,.29-.06l0,0h0a1.24,1.24,0,0,0,.71-1.21,1.2,1.2,0,0,0-.26-.66l-5.54-11.47,2.28-2.06L74,205l5.64,11.65a1.24,1.24,0,0,0,.72.65,1.23,1.23,0,0,0,1-.06h0a1.31,1.31,0,0,0,.39-.3,13.06,13.06,0,0,0,3.15-6.47A12.05,12.05,0,0,0,83.86,203.16Zm-14.56.36L66,206.45a1.27,1.27,0,0,0-.28,1.49l5.12,10.61a9.7,9.7,0,0,1-7.56-5.46A10.13,10.13,0,0,1,64.85,202h0a1.28,1.28,0,0,0,.2-1.37l-2.24-4.72h0L45.27,159.59a1.27,1.27,0,0,0-1.2-.71,10.12,10.12,0,0,1-9.67-5.72,9.72,9.72,0,0,1,.44-9.34L40,154.44a1.26,1.26,0,0,0,1.13.71.75.75,0,0,0,.21,0l4.33-.72a1.28,1.28,0,0,0,.33-.11,1.34,1.34,0,0,0,.28-.18l3.53-3.07a1.27,1.27,0,0,0,.31-1.5L45,138.92a9.7,9.7,0,0,1,7.72,5.41,10.27,10.27,0,0,1-1.62,11.22,1.26,1.26,0,0,0-.19,1.39l17.51,36.21h0l2.21,4.66a1.27,1.27,0,0,0,1.22.72,10.16,10.16,0,0,1,9.78,5.71,9.7,9.7,0,0,1-.57,9.44l-5.14-10.64a1.26,1.26,0,0,0-1.37-.69l-4.6.85A1.27,1.27,0,0,0,69.3,203.52Z" transform="translate(-27.91 -43.64)"/><path class="g" d="M55.9,171.28a1.12,1.12,0,0,0-.62-.59,1.07,1.07,0,0,0-.86,0,1.12,1.12,0,0,0-.57,1.47l5.85,13.14a1.12,1.12,0,0,0,1,.67,1.27,1.27,0,0,0,.46-.1,1.12,1.12,0,0,0,.56-1.48Z" transform="translate(-27.91 -43.64)"/><path class="g" d="M252.9,171.9c-.22,0-.43,0-.64,0v48.19h0v8.22a2.62,2.62,0,0,1-2.62,2.62H143.5a2.62,2.62,0,0,1-2.62-2.62V147.67h73.36c-.06-.63-.1-1.25-.13-1.88H140.88v-5.49a2.62,2.62,0,0,1,2.62-2.62H214a4.65,4.65,0,0,1,.85-1.88H143.5a4.51,4.51,0,0,0-4.5,4.5v88a4.51,4.51,0,0,0,4.5,4.5H249.64a4.51,4.51,0,0,0,4.5-4.5V171.77A6,6,0,0,1,252.9,171.9Z" transform="translate(-27.91 -43.64)"/><path class="g" d="M173.69,159.09h31.8a1.32,1.32,0,1,0,0-2.59h-31.8a1.32,1.32,0,1,0,0,2.59Z" transform="translate(-27.91 -43.64)"/><path class="g" d="M205.49,162.33h-31.8a1.32,1.32,0,1,0,0,2.59h31.8a1.32,1.32,0,1,0,0-2.59Z" transform="translate(-27.91 -43.64)"/><path class="g" d="M205.49,168.17h-31.8a1.32,1.32,0,1,0,0,2.58h31.8a1.32,1.32,0,1,0,0-2.58Z" transform="translate(-27.91 -43.64)"/><path class="g" d="M175,191.45v-10a1,1,0,0,0-1.1-.95H150.33a1,1,0,0,0-1.1.95v10a1,1,0,0,0,1.1,1h23.52A1,1,0,0,0,175,191.45Zm-2.2-.94H151.43v-8.14h21.32Z" transform="translate(-27.91 -43.64)"/><path class="g" d="M209.37,191.45v-10a1,1,0,0,0-1.1-.95H184.75a1,1,0,0,0-1.1.95v10a1,1,0,0,0,1.1,1h23.52A1,1,0,0,0,209.37,191.45Zm-2.2-.94H185.85v-8.14h21.32Z" transform="translate(-27.91 -43.64)"/><path class="g" d="M243.78,191.45v-10a1,1,0,0,0-1.1-.95H219.16a1,1,0,0,0-1.1.95v10a1,1,0,0,0,1.1,1h23.52A1,1,0,0,0,243.78,191.45Zm-2.2-.94H220.26v-8.14h21.32Z" transform="translate(-27.91 -43.64)"/><path class="g" d="M152.32,222.07a.94.94,0,0,0,.94-.93v-3.31h1.21a.94.94,0,0,0,0-1.88h-1.21V199.74a.94.94,0,1,0-1.87,0V216h-1.22a.94.94,0,0,0,0,1.88h1.22v3.31A.93.93,0,0,0,152.32,222.07Z" transform="translate(-27.91 -43.64)"/><path class="g" d="M158.83,222.07a.94.94,0,0,0,.94-.93V204.48H161a.94.94,0,0,0,0-1.88h-1.21v-2.86a.94.94,0,1,0-1.88,0v2.86h-1.21a.94.94,0,0,0,0,1.88h1.21v16.66A.94.94,0,0,0,158.83,222.07Z" transform="translate(-27.91 -43.64)"/><path class="g" d="M165.34,222.07a.94.94,0,0,0,.94-.93v-9.71h1.21a.94.94,0,0,0,0-1.88h-1.21v-9.81a.94.94,0,0,0-1.88,0v9.81h-1.21a.94.94,0,0,0,0,1.88h1.21v9.71A.94.94,0,0,0,165.34,222.07Z" transform="translate(-27.91 -43.64)"/><path class="g" d="M243.74,221V204.4c0-1.4-.42-1.82-.94-1.82h-4.3a.94.94,0,0,0-.94.93v16.74H234V210.13a.93.93,0,0,0-.94-.93h-4.3a.93.93,0,0,0-.94.93v10.12h-3.54V203.51a.94.94,0,0,0-.94-.93h-4.3a.94.94,0,0,0-.94.93v16.74h-3.55V205.72a.94.94,0,0,0-.94-.94h-4.3a.94.94,0,0,0-.94.94v14.53h-3.55V210.13a.92.92,0,0,0-.93-.93h-4.3a.93.93,0,0,0-.94.93v10.12h-3.55V207.93a.94.94,0,0,0-.94-.94h-4.3a.94.94,0,0,0-.94.94v12.32h-3.55v-5.71a.93.93,0,0,0-.93-.93h-4.31a.93.93,0,0,0-.93.93v5.71h-1.78a1,1,0,1,0,0,1.88h65.13a1.08,1.08,0,0,0,1.18-.94.77.77,0,0,0-.07-.26C243.71,220.87,243.74,220.86,243.74,221Zm-4.31-16.5h2.43v15.61a1.37,1.37,0,0,0,0,.19h-2.45Zm-9.72,6.62h2.43v9.18h-2.43ZM220,204.45h2.43v15.8H220Zm-9.72,2.21h2.43v13.59h-2.43Zm-9.73,4.41H203v9.18h-2.43Zm-9.72-2.21h2.42v11.39h-2.42Zm-9.73,6.62h2.43v4.77h-2.43Z" transform="translate(-27.91 -43.64)"/></svg>