<svg xmlns="http://www.w3.org/2000/svg" width="258.36" height="206" viewBox="0 0 258.36 206"><defs><style>.a{opacity:0.35;}.b,.g{fill:#b1d2e9;}.b{opacity:0.7;isolation:isolate;}.c,.d,.j{fill:#fff;}.d{opacity:0.5;}.e{fill:#4266b0;}.f{fill:#e2e2e5;}.h{fill:#3e4449;}.i{fill:#f47523;}.j{fill-rule:evenodd;}</style></defs><title>configuration</title><g class="a"><path class="b" d="M248.4,77.71S162.75,35,107.49,66.18,37.79,180.73,39.13,207.31s39.18,63.3,84.83,35.23S309,116.39,248.4,77.71Z" transform="translate(-19.71 -46.62)"/></g><rect class="c" x="123.07" y="106.06" width="99.41" height="80.18"/><path class="d" d="M194.1,114.63c-7.8-1.9-13.23-7.76-12.79-14.94A15.35,15.35,0,0,1,186,89.55a19.21,19.21,0,0,1,2.31-1.89H59.67v90H196.91v-63.1A5.31,5.31,0,0,1,194.1,114.63Z" transform="translate(-19.71 -46.62)"/><polygon class="e" points="122.34 105.35 122.34 98.27 124.78 95.91 131.85 95.47 195.38 95.91 195.38 105.35 122.34 105.79 122.34 105.35"/><path class="e" d="M52.85,203.64A8.51,8.51,0,0,0,53,201l2.54-1.17-1.41-3.5-2.39,1.09a8.08,8.08,0,0,0-1.84-2l.94-2.37-3.43-1.37-.9,2.25a8,8,0,0,0-2.88,0l-.87-2.16-3.49,1.59.87,2.17a9.17,9.17,0,0,0-2,2.2L36,196.9l-1.43,3.6,2.26.9a8.9,8.9,0,0,0,.1,2.82l-2.41,1.1,1.41,3.5,2.56-1.17a7.61,7.61,0,0,0,1.86,1.73l-1.1,2.75,3.44,1.37,1.13-2.86a7.76,7.76,0,0,0,2.35-.1l1.14,2.82,3.48-1.59L49.62,209a8.58,8.58,0,0,0,1.7-1.76l2.74,1.1,1.44-3.6ZM46.74,206c-2.53,1.16-4.44.64-5.47-1.93s-.81-4.52,1.72-5.67,5.4-.86,6.44,1.71S49.26,204.86,46.74,206Z" transform="translate(-19.71 -46.62)"/><polygon class="f" points="56.88 175.97 56.87 175.94 56.87 175.94 56.88 175.97"/><path class="f" d="M76.65,222.56,76,221.31l.58,1.25Z" transform="translate(-19.71 -46.62)"/><polygon class="f" points="56.87 175.94 56.87 175.94 56.29 174.69 52.9 168.25 56.87 175.94"/><path class="f" d="M58.94,148.65a10.88,10.88,0,0,0-10.51-6.13h0l5.72,12.19-3.45,2.93-4.2.65-5.71-12.17A10.71,10.71,0,0,0,38.92,158a11,11,0,0,0,10.44,6.35l16.57,35.3h0l2.11,4.6a11,11,0,0,0-1.81,12.1,10.68,10.68,0,0,0,10.31,6.18l-4-7.69L76,221.31l-5.13-10.92,3.18-2.8,4.47-.78L84.24,219l.06,0a10.85,10.85,0,0,0,2-12,11.11,11.11,0,0,0-10.57-6.34l-2.1-4.56h0L57,160.84A11.13,11.13,0,0,0,58.94,148.65Z" transform="translate(-19.71 -46.62)"/><path class="f" d="M40.78,146.12h0l0,0Z" transform="translate(-19.71 -46.62)"/><polygon class="g" points="195.38 100.45 195.38 95.47 198.82 94.59 223.76 95.49 227.15 91.6 242 92.61 244.05 94.33 242.64 127.3 243.41 129.09 242 129.09 198.82 130.26 195.85 129.66 194.67 127.3 195.36 101.4 195.38 100.45"/><path class="h" d="M141.74,177.69H65.06a7.19,7.19,0,0,1,.55,2h76.44a11.92,11.92,0,0,1-.29-1.63C141.74,178,141.75,177.83,141.74,177.69Z" transform="translate(-19.71 -46.62)"/><path class="h" d="M62.4,72.41a5.05,5.05,0,0,0-5,5V147a4.43,4.43,0,0,1,1.8,3.76v1c.08.06.15.14.23.21V77.44a3,3,0,0,1,3-3H183.09a20.76,20.76,0,0,1,.66-2Z" transform="translate(-19.71 -46.62)"/><path class="h" d="M196.19,109.67v32.42a4.9,4.9,0,0,1,2-.21V109.7A5.82,5.82,0,0,1,196.19,109.67Z" transform="translate(-19.71 -46.62)"/><path class="h" d="M181.94,85.75H58.57a1,1,0,0,0,0,2H182C182,87.11,182,86.44,181.94,85.75Z" transform="translate(-19.71 -46.62)"/><path class="h" d="M93.19,86.63a1,1,0,0,1-1-1V74.3a1,1,0,0,1,2,0V85.62A1,1,0,0,1,93.19,86.63Z" transform="translate(-19.71 -46.62)"/><path class="h" d="M66,83.21a3.38,3.38,0,1,1,3.39-3.37A3.39,3.39,0,0,1,66,83.21Z" transform="translate(-19.71 -46.62)"/><path class="h" d="M75.48,83.21a3.38,3.38,0,1,1,3.39-3.37A3.39,3.39,0,0,1,75.48,83.21Z" transform="translate(-19.71 -46.62)"/><path class="h" d="M85.05,83.21a3.38,3.38,0,1,1,3.39-3.37A3.39,3.39,0,0,1,85.05,83.21Z" transform="translate(-19.71 -46.62)"/><path class="h" d="M158.82,78.74H98.56a1,1,0,0,1-1-1,1,1,0,0,1,1-1h60.26a1,1,0,0,1,1,1,1,1,0,0,1-1,1Z" transform="translate(-19.71 -46.62)"/><path class="h" d="M138.33,83.46H98.56a1,1,0,0,1-1-1,1,1,0,0,1,1-1h39.77a1,1,0,0,1,0,2Z" transform="translate(-19.71 -46.62)"/><path class="h" d="M99.28,146.33a9.41,9.41,0,1,1,9.4-9.41h0A9.42,9.42,0,0,1,99.28,146.33Zm0-16.78a7.39,7.39,0,1,0,7.39,7.39,7.38,7.38,0,0,0-7.39-7.39Z" transform="translate(-19.71 -46.62)"/><path class="h" d="M99.76,158.8a1,1,0,0,1-1-1,1,1,0,0,1,1-1,21.16,21.16,0,0,0,3.18-.33,1,1,0,0,1,.37,2h0a23,23,0,0,1-3.51.36Zm-6-.73a.84.84,0,0,1-.27,0,21.82,21.82,0,0,1-3.31-1.2,1,1,0,0,1-.5-1.34A1,1,0,0,1,91,155a21.19,21.19,0,0,0,3,1.09,1,1,0,0,1,.72,1.24,1,1,0,0,1-1,.74Zm15.06-1.58a1,1,0,0,1-.48-1.91h0a19.64,19.64,0,0,0,2.72-1.7,1,1,0,0,1,1.42.22,1,1,0,0,1-.22,1.41h0a19.63,19.63,0,0,1-3,1.86.76.76,0,0,1-.46.12Zm-23.3-2.85a1,1,0,0,1-.66-.26,21.8,21.8,0,0,1-2.45-2.54A1,1,0,1,1,84,149.55a18.64,18.64,0,0,0,2.24,2.29,1,1,0,0,1,.09,1.43A1.06,1.06,0,0,1,85.52,153.64ZM116,150.46a1,1,0,0,1-.6-.21,1,1,0,0,1-.2-1.41,20.6,20.6,0,0,0,1.71-2.71,1,1,0,1,1,1.79.93,19.72,19.72,0,0,1-1.89,3,1,1,0,0,1-.81.42ZM80,146.06a1,1,0,0,1-.93-.62A20.88,20.88,0,0,1,78,142.09a1,1,0,0,1,.72-1.24,1,1,0,0,1,1.24.72v0a21.75,21.75,0,0,0,1,3.05,1,1,0,0,1-.54,1.32.89.89,0,0,1-.39.09Zm39.71-4.15h-.19a1,1,0,0,1-.79-1.18h0a20,20,0,0,0,.35-3.18,1,1,0,0,1,2,.05,20.72,20.72,0,0,1-.39,3.51,1,1,0,0,1-1,.82Zm-41.32-5.07h-.05a1,1,0,0,1-1-1.06h0a21.65,21.65,0,0,1,.47-3.5,1,1,0,0,1,1.2-.77,1,1,0,0,1,.77,1.2h0a20.08,20.08,0,0,0-.41,3.17,1,1,0,0,1-1,1Zm41-4.29a1,1,0,0,1-1-.75,17.8,17.8,0,0,0-1.08-3,1,1,0,0,1,.51-1.34,1,1,0,0,1,1.34.52,22.69,22.69,0,0,1,1.18,3.33,1,1,0,0,1-.71,1.24h0l-.27,0ZM81,127.85a1,1,0,0,1-.49-.12,1,1,0,0,1-.39-1.38,22.1,22.1,0,0,1,2-2.94,1,1,0,0,1,1.62,1.2l0,0a20.59,20.59,0,0,0-1.77,2.67,1.08,1.08,0,0,1-.9.53Zm34-3.56a1,1,0,0,1-.77-.35,20.19,20.19,0,0,0-2.28-2.25,1,1,0,0,1,1.23-1.61l.08.06a22.61,22.61,0,0,1,2.52,2.47,1,1,0,0,1-.1,1.42h0a1,1,0,0,1-.67.25Zm-27.8-3.41a1,1,0,0,1-.82-.43,1,1,0,0,1,.24-1.42h0a23.63,23.63,0,0,1,3-1.79,1,1,0,1,1,.88,1.82,20.62,20.62,0,0,0-2.76,1.63.89.89,0,0,1-.57.19Zm20.25-2.12a1.15,1.15,0,0,1-.41-.08,20,20,0,0,0-3-1,1,1,0,0,1,.45-2h0a21.84,21.84,0,0,1,3.34,1.12,1,1,0,0,1,.53,1.31v0a1,1,0,0,1-.92.62Zm-11.58-1.41a1,1,0,0,1-.16-2,20.72,20.72,0,0,1,3.52-.28,1,1,0,0,1,0,2,19,19,0,0,0-3.2.26Z" transform="translate(-19.71 -46.62)"/><path class="h" d="M99.28,166.67a1,1,0,1,1-.06-2h.06A27.73,27.73,0,0,0,127,136.93a1,1,0,0,1,1-1,1,1,0,0,1,1,1,.06.06,0,0,1,0,.06,29.72,29.72,0,0,1-29.72,29.74Z" transform="translate(-19.71 -46.62)"/><path class="h" d="M70.53,138a1,1,0,0,1-1-1,29.74,29.74,0,0,1,29.73-29.74h0a1,1,0,0,1,0,2,27.73,27.73,0,0,0-27.71,27.71,1,1,0,0,1-1,1Z" transform="translate(-19.71 -46.62)"/><path class="h" d="M101.77,189a1,1,0,0,1-1-1v-1.75a1,1,0,0,1,1-1,1,1,0,0,1,1,1v1.75A1,1,0,0,1,101.77,189Z" transform="translate(-19.71 -46.62)"/><path class="h" d="M101.77,219.15a1,1,0,0,1-1-1V214.5a1,1,0,0,1,1-1,1,1,0,0,1,1,1v3.64A1,1,0,0,1,101.77,219.15Zm0-10.11a1,1,0,0,1-1-1v-3.64a1,1,0,0,1,2-.06V208A1,1,0,0,1,101.77,209Zm0-10.11a1,1,0,0,1-1-1v-3.64a1,1,0,1,1,2-.06v3.7a1,1,0,0,1-1,1Z" transform="translate(-19.71 -46.62)"/><path class="h" d="M103.46,227h-1.69a1,1,0,0,1-1-1v-1.68a1,1,0,1,1,2-.06V225h.68a1,1,0,0,1,.06,2Z" transform="translate(-19.71 -46.62)"/><path class="h" d="M128.53,227h-3a1,1,0,0,1-.06-2h3a1,1,0,0,1,1,1,1,1,0,0,1-1,1Zm-8.36,0h-3a1,1,0,0,1,0-2h3a1,1,0,0,1,1,1,1,1,0,0,1-1,1Zm-8.35,0h-3a1,1,0,0,1-.06-2h3a1,1,0,0,1,1,1A1,1,0,0,1,111.82,227Z" transform="translate(-19.71 -46.62)"/><path class="h" d="M135.54,227h-1.75a1,1,0,0,1-.06-2h1.81a1,1,0,0,1,1,1A1,1,0,0,1,135.54,227Z" transform="translate(-19.71 -46.62)"/><path class="h" d="M130.62,244.76a1,1,0,0,1-1-1v-6.07a1,1,0,1,1,2-.05v6.12A1,1,0,0,1,130.62,244.76Z" transform="translate(-19.71 -46.62)"/><path class="h" d="M133.66,241.73h-6.07a1,1,0,0,1-1-1,1,1,0,0,1,1-1h6.13a1,1,0,1,1,.05,2Z" transform="translate(-19.71 -46.62)"/><path class="h" d="M145.47,110.32h-7.09a1.19,1.19,0,0,1,0-2.37h7.09a1.19,1.19,0,0,1,0,2.37Z" transform="translate(-19.71 -46.62)"/><path class="h" d="M152.69,119.49h-11a1.19,1.19,0,0,1,0-2.37h11a1.19,1.19,0,0,1,0,2.37Z" transform="translate(-19.71 -46.62)"/><path class="h" d="M135.18,119.49h-3.89a1.19,1.19,0,0,1,0-2.37h3.89a1.19,1.19,0,1,1,0,2.37Z" transform="translate(-19.71 -46.62)"/><path class="h" d="M166.31,128.66h-24.6a1.19,1.19,0,0,1,0-2.37h24.6a1.19,1.19,0,0,1,0,2.37Z" transform="translate(-19.71 -46.62)"/><path class="h" d="M178,128.66h-3.75a1.19,1.19,0,0,1,0-2.37H178a1.19,1.19,0,0,1,0,2.37Z" transform="translate(-19.71 -46.62)"/><path class="h" d="M128.24,110.32h-9.45a1.19,1.19,0,0,1,0-2.37h9.45a1.19,1.19,0,0,1,0,2.37Z" transform="translate(-19.71 -46.62)"/><path class="i" d="M225.15,81.76a26,26,0,0,0-2.87-7.82l6.4-6.4-8.63-8.63-6,6a27.51,27.51,0,0,0-8.16-3.77V53.08H193.65v7.67a26.52,26.52,0,0,0-8.81,3.5l-5.34-5.34-8.76,8.76L176.09,73a28,28,0,0,0-3.46,8.79l-7.67,0V94L173,94a27.21,27.21,0,0,0,3.75,8.18l-6,6,8.63,8.63,6.44-6.44a26,26,0,0,0,7.81,2.89v9.37h12.25l0-9.73a26.22,26.22,0,0,0,7.09-3l7,7,8.76-8.76-7-7A26.24,26.24,0,0,0,224.79,94h9.78V81.75ZM210.32,98.42a16.24,16.24,0,1,1,0-23A16.25,16.25,0,0,1,210.32,98.42Z" transform="translate(-19.71 -46.62)"/><path class="h" d="M198.83,104.74a17.8,17.8,0,0,1-12.59-30.39h0a17.8,17.8,0,1,1,12.59,30.39Zm0-32.48a14.57,14.57,0,0,0-10.37,4.3h0a14.67,14.67,0,1,0,10.37-4.3Zm-11.48,3.19Z" transform="translate(-19.71 -46.62)"/><path class="h" d="M205.89,124.31h0l-12.25,0a1.58,1.58,0,0,1-1.56-1.59v-8.12a28.14,28.14,0,0,1-6-2.22L180.49,118a1.58,1.58,0,0,1-2.22,0l-8.63-8.63a1.57,1.57,0,0,1-.46-1.11,1.61,1.61,0,0,1,.46-1.11l5.15-5.15a28.19,28.19,0,0,1-2.92-6.34l-6.9.07h0a1.62,1.62,0,0,1-1.11-.51A1.66,1.66,0,0,1,163.4,94V81.79A1.55,1.55,0,0,1,165,80.24h6.42a30.56,30.56,0,0,1,2.75-7l-4.49-4.5a1.56,1.56,0,0,1,0-2.21l8.76-8.77a1.58,1.58,0,0,1,2.22,0l4.48,4.48a28,28,0,0,1,7-2.78V53.08a1.57,1.57,0,0,1,1.57-1.57h12.24a1.57,1.57,0,0,1,1.57,1.57V60a28.83,28.83,0,0,1,6.39,2.94l5.1-5.11a1.58,1.58,0,0,1,2.22,0l8.63,8.63a1.61,1.61,0,0,1,.46,1.11,1.57,1.57,0,0,1-.46,1.11l-5.58,5.57a27.23,27.23,0,0,1,2.2,6l8.16,0h0a1.52,1.52,0,0,1,1.57,1.53V94a1.45,1.45,0,0,1-.46,1,1.52,1.52,0,0,1-1.11.4h0l-8.6,0a27.6,27.6,0,0,1-2.28,5.35l6.1,6.11a1.59,1.59,0,0,1,.46,1.11,1.57,1.57,0,0,1-.46,1.11L221,118a1.58,1.58,0,0,1-2.22,0l-6.09-6.1a27,27,0,0,1-5.28,2.26v8.55a1.66,1.66,0,0,1-.45,1.15A1.61,1.61,0,0,1,205.89,124.31Zm-10.68-3.21h9.11l0-8.16a1.58,1.58,0,0,1,1.17-1.52,24.4,24.4,0,0,0,6.67-2.86,1.56,1.56,0,0,1,1.93.22l5.85,5.85,6.55-6.55-5.85-5.85a1.54,1.54,0,0,1-.22-1.93,24.64,24.64,0,0,0,2.87-6.76,1.63,1.63,0,0,1,1.52-1.22h0l8.22.05V83.32l-7.84.05h0a1.59,1.59,0,0,1-1.53-1.28,24.72,24.72,0,0,0-2.7-7.37,1.56,1.56,0,0,1,.26-1.88l5.29-5.29-6.42-6.42L215.16,66a1.58,1.58,0,0,1-2,.19,25.44,25.44,0,0,0-7.69-3.55,1.57,1.57,0,0,1-1.16-1.52v-6.5h-9.1v6.11A1.57,1.57,0,0,1,194,62.29a25,25,0,0,0-8.3,3.29,1.56,1.56,0,0,1-1.93-.23l-4.23-4.22L173,67.67l4.23,4.23a1.57,1.57,0,0,1,.24,1.92,26.59,26.59,0,0,0-3.26,8.29,1.57,1.57,0,0,1-1.54,1.26h0l-6.11,0v9l6.51-.07h0a1.61,1.61,0,0,1,1.51,1.22,25.82,25.82,0,0,0,3.54,7.72,1.59,1.59,0,0,1-.19,2L173,108.2l6.42,6.42,5.33-5.32a1.56,1.56,0,0,1,1.88-.26,24,24,0,0,0,7.35,2.71,1.57,1.57,0,0,1,1.26,1.54Z" transform="translate(-19.71 -46.62)"/><path class="h" d="M260.8,137.67H248.41a5.79,5.79,0,0,0-4.9,2.71H217.34a3.28,3.28,0,0,0-3.28,3.28v30.27a3.28,3.28,0,0,0,3.28,3.28H260.8a3.29,3.29,0,0,0,3.29-3.28V141A3.29,3.29,0,0,0,260.8,137.67Zm-19,5.84a3.48,3.48,0,0,1-3.05,1.82H216.12v-1.68a1.22,1.22,0,0,1,1.22-1.22h25Zm-25.66,3.88h22.61a5.53,5.53,0,0,0,4.86-2.89l1.53-2.81a3.74,3.74,0,0,1,3.29-2H260.8A1.22,1.22,0,0,1,262,141v33a1.22,1.22,0,0,1-1.22,1.22H217.34a1.22,1.22,0,0,1-1.22-1.22Z" transform="translate(-19.71 -46.62)"/><path class="h" d="M233.08,173.59h2.83a1,1,0,0,0,0-2.07h-2.83a1,1,0,1,0,0,2.07Z" transform="translate(-19.71 -46.62)"/><path class="h" d="M240.32,173.59h5.83a1,1,0,0,0,0-2.07h-5.83a1,1,0,0,0,0,2.07Z" transform="translate(-19.71 -46.62)"/><path class="h" d="M250,173.59h8.65a2,2,0,0,0,2-2v-5.66a1,1,0,1,0-2.06,0v5.59H250a1,1,0,0,0,0,2.07Z" transform="translate(-19.71 -46.62)"/><path class="h" d="M43.14,214a1,1,0,0,1-.3-.05l-3.63-1.4a.85.85,0,0,1-.49-1.09l.69-1.77a8.51,8.51,0,0,1-1.27-1.2l-1.77.78a.85.85,0,0,1-1.11-.43l-1.6-3.62a.83.83,0,0,1,.43-1.11l1.77-.79a9.6,9.6,0,0,1,0-1.7L34.05,201a.83.83,0,0,1-.47-.45.79.79,0,0,1,0-.64l1.4-3.64a.85.85,0,0,1,.44-.47.86.86,0,0,1,.65,0l1.79.69A10.05,10.05,0,0,1,39,195.21l-.81-1.81a.84.84,0,0,1,.43-1.11l3.6-1.59a.84.84,0,0,1,.64,0,.85.85,0,0,1,.47.44l.79,1.79a9.15,9.15,0,0,1,1.74,0l.68-1.79a.85.85,0,0,1,1.09-.49L51.31,192a.84.84,0,0,1,.46.45.83.83,0,0,1,0,.64l-.7,1.81a10.71,10.71,0,0,1,1.24,1.19l1.75-.78a.83.83,0,0,1,1.11.43l1.55,3.51a.83.83,0,0,1,0,.64.85.85,0,0,1-.44.47l-1.74.76a8.78,8.78,0,0,1,.05,1.77l1.83.72a.83.83,0,0,1,.47,1.08l-1.4,3.64a.85.85,0,0,1-.44.47.84.84,0,0,1-.64,0l-1.8-.69a10.05,10.05,0,0,1-1.19,1.25l.78,1.75a.86.86,0,0,1,0,.65.84.84,0,0,1-.45.46l-3.56,1.58a.84.84,0,0,1-.64,0,.85.85,0,0,1-.47-.44l-.78-1.76a9.18,9.18,0,0,1-1.74,0l-.7,1.8A.83.83,0,0,1,43.14,214Zm-2.55-2.72,2.07.8.63-1.62a.83.83,0,0,1,.9-.52,7.88,7.88,0,0,0,2.52-.07.85.85,0,0,1,.93.49l.7,1.58,2-.9-.69-1.58a.84.84,0,0,1,.26-1,7.69,7.69,0,0,0,1.73-1.82.84.84,0,0,1,1-.31l1.62.62.8-2.07-1.64-.65a.85.85,0,0,1-.53-.9,7.76,7.76,0,0,0-.07-2.54.84.84,0,0,1,.48-.93l1.56-.69-.88-2-1.57.7a.85.85,0,0,1-1-.27,7.93,7.93,0,0,0-1.82-1.74.85.85,0,0,1-.3-1l.63-1.62-2.08-.81-.62,1.62a.85.85,0,0,1-.9.53,7.56,7.56,0,0,0-2.52,0,.86.86,0,0,1-.93-.48l-.71-1.61-2.06.92.72,1.63a.84.84,0,0,1-.26,1A7.69,7.69,0,0,0,38.83,198a.84.84,0,0,1-1,.31l-1.62-.62-.79,2.06,1.6.6a.84.84,0,0,1,.54.9,7.15,7.15,0,0,0,0,2.49.85.85,0,0,1-.49.93l-1.6.71.93,2.08,1.59-.7a.85.85,0,0,1,1,.27,7.35,7.35,0,0,0,1.83,1.73.85.85,0,0,1,.32,1Z" transform="translate(-19.71 -46.62)"/><path class="h" d="M45.26,207.47a5.2,5.2,0,0,1-1.86-.35,5.11,5.11,0,0,1-2.86-2.73,5.17,5.17,0,0,1,2.62-6.82h0a5.17,5.17,0,1,1,2.1,9.9Zm-1.41-8.37a3.49,3.49,0,1,0,4.6,1.78,3.5,3.5,0,0,0-4.6-1.78Z" transform="translate(-19.71 -46.62)"/><path class="h" d="M246,86.58h-3.61a1.08,1.08,0,0,0,0,2.16H246a1.08,1.08,0,0,0,0-2.16Z" transform="translate(-19.71 -46.62)"/><path class="h" d="M254,90.54a1.09,1.09,0,0,0,1.08-1.08v-1.8A1.09,1.09,0,0,0,254,86.58h-1.86a1.07,1.07,0,0,0-1.05,1.11,1.08,1.08,0,0,0,1.11,1h.72v.72A1.09,1.09,0,0,0,254,90.54Z" transform="translate(-19.71 -46.62)"/><path class="h" d="M254,103.48a1.1,1.1,0,0,0-1,1.11v3.32A1.09,1.09,0,0,0,254,109h0a1.1,1.1,0,0,0,1.08-1.08v-3.38A1.1,1.1,0,0,0,254,103.48Z" transform="translate(-19.71 -46.62)"/><path class="h" d="M254,112.71a1.09,1.09,0,0,0-1,1.11v3.32a1.09,1.09,0,0,0,2.17,0v-3.38A1.08,1.08,0,0,0,254,112.71Z" transform="translate(-19.71 -46.62)"/><path class="h" d="M254,94.26a1.08,1.08,0,0,0-1,1.11v3.31A1.11,1.11,0,0,0,254,99.77h0a1.1,1.1,0,0,0,1.08-1.09V95.31A1.08,1.08,0,0,0,254,94.26Z" transform="translate(-19.71 -46.62)"/><path class="h" d="M254,120.79a1.08,1.08,0,0,0-1,1.11v3.31a1.09,1.09,0,1,0,2.17,0v-3.37A1.08,1.08,0,0,0,254,120.79Z" transform="translate(-19.71 -46.62)"/><path class="h" d="M254,128.72a1.1,1.1,0,0,0-1,1.11v1.73a1.09,1.09,0,0,0,2.17,0v-1.79A1.08,1.08,0,0,0,254,128.72Z" transform="translate(-19.71 -46.62)"/><path class="h" d="M241.4,58.7a1,1,0,0,1-1-1V51.62a1,1,0,0,1,2-.06v6.13A1,1,0,0,1,241.4,58.7Z" transform="translate(-19.71 -46.62)"/><path class="h" d="M244.43,55.67h-6.07a1,1,0,0,1-1-1,1,1,0,0,1,1-1h6.13a1,1,0,0,1,1,1A1,1,0,0,1,244.43,55.67Z" transform="translate(-19.71 -46.62)"/><path class="h" d="M263.43,75.9a1.33,1.33,0,0,1,1.3-1.36h0a1.32,1.32,0,0,1,1.37,1.28h0a1.33,1.33,0,0,1-1.28,1.37h-.07A1.34,1.34,0,0,1,263.43,75.9Zm-4-.75a1.34,1.34,0,0,1-.05-1.9h0a1.33,1.33,0,0,1,1.89,0h0a1.34,1.34,0,0,1,0,1.89h0a1.38,1.38,0,0,1-1,.41h0A1.27,1.27,0,0,1,259.44,75.15Zm8.73-.21a1.34,1.34,0,0,1-.06-1.89h0A1.34,1.34,0,0,1,270,73h0a1.34,1.34,0,0,1,.05,1.9h0a1.34,1.34,0,0,1-1,.42h0A1.33,1.33,0,0,1,268.17,74.94Zm-11-5a1.36,1.36,0,0,1,1.34-1.38h0a1.35,1.35,0,0,1,1.36,1.35h0a1.36,1.36,0,0,1-1.33,1.39h0A1.38,1.38,0,0,1,257.14,69.89Zm12.26-.33a1.33,1.33,0,0,1,1.29-1.38h0a1.34,1.34,0,0,1,1.41,1.28h0a1.32,1.32,0,0,1-1.26,1.38h-.09a1.32,1.32,0,0,1-1.35-1.27Zm-10.08-3.14a1.34,1.34,0,0,1,0-1.9h0a1.34,1.34,0,0,1,1.9,0h0a1.34,1.34,0,0,1,0,1.9h0a1.35,1.35,0,0,1-1,.4h0a1.36,1.36,0,0,1-.95-.39Zm8.53-.19h0a1.32,1.32,0,0,1-.08-1.89h0a1.35,1.35,0,0,1,1.9-.08h0a1.34,1.34,0,0,1,.08,1.9h0a1.35,1.35,0,0,1-1,.43h0a1.25,1.25,0,0,1-.9-.34Zm-4.57-2.6a1.36,1.36,0,0,1,1.35-1.35h0A1.37,1.37,0,0,1,266,63.63h0A1.36,1.36,0,0,1,264.63,65h0a1.33,1.33,0,0,1-1.35-1.32v0Z" transform="translate(-19.71 -46.62)"/><path class="h" d="M23.78,176.09a1,1,0,0,1-1-1V169a1,1,0,0,1,1-1,1,1,0,0,1,1,1v6.13A1,1,0,0,1,23.78,176.09Z" transform="translate(-19.71 -46.62)"/><path class="h" d="M26.82,173.05H20.75a1,1,0,1,1-.06-2h6.13a1,1,0,1,1,.05,2Z" transform="translate(-19.71 -46.62)"/><path class="h" d="M269.4,214.07a1.32,1.32,0,0,1,1.3-1.36h0a1.32,1.32,0,0,1,1.37,1.28h0a1.32,1.32,0,0,1-1.28,1.36h-.06A1.33,1.33,0,0,1,269.4,214.07Zm-4-.76h0a1.33,1.33,0,0,1,0-1.9h0a1.35,1.35,0,0,1,1.9,0h0a1.35,1.35,0,0,1,0,1.9h0a1.43,1.43,0,0,1-1,.42h0A1.28,1.28,0,0,1,265.41,213.31Zm8.73-.2a1.34,1.34,0,0,1-.05-1.9h0a1.35,1.35,0,0,1,1.9-.06h0a1.36,1.36,0,0,1,.05,1.91h0a1.35,1.35,0,0,1-1,.42h0A1.43,1.43,0,0,1,274.14,213.11Zm-11-5.06a1.35,1.35,0,0,1,1.33-1.37h0a1.35,1.35,0,0,1,1.36,1.35h0a1.35,1.35,0,0,1-1.32,1.39h0A1.37,1.37,0,0,1,263.12,208.05Zm12.25-.32a1.34,1.34,0,0,1,1.29-1.39h0a1.35,1.35,0,0,1,1.4,1.28h0a1.33,1.33,0,0,1-1.26,1.39h-.09a1.34,1.34,0,0,1-1.35-1.28Zm-10.08-3.14a1.34,1.34,0,0,1,0-1.9h0a1.34,1.34,0,0,1,1.9,0h0a1.33,1.33,0,0,1,0,1.89h0a1.37,1.37,0,0,1-1,.4h0a1.33,1.33,0,0,1-.94-.39Zm8.53-.19a1.34,1.34,0,0,1-.08-1.9h0a1.34,1.34,0,0,1,1.9-.08h0a1.34,1.34,0,0,1,.08,1.9h0a1.39,1.39,0,0,1-1,.43h0a1.26,1.26,0,0,1-.9-.35Zm-4.55-2.6a1.32,1.32,0,0,1,1.29-1.35h.07A1.39,1.39,0,0,1,272,201.8h0a1.35,1.35,0,0,1-1.35,1.35h0a1.36,1.36,0,0,1-1.35-1.34h0Z" transform="translate(-19.71 -46.62)"/><circle class="i" cx="141.1" cy="121.64" r="8.87"/><path class="j" d="M160.81,163a1.68,1.68,0,0,1,1.5.92,2.64,2.64,0,0,0-.41.32,1.53,1.53,0,0,1-2.17,0,2.15,2.15,0,0,0-.41-.32A1.67,1.67,0,0,1,160.81,163Zm1.65,1.48a1,1,0,0,1,0,.18,1.94,1.94,0,0,0,1.95,1.94h.18c0,.07-.11.13-.16.19a2.07,2.07,0,0,0,0,2.93h0a1,1,0,0,1,.16.19h-.18a1.94,1.94,0,0,0-1.95,1.94,1.09,1.09,0,0,1,0,.18l-.19-.16a2.06,2.06,0,0,0-2.93,0h0l-.19.16a1.08,1.08,0,0,1,0-.18,2,2,0,0,0-1.95-1.94H157a1.46,1.46,0,0,1,.16-.19,2.08,2.08,0,0,0,0-2.94h0a1.46,1.46,0,0,1-.16-.19h.18a2,2,0,0,0,1.95-1.94,1.08,1.08,0,0,1,0-.18,1,1,0,0,1,.19.16,2.08,2.08,0,0,0,2.94,0h0Zm2.7,2.29a1.67,1.67,0,0,1,.75,2.24,1.65,1.65,0,0,1-.75.75,3.22,3.22,0,0,0-.32-.41,1.53,1.53,0,0,1,0-2.17A2.15,2.15,0,0,0,165.16,166.77Zm-2.85,5.84a1.66,1.66,0,0,1-3,0,2.51,2.51,0,0,0,.41-.32,1.55,1.55,0,0,1,2.17,0A2.15,2.15,0,0,0,162.31,172.61Zm-5.84-2.85a1.67,1.67,0,0,1-.76-2.23,1.69,1.69,0,0,1,.76-.76,2.15,2.15,0,0,0,.32.41,1.49,1.49,0,0,1,.44,1.09,1.56,1.56,0,0,1-.44,1.08A2.51,2.51,0,0,0,156.47,169.76Zm4.34,4.05a1.92,1.92,0,0,0,1.74-1.08,2.05,2.05,0,0,0,.81.16,2.08,2.08,0,0,0,2.08-2.08,2.29,2.29,0,0,0-.16-.81,1.94,1.94,0,0,0,0-3.47,2.25,2.25,0,0,0,.16-.81,2.08,2.08,0,0,0-2.08-2.08,2.25,2.25,0,0,0-.81.16,2,2,0,0,0-1.74-1.09,1.93,1.93,0,0,0-1.73,1.09,2.29,2.29,0,0,0-.81-.16,2.08,2.08,0,0,0-2.08,2.08,1.86,1.86,0,0,0,.16.81,1.94,1.94,0,0,0-.89,2.59,1.9,1.9,0,0,0,.89.88,2.09,2.09,0,0,0,2.73,2.73,1.92,1.92,0,0,0,1.73,1.08Zm1.91-1.6a2,2,0,0,0,0-.34,1.67,1.67,0,0,1,1.67-1.67l.33,0a1.52,1.52,0,0,1-.31,1.72,1.46,1.46,0,0,1-1.08.44A1.56,1.56,0,0,1,162.72,172.21Zm2-5.85a1.84,1.84,0,0,0-.33,0,1.66,1.66,0,0,1-1.67-1.67,1.84,1.84,0,0,0,0-.33,1.57,1.57,0,0,1,.64-.14,1.51,1.51,0,0,1,1.08.45,1.53,1.53,0,0,1,.45,1.08A1.57,1.57,0,0,1,164.75,166.36Zm-5.85-2c0,.11,0,.22,0,.33a1.67,1.67,0,0,1-1.67,1.67,2,2,0,0,0-.34,0,1.41,1.41,0,0,1-.13-.64,1.56,1.56,0,0,1,.44-1.08,1.52,1.52,0,0,1,1.72-.31Zm-2,5.85.34,0a1.67,1.67,0,0,1,1.67,1.67c0,.11,0,.22,0,.34a1.37,1.37,0,0,1-.63.13,1.52,1.52,0,0,1-1.53-1.52h0A1.37,1.37,0,0,1,156.87,170.18Z" transform="translate(-19.71 -46.62)"/><path class="h" d="M87.94,206.73a12.22,12.22,0,0,0-5-5.32,12.46,12.46,0,0,0-6.06-1.64L75.1,196h0v0l-16.7-34.53a12.45,12.45,0,0,0,2.49-5.76,12.14,12.14,0,0,0-1.07-7.22,11.71,11.71,0,0,0-5-5.21A12.64,12.64,0,0,0,48,141.69a1.2,1.2,0,0,0-.84.4,1.22,1.22,0,0,0-.31.89,1.37,1.37,0,0,0,.13.5l5.47,11.3L50,156.93l-3,.5-5.43-11.24a1.19,1.19,0,0,0-.32-.51,1.24,1.24,0,0,0-1.74.09v0l0,0a11.94,11.94,0,0,0-1.91,13.32,12.34,12.34,0,0,0,10.92,7l16.71,34.56h0l1.83,3.88a12.32,12.32,0,0,0-1.33,12.89,11.89,11.89,0,0,0,10.88,6.8l.59,0,.1,0,.1,0h0l.14,0a1.11,1.11,0,0,0,.29-.07h0a1.18,1.18,0,0,0,.43-1.82l-5.39-11.16,2.22-2,3.21-.6,5.49,11.34a1.21,1.21,0,0,0,.7.63,1.25,1.25,0,0,0,.93-.06h0a1.1,1.1,0,0,0,.38-.29,12.67,12.67,0,0,0,3.06-6.3A11.71,11.71,0,0,0,87.94,206.73Zm-14.17.35-3.16,2.86a1.22,1.22,0,0,0-.28,1.44l5,10.32A9.42,9.42,0,0,1,68,216.39a9.82,9.82,0,0,1,1.49-10.83h0a1.23,1.23,0,0,0,.19-1.33l-2.18-4.59h0L50.39,164.34a1.21,1.21,0,0,0-1.17-.69,9.85,9.85,0,0,1-9.4-5.57,9.44,9.44,0,0,1,.43-9.09l5,10.33a1.24,1.24,0,0,0,1.11.7l.2,0,4.21-.71a1.39,1.39,0,0,0,.33-.1,1.27,1.27,0,0,0,.27-.18l3.43-3a1.22,1.22,0,0,0,.3-1.46l-5-10.34a9.45,9.45,0,0,1,7.51,5.26A10,10,0,0,1,56,160.4a1.22,1.22,0,0,0-.19,1.35l17,35.24h0L75,201.54a1.23,1.23,0,0,0,1.18.7,9.86,9.86,0,0,1,9.51,5.56,9.43,9.43,0,0,1-.55,9.18l-5-10.36a1.22,1.22,0,0,0-1.33-.67l-4.47.83A1.26,1.26,0,0,0,73.77,207.08Z" transform="translate(-19.71 -46.62)"/><path class="h" d="M60.73,175.71a1.09,1.09,0,0,0-1.43-.55,1.08,1.08,0,0,0-.55,1.44l5.68,12.78a1.09,1.09,0,0,0,1,.65,1,1,0,0,0,.44-.1,1.08,1.08,0,0,0,.55-1.43Z" transform="translate(-19.71 -46.62)"/><path class="h" d="M145.45,60.24a1.33,1.33,0,0,1,1.3-1.36h0a1.34,1.34,0,0,1,1.38,1.29h0a1.33,1.33,0,0,1-1.29,1.36h-.06A1.35,1.35,0,0,1,145.45,60.24Zm-4-.76a1.35,1.35,0,0,1,0-1.9h0a1.34,1.34,0,0,1,1.9,0h0a1.33,1.33,0,0,1,0,1.9h0a1.4,1.4,0,0,1-1,.42h0A1.3,1.3,0,0,1,141.46,59.48Zm8.74-.2a1.34,1.34,0,0,1-.06-1.9h0a1.34,1.34,0,0,1,1.9-.06h0a1.34,1.34,0,0,1,.06,1.9h0a1.31,1.31,0,0,1-1,.41h0A1.28,1.28,0,0,1,150.2,59.28Zm-11-5.06a1.36,1.36,0,0,1,1.34-1.37h0a1.36,1.36,0,0,1,1.36,1.35h0a1.37,1.37,0,0,1-1.33,1.39h0A1.38,1.38,0,0,1,139.17,54.22Zm12.25-.32a1.36,1.36,0,0,1,1.3-1.39h0a1.34,1.34,0,0,1,1.4,1.28h0a1.33,1.33,0,0,1-1.26,1.39h-.09a1.34,1.34,0,0,1-1.35-1.28Zm-10.08-3.14a1.34,1.34,0,0,1,0-1.9h0a1.34,1.34,0,0,1,1.9,0h0a1.34,1.34,0,0,1,0,1.9h0a1.35,1.35,0,0,1-1,.4h0a1.33,1.33,0,0,1-.94-.39Zm8.53-.19h0a1.35,1.35,0,0,1-.08-1.9h0a1.33,1.33,0,0,1,1.9-.08h0a1.34,1.34,0,0,1,.09,1.9h0a1.39,1.39,0,0,1-1,.43h0a1.28,1.28,0,0,1-.91-.35ZM145.31,48a1.34,1.34,0,0,1,1.34-1.35h0A1.34,1.34,0,0,1,148,48h0a1.36,1.36,0,0,1-1.35,1.35h0A1.35,1.35,0,0,1,145.3,48v0Z" transform="translate(-19.71 -46.62)"/><path class="h" d="M61.39,248.07a1.34,1.34,0,0,1,1.3-1.37h0A1.33,1.33,0,0,1,64.08,248h0a1.31,1.31,0,0,1-1.28,1.36h-.06A1.34,1.34,0,0,1,61.39,248.07Zm-4-.76h0a1.33,1.33,0,0,1,0-1.9h0a1.33,1.33,0,0,1,1.9,0h0a1.35,1.35,0,0,1,0,1.9h0a1.43,1.43,0,0,1-1,.42h0A1.34,1.34,0,0,1,57.4,247.31Zm8.73-.2a1.34,1.34,0,0,1,0-1.9h0a1.34,1.34,0,0,1,1.9-.06h0a1.36,1.36,0,0,1,0,1.92h0a1.42,1.42,0,0,1-1,.42h0A1.43,1.43,0,0,1,66.13,247.11Zm-11-5.06a1.34,1.34,0,0,1,1.33-1.37h0A1.35,1.35,0,0,1,57.8,242h0a1.34,1.34,0,0,1-1.32,1.38h0A1.36,1.36,0,0,1,55.11,242.05Zm12.25-.32a1.35,1.35,0,0,1,1.29-1.39h0a1.35,1.35,0,0,1,1.4,1.28h0A1.34,1.34,0,0,1,68.8,243h-.09a1.34,1.34,0,0,1-1.35-1.28Zm-10.08-3.14a1.34,1.34,0,0,1,0-1.9h0a1.34,1.34,0,0,1,1.9,0h0a1.35,1.35,0,0,1,0,1.9h0a1.34,1.34,0,0,1-1,.41h0a1.33,1.33,0,0,1-.94-.39Zm8.53-.19a1.34,1.34,0,0,1-.08-1.9h0a1.33,1.33,0,0,1,1.9-.08h0a1.33,1.33,0,0,1,.08,1.89h0a1.43,1.43,0,0,1-1,.43h0a1.26,1.26,0,0,1-.9-.35Zm-4.55-2.6a1.31,1.31,0,0,1,1.29-1.35h.07A1.39,1.39,0,0,1,64,235.8h0a1.34,1.34,0,0,1-1.34,1.34h0a1.34,1.34,0,0,1-1.36-1.33h0Z" transform="translate(-19.71 -46.62)"/><path class="h" d="M252.43,176.32c-.21,0-.42,0-.62,0v46.9h0v8a2.55,2.55,0,0,1-2.55,2.55H146a2.56,2.56,0,0,1-2.56-2.55V152.74h71.39c-.06-.6-.1-1.21-.13-1.82H143.42v-5.34A2.56,2.56,0,0,1,146,143h68.61a4.71,4.71,0,0,1,.83-1.82H146a4.38,4.38,0,0,0-4.38,4.38v85.58a4.38,4.38,0,0,0,4.38,4.38H249.26a4.38,4.38,0,0,0,4.37-4.38v-55A5.06,5.06,0,0,1,252.43,176.32Z" transform="translate(-19.71 -46.62)"/><path class="h" d="M175.36,163.85h30.93a1.29,1.29,0,1,0,0-2.52H175.36a1.29,1.29,0,1,0,0,2.52Z" transform="translate(-19.71 -46.62)"/><path class="h" d="M206.29,167H175.36a1.29,1.29,0,1,0,0,2.52h30.93a1.29,1.29,0,1,0,0-2.52Z" transform="translate(-19.71 -46.62)"/><path class="h" d="M206.29,172.68H175.36a1.29,1.29,0,1,0,0,2.52h30.93a1.29,1.29,0,1,0,0-2.52Z" transform="translate(-19.71 -46.62)"/><path class="h" d="M176.58,195.34v-9.76a1,1,0,0,0-1.07-.93H152.63a1,1,0,0,0-1.07.93v9.76a1,1,0,0,0,1.07.92h22.88A1,1,0,0,0,176.58,195.34Zm-2.14-.92H153.69V186.5h20.75Z" transform="translate(-19.71 -46.62)"/><path class="h" d="M210.07,195.34v-9.76a1,1,0,0,0-1.07-.93H186.11a1,1,0,0,0-1.07.93v9.76a1,1,0,0,0,1.07.92H209A1,1,0,0,0,210.07,195.34Zm-2.14-.92H187.18V186.5h20.75Z" transform="translate(-19.71 -46.62)"/><path class="h" d="M243.56,195.34v-9.76a1,1,0,0,0-1.07-.93H219.6a1,1,0,0,0-1.07.93v9.76a1,1,0,0,0,1.07.92h22.89A1,1,0,0,0,243.56,195.34Zm-2.14-.92H220.67V186.5h20.75Z" transform="translate(-19.71 -46.62)"/><path class="h" d="M154.56,225.13a.9.9,0,0,0,.91-.91V221h1.19a.91.91,0,0,0,0-1.82h-1.19V203.4a.91.91,0,1,0-1.82,0v15.78h-1.18a.91.91,0,0,0,0,1.82h1.18v3.22A.91.91,0,0,0,154.56,225.13Z" transform="translate(-19.71 -46.62)"/><path class="h" d="M160.9,225.13a.91.91,0,0,0,.91-.91V208H163a.91.91,0,0,0,0-1.82h-1.18V203.4a.92.92,0,0,0-1.83,0v2.79H158.8a.91.91,0,1,0,0,1.82H160v16.21A.91.91,0,0,0,160.9,225.13Z" transform="translate(-19.71 -46.62)"/><path class="h" d="M167.23,225.13a.91.91,0,0,0,.91-.91v-9.44h1.18a.92.92,0,0,0,0-1.83h-1.18V203.4a.91.91,0,0,0-1.82,0V213h-1.19a.92.92,0,0,0,0,1.83h1.19v9.44A.9.9,0,0,0,167.23,225.13Z" transform="translate(-19.71 -46.62)"/><path class="h" d="M243.51,224V207.93c0-1.36-.41-1.77-.91-1.77h-4.19a.92.92,0,0,0-.91.92v16.28h-3.45v-9.84a.92.92,0,0,0-.91-.92H229a.92.92,0,0,0-.91.92v9.84h-3.45V207.08a.92.92,0,0,0-.92-.92h-4.18a.91.91,0,0,0-.91.92v16.28h-3.46V209.22a.91.91,0,0,0-.91-.91H210a.91.91,0,0,0-.91.91v14.14h-3.45v-9.84a.92.92,0,0,0-.91-.92h-4.19a.92.92,0,0,0-.91.92v9.84H196.2v-12a.91.91,0,0,0-.92-.91H191.1a.9.9,0,0,0-.91.91v12h-3.46v-5.55a.91.91,0,0,0-.91-.91h-4.19a.91.91,0,0,0-.91.91v5.55H179a.94.94,0,1,0,0,1.83h63.37a1,1,0,0,0,1.14-.91.76.76,0,0,0-.06-.26C243.49,224,243.51,224,243.51,224Zm-4.18-16h2.36v15.19a1.15,1.15,0,0,0,0,.18h-2.37Zm-9.47,6.44h2.36v8.93h-2.36ZM220.4,208h2.36v15.37H220.4Zm-9.46,2.14h2.36v13.23h-2.36Zm-9.47,4.3h2.36v8.93h-2.36ZM192,212.28h2.36v11.08H192Zm-9.46,6.44h2.36v4.64h-2.36Z" transform="translate(-19.71 -46.62)"/></svg>