<svg xmlns="http://www.w3.org/2000/svg" width="245.52" height="203.91" viewBox="0 0 245.52 203.91"><defs><style>.a{opacity:0.35;}.b,.g{fill:#b1d2e9;}.b{opacity:0.7;isolation:isolate;}.c{fill:#e2e2e5;}.d,.h,.j{fill:#fff;}.d{opacity:0.5;}.e{fill:#3e4449;}.f{fill:#4266b0;}.i{fill:#f47523;}.j{fill-rule:evenodd;}</style></defs><title>development</title><g class="a"><path class="b" d="M37.55,176.24s65.88,62.44,124.63,49.4,94.87-84.64,101-109.12-18-68.24-67.21-55.4S-6.71,124.42,37.55,176.24Z" transform="translate(-25.25 -45.21)"/></g><polygon class="c" points="198.35 133.23 52.73 133.24 53.45 121.51 199.78 121.51 198.35 133.23"/><rect class="d" x="52.39" y="33.28" width="146.73" height="86.3"/><path class="e" d="M56.72,173.46a1,1,0,0,1-1-1v-6.19a1,1,0,1,1,1.93,0v6.19A1,1,0,0,1,56.72,173.46Z" transform="translate(-25.25 -45.21)"/><path class="e" d="M59.88,170.44H53.69a1,1,0,0,1,0-1.93h6.19a1,1,0,1,1,0,1.93Z" transform="translate(-25.25 -45.21)"/><polygon class="f" points="216.14 53.13 216.14 47.22 213.34 45.24 205.21 44.87 132.2 45.24 132.2 53.13 216.14 53.5 216.14 53.13"/><path class="e" d="M255.73,100.12a1,1,0,0,1-1-1V93a1,1,0,0,1,1.93,0v6.19A1,1,0,0,1,255.73,100.12Z" transform="translate(-25.25 -45.21)"/><path class="e" d="M258.89,97.09H252.7a1,1,0,0,1,0-1.93h6.19a1,1,0,1,1,0,1.93Z" transform="translate(-25.25 -45.21)"/><path class="e" d="M174.43,64a1.37,1.37,0,0,1,1.34-1.41h0a1.37,1.37,0,0,1,1.41,1.34h0a1.37,1.37,0,0,1-1.34,1.41h0A1.37,1.37,0,0,1,174.43,64Zm-4.08-.79a1.39,1.39,0,0,1,0-2h0a1.36,1.36,0,0,1,1.94,0h0a1.36,1.36,0,0,1,0,1.94h0a1.37,1.37,0,0,1-1,.42h0A1.38,1.38,0,0,1,170.35,63.2Zm8.92-.21a1.38,1.38,0,0,1-.07-2h0a1.39,1.39,0,0,1,2-.06h0a1.39,1.39,0,0,1,.06,2h0a1.4,1.4,0,0,1-1,.43h0A1.35,1.35,0,0,1,179.27,63ZM168,57.8a1.38,1.38,0,0,1,1.36-1.4h0a1.37,1.37,0,0,1,1.39,1.36h0a1.38,1.38,0,0,1-1.36,1.4h0A1.38,1.38,0,0,1,168,57.8Zm12.5-.28h0a1.39,1.39,0,0,1,1.33-1.43h0a1.38,1.38,0,0,1,1.43,1.32h0A1.39,1.39,0,0,1,182,58.84h0A1.38,1.38,0,0,1,180.52,57.52Zm-10.29-3.24a1.36,1.36,0,0,1,0-1.94h0a1.36,1.36,0,0,1,1.94,0h0a1.37,1.37,0,0,1,0,1.94h0a1.4,1.4,0,0,1-1,.41h0A1.36,1.36,0,0,1,170.23,54.28Zm8.71-.18a1.37,1.37,0,0,1-.08-1.94h0a1.37,1.37,0,0,1,1.94-.09h0a1.39,1.39,0,0,1,.09,2h0a1.39,1.39,0,0,1-1,.44h0A1.4,1.4,0,0,1,178.94,54.1Zm-4.67-2.66a1.37,1.37,0,0,1,1.38-1.37h0A1.37,1.37,0,0,1,177,51.44h0a1.37,1.37,0,0,1-1.37,1.38h0A1.38,1.38,0,0,1,174.27,51.44Z" transform="translate(-25.25 -45.21)"/><path class="e" d="M224.62,166.72H78.05a1,1,0,0,1,0-1.93H224.62a1,1,0,1,1,0,1.93Z" transform="translate(-25.25 -45.21)"/><path class="e" d="M134.61,208.42a1,1,0,0,1-1-1V179.79a1,1,0,0,1,1.93,0v27.67A1,1,0,0,1,134.61,208.42Z" transform="translate(-25.25 -45.21)"/><path class="e" d="M168.75,208.42a1,1,0,0,1-1-1V179.79a1,1,0,0,1,1.93,0v27.67A1,1,0,0,1,168.75,208.42Z" transform="translate(-25.25 -45.21)"/><path class="e" d="M183.75,209.11H119.89a1,1,0,1,1,0-1.93h63.86a1,1,0,0,1,0,1.93Z" transform="translate(-25.25 -45.21)"/><path class="e" d="M151.54,175.74a3.25,3.25,0,1,1,3.25-3.25A3.26,3.26,0,0,1,151.54,175.74Zm0-4.57a1.32,1.32,0,1,0,1.32,1.32A1.32,1.32,0,0,0,151.54,171.17Z" transform="translate(-25.25 -45.21)"/><path class="e" d="M219.39,180.31H83.78A6.76,6.76,0,0,1,77,173.55V143.32a1,1,0,0,1,1.93,0v30.23a4.83,4.83,0,0,0,4.83,4.83H219.39a4.83,4.83,0,0,0,4.83-4.83V154.2a1,1,0,1,1,1.93,0v19.35A6.76,6.76,0,0,1,219.39,180.31Z" transform="translate(-25.25 -45.21)"/><path class="e" d="M78,93.53a1,1,0,0,1-1-1V83.75A6.76,6.76,0,0,1,83.78,77H219.39a6.76,6.76,0,0,1,6.76,6.76v5.9a1,1,0,0,1-1.93,0v-5.9a4.84,4.84,0,0,0-4.83-4.84H83.78A4.84,4.84,0,0,0,79,83.75v8.82A1,1,0,0,1,78,93.53Z" transform="translate(-25.25 -45.21)"/><path class="e" d="M78.71,143.12a25.7,25.7,0,1,1,25.69-25.7A25.73,25.73,0,0,1,78.71,143.12Zm0-49.47a23.77,23.77,0,1,0,23.77,23.77A23.8,23.8,0,0,0,78.71,93.65Z" transform="translate(-25.25 -45.21)"/><rect class="d" x="132.76" y="54.07" width="83.87" height="53.12"/><path class="e" d="M237.86,154.33H160.39a4.31,4.31,0,0,1-4.31-4.3V93.41a3.91,3.91,0,0,1,3.9-3.9h78.16a4,4,0,0,1,4,4v56.62A4.24,4.24,0,0,1,237.86,154.33ZM160,91.44a2,2,0,0,0-2,2V150a2.39,2.39,0,0,0,2.38,2.38h77.47a2.31,2.31,0,0,0,2.31-2.32V93.47a2,2,0,0,0-2-2Z" transform="translate(-25.25 -45.21)"/><path class="e" d="M239.9,100H157.05a1,1,0,1,1,0-1.93H239.9a1,1,0,1,1,0,1.93Z" transform="translate(-25.25 -45.21)"/><path class="e" d="M173.15,99.28a1,1,0,0,1-1-1V90.89a1,1,0,1,1,1.92,0v7.43A1,1,0,0,1,173.15,99.28Z" transform="translate(-25.25 -45.21)"/><path class="e" d="M162.52,97a2.23,2.23,0,1,1,2.23-2.23A2.23,2.23,0,0,1,162.52,97Z" transform="translate(-25.25 -45.21)"/><path class="e" d="M167.62,97a2.23,2.23,0,1,1,2.24-2.23A2.23,2.23,0,0,1,167.62,97Z" transform="translate(-25.25 -45.21)"/><path class="e" d="M222.28,95.57H179.89a1,1,0,0,1,0-1.93h42.39a1,1,0,1,1,0,1.93Z" transform="translate(-25.25 -45.21)"/><rect class="c" x="140.85" y="63.7" width="24.39" height="16.17"/><path class="e" d="M241.14,100h-2.48a1,1,0,0,1,0-1.93h2.48a1,1,0,0,1,0,1.93Z" transform="translate(-25.25 -45.21)"/><path class="e" d="M189.87,126H166.16a1,1,0,0,1-1-1V108.92a1,1,0,0,1,1-1h23.71a1,1,0,0,1,1,1v16.13A1,1,0,0,1,189.87,126Zm-22.74-1.93h21.78V109.88H167.13Z" transform="translate(-25.25 -45.21)"/><path class="e" d="M189.14,132.45H166.52c-.75,0-1.35-.43-1.35-1s.6-1,1.35-1h22.62c.75,0,1.35.43,1.35,1S189.89,132.45,189.14,132.45Z" transform="translate(-25.25 -45.21)"/><path class="e" d="M189.14,138.37H166.52c-.75,0-1.35-.43-1.35-1s.6-1,1.35-1h22.62c.75,0,1.35.43,1.35,1S189.89,138.37,189.14,138.37Z" transform="translate(-25.25 -45.21)"/><path class="e" d="M189.14,144.43H166.52c-.75,0-1.35-.44-1.35-1s.6-1,1.35-1h22.62c.75,0,1.35.43,1.35,1S189.89,144.43,189.14,144.43Z" transform="translate(-25.25 -45.21)"/><path class="e" d="M139.38,129H123a1,1,0,1,1,0-1.93h16.37a1,1,0,1,1,0,1.93Z" transform="translate(-25.25 -45.21)"/><path class="e" d="M139.38,109.66H123a1,1,0,1,1,0-1.93h16.37a1,1,0,1,1,0,1.93Z" transform="translate(-25.25 -45.21)"/><path class="e" d="M148.47,119.35H133.19a1,1,0,0,1,0-1.93h15.28a1,1,0,0,1,0,1.93Z" transform="translate(-25.25 -45.21)"/><path class="e" d="M122.18,119.35H116.4a1,1,0,0,1,0-1.93h5.78a1,1,0,0,1,0,1.93Z" transform="translate(-25.25 -45.21)"/><path class="e" d="M147.78,148.42H127.55a1,1,0,1,1,0-1.93h20.23a1,1,0,0,1,0,1.93Z" transform="translate(-25.25 -45.21)"/><path class="e" d="M118.05,148.42h-5.78a1,1,0,0,1,0-1.93h5.78a1,1,0,0,1,0,1.93Z" transform="translate(-25.25 -45.21)"/><path class="e" d="M141.45,100H122.18a1,1,0,0,1,0-1.93h19.27a1,1,0,0,1,0,1.93Z" transform="translate(-25.25 -45.21)"/><path class="e" d="M113.1,100h-6.61a1,1,0,0,1,0-1.93h6.61a1,1,0,0,1,0,1.93Z" transform="translate(-25.25 -45.21)"/><path class="e" d="M141.45,138.73H122.18a1,1,0,0,1,0-1.93h19.27a1,1,0,0,1,0,1.93Z" transform="translate(-25.25 -45.21)"/><path class="e" d="M113.1,138.73h-6.61a1,1,0,0,1,0-1.93h6.61a1,1,0,0,1,0,1.93Z" transform="translate(-25.25 -45.21)"/><circle class="e" cx="52.82" cy="72.01" r="24.84"/><polygon class="g" points="188.96 153.92 188.96 148.16 192.94 147.15 221.76 148.19 225.68 143.69 242.84 144.87 245.21 146.85 243.58 184.95 244.47 187.03 242.84 187.03 192.94 188.37 189.51 187.68 188.14 184.95 188.94 155.02 188.96 153.92"/><path class="e" d="M80.25,221.77H78.6a1,1,0,0,1,0-1.93h1.65a1,1,0,0,1,0,1.93Z" transform="translate(-25.25 -45.21)"/><path class="e" d="M88.37,219.84h-3.3a1,1,0,0,0,0,1.93h3.3a1,1,0,0,0,0-1.93Z" transform="translate(-25.25 -45.21)"/><path class="e" d="M120.3,219.84H117a1,1,0,1,0,0,1.93h3.3a1,1,0,0,0,0-1.93Z" transform="translate(-25.25 -45.21)"/><path class="e" d="M136.27,219.84H133a1,1,0,0,0,0,1.93h3.31a1,1,0,0,0,0-1.93Z" transform="translate(-25.25 -45.21)"/><path class="e" d="M128.28,219.84H125a1,1,0,0,0,0,1.93h3.3a1,1,0,1,0,0-1.93Z" transform="translate(-25.25 -45.21)"/><path class="e" d="M144.25,219.84H141a1,1,0,1,0,0,1.93h3.3a1,1,0,0,0,0-1.93Z" transform="translate(-25.25 -45.21)"/><path class="e" d="M96.35,219.84h-3.3a1,1,0,0,0,0,1.93h3.3a1,1,0,1,0,0-1.93Z" transform="translate(-25.25 -45.21)"/><path class="e" d="M104.34,219.84H101a1,1,0,0,0,0,1.93h3.31a1,1,0,0,0,0-1.93Z" transform="translate(-25.25 -45.21)"/><path class="e" d="M112.32,219.84H109a1,1,0,1,0,0,1.93h3.3a1,1,0,0,0,0-1.93Z" transform="translate(-25.25 -45.21)"/><path class="e" d="M184.16,219.84h-3.3a1,1,0,1,0,0,1.93h3.3a1,1,0,0,0,0-1.93Z" transform="translate(-25.25 -45.21)"/><path class="e" d="M192.14,219.84h-3.3a1,1,0,0,0,0,1.93h3.3a1,1,0,1,0,0-1.93Z" transform="translate(-25.25 -45.21)"/><path class="e" d="M200.13,219.84h-3.31a1,1,0,0,0,0,1.93h3.31a1,1,0,0,0,0-1.93Z" transform="translate(-25.25 -45.21)"/><path class="e" d="M208.11,219.84H204.8a1,1,0,0,0,0,1.93h3.31a1,1,0,0,0,0-1.93Z" transform="translate(-25.25 -45.21)"/><path class="e" d="M160.21,219.84h-3.3a1,1,0,0,0,0,1.93h3.3a1,1,0,1,0,0-1.93Z" transform="translate(-25.25 -45.21)"/><path class="e" d="M176.18,219.84h-3.31a1,1,0,0,0,0,1.93h3.31a1,1,0,0,0,0-1.93Z" transform="translate(-25.25 -45.21)"/><path class="e" d="M152.23,219.84h-3.3a1,1,0,1,0,0,1.93h3.3a1,1,0,0,0,0-1.93Z" transform="translate(-25.25 -45.21)"/><path class="e" d="M168.2,219.84h-3.31a1,1,0,0,0,0,1.93h3.31a1,1,0,0,0,0-1.93Z" transform="translate(-25.25 -45.21)"/><path class="e" d="M256.69,135.62a1,1,0,0,0,1-1v-3.3a1,1,0,0,0-1.92,0v3.3A1,1,0,0,0,256.69,135.62Z" transform="translate(-25.25 -45.21)"/><path class="e" d="M256.69,143.6a1,1,0,0,0,1-1v-3.31a1,1,0,0,0-1.92,0v3.31A1,1,0,0,0,256.69,143.6Z" transform="translate(-25.25 -45.21)"/><path class="e" d="M256.69,151.58a1,1,0,0,0,1-1v-3.31a1,1,0,0,0-1.92,0v3.31A1,1,0,0,0,256.69,151.58Z" transform="translate(-25.25 -45.21)"/><path class="e" d="M256.69,175.53a1,1,0,0,0,1-1v-3.31a1,1,0,1,0-1.92,0v3.31A1,1,0,0,0,256.69,175.53Z" transform="translate(-25.25 -45.21)"/><path class="e" d="M256.69,159.56a1,1,0,0,0,1-1v-3.3a1,1,0,1,0-1.92,0v3.3A1,1,0,0,0,256.69,159.56Z" transform="translate(-25.25 -45.21)"/><path class="e" d="M256.69,183.51a1,1,0,0,0,1-1v-3.31a1,1,0,0,0-1.92,0v3.31A1,1,0,0,0,256.69,183.51Z" transform="translate(-25.25 -45.21)"/><path class="e" d="M256.69,167.55a1,1,0,0,0,1-1v-3.3a1,1,0,0,0-1.92,0v3.3A1,1,0,0,0,256.69,167.55Z" transform="translate(-25.25 -45.21)"/><path class="e" d="M256.69,128.18a1,1,0,0,1-1-1v-.82h-.83a1,1,0,0,1,0-1.93h1.79a1,1,0,0,1,1,1v1.79A1,1,0,0,1,256.69,128.18Z" transform="translate(-25.25 -45.21)"/><path class="e" d="M250.5,126.4h-3.17a1,1,0,0,1,0-1.93h3.17a1,1,0,0,1,0,1.93Z" transform="translate(-25.25 -45.21)"/><path class="e" d="M242.79,126.4h-1.65a1,1,0,1,1,0-1.93h1.65a1,1,0,0,1,0,1.93Z" transform="translate(-25.25 -45.21)"/><path class="h" d="M70.65,109.69a1.15,1.15,0,0,0-1.63,0l-6.71,6.71a1.15,1.15,0,0,0,0,1.64L69,124.75a1.15,1.15,0,0,0,1.63,0,1.15,1.15,0,0,0,0-1.64l-5.89-5.89,5.89-5.89A1.15,1.15,0,0,0,70.65,109.69Z" transform="translate(-25.25 -45.21)"/><path class="h" d="M93.85,116.4l-6.71-6.71a1.18,1.18,0,0,0-1.64,0,1.15,1.15,0,0,0,0,1.64l5.89,5.89-5.89,5.89a1.16,1.16,0,1,0,1.64,1.64L93.85,118a1.16,1.16,0,0,0,0-1.64Z" transform="translate(-25.25 -45.21)"/><path class="h" d="M81.66,109.46a1.17,1.17,0,0,0-.88,0,1.2,1.2,0,0,0-.66.61l-6.2,13.42a1.16,1.16,0,0,0,.57,1.53,1,1,0,0,0,.48.11,1.17,1.17,0,0,0,1.06-.67L82.23,111a1.15,1.15,0,0,0,0-.89A1.13,1.13,0,0,0,81.66,109.46Z" transform="translate(-25.25 -45.21)"/><path class="e" d="M267.3,188.22H252.81a6.4,6.4,0,0,0-5.55,3.21.93.93,0,0,0-.24-.05H216.46a3.48,3.48,0,0,0-3.47,3.47v35.4a3.48,3.48,0,0,0,3.47,3.47H267.3a3.48,3.48,0,0,0,3.47-3.47V191.68A3.47,3.47,0,0,0,267.3,188.22ZM216.46,193h29.91l-1,1.83a4.45,4.45,0,0,1-3.9,2.31H214.65v-2.33A1.81,1.81,0,0,1,216.46,193Zm52.65,37.21a1.81,1.81,0,0,1-1.81,1.81H216.46a1.81,1.81,0,0,1-1.81-1.81V198.84h26.83a6.1,6.1,0,0,0,5.35-3.18l1.79-3.29a4.75,4.75,0,0,1,4.19-2.49H267.3a1.81,1.81,0,0,1,1.81,1.8v38.57Z" transform="translate(-25.25 -45.21)"/><path class="e" d="M238.18,227.83h-3.31a.83.83,0,0,0,0,1.66h3.31a.83.83,0,0,0,0-1.66Z" transform="translate(-25.25 -45.21)"/><path class="e" d="M250.16,227.83h-6.82a.83.83,0,0,0,0,1.66h6.82a.83.83,0,0,0,0-1.66Z" transform="translate(-25.25 -45.21)"/><path class="e" d="M265.89,220.08a.83.83,0,0,0-.83.83v6.63a.3.3,0,0,1-.3.29H254.64a.83.83,0,0,0,0,1.66h10.12a2,2,0,0,0,1.95-2v-6.63A.83.83,0,0,0,265.89,220.08Z" transform="translate(-25.25 -45.21)"/><path class="e" d="M216.09,121.19h0a5.92,5.92,0,1,0,0,11.83h0A5.93,5.93,0,0,0,222,127.1a5.91,5.91,0,0,0-5.91-5.91Zm4,5.92a4,4,0,1,1-4-4h0A4,4,0,0,1,220.12,127.11Z" transform="translate(-25.25 -45.21)"/><path class="e" d="M220.83,137.81a.92.92,0,0,0,.07.71,1,1,0,0,0,.83.52h0a.85.85,0,0,0,.42-.11A14.17,14.17,0,0,0,224,137.8a.94.94,0,0,0,.2-1.32.93.93,0,0,0-.62-.38.92.92,0,0,0-.71.18,11.86,11.86,0,0,1-1.57,1A.93.93,0,0,0,220.83,137.81Z" transform="translate(-25.25 -45.21)"/><path class="e" d="M218.18,138.33a11.23,11.23,0,0,1-1.83.18,1,1,0,0,0-.92,1,.94.94,0,0,0,.94.92h0a13.86,13.86,0,0,0,2.13-.22.94.94,0,0,0,.75-1.1A.93.93,0,0,0,218.18,138.33Z" transform="translate(-25.25 -45.21)"/><path class="e" d="M207.29,134.36a.93.93,0,0,0-1.66.51.9.9,0,0,0,.21.69,12,12,0,0,0,1.48,1.54.89.89,0,0,0,.62.24h0a.95.95,0,0,0,.63-1.66A10.72,10.72,0,0,1,207.29,134.36Z" transform="translate(-25.25 -45.21)"/><path class="e" d="M224.71,119.64a.94.94,0,0,0,.71.33h0a1,1,0,0,0,.72-1.57,15.25,15.25,0,0,0-1.52-1.49l-.07,0a.94.94,0,0,0-1.32.17.95.95,0,0,0,.16,1.32A11.4,11.4,0,0,1,224.71,119.64Z" transform="translate(-25.25 -45.21)"/><path class="e" d="M227.79,126.79a1,1,0,0,0-.3.66,10.36,10.36,0,0,1-.2,1.84.94.94,0,0,0,.75,1.1h.18a.94.94,0,0,0,.92-.76,12.75,12.75,0,0,0,.24-2.14,1,1,0,0,0-.91-1A1.06,1.06,0,0,0,227.79,126.79Z" transform="translate(-25.25 -45.21)"/><path class="e" d="M227.11,124.16a.94.94,0,0,0,.91.7h0l.24,0a.9.9,0,0,0,.57-.44.89.89,0,0,0,.09-.71,13.12,13.12,0,0,0-.72-2,.94.94,0,1,0-1.72.77A9.64,9.64,0,0,1,227.11,124.16Z" transform="translate(-25.25 -45.21)"/><path class="e" d="M227.47,132a1,1,0,0,0-.72-.06.93.93,0,0,0-.55.46,11.43,11.43,0,0,1-1,1.56,1,1,0,0,0,.19,1.32.91.91,0,0,0,.57.19h0a.93.93,0,0,0,.75-.38,12.69,12.69,0,0,0,1.15-1.82.88.88,0,0,0,.06-.71A1,1,0,0,0,227.47,132Z" transform="translate(-25.25 -45.21)"/><path class="e" d="M213.07,138.12a10.86,10.86,0,0,1-1.73-.63.94.94,0,0,0-1.27,1.19.93.93,0,0,0,.49.52,12.66,12.66,0,0,0,2,.73.82.82,0,0,0,.26,0h0a.94.94,0,0,0,.91-.7A1,1,0,0,0,213.07,138.12Z" transform="translate(-25.25 -45.21)"/><path class="e" d="M211.57,116.3a1,1,0,0,0,0-.72.91.91,0,0,0-.54-.48,1,1,0,0,0-.72,0,13.1,13.1,0,0,0-1.84,1.09.94.94,0,0,0-.23,1.31.9.9,0,0,0,.76.41h0a.82.82,0,0,0,.51-.17,12.08,12.08,0,0,1,1.59-.94A.91.91,0,0,0,211.57,116.3Z" transform="translate(-25.25 -45.21)"/><path class="e" d="M205.57,131.55a11.35,11.35,0,0,1-.58-1.79.95.95,0,0,0-1.83.48,12.17,12.17,0,0,0,.67,2,1,1,0,0,0,.87.58h0a.71.71,0,0,0,.36-.08A1,1,0,0,0,205.57,131.55Z" transform="translate(-25.25 -45.21)"/><path class="e" d="M205.64,118.89a13.57,13.57,0,0,0-1.19,1.79,1,1,0,0,0,.37,1.28.92.92,0,0,0,.45.12h0a1,1,0,0,0,.83-.49,10.16,10.16,0,0,1,1-1.57.94.94,0,0,0-.2-1.32.93.93,0,0,0-.7-.17A.94.94,0,0,0,205.64,118.89Z" transform="translate(-25.25 -45.21)"/><path class="e" d="M203.75,127.4h0a.94.94,0,0,0,.94-.89,11.06,11.06,0,0,1,.24-1.82.93.93,0,0,0-.13-.71.9.9,0,0,0-.59-.41.94.94,0,0,0-.71.12,1,1,0,0,0-.41.59,12.68,12.68,0,0,0-.28,2.13.91.91,0,0,0,.24.68.92.92,0,0,0,.67.31Zm0-.35Z" transform="translate(-25.25 -45.21)"/><path class="e" d="M216.09,113.81A12.7,12.7,0,0,0,214,114a.94.94,0,0,0-.8.93,1,1,0,0,0,.95.94h.15a12.59,12.59,0,0,1,1.85-.15.94.94,0,0,0,.91-.91.93.93,0,0,0-.25-.68A1,1,0,0,0,216.09,113.81Z" transform="translate(-25.25 -45.21)"/><path class="e" d="M218.84,116a12.42,12.42,0,0,1,1.75.59.9.9,0,0,0,.36.08h.22v0a.92.92,0,0,0,.64-.56.93.93,0,0,0-.5-1.23,13.46,13.46,0,0,0-2.06-.69.93.93,0,0,0-.71.12,1,1,0,0,0-.3,1.31A1,1,0,0,0,218.84,116Z" transform="translate(-25.25 -45.21)"/><path class="e" d="M233.74,126.41a.9.9,0,0,0-.67-.26,1,1,0,0,0-.92,1A16.12,16.12,0,0,1,216,143.18a.92.92,0,0,0-.91,1,.92.92,0,0,0,.94.91h0a17.94,17.94,0,0,0,17.94-18A.91.91,0,0,0,233.74,126.41Z" transform="translate(-25.25 -45.21)"/><path class="e" d="M216.09,111.05a.95.95,0,0,0,0-1.89,18,18,0,0,0-17.94,18,1,1,0,0,0,.94.94h0a.92.92,0,0,0,.67-.27.9.9,0,0,0,.27-.67A16.1,16.1,0,0,1,216.09,111.05Z" transform="translate(-25.25 -45.21)"/><path class="f" d="M60.48,194.19H31.6a1,1,0,0,0-1.05,1V199l25.15.1,5.74,5.74L61.61,239h3.57a1,1,0,0,0,1-1V200.12h0l0-.09Z" transform="translate(-25.25 -45.21)"/><path class="e" d="M54.68,216.36h-22a.54.54,0,1,1,0-1.07h22a.54.54,0,0,1,0,1.07Z" transform="translate(-25.25 -45.21)"/><path class="e" d="M54.68,212.66h-22a.54.54,0,1,1,0-1.07h22a.54.54,0,0,1,0,1.07Z" transform="translate(-25.25 -45.21)"/><path class="e" d="M54.68,220h-22a.54.54,0,1,1,0-1.07h22a.54.54,0,0,1,0,1.07Z" transform="translate(-25.25 -45.21)"/><path class="e" d="M54.68,223.71h-22a.54.54,0,1,1,0-1.07h22a.54.54,0,0,1,0,1.07Z" transform="translate(-25.25 -45.21)"/><path class="e" d="M54.68,227.49h-22a.54.54,0,1,1,0-1.07h22a.54.54,0,0,1,0,1.07Z" transform="translate(-25.25 -45.21)"/><path class="e" d="M43.7,231.12h-11a.54.54,0,1,1,0-1.07h11a.54.54,0,0,1,0,1.07Z" transform="translate(-25.25 -45.21)"/><path class="e" d="M36.07,208H32.72a.54.54,0,1,1,0-1.07h3.35a.54.54,0,0,1,0,1.07Z" transform="translate(-25.25 -45.21)"/><path class="e" d="M46.55,208H40.7a.54.54,0,0,1,0-1.07h5.85a.54.54,0,0,1,0,1.07Z" transform="translate(-25.25 -45.21)"/><path class="e" d="M60.45,244.31H26.83a1.58,1.58,0,0,1-1.58-1.58V200a1.58,1.58,0,0,1,1.58-1.58h28.8a.54.54,0,0,1,.54.54v4.82a.5.5,0,0,0,.5.51H61.5a.53.53,0,0,1,.53.53v37.88A1.58,1.58,0,0,1,60.45,244.31ZM26.83,199.52a.51.51,0,0,0-.51.51v42.7a.51.51,0,0,0,.51.51H60.45a.51.51,0,0,0,.51-.51V205.38H56.67a1.57,1.57,0,0,1-1.57-1.57v-4.29Z" transform="translate(-25.25 -45.21)"/><path class="e" d="M61.44,205.32a.54.54,0,0,1-.38-.15l-5.74-5.74a.53.53,0,0,1,0-.75.54.54,0,0,1,.76,0l5.73,5.73a.54.54,0,0,1,0,.76A.53.53,0,0,1,61.44,205.32Z" transform="translate(-25.25 -45.21)"/><path class="e" d="M65.18,239.54H62a.54.54,0,0,1,0-1.07h3.22a.51.51,0,0,0,.51-.51V200.27l-5.44-5.55H31.6a.51.51,0,0,0-.51.51v3.29a.54.54,0,0,1-1.07,0v-3.29a1.58,1.58,0,0,1,1.58-1.58H60.48a.55.55,0,0,1,.38.16l5.72,5.84a.57.57,0,0,1,.12.18l0,.09a.51.51,0,0,1,0,.32V238A1.58,1.58,0,0,1,65.18,239.54Z" transform="translate(-25.25 -45.21)"/><path class="e" d="M70,234.76H66.74a.54.54,0,1,1,0-1.07H70a.51.51,0,0,0,.51-.51V195.49L65,190H36.37a.51.51,0,0,0-.51.51v3.28a.54.54,0,1,1-1.07,0v-3.28a1.58,1.58,0,0,1,1.58-1.58H65.25a.55.55,0,0,1,.38.16l5.73,5.84a.45.45,0,0,1,.11.17l0,.1a.58.58,0,0,1,0,.32v37.71A1.58,1.58,0,0,1,70,234.76Z" transform="translate(-25.25 -45.21)"/><path class="i" d="M255.27,58.28A11.21,11.21,0,0,0,254,54.9l2.77-2.76-3.73-3.73L250.48,51A11.77,11.77,0,0,0,247,49.38V45.89h-5.28v3.32a11.21,11.21,0,0,0-3.8,1.51l-2.31-2.31-3.78,3.79,2.3,2.3a12.24,12.24,0,0,0-1.49,3.79h-3.31v5.28h3.49a11.66,11.66,0,0,0,1.62,3.53l-2.61,2.61,3.72,3.73,2.79-2.78a11.46,11.46,0,0,0,3.37,1.25v4H247v-4.2A11.27,11.27,0,0,0,250,70.43l3,3,3.79-3.78-3-3a10.86,10.86,0,0,0,1.32-3.08h4.23V58.28Zm-6.4,7.19a7,7,0,1,1,0-9.92A7,7,0,0,1,248.87,65.47Z" transform="translate(-25.25 -45.21)"/><path class="e" d="M243.91,68.2a7.69,7.69,0,0,1-5.44-13.12h0a7.67,7.67,0,0,1,10.87,0,7.69,7.69,0,0,1-5.43,13.12Zm0-14A6.29,6.29,0,0,0,239.43,56h0a6.35,6.35,0,1,0,4.48-1.85Zm-5,1.37Z" transform="translate(-25.25 -45.21)"/><path class="e" d="M247,76.66h0l-5.29,0A.69.69,0,0,1,241,76V72.44a11.5,11.5,0,0,1-2.57-1L236,73.91a.68.68,0,0,1-.95,0l-3.73-3.73a.68.68,0,0,1,0-1L233.52,67a12.34,12.34,0,0,1-1.26-2.74l-3,0h0a.69.69,0,0,1-.48-.22.74.74,0,0,1-.2-.49V58.29a.63.63,0,0,1,.2-.47.66.66,0,0,1,.48-.2h2.77a13.21,13.21,0,0,1,1.19-3l-1.94-1.94a.67.67,0,0,1-.2-.48.66.66,0,0,1,.2-.48l3.78-3.79a.69.69,0,0,1,1,0L238,49.87a12.05,12.05,0,0,1,3-1.2V45.89a.67.67,0,0,1,.2-.48.71.71,0,0,1,.48-.19H247a.72.72,0,0,1,.48.2.67.67,0,0,1,.2.48v3a12.28,12.28,0,0,1,2.76,1.27l2.2-2.21a.69.69,0,0,1,1,0l3.72,3.73a.68.68,0,0,1,0,1l-2.4,2.4a12.72,12.72,0,0,1,.95,2.59h3.52a.66.66,0,0,1,.48.19.69.69,0,0,1,.2.47v5.28a.63.63,0,0,1-.2.46.69.69,0,0,1-.48.17h0l-3.72,0a12.15,12.15,0,0,1-1,2.31l2.63,2.64a.67.67,0,0,1,.2.48.66.66,0,0,1-.2.48l-3.78,3.79a.69.69,0,0,1-1,0l-2.63-2.63a11.58,11.58,0,0,1-2.28,1v3.69a.72.72,0,0,1-.2.5A.69.69,0,0,1,247,76.66Zm-4.61-1.39h3.93V71.74a.67.67,0,0,1,.5-.65,10.33,10.33,0,0,0,2.88-1.24.7.7,0,0,1,.84.1L253,72.47l2.83-2.82-2.53-2.53a.67.67,0,0,1-.09-.83,10.6,10.6,0,0,0,1.24-2.93.7.7,0,0,1,.65-.52h0l3.55,0V59l-3.39,0h0a.67.67,0,0,1-.66-.55,10.36,10.36,0,0,0-1.17-3.18.68.68,0,0,1,.11-.81l2.29-2.29-2.77-2.77L251,51.48a.68.68,0,0,1-.86.08A11.22,11.22,0,0,0,246.78,50a.68.68,0,0,1-.51-.65V46.57h-3.94v2.64a.68.68,0,0,1-.54.66,10.83,10.83,0,0,0-3.59,1.42.65.65,0,0,1-.83-.1l-1.83-1.82-2.83,2.83L234.56,54a.68.68,0,0,1,.1.83,12,12,0,0,0-1.41,3.58.67.67,0,0,1-.66.54H230v3.9l2.81,0h0a.7.7,0,0,1,.65.52A11.22,11.22,0,0,0,235,66.7a.68.68,0,0,1-.08.86l-2.14,2.14,2.77,2.77,2.31-2.3a.68.68,0,0,1,.81-.11,10.59,10.59,0,0,0,3.17,1.17.67.67,0,0,1,.55.66Z" transform="translate(-25.25 -45.21)"/><path class="e" d="M87.76,247.78a1.39,1.39,0,0,1,1.35-1.41h0a1.37,1.37,0,0,1,1.41,1.34h0a1.39,1.39,0,0,1-1.35,1.41h0A1.37,1.37,0,0,1,87.76,247.78ZM83.69,247a1.38,1.38,0,0,1,0-2h0a1.38,1.38,0,0,1,1.95,0h0a1.37,1.37,0,0,1,0,1.94h0a1.41,1.41,0,0,1-1,.42h0A1.4,1.4,0,0,1,83.69,247Zm8.91-.21a1.39,1.39,0,0,1-.06-1.95h0a1.39,1.39,0,0,1,1.95-.06h0a1.39,1.39,0,0,1,.06,1.95h0a1.41,1.41,0,0,1-1,.43h0A1.37,1.37,0,0,1,92.6,246.78Zm-11.25-5.19a1.38,1.38,0,0,1,1.36-1.4h0a1.37,1.37,0,0,1,1.39,1.36h0a1.37,1.37,0,0,1-1.35,1.39h0A1.38,1.38,0,0,1,81.35,241.59Zm12.51-.28h0a1.38,1.38,0,0,1,1.32-1.43h0a1.38,1.38,0,0,1,1.43,1.32h0a1.38,1.38,0,0,1-1.32,1.43h-.06A1.38,1.38,0,0,1,93.86,241.31Zm-10.29-3.24a1.36,1.36,0,0,1,0-1.94h0a1.39,1.39,0,0,1,2,0h0a1.38,1.38,0,0,1,0,1.95h0a1.38,1.38,0,0,1-1,.41h0A1.32,1.32,0,0,1,83.57,238.07Zm8.71-.18a1.37,1.37,0,0,1-.09-1.94h0a1.39,1.39,0,0,1,2-.09h0a1.38,1.38,0,0,1,.08,1.95h0a1.38,1.38,0,0,1-1,.44h0A1.38,1.38,0,0,1,92.28,237.89Zm-4.67-2.66A1.37,1.37,0,0,1,89,233.86h0a1.37,1.37,0,0,1,1.38,1.37h0A1.38,1.38,0,0,1,89,236.61h0A1.37,1.37,0,0,1,87.61,235.23Z" transform="translate(-25.25 -45.21)"/><path class="e" d="M57.6,86.08a1.37,1.37,0,0,1,1.34-1.41h0A1.37,1.37,0,0,1,60.35,86h0A1.37,1.37,0,0,1,59,87.42h0A1.37,1.37,0,0,1,57.6,86.08Zm-4.08-.79a1.39,1.39,0,0,1,0-2h0a1.36,1.36,0,0,1,1.94,0h0a1.36,1.36,0,0,1,0,1.94h0a1.37,1.37,0,0,1-1,.42h0A1.42,1.42,0,0,1,53.52,85.29Zm8.92-.21a1.38,1.38,0,0,1-.07-2h0a1.39,1.39,0,0,1,1.95-.06h0a1.39,1.39,0,0,1,.06,2h0a1.4,1.4,0,0,1-1,.43h0A1.35,1.35,0,0,1,62.44,85.08ZM51.19,79.89a1.38,1.38,0,0,1,1.36-1.4h0a1.37,1.37,0,0,1,1.39,1.36h0a1.38,1.38,0,0,1-1.36,1.4h0A1.38,1.38,0,0,1,51.19,79.89Zm12.5-.28h0A1.39,1.39,0,0,1,65,78.18h0a1.38,1.38,0,0,1,1.43,1.32h0a1.39,1.39,0,0,1-1.33,1.43h-.05A1.38,1.38,0,0,1,63.69,79.61ZM53.4,76.37a1.36,1.36,0,0,1,0-1.94h0a1.37,1.37,0,0,1,1.94,0h0a1.39,1.39,0,0,1,0,2h0a1.4,1.4,0,0,1-1,.41h0A1.36,1.36,0,0,1,53.4,76.37Zm8.71-.18A1.37,1.37,0,0,1,62,74.25h0A1.37,1.37,0,0,1,64,74.16h0a1.39,1.39,0,0,1,.09,2h0a1.39,1.39,0,0,1-1,.44h0A1.4,1.4,0,0,1,62.11,76.19Zm-4.67-2.66a1.37,1.37,0,0,1,1.38-1.37h0a1.37,1.37,0,0,1,1.37,1.37h0a1.37,1.37,0,0,1-1.37,1.38h0A1.38,1.38,0,0,1,57.44,73.53Z" transform="translate(-25.25 -45.21)"/><path class="e" d="M40.1,100.05a1,1,0,0,1-1-1v-6.2a1,1,0,0,1,1.93,0v6.2A1,1,0,0,1,40.1,100.05Z" transform="translate(-25.25 -45.21)"/><path class="e" d="M43.26,97H37.07a1,1,0,0,1,0-1.93h6.19a1,1,0,1,1,0,1.93Z" transform="translate(-25.25 -45.21)"/><path class="e" d="M195.77,69.37a1.08,1.08,0,0,1,1.08,1.08v2a1.08,1.08,0,1,1-2.16,0v-2A1.08,1.08,0,0,1,195.77,69.37Z" transform="translate(-25.25 -45.21)"/><path class="e" d="M195.77,59.61h2a1.09,1.09,0,1,1,0,2.17h-.93v.77a1.08,1.08,0,1,1-2.16,0V60.69A1.08,1.08,0,0,1,195.77,59.61Z" transform="translate(-25.25 -45.21)"/><path class="e" d="M203.2,59.61h3.1a1.09,1.09,0,0,1,0,2.17h-3.1a1.09,1.09,0,0,1,0-2.17Zm8.67,0H215a1.09,1.09,0,0,1,0,2.17h-3.1a1.09,1.09,0,0,1,0-2.17Z" transform="translate(-25.25 -45.21)"/><path class="e" d="M220.55,59.61h1.85a1.09,1.09,0,1,1,0,2.17h-1.85a1.09,1.09,0,1,1,0-2.17Z" transform="translate(-25.25 -45.21)"/><circle class="e" cx="189.08" cy="151.89" r="9.38"/><path class="j" d="M214.33,191.54a1.77,1.77,0,0,1,1.58,1,2.38,2.38,0,0,0-.43.34,1.64,1.64,0,0,1-2.3,0,2,2,0,0,0-.43-.34A1.77,1.77,0,0,1,214.33,191.54Zm1.75,1.56a1.2,1.2,0,0,1,0,.19,2.07,2.07,0,0,0,2.06,2.06h.19l-.16.2a2.19,2.19,0,0,0,0,3.1h0a1.56,1.56,0,0,1,.16.2.61.61,0,0,1-.19,0,2.07,2.07,0,0,0-2.06,2.06.61.61,0,0,1,0,.19l-.2-.17a2.19,2.19,0,0,0-3.1,0h0l-.2.17a1.21,1.21,0,0,1,0-.19,2.06,2.06,0,0,0-2.06-2.06.62.62,0,0,1-.19,0l.17-.2a2.19,2.19,0,0,0,0-3.1h0a1.06,1.06,0,0,1-.17-.2h.19a2.06,2.06,0,0,0,2.06-2.06,1.28,1.28,0,0,1,0-.19l.2.18a2.19,2.19,0,0,0,3.1,0h0Zm2.84,2.43a1.77,1.77,0,0,1,.8,2.36,1.72,1.72,0,0,1-.8.8,2.38,2.38,0,0,0-.34-.43,1.62,1.62,0,0,1,0-2.29A2.36,2.36,0,0,0,218.92,195.53Zm-3,6.17a1.77,1.77,0,0,1-2.36.8,1.72,1.72,0,0,1-.8-.8,2.36,2.36,0,0,0,.44-.34,1.62,1.62,0,0,1,2.29,0A2,2,0,0,0,215.91,201.7Zm-6.17-3a1.77,1.77,0,0,1-.8-2.36,1.72,1.72,0,0,1,.8-.8,2.87,2.87,0,0,0,.34.44,1.61,1.61,0,0,1,.47,1.14,1.65,1.65,0,0,1-.47,1.15A2.38,2.38,0,0,0,209.74,198.69Zm4.59,4.28a2.06,2.06,0,0,0,1.84-1.14,2.26,2.26,0,0,0,.85.17,2.21,2.21,0,0,0,2.2-2.2,2.26,2.26,0,0,0-.17-.85,2.06,2.06,0,0,0,0-3.68,2.26,2.26,0,0,0,.17-.85,2.21,2.21,0,0,0-2.2-2.2,2.26,2.26,0,0,0-.85.17,2,2,0,0,0-3.68,0,2.26,2.26,0,0,0-.85-.17,2.2,2.2,0,0,0-2,3.05,2.06,2.06,0,0,0,0,3.68,2.26,2.26,0,0,0-.17.85,2.21,2.21,0,0,0,2.2,2.2,2.26,2.26,0,0,0,.85-.17,2.06,2.06,0,0,0,1.84,1.14Zm2-1.7a1.35,1.35,0,0,0,0-.35,1.77,1.77,0,0,1,1.77-1.76,2,2,0,0,0,.35,0,1.56,1.56,0,0,1,.15.67,1.6,1.6,0,0,1-1.62,1.62A1.56,1.56,0,0,1,216.35,201.27Zm2.14-6.18-.35,0a1.78,1.78,0,0,1-1.77-1.77,2.06,2.06,0,0,0,0-.35,1.56,1.56,0,0,1,.67-.15,1.62,1.62,0,0,1,1.62,1.62A1.56,1.56,0,0,1,218.49,195.09ZM212.31,193a2.06,2.06,0,0,0,0,.35,1.78,1.78,0,0,1-1.77,1.77l-.35,0a1.56,1.56,0,0,1-.15-.67,1.62,1.62,0,0,1,1.62-1.62A1.56,1.56,0,0,1,212.31,193Zm-2.14,6.18a2,2,0,0,0,.35,0,1.77,1.77,0,0,1,1.77,1.76,2,2,0,0,0,0,.35,1.56,1.56,0,0,1-.67.15,1.62,1.62,0,0,1-1.62-1.61h0A1.56,1.56,0,0,1,210.17,199.13Z" transform="translate(-25.25 -45.21)"/></svg>