<svg xmlns="http://www.w3.org/2000/svg" width="250.25" height="200.5" viewBox="0 0 250.25 200.5"><defs><style>.a{opacity:0.35;}.b{fill:#b9e3eb;}.c,.h{fill:#fff;}.c{opacity:0.5;}.d{fill:#f47523;}.e{fill:#3e4449;}.f{fill:#1d243a;}.g{fill:#47a8b5;}.i{fill:#e2e2e5;}</style></defs><title>evaluate</title><g class="a"><path class="b" d="M31.56,200.93s74.71,63.53,137.33,46,97.44-96.84,102.62-123.61S248.08,50.79,195.78,67.5-19.21,147.59,31.56,200.93Z" transform="translate(-21.87 -57.46)"/></g><rect class="c" x="38.8" y="15.96" width="156.85" height="127.31"/><polygon class="d" points="195.66 153.82 218.04 147.09 220.18 148.04 220.81 151.28 220.81 151.93 216.18 153.82 217.46 159.02 226.58 190.43 226.58 193.5 224.78 197.4 222.6 199.17 219.7 199.64 216.87 199.64 214.31 197.87 211.78 195.68 202.07 159.02 200.88 158.06 198.25 158.66 195.66 157.85 194.48 155.4 195.66 153.82"/><path class="e" d="M213.42,203.15H64.93a6.9,6.9,0,0,1-6.85-6.93V77.62a6.78,6.78,0,0,1,6.73-6.8H213.55a6.6,6.6,0,0,1,6.56,6.63V196.38A6.74,6.74,0,0,1,213.42,203.15ZM64.81,73.42a4.13,4.13,0,0,0-4.14,4.12V196.22a4.31,4.31,0,0,0,4.26,4.34H213.42a4.1,4.1,0,0,0,4.1-4.09v-119a4,4,0,0,0-3.89-4H64.81Z" transform="translate(-21.87 -57.46)"/><path class="e" d="M200.59,88.1H60.33A1.3,1.3,0,0,1,59,86.81h0a1.3,1.3,0,0,1,1.3-1.3H200.59a1.3,1.3,0,1,1,0,2.59Z" transform="translate(-21.87 -57.46)"/><path class="e" d="M89.43,87a1.3,1.3,0,0,1-1.29-1.3h0V73.07a1.29,1.29,0,0,1,1.29-1.29h0a1.3,1.3,0,0,1,1.3,1.29V85.68A1.3,1.3,0,0,1,89.43,87Z" transform="translate(-21.87 -57.46)"/><path class="e" d="M69.19,83.14a3.92,3.92,0,1,1,3.91-3.92A3.92,3.92,0,0,1,69.19,83.14Zm0-5.24a1.33,1.33,0,1,0,1.32,1.32,1.33,1.33,0,0,0-1.32-1.32Z" transform="translate(-21.87 -57.46)"/><path class="e" d="M79.72,83.14a3.92,3.92,0,1,1,3.91-3.92A3.93,3.93,0,0,1,79.72,83.14Zm0-5.24A1.33,1.33,0,1,0,81,79.22a1.32,1.32,0,0,0-1.32-1.32Z" transform="translate(-21.87 -57.46)"/><path class="e" d="M176.92,78.08H95.22a1.3,1.3,0,1,1,0-2.59h81.7a1.3,1.3,0,0,1,1.3,1.3h0a1.3,1.3,0,0,1-1.3,1.29Z" transform="translate(-21.87 -57.46)"/><path class="e" d="M139.1,83.26H95.22A1.3,1.3,0,0,1,93.92,82h0a1.3,1.3,0,0,1,1.3-1.3H139.1a1.3,1.3,0,0,1,1.29,1.3h0a1.29,1.29,0,0,1-1.29,1.29Z" transform="translate(-21.87 -57.46)"/><path class="e" d="M217.87,88.1h-7.09a1.29,1.29,0,0,1-1.29-1.29h0a1.3,1.3,0,0,1,1.29-1.3h7.09a1.29,1.29,0,0,1,1.29,1.29h0a1.29,1.29,0,0,1-1.29,1.29Z" transform="translate(-21.87 -57.46)"/><path class="e" d="M211.13,124.46a1.3,1.3,0,0,1-1.29,1.3H68.53a1.3,1.3,0,0,1-1.29-1.3V96.13a1.29,1.29,0,0,1,1.29-1.29h141.3a1.3,1.3,0,0,1,1.3,1.29h0Zm-141.3-1.29H208.54V97.43H69.83Z" transform="translate(-21.87 -57.46)"/><path class="e" d="M98.27,162H75.11a.87.87,0,0,1-.87-.87V138a.87.87,0,0,1,.87-.87H98.27a.87.87,0,0,1,.87.87v23.17A.87.87,0,0,1,98.27,162ZM76,160.28H97.4V138.87H76Z" transform="translate(-21.87 -57.46)"/><path class="e" d="M83.53,147.29a.9.9,0,0,1-.62-.26l-8.42-8.42a.87.87,0,0,1,1.23-1.24l8.43,8.43a.87.87,0,0,1,0,1.23.91.91,0,0,1-.62.26Z" transform="translate(-21.87 -57.46)"/><path class="e" d="M98.27,162a.85.85,0,0,1-.62-.26l-8.42-8.42a.87.87,0,0,1,1.23-1.24l8.43,8.43a.87.87,0,0,1,0,1.23.91.91,0,0,1-.62.26Z" transform="translate(-21.87 -57.46)"/><path class="e" d="M89.84,147.29a.87.87,0,0,1-.87-.88.83.83,0,0,1,.26-.61l8.42-8.43a.88.88,0,0,1,1.24,1.24L90.46,147A.84.84,0,0,1,89.84,147.29Z" transform="translate(-21.87 -57.46)"/><path class="e" d="M75.1,162a.87.87,0,0,1-.87-.88.83.83,0,0,1,.26-.61l8.42-8.43a.88.88,0,0,1,1.24,1.24l-8.43,8.42A.88.88,0,0,1,75.1,162Z" transform="translate(-21.87 -57.46)"/><path class="e" d="M151.6,162H128.43a.87.87,0,0,1-.87-.87V138a.87.87,0,0,1,.87-.87H151.6a.87.87,0,0,1,.87.87v23.17A.87.87,0,0,1,151.6,162Zm-22.3-1.75h21.42V138.87H129.3Z" transform="translate(-21.87 -57.46)"/><path class="e" d="M136.86,147.29a.85.85,0,0,1-.62-.26l-8.42-8.42a.87.87,0,0,1,1.23-1.24l8.43,8.43a.87.87,0,0,1,0,1.23.91.91,0,0,1-.62.26Z" transform="translate(-21.87 -57.46)"/><path class="e" d="M151.6,162a.85.85,0,0,1-.62-.26l-8.42-8.42a.87.87,0,0,1,1.23-1.24l8.42,8.43a.88.88,0,0,1-.61,1.49Z" transform="translate(-21.87 -57.46)"/><path class="e" d="M143.17,147.29a.87.87,0,0,1-.87-.88.83.83,0,0,1,.26-.61l8.42-8.43a.88.88,0,0,1,1.24,1.24L143.79,147A.84.84,0,0,1,143.17,147.29Z" transform="translate(-21.87 -57.46)"/><path class="e" d="M128.43,162a.87.87,0,0,1-.87-.88.83.83,0,0,1,.26-.61l8.42-8.43a.88.88,0,0,1,1.24,0,.87.87,0,0,1,0,1.23v0l-8.43,8.42A.88.88,0,0,1,128.43,162Z" transform="translate(-21.87 -57.46)"/><path class="e" d="M205,162H181.83a.87.87,0,0,1-.87-.87V138a.87.87,0,0,1,.87-.87H205a.87.87,0,0,1,.87.87v23.17A.87.87,0,0,1,205,162Zm-22.3-1.75h21.42V138.87H182.7Z" transform="translate(-21.87 -57.46)"/><path class="e" d="M190.25,147.29a.83.83,0,0,1-.61-.26l-8.43-8.42a.88.88,0,0,1,1.24-1.24l8.42,8.43a.88.88,0,0,1-.62,1.49Z" transform="translate(-21.87 -57.46)"/><path class="e" d="M205,162a.9.9,0,0,1-.62-.26L196,153.35a.87.87,0,0,1,1.23-1.24l8.42,8.43a.85.85,0,0,1,0,1.23.87.87,0,0,1-.61.26Z" transform="translate(-21.87 -57.46)"/><path class="e" d="M196.57,147.29a.87.87,0,0,1-.87-.88.83.83,0,0,1,.26-.61l8.42-8.43a.88.88,0,0,1,1.24,1.24L197.19,147A.88.88,0,0,1,196.57,147.29Z" transform="translate(-21.87 -57.46)"/><path class="e" d="M181.83,162a.87.87,0,0,1-.87-.88.83.83,0,0,1,.26-.61l8.42-8.43a.88.88,0,0,1,1.24,1.24l-8.43,8.42A.88.88,0,0,1,181.83,162Z" transform="translate(-21.87 -57.46)"/><path class="e" d="M105.23,171.51H70.33a.88.88,0,0,1,0-1.75h34.9a.88.88,0,1,1,0,1.75Z" transform="translate(-21.87 -57.46)"/><path class="e" d="M105.23,179.88H70.33a.87.87,0,1,1,0-1.74h34.9a.87.87,0,1,1,0,1.74Z" transform="translate(-21.87 -57.46)"/><path class="e" d="M105.23,188.53H70.33a.87.87,0,0,1,0-1.74h34.9a.87.87,0,1,1,0,1.74Z" transform="translate(-21.87 -57.46)"/><path class="e" d="M157.49,171.51h-34.9a.88.88,0,1,1,0-1.75h34.9a.88.88,0,0,1,0,1.75Z" transform="translate(-21.87 -57.46)"/><path class="e" d="M157.49,179.88h-34.9a.87.87,0,1,1,0-1.74h34.9a.87.87,0,0,1,0,1.74Z" transform="translate(-21.87 -57.46)"/><path class="e" d="M157.49,188.53h-34.9a.87.87,0,1,1,0-1.74h34.9a.87.87,0,0,1,0,1.74Z" transform="translate(-21.87 -57.46)"/><path class="e" d="M210.86,171.51H176a.88.88,0,1,1,0-1.75h34.89a.88.88,0,1,1,0,1.75Z" transform="translate(-21.87 -57.46)"/><path class="e" d="M210.86,179.88H176a.87.87,0,1,1,0-1.74h34.89a.87.87,0,1,1,0,1.74Z" transform="translate(-21.87 -57.46)"/><path class="e" d="M210.86,188.53H176a.87.87,0,1,1,0-1.74h34.89a.87.87,0,1,1,0,1.74Z" transform="translate(-21.87 -57.46)"/><path class="e" d="M142.52,125.31a.73.73,0,0,1-.74-.73.74.74,0,0,1,.22-.52l18.23-18.23a3,3,0,0,1,4.24,0l17.78,17.79a.73.73,0,0,1,0,1,.75.75,0,0,1-1,0l-17.78-17.79a1.55,1.55,0,0,0-2.18,0h0L143,125.09A.72.72,0,0,1,142.52,125.31Z" transform="translate(-21.87 -57.46)"/><path class="e" d="M177.66,119.91a.73.73,0,0,1-.73-.73.75.75,0,0,1,.38-.64l15.07-8.19a3.75,3.75,0,0,1,3.8.13l12.65,8.09a.75.75,0,0,1,.22,1,.73.73,0,0,1-1,.22l-12.65-8.09a2.32,2.32,0,0,0-2.32-.08L178,119.82A.73.73,0,0,1,177.66,119.91Z" transform="translate(-21.87 -57.46)"/><path class="e" d="M181.06,110.47a4.74,4.74,0,1,1,4.74-4.74A4.75,4.75,0,0,1,181.06,110.47Zm0-8a3.29,3.29,0,1,0,3.28,3.29A3.28,3.28,0,0,0,181.06,102.44Z" transform="translate(-21.87 -57.46)"/><path class="f" d="M129.4,107H78.79c-.7,0-1.27-.33-1.27-.74s.57-.73,1.27-.73H129.4c.7,0,1.27.33,1.27.73S130.1,107,129.4,107Z" transform="translate(-21.87 -57.46)"/><path class="f" d="M129.4,114.09H78.79c-.7,0-1.27-.33-1.27-.73s.57-.74,1.27-.74H129.4c.7,0,1.27.33,1.27.74S130.1,114.09,129.4,114.09Z" transform="translate(-21.87 -57.46)"/><circle class="g" cx="186.97" cy="20.19" r="19.09"/><path class="h" d="M207.05,85.26a1.14,1.14,0,0,1-.78-.32l-8.64-8.64a1.1,1.1,0,0,1,0-1.56,1.09,1.09,0,0,1,1.55,0h0l7.87,7.87,11.44-11.45a1.1,1.1,0,0,1,1.56,1.56L207.82,84.94A1.1,1.1,0,0,1,207.05,85.26Z" transform="translate(-21.87 -57.46)"/><path class="e" d="M208.84,97.84A20.19,20.19,0,1,1,229,77.65h0A20.2,20.2,0,0,1,208.84,97.84Zm0-38.19a18,18,0,1,0,18,18h0a18,18,0,0,0-18-18Z" transform="translate(-21.87 -57.46)"/><circle class="i" cx="194.8" cy="106.1" r="30.27"/><path class="e" d="M224.28,190.58A27.85,27.85,0,1,1,241,177.31,27.88,27.88,0,0,1,224.28,190.58Zm-14.86-51.84a26.06,26.06,0,1,0,32.24,17.87A26.07,26.07,0,0,0,209.42,138.74Z" transform="translate(-21.87 -57.46)"/><path class="e" d="M225.38,194.4a31.83,31.83,0,1,1,19.07-15.16A31.83,31.83,0,0,1,225.38,194.4Zm-17.06-59.48a30,30,0,1,0,37.15,20.6,30,30,0,0,0-37.15-20.6Z" transform="translate(-21.87 -57.46)"/><path class="e" d="M229.32,208.7a.89.89,0,0,1-1.11-.62h0l-4.08-14.22a.9.9,0,1,1,1.73-.5h0l4.08,14.23a.9.9,0,0,1-.62,1.11Z" transform="translate(-21.87 -57.46)"/><path class="e" d="M242.13,210.89l-5.69,1.64a.9.9,0,0,1-1.11-.62.91.91,0,0,1,.61-1.12h0l5.69-1.63a.36.36,0,0,0,.25-.44l-.85-2.94a.36.36,0,0,0-.44-.25l-22.26,6.39a.36.36,0,0,0-.25.44l.85,2.94a.36.36,0,0,0,.44.25l10-2.87a.9.9,0,1,1,.5,1.73l-10,2.87a2.15,2.15,0,0,1-2.66-1.48l-.85-2.94a2.16,2.16,0,0,1,1.48-2.67l22.27-6.39a2.17,2.17,0,0,1,2.67,1.48l.84,2.95A2.15,2.15,0,0,1,242.13,210.89Z" transform="translate(-21.87 -57.46)"/><path class="e" d="M243.48,257.63a8.33,8.33,0,0,1-10.29-5.7l-10.44-36.42a.9.9,0,0,1,.62-1.11.89.89,0,0,1,1.11.62l10.45,36.41a6.51,6.51,0,1,0,12.52-3.59L237,211.42a.91.91,0,0,1,.62-1.11.89.89,0,0,1,1.11.62l10.45,36.41A8.33,8.33,0,0,1,243.48,257.63Z" transform="translate(-21.87 -57.46)"/><path class="e" d="M232.35,217.87l-7.29,2.1a.91.91,0,0,1-.5-1.74l7.3-2.09a.9.9,0,0,1,.49,1.73Z" transform="translate(-21.87 -57.46)"/><path class="e" d="M239.28,215.89l-2,.56a.9.9,0,0,1-.5-1.73l2-.57a.91.91,0,0,1,.5,1.74Z" transform="translate(-21.87 -57.46)"/><path class="e" d="M236.86,158.92a.9.9,0,0,1-1.11-.61h0a19.94,19.94,0,0,0-24.64-13.66.9.9,0,0,1-.55-1.71l.06,0a21.75,21.75,0,0,1,26.86,14.89A.9.9,0,0,1,236.86,158.92Z" transform="translate(-21.87 -57.46)"/></svg>