<svg xmlns="http://www.w3.org/2000/svg" width="247.55" height="204.82" viewBox="0 0 247.55 204.82"><defs><style>.a{opacity:0.35;}.b{fill:#b9e3eb;}.c,.h{fill:#fff;}.c{opacity:0.5;}.d{fill:#47a8b5;}.e{fill:#f47523;}.f{fill:#e2e2e5;}.g{fill:#3e4449;}</style></defs><title>extending-services</title><g class="a"><path class="b" d="M34.58,183.6s69.55,65.92,131.58,52.15,100.16-89.36,106.63-115.2-19.05-72-71-58.49S-12.14,128.89,34.58,183.6Z" transform="translate(-26.23 -49.14)"/></g><rect class="c" x="21.28" y="25.77" width="149.27" height="100.06"/><rect class="c" x="110.94" y="86.94" width="112.04" height="84.3"/><rect class="d" x="21.28" y="13.43" width="129.53" height="12.33"/><rect class="d" x="111.19" y="88.6" width="111.34" height="10.26"/><path class="e" d="M235.56,167a10.87,10.87,0,0,0-1.17-3.19l2.61-2.61-3.53-3.52L231,160.09a10.73,10.73,0,0,0-3.33-1.54v-3.3h-5v3.14a10.92,10.92,0,0,0-3.6,1.42l-2.18-2.17-3.57,3.57,2.17,2.18a11.8,11.8,0,0,0-1.41,3.59H211v5h3.3a11.1,11.1,0,0,0,1.53,3.34l-2.46,2.46,3.52,3.53,2.63-2.63a10.62,10.62,0,0,0,3.19,1.18v3.82h5v-4a10.65,10.65,0,0,0,2.89-1.24l2.84,2.84,3.58-3.58-2.84-2.84a10.8,10.8,0,0,0,1.25-2.91h4v-5Zm-6.06,6.81a6.63,6.63,0,1,1,0-9.38A6.63,6.63,0,0,1,229.5,173.77Z" transform="translate(-26.23 -49.14)"/><path class="f" d="M181.76,194.91a9.65,9.65,0,0,0-1.09-3l2.44-2.44-3.29-3.29-2.29,2.29a10.25,10.25,0,0,0-3.11-1.44V184h-4.67v2.92a10.34,10.34,0,0,0-3.36,1.34l-2-2L161,189.54l2,2a10.69,10.69,0,0,0-1.31,3.35h-2.93v4.66h3.07a10.7,10.7,0,0,0,1.43,3.11L161,205l3.29,3.29,2.45-2.45a10,10,0,0,0,3,1.1v3.57h4.67v-3.71a9.71,9.71,0,0,0,2.7-1.16l2.65,2.65,3.34-3.34-2.65-2.65a10,10,0,0,0,1.16-2.72h3.73V194.9Zm-5.65,6.34a6.19,6.19,0,1,1,0-8.75A6.18,6.18,0,0,1,176.11,201.25Z" transform="translate(-26.23 -49.14)"/><path class="b" d="M114,207.77s3.14-6.5,17.66-6.5,21.57,3.94,20.64,6-.92,40.3-.92,40.3-5.57,5.83-18.91,5.83S114,247.55,114,247.55Z" transform="translate(-26.23 -49.14)"/><circle class="g" cx="172.81" cy="30.15" r="30.15"/><path class="h" d="M190,70.15a1.41,1.41,0,0,0-2,0l-8.14,8.14a1.41,1.41,0,0,0,0,2L188,88.43a1.43,1.43,0,0,0,1,.41,1.39,1.39,0,0,0,1-.41,1.41,1.41,0,0,0,0-2l-7.15-7.15L190,72.14A1.41,1.41,0,0,0,190,70.15Z" transform="translate(-26.23 -49.14)"/><path class="h" d="M218.18,78.29,210,70.15a1.44,1.44,0,0,0-2,0,1.41,1.41,0,0,0,0,2l7.14,7.15-7.14,7.15a1.38,1.38,0,0,0-.42,1A1.42,1.42,0,0,0,209,88.84a1.43,1.43,0,0,0,1-.41l8.14-8.15a1.41,1.41,0,0,0,.41-1A1.43,1.43,0,0,0,218.18,78.29Z" transform="translate(-26.23 -49.14)"/><path class="h" d="M203.39,69.87a1.37,1.37,0,0,0-1.07-.05,1.36,1.36,0,0,0-.79.73L194,86.84a1.41,1.41,0,0,0,.69,1.87,1.45,1.45,0,0,0,.59.13,1.41,1.41,0,0,0,1.27-.82l7.53-16.29a1.37,1.37,0,0,0,0-1.07A1.42,1.42,0,0,0,203.39,69.87Z" transform="translate(-26.23 -49.14)"/><path class="g" d="M146.8,220.38a2.92,2.92,0,1,0-2.92-2.92A2.92,2.92,0,0,0,146.8,220.38Zm0-4.14a1.22,1.22,0,1,1-1.21,1.22A1.21,1.21,0,0,1,146.8,216.24Z" transform="translate(-26.23 -49.14)"/><path class="g" d="M143.88,231.29a2.92,2.92,0,1,0,2.92-2.92A2.92,2.92,0,0,0,143.88,231.29Zm2.92-1.22a1.22,1.22,0,1,1-1.21,1.22A1.22,1.22,0,0,1,146.8,230.07Z" transform="translate(-26.23 -49.14)"/><path class="g" d="M143.88,244.63a2.92,2.92,0,1,0,2.92-2.92A2.92,2.92,0,0,0,143.88,244.63Zm2.92-1.22a1.22,1.22,0,1,1-1.21,1.22A1.22,1.22,0,0,1,146.8,243.41Z" transform="translate(-26.23 -49.14)"/><path class="g" d="M54.67,72.13A3.68,3.68,0,1,0,51,68.45,3.69,3.69,0,0,0,54.67,72.13Z" transform="translate(-26.23 -49.14)"/><path class="g" d="M65.05,72.13a3.68,3.68,0,1,0-3.67-3.68A3.68,3.68,0,0,0,65.05,72.13Z" transform="translate(-26.23 -49.14)"/><path class="g" d="M75.47,72.13a3.68,3.68,0,1,0-3.67-3.68A3.67,3.67,0,0,0,75.47,72.13Z" transform="translate(-26.23 -49.14)"/><path class="g" d="M155.82,67.27a1.1,1.1,0,0,0,0-2.2H90.18a1.11,1.11,0,0,0-1.07,1.07,1.09,1.09,0,0,0,1.07,1.13Z" transform="translate(-26.23 -49.14)"/><path class="g" d="M90.18,70.21a1.11,1.11,0,0,0-1.07,1.07,1.1,1.1,0,0,0,1.07,1.13H133.5a1.1,1.1,0,0,0,1.07-1.07,1.11,1.11,0,0,0-1.07-1.13Z" transform="translate(-26.23 -49.14)"/><path class="g" d="M101.21,130.64h0A10.25,10.25,0,1,0,91,140.89,10.25,10.25,0,0,0,101.21,130.64Zm-18.3,0a8,8,0,0,1,8-8h0a8,8,0,1,1-8,8Z" transform="translate(-26.23 -49.14)"/><path class="g" d="M99.47,110.77a1.13,1.13,0,0,0,.45.09h0a1.05,1.05,0,0,0,1-.67v0a1.09,1.09,0,0,0-.58-1.44,24.7,24.7,0,0,0-3.64-1.22h0a1.1,1.1,0,0,0-.49,2.15A22.06,22.06,0,0,1,99.47,110.77Z" transform="translate(-26.23 -49.14)"/><path class="g" d="M112.69,120.88a1.1,1.1,0,1,0-2,.89,20.11,20.11,0,0,1,1.17,3.29,1.1,1.1,0,0,0,1.06.82h0a1.53,1.53,0,0,0,.3,0h0a1.1,1.1,0,0,0,.77-1.35A24.35,24.35,0,0,0,112.69,120.88Z" transform="translate(-26.23 -49.14)"/><path class="g" d="M77.86,113.17a1.07,1.07,0,0,0,.62-.2,20.7,20.7,0,0,1,3-1.78,1.1,1.1,0,0,0-1-2,23.83,23.83,0,0,0-3.3,2h0A1.1,1.1,0,0,0,77,112.7a1.06,1.06,0,0,0,.89.47Z" transform="translate(-26.23 -49.14)"/><path class="g" d="M112.57,131.3a21.18,21.18,0,0,1-.38,3.47h0a1.09,1.09,0,0,0,.87,1.28.69.69,0,0,0,.2,0h0a1.1,1.1,0,0,0,1.09-.89,24.41,24.41,0,0,0,.43-3.82,1.11,1.11,0,0,0-2.21-.06Z" transform="translate(-26.23 -49.14)"/><path class="g" d="M91.46,152.27a1.1,1.1,0,0,0-1.07,1.13,1.08,1.08,0,0,0,1.1,1.07h0a24.49,24.49,0,0,0,3.82-.39,1.11,1.11,0,0,0,.88-1.28,1.09,1.09,0,0,0-1.28-.88A23.59,23.59,0,0,1,91.46,152.27Z" transform="translate(-26.23 -49.14)"/><path class="g" d="M68.2,130.55h.06a1.09,1.09,0,0,0,1.1-1,21,21,0,0,1,.46-3.45,1.11,1.11,0,0,0-.84-1.31,1.1,1.1,0,0,0-1.31.84,23.14,23.14,0,0,0-.51,3.8h0A1.1,1.1,0,0,0,68.2,130.55Z" transform="translate(-26.23 -49.14)"/><path class="g" d="M100.84,149.88h0a1.11,1.11,0,0,0,.53,2.08,1,1,0,0,0,.5-.13,22.45,22.45,0,0,0,3.26-2,1.1,1.1,0,0,0-1.31-1.77A22.68,22.68,0,0,1,100.84,149.88Z" transform="translate(-26.23 -49.14)"/><path class="g" d="M110.12,140.67a22.53,22.53,0,0,1-1.86,3,1.09,1.09,0,0,0,.22,1.54,1.05,1.05,0,0,0,.66.22,1,1,0,0,0,.88-.45,21.94,21.94,0,0,0,2-3.25,1.1,1.1,0,0,0-1.95-1Z" transform="translate(-26.23 -49.14)"/><path class="g" d="M106.25,112.36l-.09-.07a1.11,1.11,0,0,0-1.34,1.76,22.07,22.07,0,0,1,2.48,2.45,1.12,1.12,0,0,0,.84.38h0a1.13,1.13,0,0,0,.73-.27h0a1.1,1.1,0,0,0,.11-1.55A25.79,25.79,0,0,0,106.25,112.36Z" transform="translate(-26.23 -49.14)"/><polygon class="g" points="75.13 102.82 75.13 102.82 75.13 102.82 75.13 102.82"/><path class="g" d="M75.26,148.57a1.07,1.07,0,0,0,.72.28,1.15,1.15,0,0,0,.85-.4,1.12,1.12,0,0,0-.1-1.56,20.5,20.5,0,0,1-2.44-2.49,1.1,1.1,0,0,0-1.55-.15,1.11,1.11,0,0,0-.15,1.56A23.19,23.19,0,0,0,75.26,148.57Z" transform="translate(-26.23 -49.14)"/><path class="g" d="M69,139.92a1.1,1.1,0,0,0,1,.68h0a.91.91,0,0,0,.42-.11,1.09,1.09,0,0,0,.59-1.43,24.31,24.31,0,0,1-1.09-3.32v0a1.1,1.1,0,0,0-2.13.57A23.27,23.27,0,0,0,69,139.92Z" transform="translate(-26.23 -49.14)"/><path class="g" d="M72.05,120.19A20.91,20.91,0,0,1,74,117.28l0,0a1.1,1.1,0,0,0-.24-1.54,1.09,1.09,0,0,0-1.53.24,23.41,23.41,0,0,0-2.13,3.2,1.1,1.1,0,0,0,.42,1.5,1.25,1.25,0,0,0,.53.13h0A1.18,1.18,0,0,0,72.05,120.19Z" transform="translate(-26.23 -49.14)"/><path class="g" d="M86,152.87a1.1,1.1,0,0,0-.77-1.35A22.13,22.13,0,0,1,82,150.33a1.09,1.09,0,1,0-.91,2,23.28,23.28,0,0,0,3.61,1.32,1.55,1.55,0,0,0,.29,0h0A1.09,1.09,0,0,0,86,152.87Z" transform="translate(-26.23 -49.14)"/><path class="g" d="M87.13,107.13a1.12,1.12,0,0,0-.94,1.1,1.1,1.1,0,0,0,1.11,1.09h.18A21.31,21.31,0,0,1,91,109,1.11,1.11,0,0,0,92,108,1.09,1.09,0,0,0,91,106.83,23.36,23.36,0,0,0,87.13,107.13Z" transform="translate(-26.23 -49.14)"/><path class="g" d="M91,163.05h0a32.38,32.38,0,0,0,32.37-32.39v-.07a1.1,1.1,0,1,0-2.2.07A30.21,30.21,0,0,1,91,160.84H90.9a1.11,1.11,0,0,0,.06,2.21Z" transform="translate(-26.23 -49.14)"/><path class="g" d="M90.94,98.26h0a32.39,32.39,0,0,0-32.38,32.4,1.12,1.12,0,0,0,1.1,1.1h0a1.11,1.11,0,0,0,1.1-1.1,30.21,30.21,0,0,1,30.18-30.19,1.11,1.11,0,0,0,0-2.21Z" transform="translate(-26.23 -49.14)"/><path class="g" d="M141.27,99.09h-7.72a1.29,1.29,0,0,0,0,2.57h7.72a1.29,1.29,0,1,0,0-2.57Z" transform="translate(-26.23 -49.14)"/><path class="g" d="M135.9,110.37a1.28,1.28,0,0,0,1.28,1.28h12a1.29,1.29,0,1,0,0-2.57h-12A1.28,1.28,0,0,0,135.9,110.37Z" transform="translate(-26.23 -49.14)"/><path class="g" d="M125.83,109.08a1.29,1.29,0,0,0,0,2.57h4.24a1.29,1.29,0,1,0,0-2.57Z" transform="translate(-26.23 -49.14)"/><path class="g" d="M137.18,121.64H164a1.29,1.29,0,1,0,0-2.57H137.18a1.29,1.29,0,0,0,0,2.57Z" transform="translate(-26.23 -49.14)"/><path class="g" d="M172.6,119.07a1.29,1.29,0,1,0,0,2.57h4.08a1.29,1.29,0,1,0,0-2.57Z" transform="translate(-26.23 -49.14)"/><path class="g" d="M123.79,100.38a1.29,1.29,0,0,0-1.29-1.29H112.21a1.29,1.29,0,0,0,0,2.57H122.5A1.28,1.28,0,0,0,123.79,100.38Z" transform="translate(-26.23 -49.14)"/><path class="g" d="M144.12,145a2.77,2.77,0,1,0-2.77-2.77A2.78,2.78,0,0,0,144.12,145Zm0-3.81a1,1,0,1,1-1,1A1,1,0,0,1,144.12,141.15Z" transform="translate(-26.23 -49.14)"/><path class="g" d="M151.78,145a2.77,2.77,0,1,0-2.77-2.77A2.78,2.78,0,0,0,151.78,145Zm0-3.81a1,1,0,1,1,0,2.08,1,1,0,1,1,0-2.08Z" transform="translate(-26.23 -49.14)"/><path class="g" d="M162.09,141.36h59.43a.87.87,0,0,0,0-1.73H162.09a.87.87,0,0,0,0,1.73Z" transform="translate(-26.23 -49.14)"/><path class="g" d="M194.06,143.44h-32a.87.87,0,0,0,0,1.73h32a.87.87,0,0,0,0-1.73Z" transform="translate(-26.23 -49.14)"/><path class="g" d="M250.54,147.76a.88.88,0,0,0-.06-.28v-7.11a4.22,4.22,0,0,0-4.24-4.2H197a5,5,0,0,1,1.73-.12V101a6.13,6.13,0,0,1-2.22,0v35.21H141.64a4.47,4.47,0,0,0-4.47,4.47v34.41H53.69l0,0H51.06a3.56,3.56,0,0,1-3.61-3.5V147l0,0V77.11H181.11c-.05-.72-.09-1.46-.12-2.2H85.4a.8.8,0,0,0,0-.15V62.57h96.82c.21-.75.45-1.49.72-2.2H50.79a5.48,5.48,0,0,0-5.49,5.48V171.6a5.71,5.71,0,0,0,5.76,5.65h86.11v23.33c-1.43-.12-2.91-.18-4.42-.18a43.84,43.84,0,0,0-13.54,1.91c-3.91,1.34-6.07,3.23-6.07,5.33a2.86,2.86,0,0,0,.1.77v11.88a.86.86,0,0,0-.1.38,2.93,2.93,0,0,0,.1.78v11.86a.86.86,0,0,0-.1.38,2.93,2.93,0,0,0,.1.78v11.87a.8.8,0,0,0-.1.38c0,2.1,2.16,4,6.07,5.32A43.53,43.53,0,0,0,132.75,254,43.55,43.55,0,0,0,146.3,252c3.72-1.27,5.83-3,6-5a.87.87,0,0,0,.06-.32V222.48h93.46a4.59,4.59,0,0,0,4.63-4.54V148.05A.94.94,0,0,0,250.54,147.76ZM50.79,62.57H83.23V74.76a.8.8,0,0,0,0,.15H47.5V65.85A3.3,3.3,0,0,1,50.79,62.57Zm198,77.8v6.53h-90a.53.53,0,0,0,0-.12V137.9h87.49A2.5,2.5,0,0,1,248.75,140.37ZM141.64,137.9H157v8.88a.5.5,0,0,0,0,.12H138.9v-6.26A2.74,2.74,0,0,1,141.64,137.9Zm-21.88,66a41.84,41.84,0,0,1,13-1.83,41.86,41.86,0,0,1,13,1.83c3.08,1,4.92,2.43,4.92,3.71s-1.84,2.67-4.92,3.72a42.18,42.18,0,0,1-13,1.82,42.16,42.16,0,0,1-13-1.82c-3.08-1.05-4.92-2.44-4.92-3.72S116.68,205,119.76,203.93Zm-4.82,16.7v-9.86a14.1,14.1,0,0,0,4.27,2.2,43.82,43.82,0,0,0,13.54,1.92A43.85,43.85,0,0,0,146.3,213a13.65,13.65,0,0,0,4.39-2.3v9.88a.5.5,0,0,0,0,.12s0,.05,0,.08h-.17c0,.14.05.29.09.44-.42,1.12-2.15,2.29-4.82,3.2a41.91,41.91,0,0,1-13,1.83,41.84,41.84,0,0,1-13-1.83c-2.89-1-4.67-2.27-4.88-3.48A.67.67,0,0,0,114.94,220.63Zm35.75,26a.51.51,0,0,0,0,.13c0,1.27-1.84,2.66-4.92,3.71a41.86,41.86,0,0,1-13,1.83,41.84,41.84,0,0,1-13-1.83c-2.88-1-4.65-2.25-4.87-3.46a.76.76,0,0,0,0-.27v-9.88a13.88,13.88,0,0,0,4.27,2.2,43.53,43.53,0,0,0,13.54,1.92A43.55,43.55,0,0,0,146.3,239a13.46,13.46,0,0,0,4.39-2.29Zm0-13a.5.5,0,0,0,0,.12c0,1.28-1.84,2.67-4.92,3.72a41.91,41.91,0,0,1-13,1.83,41.84,41.84,0,0,1-13-1.83c-2.88-1-4.66-2.26-4.88-3.47a.67.67,0,0,0,.06-.28V223.8a13.88,13.88,0,0,0,4.27,2.2,43.53,43.53,0,0,0,13.54,1.92A43.64,43.64,0,0,0,146.3,226a13.65,13.65,0,0,0,4.39-2.29Zm95.16-12.82H152.39V207.59a.94.94,0,0,0-.07-.34c-.26-1.94-2.36-3.69-6-4.94a36.56,36.56,0,0,0-7.4-1.56V148.63H248.75v69.31A2.86,2.86,0,0,1,245.85,220.75Z" transform="translate(-26.23 -49.14)"/><path class="g" d="M219,164.06a7.41,7.41,0,1,0,10.47,0A7.42,7.42,0,0,0,219,164.06Zm9.25,9.25a5.67,5.67,0,1,1,0-8A5.65,5.65,0,0,1,228.27,173.31Z" transform="translate(-26.23 -49.14)"/><path class="g" d="M239.26,166.63a.81.81,0,0,0-.61-.23h0l-3.1,0a11.72,11.72,0,0,0-.79-2.15l2.13-2.13a.87.87,0,0,0,0-1.22l-3.48-3.48a.87.87,0,0,0-1.22,0l-1.93,1.93a11.41,11.41,0,0,0-2.3-1.06v-2.61a.85.85,0,0,0-.86-.86h-4.93a.87.87,0,0,0-.87.87v2.4a11.41,11.41,0,0,0-2.54,1l-1.68-1.68a.88.88,0,0,0-1.23,0l-3.53,3.53a.89.89,0,0,0,0,1.23l1.69,1.69a12.33,12.33,0,0,0-1,2.53l-2.4,0h0a.84.84,0,0,0-.61.23.82.82,0,0,0-.25.59v4.92a.81.81,0,0,0,.26.6.85.85,0,0,0,.61.24h2.6a12.75,12.75,0,0,0,1.06,2.32l-1.95,1.95a.88.88,0,0,0,0,1.22l3.48,3.48a.86.86,0,0,0,1.22,0l2.15-2.15a11,11,0,0,0,2.12.79v3.08a.85.85,0,0,0,.87.85l4.93,0h0a.84.84,0,0,0,.61-.23.82.82,0,0,0,.25-.59v-3.27a11.7,11.7,0,0,0,1.85-.79l2.33,2.33a.86.86,0,0,0,1.22,0l3.53-3.53a.86.86,0,0,0,.25-.61.89.89,0,0,0-.25-.62l-2.33-2.33a12.49,12.49,0,0,0,.8-1.88h3.29a.85.85,0,0,0,.61-.24.79.79,0,0,0,.26-.59v-4.92A.85.85,0,0,0,239.26,166.63Zm-4.55,4.62h0a.88.88,0,0,0-.84.65,9.7,9.7,0,0,1-1.13,2.66.87.87,0,0,0,.13,1.07l2.18,2.19-2.3,2.3-2.19-2.19a.88.88,0,0,0-1.07-.12,9.62,9.62,0,0,1-2.62,1.13.86.86,0,0,0-.64.83v3.06H223v-2.91a.86.86,0,0,0-.7-.84,9.66,9.66,0,0,1-2.89-1.07.88.88,0,0,0-1,.14l-2,2-2.25-2.25L216,176a.86.86,0,0,0,.11-1.1,10.35,10.35,0,0,1-1.4-3,.88.88,0,0,0-.83-.65h0l-2.39,0v-3.16l2.22,0h0a.88.88,0,0,0,.85-.71,10.63,10.63,0,0,1,1.29-3.28.88.88,0,0,0-.13-1.06l-1.54-1.54,2.3-2.3,1.54,1.54a.88.88,0,0,0,1.07.12,10,10,0,0,1,3.26-1.3.86.86,0,0,0,.7-.85v-2.22h3.19v2.38a.87.87,0,0,0,.64.84,10,10,0,0,1,3,1.4A.87.87,0,0,0,231,161l1.8-1.8,2.25,2.25-2,2a.87.87,0,0,0-.14,1,9.93,9.93,0,0,1,1.06,2.91.89.89,0,0,0,.85.72h0l2.93,0v3.16Z" transform="translate(-26.23 -49.14)"/><path class="g" d="M167.43,193a6.45,6.45,0,1,0,9.12,0A6.45,6.45,0,0,0,167.43,193Zm7.89,7.9a4.72,4.72,0,1,1,0-6.67A4.72,4.72,0,0,1,175.32,200.91Z" transform="translate(-26.23 -49.14)"/><path class="g" d="M186.62,194.48a.88.88,0,0,0-.61-.27h0l-3.11,0a10.87,10.87,0,0,0-.78-2.11l2.13-2.12a.89.89,0,0,0,0-1.23l-3.48-3.47a.86.86,0,0,0-1.22,0l-1.93,1.92a11.9,11.9,0,0,0-2.3-1.05v-2.61a.85.85,0,0,0-.87-.86h-4.93a.85.85,0,0,0-.86.86V186a11.31,11.31,0,0,0-2.54,1l-1.68-1.68a.87.87,0,0,0-.61-.26.83.83,0,0,0-.61.26l-3.53,3.52a.87.87,0,0,0,0,1.23l1.68,1.68a12.25,12.25,0,0,0-1,2.51l-2.41,0h0a.88.88,0,0,0-.61.27.92.92,0,0,0-.26.64V200a.85.85,0,0,0,.86.86h2.61a11.72,11.72,0,0,0,1,2.31l-1.94,1.94a.87.87,0,0,0,0,1.23l3.48,3.47a.85.85,0,0,0,1.22,0l2.14-2.14a12.28,12.28,0,0,0,2.12.79v3.08a.85.85,0,0,0,.86.86h4.93a.86.86,0,0,0,.62-.25.84.84,0,0,0,.25-.6v-3.28a10.51,10.51,0,0,0,1.85-.79l2.33,2.33a.83.83,0,0,0,.61.26.87.87,0,0,0,.62-.26l3.53-3.52a.89.89,0,0,0,0-1.23l-2.34-2.33a11.08,11.08,0,0,0,.8-1.87H186a.86.86,0,0,0,.61-.25.9.9,0,0,0,.25-.62V195.1A.89.89,0,0,0,186.62,194.48Zm-4.55,4.69h0a.87.87,0,0,0-.84.64,9.76,9.76,0,0,1-1.13,2.65.88.88,0,0,0,.12,1.07l2.19,2.18L180.1,208l-2.18-2.19a.86.86,0,0,0-1.07-.12,9.36,9.36,0,0,1-2.63,1.12.87.87,0,0,0-.64.84v3.05h-3.2v-2.91a.87.87,0,0,0-.69-.85,9.28,9.28,0,0,1-2.89-1.06.86.86,0,0,0-1,.14l-2,2-2.25-2.25,1.82-1.83a.86.86,0,0,0,.1-1.1,9.91,9.91,0,0,1-1.39-3,.87.87,0,0,0-.84-.64h-2.38V196l2.23,0h0a.84.84,0,0,0,.85-.67,10.48,10.48,0,0,1,1.28-3.24.85.85,0,0,0-.13-1.05l-1.53-1.54,2.3-2.31,1.54,1.54a.86.86,0,0,0,1.07.13,9.61,9.61,0,0,1,3.26-1.3.87.87,0,0,0,.69-.85v-2.22h3.2v2.38a.88.88,0,0,0,.64.84,10,10,0,0,1,3,1.39.86.86,0,0,0,1.1-.1l1.81-1.81,2.25,2.25-2,2a.86.86,0,0,0-.14,1,9.38,9.38,0,0,1,1.06,2.88.86.86,0,0,0,.85.68h0l2.93,0v3.21Z" transform="translate(-26.23 -49.14)"/><path class="g" d="M187,162a.87.87,0,0,0-.87-.87H153.67a.87.87,0,1,0,0,1.73h32.42A.87.87,0,0,0,187,162Z" transform="translate(-26.23 -49.14)"/><path class="g" d="M191.86,169.86h-14a.87.87,0,0,0,0,1.73h14a.87.87,0,1,0,0-1.73Z" transform="translate(-26.23 -49.14)"/><path class="g" d="M234,206.9H212.4a.87.87,0,0,0,0,1.73H234a.87.87,0,1,0,0-1.73Z" transform="translate(-26.23 -49.14)"/><path class="g" d="M210.79,198H197.63a.87.87,0,0,0,0,1.73h13.16a.87.87,0,0,0,0-1.73Z" transform="translate(-26.23 -49.14)"/><path class="g" d="M222.56,199.75a.87.87,0,0,0,0-1.73h-4.5a.87.87,0,1,0,0,1.73Z" transform="translate(-26.23 -49.14)"/><path class="g" d="M72.07,187a1.11,1.11,0,0,0,1.1-1.11V184A1.08,1.08,0,0,0,72.1,183,1.1,1.1,0,0,0,71,184v1.9A1.12,1.12,0,0,0,72.07,187Z" transform="translate(-26.23 -49.14)"/><path class="g" d="M71,218.82a1.12,1.12,0,0,0,1.1,1.1,1.11,1.11,0,0,0,1.1-1.1v-4a1.1,1.1,0,0,0-2.2,0Z" transform="translate(-26.23 -49.14)"/><path class="g" d="M71,207.8a1.1,1.1,0,0,0,2.2,0v-4a1.1,1.1,0,0,0-2.2.07Z" transform="translate(-26.23 -49.14)"/><path class="g" d="M71,196.79a1.1,1.1,0,0,0,1.1,1.1h0a1.1,1.1,0,0,0,1.1-1.1v-4a1.1,1.1,0,1,0-2.2.07Z" transform="translate(-26.23 -49.14)"/><path class="g" d="M73.91,226.3h-.74v-.79a1.1,1.1,0,1,0-2.2.06v1.84a1.12,1.12,0,0,0,1.1,1.1H74a1.11,1.11,0,0,0-.06-2.21Z" transform="translate(-26.23 -49.14)"/><path class="g" d="M83,226.3H79.72a1.11,1.11,0,0,0,.06,2.21H83a1.11,1.11,0,0,0,0-2.21Z" transform="translate(-26.23 -49.14)"/><path class="g" d="M101.22,226.3H97.93a1.11,1.11,0,0,0,.06,2.21h3.29a1.11,1.11,0,0,0-.06-2.21Z" transform="translate(-26.23 -49.14)"/><path class="g" d="M92.11,226.3H88.88a1.11,1.11,0,0,0,0,2.21h3.23a1.11,1.11,0,0,0,0-2.21Z" transform="translate(-26.23 -49.14)"/><path class="g" d="M108.85,226.3h-2a1.11,1.11,0,0,0,.06,2.21h1.91a1.11,1.11,0,0,0,0-2.21Z" transform="translate(-26.23 -49.14)"/></svg>