<svg xmlns="http://www.w3.org/2000/svg" width="243.24" height="203.07" viewBox="0 0 243.24 203.07"><defs><style>.a{opacity:0.35;}.b,.g{fill:#b1d2e9;}.b{opacity:0.7;isolation:isolate;}.c,.d,.j{fill:#fff;}.c{opacity:0.5;}.e{fill:#f47523;}.f{fill:#3e4449;}.h{fill:#4266b0;}.i{fill:#e2e2e5;}.j{fill-rule:evenodd;}</style></defs><title>plan-and-operate</title><g class="a"><path class="b" d="M244.61,83.72S160.88,41.94,106.86,72.45s-68.14,112-66.83,138S78.33,272.3,123,244.86,303.83,121.53,244.61,83.72Z" transform="translate(-29.18 -51.64)"/></g><rect class="c" x="38.89" y="55.4" width="151.03" height="99.3"/><rect class="d" x="138.05" y="136.93" width="58.91" height="41.63"/><circle class="e" cx="91.15" cy="170.89" r="4.8" transform="translate(-125.29 168.69) rotate(-76.72)"/><circle class="e" cx="61.81" cy="140.33" r="4.8"/><path class="f" d="M166.52,206.82H73.29a4.45,4.45,0,0,1-4.45-4.45V100.44a1.27,1.27,0,1,0-2.53,0V202.37a7,7,0,0,0,7,7h93A6.22,6.22,0,0,1,166.52,206.82Z" transform="translate(-29.18 -51.64)"/><path class="f" d="M218.9,107.26H67.57a1.27,1.27,0,0,1,0-2.53H218.9a1.27,1.27,0,0,1,0,2.53Z" transform="translate(-29.18 -51.64)"/><path class="f" d="M107,107a1.27,1.27,0,0,1-1.27-1.27V91a1.27,1.27,0,1,1,2.54,0v14.76A1.27,1.27,0,0,1,107,107Z" transform="translate(-29.18 -51.64)"/><path class="f" d="M86.29,129.24a7.46,7.46,0,1,1,7.46-7.46A7.47,7.47,0,0,1,86.29,129.24Zm0-12.38a4.92,4.92,0,1,0,4.92,4.92A4.93,4.93,0,0,0,86.29,116.86Z" transform="translate(-29.18 -51.64)"/><path class="f" d="M123,129.24a7.46,7.46,0,1,1,7.46-7.46A7.47,7.47,0,0,1,123,129.24Zm0-12.38a4.92,4.92,0,1,0,4.92,4.92A4.93,4.93,0,0,0,123,116.86Z" transform="translate(-29.18 -51.64)"/><path class="f" d="M159.66,129.24a7.46,7.46,0,1,1,7.46-7.46A7.46,7.46,0,0,1,159.66,129.24Zm0-12.38a4.92,4.92,0,1,0,4.93,4.92A4.93,4.93,0,0,0,159.66,116.86Z" transform="translate(-29.18 -51.64)"/><path class="f" d="M196.35,129.24a7.46,7.46,0,1,1,7.46-7.46A7.47,7.47,0,0,1,196.35,129.24Zm0-12.38a4.92,4.92,0,1,0,4.92,4.92A4.93,4.93,0,0,0,196.35,116.86Z" transform="translate(-29.18 -51.64)"/><path class="f" d="M116.83,123H92.53a1.27,1.27,0,1,1,0-2.54h24.3a1.27,1.27,0,0,1,0,2.54Z" transform="translate(-29.18 -51.64)"/><path class="f" d="M153.37,123H129.21a1.27,1.27,0,0,1,0-2.54h24.16a1.27,1.27,0,0,1,0,2.54Z" transform="translate(-29.18 -51.64)"/><path class="f" d="M190.05,123h-24.3a1.27,1.27,0,1,1,0-2.54h24.3a1.27,1.27,0,0,1,0,2.54Z" transform="translate(-29.18 -51.64)"/><path class="f" d="M86.29,124.8a3,3,0,1,1,3-3A3,3,0,0,1,86.29,124.8Z" transform="translate(-29.18 -51.64)"/><path class="f" d="M123,124.8a3,3,0,1,1,3-3A3,3,0,0,1,123,124.8Z" transform="translate(-29.18 -51.64)"/><path class="f" d="M191.37,97.27H112.48a1.27,1.27,0,1,1,0-2.53h78.89a1.27,1.27,0,1,1,0,2.53Z" transform="translate(-29.18 -51.64)"/><path class="f" d="M209.56,102.34H112.48a1.27,1.27,0,1,1,0-2.53h97.08a1.27,1.27,0,1,1,0,2.53Z" transform="translate(-29.18 -51.64)"/><path class="f" d="M75.71,102.16a3.78,3.78,0,1,1,3.78-3.77A3.77,3.77,0,0,1,75.71,102.16Z" transform="translate(-29.18 -51.64)"/><path class="f" d="M86.72,102.16a3.78,3.78,0,1,1,3.78-3.77A3.77,3.77,0,0,1,86.72,102.16Z" transform="translate(-29.18 -51.64)"/><path class="f" d="M97.73,102.16a3.78,3.78,0,1,1,3.77-3.77A3.78,3.78,0,0,1,97.73,102.16Z" transform="translate(-29.18 -51.64)"/><path class="f" d="M214.26,89.14h-141a7,7,0,0,0-7,7v74a1.27,1.27,0,1,0,2.53,0v-74a4.45,4.45,0,0,1,4.45-4.45h141a4.45,4.45,0,0,1,4.45,4.45V184.2a1.27,1.27,0,0,0,2.54,0V96.13A7,7,0,0,0,214.26,89.14Z" transform="translate(-29.18 -51.64)"/><path class="f" d="M251.84,104.48a1.26,1.26,0,0,0,1.27-1.26V98.59a1.27,1.27,0,0,0-2.54,0v4.63A1.26,1.26,0,0,0,251.84,104.48Z" transform="translate(-29.18 -51.64)"/><path class="f" d="M251.84,80a1.27,1.27,0,0,0,1.27-1.27V74.14a1.27,1.27,0,0,0-2.54,0v4.62A1.27,1.27,0,0,0,251.84,80Z" transform="translate(-29.18 -51.64)"/><path class="f" d="M251.84,92.26A1.27,1.27,0,0,0,253.11,91V86.37a1.27,1.27,0,0,0-2.54,0V91A1.27,1.27,0,0,0,251.84,92.26Z" transform="translate(-29.18 -51.64)"/><path class="f" d="M251.84,116.71a1.27,1.27,0,0,0,1.27-1.27v-4.62a1.27,1.27,0,0,0-2.54,0v4.62A1.27,1.27,0,0,0,251.84,116.71Z" transform="translate(-29.18 -51.64)"/><path class="f" d="M251.84,67.8a1.27,1.27,0,0,1-1.27-1.27v-1h-1a1.27,1.27,0,0,1,0-2.54h2.31a1.27,1.27,0,0,1,1.27,1.27v2.31A1.27,1.27,0,0,1,251.84,67.8Z" transform="translate(-29.18 -51.64)"/><path class="f" d="M242.52,65.49h-4.18a1.27,1.27,0,0,1,0-2.54h4.18a1.27,1.27,0,0,1,0,2.54Zm-11.19,0h-4.17a1.27,1.27,0,0,1,0-2.54h4.17a1.27,1.27,0,0,1,0,2.54Zm-11.18,0H216A1.27,1.27,0,0,1,216,63h4.18a1.27,1.27,0,0,1,0,2.54Zm-11.19,0h-4.17a1.27,1.27,0,1,1,0-2.54H209a1.27,1.27,0,0,1,0,2.54Zm-11.18,0H193.6a1.27,1.27,0,0,1,0-2.54h4.18a1.27,1.27,0,1,1,0,2.54Zm-11.18,0h-4.18a1.27,1.27,0,1,1,0-2.54h4.18a1.27,1.27,0,0,1,0,2.54Zm-11.19,0h-4.17a1.27,1.27,0,0,1,0-2.54h4.17a1.27,1.27,0,1,1,0,2.54Z" transform="translate(-29.18 -51.64)"/><path class="f" d="M161.77,67.8a1.27,1.27,0,0,1-1.27-1.27V64.22A1.27,1.27,0,0,1,161.77,63h2.16a1.27,1.27,0,0,1,0,2.54H163v1A1.26,1.26,0,0,1,161.77,67.8Z" transform="translate(-29.18 -51.64)"/><path class="f" d="M161.77,76.6a1.27,1.27,0,0,1-1.27-1.27V72.05a1.27,1.27,0,1,1,2.53,0v3.28A1.26,1.26,0,0,1,161.77,76.6Z" transform="translate(-29.18 -51.64)"/><path class="f" d="M161.77,84.35a1.27,1.27,0,0,1-1.27-1.27V80.85a1.27,1.27,0,1,1,2.53,0v2.23A1.26,1.26,0,0,1,161.77,84.35Z" transform="translate(-29.18 -51.64)"/><path class="f" d="M45.86,206.5a1.27,1.27,0,0,0-1.27,1.27v4.33a1.27,1.27,0,0,0,2.54,0v-4.33A1.27,1.27,0,0,0,45.86,206.5Z" transform="translate(-29.18 -51.64)"/><path class="f" d="M45.86,218a1.26,1.26,0,0,0-1.27,1.26v4.33a1.27,1.27,0,1,0,2.54,0v-4.33A1.26,1.26,0,0,0,45.86,218Z" transform="translate(-29.18 -51.64)"/><path class="f" d="M45.86,195a1.27,1.27,0,0,0-1.27,1.27v4.32a1.27,1.27,0,1,0,2.54,0v-4.32A1.27,1.27,0,0,0,45.86,195Z" transform="translate(-29.18 -51.64)"/><path class="f" d="M48,233.42H45.86a1.27,1.27,0,0,1-1.27-1.27V230a1.27,1.27,0,0,1,2.54,0v.9H48a1.27,1.27,0,1,1,0,2.53Z" transform="translate(-29.18 -51.64)"/><path class="f" d="M117.07,233.42h-4.33a1.27,1.27,0,0,1,0-2.53h4.33a1.27,1.27,0,1,1,0,2.53Zm-11.48,0h-4.33a1.27,1.27,0,1,1,0-2.53h4.33a1.27,1.27,0,0,1,0,2.53Zm-11.49,0H89.78a1.27,1.27,0,1,1,0-2.53H94.1a1.27,1.27,0,1,1,0,2.53Zm-11.48,0H78.3a1.27,1.27,0,1,1,0-2.53h4.32a1.27,1.27,0,1,1,0,2.53Zm-11.48,0H66.81a1.27,1.27,0,0,1,0-2.53h4.33a1.27,1.27,0,1,1,0,2.53Zm-11.48,0H55.33a1.27,1.27,0,1,1,0-2.53h4.33a1.27,1.27,0,0,1,0,2.53Z" transform="translate(-29.18 -51.64)"/><path class="f" d="M127,233.42h-2.32a1.27,1.27,0,0,1,0-2.53h1V230a1.27,1.27,0,1,1,2.53,0v2.16A1.26,1.26,0,0,1,127,233.42Z" transform="translate(-29.18 -51.64)"/><path class="f" d="M127,225.59a1.27,1.27,0,0,1-1.27-1.27v-3.43a1.27,1.27,0,0,1,2.53,0v3.43A1.26,1.26,0,0,1,127,225.59Z" transform="translate(-29.18 -51.64)"/><path class="f" d="M127,216.5a1.27,1.27,0,0,1-1.27-1.27V213a1.27,1.27,0,1,1,2.53,0v2.24A1.26,1.26,0,0,1,127,216.5Z" transform="translate(-29.18 -51.64)"/><path class="f" d="M123,68.22a1.8,1.8,0,0,1,.84-2.39h0a1.8,1.8,0,0,1,2.39.84h0a1.79,1.79,0,0,1-.84,2.39h0a1.77,1.77,0,0,1-.77.18h0A1.8,1.8,0,0,1,123,68.22Zm-4.76.83a1.79,1.79,0,0,1-.83-2.39h0a1.78,1.78,0,0,1,2.39-.83h0a1.79,1.79,0,0,1,.83,2.39h0a1.8,1.8,0,0,1-1.61,1h0A1.81,1.81,0,0,1,118.22,69.05Zm9.47-4.22a1.79,1.79,0,0,1-1.34-2.15h0a1.79,1.79,0,0,1,2.15-1.34h0a1.79,1.79,0,0,1,1.34,2.15h0a1.79,1.79,0,0,1-1.74,1.38h0A2,2,0,0,1,127.69,64.83Zm-13.91-1.38a1.78,1.78,0,0,1,1.35-2.13h0a1.73,1.73,0,0,1,2.14,1.35h0c.22,0-.39,1.92-1.35,2.14h0a1.87,1.87,0,0,1-.4,0h0A1.79,1.79,0,0,1,113.78,63.45Zm11.69-4.71a1.79,1.79,0,0,1,.29-2.52h0a1.78,1.78,0,0,1,2.51.3h0A1.79,1.79,0,0,1,128,59h0a1.79,1.79,0,0,1-1.11.39h0A1.76,1.76,0,0,1,125.47,58.74Zm-9.82.26a1.78,1.78,0,0,1-.27-2.51h0a1.78,1.78,0,0,1,2.51-.28h0a1.78,1.78,0,0,1,.28,2.51h0a1.76,1.76,0,0,1-1.4.68h0A1.79,1.79,0,0,1,115.65,59Zm6.18-2h0A1.79,1.79,0,0,1,120,55.22h0a1.79,1.79,0,0,1,1.79-1.79h0a1.79,1.79,0,0,1,1.78,1.79h0A1.8,1.8,0,0,1,121.84,57h0Z" transform="translate(-29.18 -51.64)"/><path class="f" d="M147.05,240.31a1.8,1.8,0,0,1,.84-2.39h0a1.8,1.8,0,0,1,2.39.84h0a1.79,1.79,0,0,1-.84,2.39h0a1.77,1.77,0,0,1-.77.18h0A1.8,1.8,0,0,1,147.05,240.31Zm-4.76.83a1.8,1.8,0,0,1-.83-2.4h0a1.81,1.81,0,0,1,2.4-.83h0a1.8,1.8,0,0,1,.82,2.4h0a1.79,1.79,0,0,1-1.61,1h0A1.81,1.81,0,0,1,142.29,241.14Zm9.47-4.22a1.8,1.8,0,0,1-1.34-2.15h0a1.8,1.8,0,0,1,2.15-1.34h0a1.79,1.79,0,0,1,1.34,2.14h0a1.79,1.79,0,0,1-1.74,1.39h0A2,2,0,0,1,151.76,236.92Zm-13.91-1.38a1.79,1.79,0,0,1,1.35-2.14h0a1.79,1.79,0,0,1,2.14,1.35h0a1.79,1.79,0,0,1-1.35,2.14h0a1.83,1.83,0,0,1-.4.05h0A1.79,1.79,0,0,1,137.85,235.54Zm11.69-4.71a1.79,1.79,0,0,1,.29-2.52h0a1.79,1.79,0,0,1,2.51.29h0a1.8,1.8,0,0,1-.29,2.52h0a1.79,1.79,0,0,1-1.11.39h0A1.79,1.79,0,0,1,149.54,230.83Zm-9.81.26a1.77,1.77,0,0,1-.28-2.51h0a1.78,1.78,0,0,1,2.51-.28h0a1.78,1.78,0,0,1,.28,2.51h0a1.76,1.76,0,0,1-1.4.68h0A1.74,1.74,0,0,1,139.73,231.09Zm6.17-2h0a1.79,1.79,0,0,1-1.79-1.79h0a1.79,1.79,0,0,1,1.79-1.79h0a1.79,1.79,0,0,1,1.78,1.79h0a1.79,1.79,0,0,1-1.79,1.79h0Z" transform="translate(-29.18 -51.64)"/><rect class="g" x="7.01" y="40.62" width="18.41" height="78.68"/><path class="f" d="M149.76,71.55a1.27,1.27,0,0,1-1.27-1.27V64.91a1.27,1.27,0,1,1,2.53,0v5.37A1.26,1.26,0,0,1,149.76,71.55Z" transform="translate(-29.18 -51.64)"/><path class="f" d="M152.52,68.94h-5.37a1.27,1.27,0,0,1,0-2.54h5.37a1.27,1.27,0,0,1,0,2.54Z" transform="translate(-29.18 -51.64)"/><path class="f" d="M33.05,193.15a1.25,1.25,0,0,1-1.26-1.26v-5.37a1.27,1.27,0,1,1,2.53,0v5.37A1.26,1.26,0,0,1,33.05,193.15Z" transform="translate(-29.18 -51.64)"/><path class="f" d="M35.81,190.54H30.44a1.27,1.27,0,0,1,0-2.53h5.37a1.27,1.27,0,1,1,0,2.53Z" transform="translate(-29.18 -51.64)"/><path class="f" d="M268.39,59.54a1.27,1.27,0,0,1-1.27-1.27V52.91a1.27,1.27,0,1,1,2.53,0v5.36A1.26,1.26,0,0,1,268.39,59.54Z" transform="translate(-29.18 -51.64)"/><path class="f" d="M271.15,56.93h-5.37a1.27,1.27,0,1,1,0-2.53h5.37a1.27,1.27,0,0,1,0,2.53Z" transform="translate(-29.18 -51.64)"/><path class="f" d="M45.54,190.68a1.9,1.9,0,0,1-1.76-1.14l-7.53-16.71a5.32,5.32,0,0,1-.46-2.15V92.61a1,1,0,0,1,1-1h17.6a1,1,0,0,1,.95,1v78.07a5.09,5.09,0,0,1-.46,2.14L47.3,189.54A1.89,1.89,0,0,1,45.54,190.68ZM37.69,93.56v77.12a3.1,3.1,0,0,0,.29,1.37l7.53,16.71a0,0,0,0,0,0,0s0,0,0,0l7.53-16.71a3.4,3.4,0,0,0,.29-1.37V93.56Z" transform="translate(-29.18 -51.64)"/><path class="f" d="M55.35,93.56H35.73a2.68,2.68,0,0,1-2.67-2.67v-15a2.68,2.68,0,0,1,2.67-2.68H55.35A2.68,2.68,0,0,1,58,75.94v15A2.67,2.67,0,0,1,55.35,93.56ZM35.73,75.16a.78.78,0,0,0-.78.77v15a.78.78,0,0,0,.78.78H55.35a.78.78,0,0,0,.78-.78v-15a.78.78,0,0,0-.78-.78Z" transform="translate(-29.18 -51.64)"/><path class="f" d="M53.85,172.83h-17a1,1,0,0,1-.92-1,.94.94,0,0,1,.92-.91h17a.95.95,0,0,1,.06,1.89Z" transform="translate(-29.18 -51.64)"/><path class="f" d="M49.25,182.43H41.81a.95.95,0,0,1-.06-1.89h7.5a.95.95,0,1,1,.06,1.89Z" transform="translate(-29.18 -51.64)"/><path class="f" d="M53.59,75.16H37.5a1,1,0,0,1-1-1h0V65.26a2.54,2.54,0,0,1,2.54-2.53H52a2.54,2.54,0,0,1,2.54,2.53v8.95A1,1,0,0,1,53.59,75.16Zm-15.15-1.9h14.2v-8a.65.65,0,0,0-.65-.65H39.09a.64.64,0,0,0-.64.65Z" transform="translate(-29.18 -51.64)"/><path class="f" d="M45.87,105a1,1,0,0,1-.95-1V92.64a1,1,0,0,1,1.9,0V104a1,1,0,0,1-1,1Z" transform="translate(-29.18 -51.64)"/><path class="f" d="M45.87,172.29a1,1,0,0,1-.95-.95V118.88a1,1,0,1,1,1.9-.06v52.52a1,1,0,0,1-1,.95Z" transform="translate(-29.18 -51.64)"/><path class="f" d="M56.42,84.39H53.58a.95.95,0,1,1-.06-1.89h2.9a.95.95,0,0,1,.06,1.89Z" transform="translate(-29.18 -51.64)"/><path class="f" d="M47.09,84.39h-13a.95.95,0,1,1-.05-1.89h13a.95.95,0,0,1,.06,1.89Z" transform="translate(-29.18 -51.64)"/><path class="f" d="M167.89,147.44h-58a1,1,0,0,1,0-1.95h58a1,1,0,0,1,0,1.95Z" transform="translate(-29.18 -51.64)"/><path class="f" d="M167.89,142.3h-58a1,1,0,0,1,0-2h58a1,1,0,0,1,0,2Z" transform="translate(-29.18 -51.64)"/><path class="f" d="M184.68,152.43h-74.8a1,1,0,1,1,0-1.94h74.8a1,1,0,1,1,0,1.94Z" transform="translate(-29.18 -51.64)"/><path class="f" d="M90.8,173.35a1,1,0,0,1-.68-.29L88,171a1,1,0,0,1,0-1.37,1,1,0,0,1,1.38,0l1.4,1.4,4.28-4.28a1,1,0,0,1,1.38,0,1,1,0,0,1,0,1.38l-5,5A1,1,0,0,1,90.8,173.35Z" transform="translate(-29.18 -51.64)"/><path class="f" d="M91,177.27A6.13,6.13,0,1,1,91,165,1,1,0,1,1,91,167a4.19,4.19,0,1,0,4.19,4.19,1,1,0,1,1,1.94,0A6.14,6.14,0,0,1,91,177.27Z" transform="translate(-29.18 -51.64)"/><path class="f" d="M138.16,169.71h-37a1,1,0,0,1,0-1.94h37a1,1,0,0,1,0,1.94Z" transform="translate(-29.18 -51.64)"/><path class="f" d="M153.83,174.71H101.16a1,1,0,0,1,0-1.94h52.67a1,1,0,0,1,0,1.94Z" transform="translate(-29.18 -51.64)"/><path class="f" d="M90.8,194.56a.94.94,0,0,1-.68-.28l-2.1-2.1a1,1,0,0,1,0-1.37,1,1,0,0,1,1.38,0l1.4,1.41,4.28-4.28a1,1,0,0,1,1.38,1.37l-5,5A1,1,0,0,1,90.8,194.56Z" transform="translate(-29.18 -51.64)"/><path class="f" d="M91,198.49a6.14,6.14,0,0,1,0-12.27,1,1,0,0,1,0,1.95,4.19,4.19,0,1,0,4.19,4.19,1,1,0,1,1,1.94,0A6.14,6.14,0,0,1,91,198.49Z" transform="translate(-29.18 -51.64)"/><path class="f" d="M138.16,191h-37a1,1,0,0,1,0-1.95h37a1,1,0,0,1,0,1.95Z" transform="translate(-29.18 -51.64)"/><path class="f" d="M153.83,195.94H101.16a1,1,0,0,1,0-1.94h52.67a1,1,0,0,1,0,1.94Z" transform="translate(-29.18 -51.64)"/><path class="h" d="M223.5,173.29H169.79a3.13,3.13,0,0,0-3.12,3.13v11.1h60v-11.1A3.13,3.13,0,0,0,223.5,173.29Z" transform="translate(-29.18 -51.64)"/><path class="f" d="M222.55,231.65H170.72a5.13,5.13,0,0,1-5.13-5.12V177a5.13,5.13,0,0,1,5.13-5.13h51.83a5.13,5.13,0,0,1,5.13,5.13v49.56A5.13,5.13,0,0,1,222.55,231.65Zm-51.83-57.71a3,3,0,0,0-3,3v49.56a3,3,0,0,0,3,3h51.83a3,3,0,0,0,3-3V177a3,3,0,0,0-3-3Z" transform="translate(-29.18 -51.64)"/><path class="f" d="M226.13,188.57H166.67a1.05,1.05,0,0,1,0-2.1h59.46a1.05,1.05,0,0,1,0,2.1Z" transform="translate(-29.18 -51.64)"/><path class="f" d="M213.85,206.34a6.13,6.13,0,1,1,6.13-6.13A6.14,6.14,0,0,1,213.85,206.34Zm0-10.17a4,4,0,1,0,4,4A4,4,0,0,0,213.85,196.17Z" transform="translate(-29.18 -51.64)"/><path class="f" d="M196.41,224.11a6.13,6.13,0,1,1,6.13-6.13A6.14,6.14,0,0,1,196.41,224.11Zm0-10.17a4,4,0,1,0,4,4A4,4,0,0,0,196.41,213.94Z" transform="translate(-29.18 -51.64)"/><path class="f" d="M213.85,224.11A6.13,6.13,0,1,1,220,218,6.14,6.14,0,0,1,213.85,224.11Zm0-10.17a4,4,0,1,0,4,4A4,4,0,0,0,213.85,213.94Z" transform="translate(-29.18 -51.64)"/><path class="f" d="M179,224.11A6.13,6.13,0,1,1,185.1,218,6.14,6.14,0,0,1,179,224.11Zm0-10.17a4,4,0,1,0,4,4A4,4,0,0,0,179,213.94Z" transform="translate(-29.18 -51.64)"/><path class="f" d="M196.41,206.36a6.13,6.13,0,1,1,6.13-6.13A6.14,6.14,0,0,1,196.41,206.36Zm0-10.17a4,4,0,1,0,4,4A4,4,0,0,0,196.41,196.19Z" transform="translate(-29.18 -51.64)"/><path class="f" d="M179,206.36a6.13,6.13,0,1,1,6.14-6.13A6.14,6.14,0,0,1,179,206.36Zm0-10.17a4,4,0,1,0,4,4A4,4,0,0,0,179,196.19Z" transform="translate(-29.18 -51.64)"/><path class="f" d="M186.83,182h-3.39a1,1,0,0,1-1.05-1V168a1.05,1.05,0,0,1,2.1,0v12h2.34a1,1,0,0,1,0,2.1Z" transform="translate(-29.18 -51.64)"/><path class="f" d="M211.24,182h-3.39a1,1,0,0,1-1-1V168a1.05,1.05,0,0,1,2.1,0v12h2.34a1,1,0,0,1,0,2.1Z" transform="translate(-29.18 -51.64)"/><path class="i" d="M266.1,139.07a14.69,14.69,0,0,0-1.61-4.4l3.59-3.59-4.85-4.85-3.37,3.37a15.24,15.24,0,0,0-4.58-2.11V123H248.4v4.31a15,15,0,0,0-4.95,2l-3-3-4.92,4.92,3,3a15.58,15.58,0,0,0-1.94,4.94h-4.32V146h4.53a15.29,15.29,0,0,0,2.11,4.59l-3.39,3.4,4.85,4.85,3.61-3.62a14.58,14.58,0,0,0,4.39,1.62V162h6.88v-5.47a14.39,14.39,0,0,0,4-1.71l3.91,3.91,4.92-4.93-3.9-3.9a14.91,14.91,0,0,0,1.72-4h5.49v-6.88Zm-8.33,9.36a9.13,9.13,0,1,1,0-12.91A9.14,9.14,0,0,1,257.77,148.43Z" transform="translate(-29.18 -51.64)"/><path class="f" d="M251.32,152a10,10,0,0,1-7.08-17.08h0A10,10,0,1,1,251.32,152Zm0-18.25a8.16,8.16,0,0,0-5.83,2.42h0a8.22,8.22,0,1,0,5.83-2.42Zm-6.46,1.79h0Z" transform="translate(-29.18 -51.64)"/><path class="f" d="M255.28,163h0l-6.88,0a.89.89,0,0,1-.88-.89v-4.57a16.21,16.21,0,0,1-3.35-1.24L241,159.4a.89.89,0,0,1-1.25,0l-4.84-4.85a.87.87,0,0,1-.26-.62.84.84,0,0,1,.26-.62l2.89-2.9a16.65,16.65,0,0,1-1.65-3.56l-3.87,0h0a.92.92,0,0,1-.62-.28.9.9,0,0,1-.26-.64v-6.88a.91.91,0,0,1,.26-.62.9.9,0,0,1,.62-.25h3.61a17.13,17.13,0,0,1,1.55-3.91l-2.52-2.52a.88.88,0,0,1,0-1.25l4.92-4.92a.88.88,0,0,1,1.24,0l2.52,2.51a15.88,15.88,0,0,1,3.93-1.56V123a.89.89,0,0,1,.88-.88h6.88a.85.85,0,0,1,.62.26.87.87,0,0,1,.26.62v3.88a15.67,15.67,0,0,1,3.58,1.65l2.87-2.87a.89.89,0,0,1,1.25,0l4.84,4.85a.87.87,0,0,1,0,1.24l-3.13,3.13a15.43,15.43,0,0,1,1.24,3.37h4.58a.86.86,0,0,1,.62.24.87.87,0,0,1,.26.62v6.87a.8.8,0,0,1-.25.59.85.85,0,0,1-.63.23h0l-4.83,0a16.31,16.31,0,0,1-1.28,3l3.42,3.43a.89.89,0,0,1,.26.63.85.85,0,0,1-.26.62l-4.92,4.93a.88.88,0,0,1-1.24,0L259.11,156a15,15,0,0,1-3,1.27v4.81a.9.9,0,0,1-.26.64A.87.87,0,0,1,255.28,163Zm-6-1.81h5.12v-4.59a.88.88,0,0,1,.65-.85,13.54,13.54,0,0,0,3.75-1.61.89.89,0,0,1,1.09.13l3.28,3.28,3.68-3.68-3.29-3.28a.89.89,0,0,1-.12-1.09,14.14,14.14,0,0,0,1.62-3.8.91.91,0,0,1,.85-.68h0l4.61,0v-5.09l-4.41,0h0a.89.89,0,0,1-.86-.72,13.88,13.88,0,0,0-1.52-4.14.9.9,0,0,1,.15-1.06l3-3-3.61-3.6-2.74,2.74a.88.88,0,0,1-1.12.11,14.62,14.62,0,0,0-4.32-2,.87.87,0,0,1-.65-.85v-3.65h-5.12v3.43a.9.9,0,0,1-.71.87,13.91,13.91,0,0,0-4.66,1.85.88.88,0,0,1-1.08-.13l-2.38-2.38-3.68,3.68,2.38,2.38a.88.88,0,0,1,.13,1.07,15,15,0,0,0-1.83,4.66.89.89,0,0,1-.86.71h-3.44V145l3.65,0h0a.91.91,0,0,1,.85.68,14.58,14.58,0,0,0,2,4.34.91.91,0,0,1-.1,1.13l-2.78,2.77,3.61,3.61,3-3a.89.89,0,0,1,1.06-.15,13.81,13.81,0,0,0,4.12,1.53.87.87,0,0,1,.71.86Z" transform="translate(-29.18 -51.64)"/><path class="f" d="M259.48,181.34a1.27,1.27,0,0,1-1.27-1.27V174.7a1.27,1.27,0,0,1,2.54,0v5.37A1.27,1.27,0,0,1,259.48,181.34Z" transform="translate(-29.18 -51.64)"/><path class="f" d="M262.24,178.73h-5.37a1.27,1.27,0,0,1,0-2.54h5.37a1.27,1.27,0,0,1,0,2.54Z" transform="translate(-29.18 -51.64)"/><path class="f" d="M247.86,201.91a1.78,1.78,0,0,1,.84-2.39h0a1.79,1.79,0,0,1,2.38.84h0a1.79,1.79,0,0,1-.84,2.39h0a1.77,1.77,0,0,1-.77.18h0A1.78,1.78,0,0,1,247.86,201.91Zm-4.76.83a1.79,1.79,0,0,1-.83-2.39h0a1.79,1.79,0,0,1,2.39-.84h0a1.8,1.8,0,0,1,.83,2.4h0a1.81,1.81,0,0,1-1.62,1h0A1.77,1.77,0,0,1,243.1,202.74Zm9.47-4.22a1.8,1.8,0,0,1-1.35-2.15h0a1.8,1.8,0,0,1,2.15-1.34h0a1.79,1.79,0,0,1,1.34,2.14h0a1.79,1.79,0,0,1-1.74,1.39h0A1.81,1.81,0,0,1,252.57,198.52Zm-13.92-1.38A1.79,1.79,0,0,1,240,195h0a1.79,1.79,0,0,1,2.14,1.35h0a1.79,1.79,0,0,1-1.35,2.14h0a1.83,1.83,0,0,1-.4,0h0A1.8,1.8,0,0,1,238.65,197.14Zm11.69-4.71a1.8,1.8,0,0,1,.29-2.52h0a1.79,1.79,0,0,1,2.51.29h0a1.79,1.79,0,0,1-.29,2.52h0a1.79,1.79,0,0,1-1.11.39h0A1.79,1.79,0,0,1,250.34,192.43Zm-9.81.26a1.78,1.78,0,0,1-.28-2.51h0a1.78,1.78,0,0,1,2.51-.28h0a1.77,1.77,0,0,1,.28,2.51h0a1.76,1.76,0,0,1-1.4.68h0A1.74,1.74,0,0,1,240.53,192.69Zm6.17-2h0a1.79,1.79,0,0,1-1.79-1.79h0a1.79,1.79,0,0,1,1.79-1.79h0a1.78,1.78,0,0,1,1.78,1.79h0a1.79,1.79,0,0,1-1.79,1.79h0Z" transform="translate(-29.18 -51.64)"/><circle class="e" cx="62.04" cy="94.23" r="10.68"/><path class="j" d="M91.21,139.52A2,2,0,0,1,93,140.64a2.69,2.69,0,0,0-.5.39,1.87,1.87,0,0,1-2.61,0,2.4,2.4,0,0,0-.5-.39A2,2,0,0,1,91.21,139.52Zm2,1.78a1.7,1.7,0,0,1,0,.22,2.35,2.35,0,0,0,2.34,2.34h.22a2.11,2.11,0,0,1-.19.23,2.5,2.5,0,0,0,0,3.53h0a1.06,1.06,0,0,1,.19.23h-.22a2.34,2.34,0,0,0-2.34,2.34,1.48,1.48,0,0,1,0,.21l-.23-.19a2.5,2.5,0,0,0-3.53,0h0l-.22.19a.74.74,0,0,1,0-.21,2.34,2.34,0,0,0-2.34-2.34h-.22a1.45,1.45,0,0,1,.19-.23,2.51,2.51,0,0,0,0-3.54h0a1.37,1.37,0,0,1-.19-.23h.22a2.35,2.35,0,0,0,2.34-2.34.83.83,0,0,1,0-.22,2.09,2.09,0,0,1,.22.2,2.51,2.51,0,0,0,3.54,0h0Zm3.24,2.77a2,2,0,0,1,0,3.6,3.14,3.14,0,0,0-.38-.5,1.85,1.85,0,0,1,0-2.61A2.57,2.57,0,0,0,96.44,144.07Zm-3.42,7a2,2,0,0,1-3.61,0,2.69,2.69,0,0,0,.5-.39,1.85,1.85,0,0,1,2.61,0A2.69,2.69,0,0,0,93,151.1Zm-7-3.43a2,2,0,0,1-.91-2.69,1.91,1.91,0,0,1,.91-.91,3.05,3.05,0,0,0,.38.49,1.85,1.85,0,0,1,.54,1.31,1.81,1.81,0,0,1-.54,1.3A2.64,2.64,0,0,0,86,147.67Zm5.22,4.87a2.31,2.31,0,0,0,2.1-1.3,2.44,2.44,0,0,0,1,.2,2.52,2.52,0,0,0,2.5-2.51,2.7,2.7,0,0,0-.19-1,2.33,2.33,0,0,0,0-4.18,2.7,2.7,0,0,0,.19-1,2.5,2.5,0,0,0-2.5-2.51,2.44,2.44,0,0,0-1,.2,2.38,2.38,0,0,0-2.1-1.32,2.35,2.35,0,0,0-2.09,1.32,2.44,2.44,0,0,0-1-.2,2.5,2.5,0,0,0-2.5,2.51,2.33,2.33,0,0,0,.19,1,2.32,2.32,0,0,0-1.06,3.11A2.29,2.29,0,0,0,85.84,148a2.52,2.52,0,0,0,2.31,3.48,2.44,2.44,0,0,0,1-.2,2.34,2.34,0,0,0,2.09,1.3Zm2.3-1.93a2.69,2.69,0,0,0,0-.4,2,2,0,0,1,2-2,2.6,2.6,0,0,0,.4,0,1.69,1.69,0,0,1,.17.76,1.89,1.89,0,0,1-.54,1.31,1.8,1.8,0,0,1-1.3.53A1.83,1.83,0,0,1,93.51,150.61Zm2.44-7a2.6,2.6,0,0,0-.4,0,2,2,0,0,1-2-2,2.69,2.69,0,0,0,0-.4,1.84,1.84,0,0,1,.77-.17,1.81,1.81,0,0,1,1.3.54,1.85,1.85,0,0,1,.54,1.31A1.69,1.69,0,0,1,96,143.57Zm-7-2.44a2.69,2.69,0,0,0,0,.4,2,2,0,0,1-2,2,2.83,2.83,0,0,0-.41,0,1.82,1.82,0,0,1-.16-.76,1.89,1.89,0,0,1,.54-1.31,1.81,1.81,0,0,1,1.3-.54A1.84,1.84,0,0,1,88.92,141.13Zm-2.45,7a2.83,2.83,0,0,0,.41,0,2,2,0,0,1,2,2,2.83,2.83,0,0,0,0,.41,1.69,1.69,0,0,1-.77.16,1.83,1.83,0,0,1-1.84-1.83h0A1.82,1.82,0,0,1,86.47,148.17Z" transform="translate(-29.18 -51.64)"/></svg>