<svg xmlns="http://www.w3.org/2000/svg" width="245.25" height="198.29" viewBox="0 0 245.25 198.29"><defs><style>.a{opacity:0.35;}.b{fill:#b9e3eb;}.c,.d,.i{fill:#fff;}.c{opacity:0.5;}.e{fill:#f47523;}.f{fill:#3e4449;}.g{fill:#47a8b5;}.h{fill:#e2e2e5;}.i{fill-rule:evenodd;}</style></defs><title>plan-and-operate</title><g class="a"><path class="b" d="M246.39,74.74S160.55,31.9,105.16,63.19,35.3,178,36.65,204.63s39.26,63.44,85,35.32S307.1,113.51,246.39,74.74Z" transform="translate(-29.5 -51.75)"/></g><rect class="c" x="35.89" y="46.89" width="154.84" height="101.81"/><rect class="d" x="137.55" y="130.48" width="60.39" height="42.68"/><circle class="e" cx="89.05" cy="164.1" r="4.92" transform="translate(-120.62 161.32) rotate(-76.72)"/><circle class="e" cx="59.39" cy="133.96" r="4.92"/><path class="f" d="M166.33,201H70.75a4.57,4.57,0,0,1-4.56-4.57V91.88a1.3,1.3,0,1,0-2.6,0v104.5a7.17,7.17,0,0,0,7.16,7.17h95.39A6.33,6.33,0,0,1,166.33,201Z" transform="translate(-29.5 -51.75)"/><path class="f" d="M220,98.87H64.89a1.3,1.3,0,1,1,0-2.59H220a1.3,1.3,0,1,1,0,2.59Z" transform="translate(-29.5 -51.75)"/><path class="f" d="M105.35,98.64a1.3,1.3,0,0,1-1.3-1.29V82.21a1.3,1.3,0,0,1,2.6,0V97.35A1.3,1.3,0,0,1,105.35,98.64Z" transform="translate(-29.5 -51.75)"/><path class="f" d="M84.08,121.41a7.65,7.65,0,1,1,7.64-7.65A7.66,7.66,0,0,1,84.08,121.41Zm0-12.7a5.05,5.05,0,1,0,5,5.05A5.06,5.06,0,0,0,84.08,108.71Z" transform="translate(-29.5 -51.75)"/><path class="f" d="M121.69,121.41a7.65,7.65,0,1,1,7.65-7.65A7.66,7.66,0,0,1,121.69,121.41Zm0-12.7a5,5,0,1,0,5,5.05A5.06,5.06,0,0,0,121.69,108.71Z" transform="translate(-29.5 -51.75)"/><path class="f" d="M159.3,121.41a7.65,7.65,0,1,1,7.65-7.65A7.66,7.66,0,0,1,159.3,121.41Zm0-12.7a5,5,0,1,0,5,5.05A5.06,5.06,0,0,0,159.3,108.71Z" transform="translate(-29.5 -51.75)"/><path class="f" d="M196.91,121.41a7.65,7.65,0,1,1,7.65-7.65A7.65,7.65,0,0,1,196.91,121.41Zm0-12.7a5,5,0,1,0,5.05,5.05A5.06,5.06,0,0,0,196.91,108.71Z" transform="translate(-29.5 -51.75)"/><path class="f" d="M115.39,115H90.47a1.3,1.3,0,0,1,0-2.6h24.92a1.3,1.3,0,0,1,0,2.6Z" transform="translate(-29.5 -51.75)"/><path class="f" d="M152.85,115H128.08a1.3,1.3,0,0,1,0-2.6h24.77a1.3,1.3,0,1,1,0,2.6Z" transform="translate(-29.5 -51.75)"/><path class="f" d="M190.46,115H165.54a1.3,1.3,0,1,1,0-2.6h24.92a1.3,1.3,0,0,1,0,2.6Z" transform="translate(-29.5 -51.75)"/><path class="f" d="M84.08,116.86a3.1,3.1,0,1,1,3.09-3.1A3.1,3.1,0,0,1,84.08,116.86Z" transform="translate(-29.5 -51.75)"/><path class="f" d="M121.72,116.86a3.1,3.1,0,1,1,3.09-3.1A3.1,3.1,0,0,1,121.72,116.86Z" transform="translate(-29.5 -51.75)"/><path class="f" d="M191.8,88.63H110.93a1.3,1.3,0,0,1,0-2.6H191.8a1.3,1.3,0,0,1,0,2.6Z" transform="translate(-29.5 -51.75)"/><path class="f" d="M210.46,93.83H110.93a1.3,1.3,0,0,1,0-2.6h99.53a1.3,1.3,0,0,1,0,2.6Z" transform="translate(-29.5 -51.75)"/><path class="f" d="M73.23,93.65a3.87,3.87,0,1,1,3.87-3.87A3.88,3.88,0,0,1,73.23,93.65Z" transform="translate(-29.5 -51.75)"/><path class="f" d="M84.52,93.65a3.87,3.87,0,1,1,3.87-3.87A3.87,3.87,0,0,1,84.52,93.65Z" transform="translate(-29.5 -51.75)"/><path class="f" d="M95.8,93.65a3.87,3.87,0,1,1,3.87-3.87A3.88,3.88,0,0,1,95.8,93.65Z" transform="translate(-29.5 -51.75)"/><path class="f" d="M215.28,80.3H70.75a7.17,7.17,0,0,0-7.16,7.16v75.86a1.3,1.3,0,0,0,2.6,0V87.46a4.56,4.56,0,0,1,4.56-4.56H215.28a4.56,4.56,0,0,1,4.56,4.56v90.29a1.3,1.3,0,0,0,2.6,0V87.46A7.17,7.17,0,0,0,215.28,80.3Z" transform="translate(-29.5 -51.75)"/><path class="f" d="M253.8,96a1.3,1.3,0,0,0,1.3-1.3V90a1.3,1.3,0,1,0-2.6,0v4.74A1.3,1.3,0,0,0,253.8,96Z" transform="translate(-29.5 -51.75)"/><path class="f" d="M253.8,71a1.3,1.3,0,0,0,1.3-1.3V64.91a1.3,1.3,0,1,0-2.6,0v4.74A1.3,1.3,0,0,0,253.8,71Z" transform="translate(-29.5 -51.75)"/><path class="f" d="M253.8,83.49a1.3,1.3,0,0,0,1.3-1.3V77.45a1.3,1.3,0,1,0-2.6,0v4.74A1.3,1.3,0,0,0,253.8,83.49Z" transform="translate(-29.5 -51.75)"/><path class="f" d="M253.8,108.56a1.3,1.3,0,0,0,1.3-1.3v-4.74a1.3,1.3,0,1,0-2.6,0v4.74A1.3,1.3,0,0,0,253.8,108.56Z" transform="translate(-29.5 -51.75)"/><path class="f" d="M253.8,58.42a1.3,1.3,0,0,1-1.3-1.3V56.05h-1.07a1.3,1.3,0,0,1,0-2.6h2.37a1.3,1.3,0,0,1,1.3,1.3v2.37A1.3,1.3,0,0,1,253.8,58.42Z" transform="translate(-29.5 -51.75)"/><path class="f" d="M244.25,56.05H240a1.3,1.3,0,0,1,0-2.6h4.29a1.3,1.3,0,0,1,0,2.6Zm-11.47,0H228.5a1.3,1.3,0,0,1,0-2.6h4.28a1.3,1.3,0,1,1,0,2.6Zm-11.47,0H217a1.3,1.3,0,0,1,0-2.6h4.28a1.3,1.3,0,1,1,0,2.6Zm-11.46,0h-4.29a1.3,1.3,0,0,1,0-2.6h4.29a1.3,1.3,0,1,1,0,2.6Zm-11.47,0H194.1a1.3,1.3,0,1,1,0-2.6h4.28a1.3,1.3,0,1,1,0,2.6Zm-11.47,0h-4.28a1.3,1.3,0,1,1,0-2.6h4.28a1.3,1.3,0,1,1,0,2.6Zm-11.46,0h-4.28a1.3,1.3,0,1,1,0-2.6h4.28a1.3,1.3,0,1,1,0,2.6Z" transform="translate(-29.5 -51.75)"/><path class="f" d="M161.46,58.42a1.3,1.3,0,0,1-1.3-1.3V54.75a1.3,1.3,0,0,1,1.3-1.3h2.21a1.3,1.3,0,1,1,0,2.6h-.91v1.07A1.31,1.31,0,0,1,161.46,58.42Z" transform="translate(-29.5 -51.75)"/><path class="f" d="M161.46,67.44a1.3,1.3,0,0,1-1.3-1.3V62.77a1.3,1.3,0,0,1,2.6,0v3.37A1.3,1.3,0,0,1,161.46,67.44Z" transform="translate(-29.5 -51.75)"/><path class="f" d="M161.46,75.39a1.3,1.3,0,0,1-1.3-1.3v-2.3a1.3,1.3,0,0,1,2.6,0v2.3A1.3,1.3,0,0,1,161.46,75.39Z" transform="translate(-29.5 -51.75)"/><path class="f" d="M42.63,200.62a1.3,1.3,0,0,0-1.3,1.3v4.43a1.3,1.3,0,1,0,2.6,0v-4.43A1.3,1.3,0,0,0,42.63,200.62Z" transform="translate(-29.5 -51.75)"/><path class="f" d="M42.63,212.39a1.3,1.3,0,0,0-1.3,1.3v4.44a1.3,1.3,0,1,0,2.6,0v-4.44A1.3,1.3,0,0,0,42.63,212.39Z" transform="translate(-29.5 -51.75)"/><path class="f" d="M42.63,188.85a1.3,1.3,0,0,0-1.3,1.3v4.43a1.3,1.3,0,0,0,2.6,0v-4.43A1.3,1.3,0,0,0,42.63,188.85Z" transform="translate(-29.5 -51.75)"/><path class="f" d="M44.84,228.22H42.63a1.3,1.3,0,0,1-1.3-1.3V224.7a1.3,1.3,0,0,1,2.6,0v.92h.91a1.3,1.3,0,0,1,0,2.6Z" transform="translate(-29.5 -51.75)"/><path class="f" d="M115.63,228.22H111.2a1.3,1.3,0,1,1,0-2.6h4.43a1.3,1.3,0,1,1,0,2.6Zm-11.77,0H99.42a1.3,1.3,0,0,1,0-2.6h4.44a1.3,1.3,0,1,1,0,2.6Zm-11.77,0H87.65a1.3,1.3,0,1,1,0-2.6h4.44a1.3,1.3,0,0,1,0,2.6Zm-11.78,0H75.88a1.3,1.3,0,0,1,0-2.6h4.43a1.3,1.3,0,0,1,0,2.6Zm-11.77,0H64.11a1.3,1.3,0,0,1,0-2.6h4.43a1.3,1.3,0,0,1,0,2.6Zm-11.77,0H52.34a1.3,1.3,0,1,1,0-2.6h4.43a1.3,1.3,0,1,1,0,2.6Z" transform="translate(-29.5 -51.75)"/><path class="f" d="M125.8,228.22h-2.37a1.3,1.3,0,1,1,0-2.6h1.07v-.92a1.3,1.3,0,0,1,2.6,0v2.22A1.3,1.3,0,0,1,125.8,228.22Z" transform="translate(-29.5 -51.75)"/><path class="f" d="M125.8,220.19a1.3,1.3,0,0,1-1.3-1.3v-3.52a1.3,1.3,0,1,1,2.6,0v3.52A1.3,1.3,0,0,1,125.8,220.19Z" transform="translate(-29.5 -51.75)"/><path class="f" d="M125.8,210.86a1.3,1.3,0,0,1-1.3-1.3v-2.29a1.3,1.3,0,1,1,2.6,0v2.29A1.3,1.3,0,0,1,125.8,210.86Z" transform="translate(-29.5 -51.75)"/><rect class="b" x="3.21" y="31.74" width="18.87" height="80.67"/><path class="f" d="M42.3,184.4a2,2,0,0,1-1.81-1.17l-7.71-17.14a5.22,5.22,0,0,1-.48-2.2v-80a1,1,0,0,1,1-1h18a1,1,0,0,1,1,1v80a5.22,5.22,0,0,1-.48,2.2l-7.71,17.14A2,2,0,0,1,42.3,184.4ZM34.24,84.83v79.06a3.41,3.41,0,0,0,.31,1.41l7.71,17.13s0,0,0,0,0,0,0,0l7.72-17.13a3.57,3.57,0,0,0,.3-1.41V84.83Z" transform="translate(-29.5 -51.75)"/><path class="f" d="M52.36,84.83H32.24a2.75,2.75,0,0,1-2.74-2.74V66.76A2.74,2.74,0,0,1,32.24,64H52.36a2.75,2.75,0,0,1,2.74,2.74V82.09A2.76,2.76,0,0,1,52.36,84.83ZM32.24,66a.8.8,0,0,0-.8.8V82.09a.79.79,0,0,0,.8.79H52.36a.8.8,0,0,0,.8-.79V66.76a.81.81,0,0,0-.8-.8Z" transform="translate(-29.5 -51.75)"/><path class="f" d="M50.82,166.1H33.35a1,1,0,0,1-.94-1,1,1,0,0,1,.94-.94H50.82a1,1,0,0,1,1,.94,1,1,0,0,1-.94,1Z" transform="translate(-29.5 -51.75)"/><path class="f" d="M46.1,175.94H38.48a1,1,0,0,1-1-.94,1,1,0,0,1,.93-1H46.1a1,1,0,0,1,.06,1.94Z" transform="translate(-29.5 -51.75)"/><path class="f" d="M50.55,66H34.05a1,1,0,0,1-1-1h0V55.82a2.61,2.61,0,0,1,2.6-2.6H48.91a2.6,2.6,0,0,1,2.6,2.6V65A1,1,0,0,1,50.55,66ZM35,64H49.58V55.81a.67.67,0,0,0-.66-.66H35.68a.67.67,0,0,0-.66.66Z" transform="translate(-29.5 -51.75)"/><path class="f" d="M42.64,96.5a1,1,0,0,1-1-1V83.89a1,1,0,0,1,.94-1,1,1,0,0,1,1,.94v11.7a1,1,0,0,1-1,1Z" transform="translate(-29.5 -51.75)"/><path class="f" d="M42.64,165.54a1,1,0,0,1-1-1V110.78a1,1,0,0,1,.94-1,1,1,0,0,1,1,.94v53.85a1,1,0,0,1-1,1Z" transform="translate(-29.5 -51.75)"/><path class="f" d="M53.45,75.43H50.54a1,1,0,0,1-1-.94,1,1,0,0,1,.94-1h3a1,1,0,1,1,.06,1.94Z" transform="translate(-29.5 -51.75)"/><path class="f" d="M43.88,75.43H30.57a1,1,0,0,1-1-.94,1,1,0,0,1,.94-1H43.88a1,1,0,0,1,1,.94,1,1,0,0,1-.94,1Z" transform="translate(-29.5 -51.75)"/><path class="f" d="M167.74,140.06H108.27a1,1,0,1,1,0-2h59.47a1,1,0,0,1,0,2Z" transform="translate(-29.5 -51.75)"/><path class="f" d="M167.74,134.79H108.27a1,1,0,1,1,0-2h59.47a1,1,0,0,1,0,2Z" transform="translate(-29.5 -51.75)"/><path class="f" d="M185,145.19H108.27a1,1,0,1,1,0-2H185a1,1,0,0,1,0,2Z" transform="translate(-29.5 -51.75)"/><path class="f" d="M88.7,166.63a1,1,0,0,1-.7-.29l-2.15-2.15a1,1,0,0,1,1.41-1.41l1.44,1.44,4.39-4.38a1,1,0,0,1,1.41,0,1,1,0,0,1,0,1.4l-5.09,5.1A1,1,0,0,1,88.7,166.63Z" transform="translate(-29.5 -51.75)"/><path class="f" d="M88.9,170.65a6.29,6.29,0,1,1,0-12.57,1,1,0,0,1,0,2,4.3,4.3,0,1,0,4.29,4.3,1,1,0,1,1,2,0A6.29,6.29,0,0,1,88.9,170.65Z" transform="translate(-29.5 -51.75)"/><path class="f" d="M137.25,162.9H99.32a1,1,0,0,1,0-2h37.93a1,1,0,0,1,0,2Z" transform="translate(-29.5 -51.75)"/><path class="f" d="M153.32,168h-54a1,1,0,0,1,0-2h54a1,1,0,0,1,0,2Z" transform="translate(-29.5 -51.75)"/><path class="f" d="M88.7,188.38a1,1,0,0,1-.7-.29l-2.15-2.15a1,1,0,0,1,1.41-1.41L88.7,186l4.39-4.38a1,1,0,0,1,1.41,0,1,1,0,0,1,0,1.4l-5.09,5.1A1,1,0,0,1,88.7,188.38Z" transform="translate(-29.5 -51.75)"/><path class="f" d="M88.9,192.4a6.29,6.29,0,1,1,0-12.57,1,1,0,0,1,0,2,4.3,4.3,0,1,0,4.29,4.3,1,1,0,1,1,2,0A6.29,6.29,0,0,1,88.9,192.4Z" transform="translate(-29.5 -51.75)"/><path class="f" d="M137.25,184.67H99.32a1,1,0,0,1,0-2h37.93a1,1,0,0,1,0,2Z" transform="translate(-29.5 -51.75)"/><path class="f" d="M153.32,189.79h-54a1,1,0,0,1,0-2h54a1,1,0,0,1,0,2Z" transform="translate(-29.5 -51.75)"/><path class="g" d="M224.75,166.57H169.69a3.21,3.21,0,0,0-3.21,3.21v11.38H228V169.78A3.21,3.21,0,0,0,224.75,166.57Z" transform="translate(-29.5 -51.75)"/><path class="f" d="M223.77,226.4H170.63a5.26,5.26,0,0,1-5.25-5.25V170.34a5.26,5.26,0,0,1,5.25-5.26h53.14a5.27,5.27,0,0,1,5.26,5.26v50.81A5.26,5.26,0,0,1,223.77,226.4Zm-53.14-59.17a3.1,3.1,0,0,0-3.1,3.11v50.81a3.1,3.1,0,0,0,3.1,3.1h53.14a3.1,3.1,0,0,0,3.11-3.1V170.34a3.11,3.11,0,0,0-3.11-3.11Z" transform="translate(-29.5 -51.75)"/><path class="f" d="M227.45,182.23h-61a1.08,1.08,0,0,1,0-2.15h61a1.08,1.08,0,0,1,0,2.15Z" transform="translate(-29.5 -51.75)"/><path class="f" d="M214.85,200.45a6.29,6.29,0,1,1,6.29-6.28A6.29,6.29,0,0,1,214.85,200.45Zm0-10.42a4.14,4.14,0,1,0,4.14,4.14A4.13,4.13,0,0,0,214.85,190Z" transform="translate(-29.5 -51.75)"/><path class="f" d="M197,218.67a6.29,6.29,0,1,1,6.29-6.28A6.29,6.29,0,0,1,197,218.67Zm0-10.42a4.14,4.14,0,1,0,4.14,4.14A4.14,4.14,0,0,0,197,208.25Z" transform="translate(-29.5 -51.75)"/><path class="f" d="M214.85,218.67a6.29,6.29,0,1,1,6.29-6.28A6.29,6.29,0,0,1,214.85,218.67Zm0-10.42a4.14,4.14,0,1,0,4.14,4.14A4.13,4.13,0,0,0,214.85,208.25Z" transform="translate(-29.5 -51.75)"/><path class="f" d="M179.09,218.67a6.29,6.29,0,1,1,6.29-6.28A6.29,6.29,0,0,1,179.09,218.67Zm0-10.42a4.14,4.14,0,1,0,4.14,4.14A4.14,4.14,0,0,0,179.09,208.25Z" transform="translate(-29.5 -51.75)"/><path class="f" d="M197,200.47a6.29,6.29,0,1,1,6.29-6.28A6.29,6.29,0,0,1,197,200.47Zm0-10.42a4.14,4.14,0,1,0,4.14,4.14A4.14,4.14,0,0,0,197,190.05Z" transform="translate(-29.5 -51.75)"/><path class="f" d="M179.09,200.47a6.29,6.29,0,1,1,6.29-6.28A6.29,6.29,0,0,1,179.09,200.47Zm0-10.42a4.14,4.14,0,1,0,4.14,4.14A4.14,4.14,0,0,0,179.09,190.05Z" transform="translate(-29.5 -51.75)"/><path class="f" d="M187.15,175.53h-3.47a1.07,1.07,0,0,1-1.07-1.07V161.13a1.07,1.07,0,1,1,2.14,0v12.26h2.4a1.07,1.07,0,1,1,0,2.14Z" transform="translate(-29.5 -51.75)"/><path class="f" d="M212.18,175.53H208.7a1.07,1.07,0,0,1-1.07-1.07V161.13a1.08,1.08,0,1,1,2.15,0v12.26h2.4a1.07,1.07,0,0,1,0,2.14Z" transform="translate(-29.5 -51.75)"/><path class="h" d="M268.42,131.48a14.82,14.82,0,0,0-1.65-4.5l3.68-3.69-5-5L262,121.78a15.56,15.56,0,0,0-4.7-2.17V115h-7v4.42a15.27,15.27,0,0,0-5.07,2l-3.07-3.08-5,5.05,3.07,3.07a16.6,16.6,0,0,0-2,5.06h-4.42v7h4.65a15.83,15.83,0,0,0,2.16,4.71l-3.48,3.48,5,5,3.71-3.71a14.84,14.84,0,0,0,4.5,1.66V155h7.06v-5.6a14.83,14.83,0,0,0,4.08-1.76l4,4,5-5.05-4-4a14.94,14.94,0,0,0,1.76-4.12h5.64v-7.05Zm-8.54,9.6a9.36,9.36,0,1,1,0-13.23A9.36,9.36,0,0,1,259.88,141.08Z" transform="translate(-29.5 -51.75)"/><path class="f" d="M253.26,144.72A10.26,10.26,0,0,1,246,127.21h0a10.26,10.26,0,1,1,7.25,17.51Zm0-18.71a8.37,8.37,0,0,0-6,2.48h0a8.44,8.44,0,1,0,6-2.48Zm-6.61,1.84Z" transform="translate(-29.5 -51.75)"/><path class="f" d="M257.33,156h0l-7.06,0a.91.91,0,0,1-.9-.91v-4.68a15.46,15.46,0,0,1-3.44-1.28l-3.23,3.24a.91.91,0,0,1-1.28,0l-5-5a.92.92,0,0,1,0-1.28l3-3a16.32,16.32,0,0,1-1.69-3.65l-4,0h0a.94.94,0,0,1-.64-.3.92.92,0,0,1-.26-.65V131.5a.87.87,0,0,1,.9-.89h3.71a16.9,16.9,0,0,1,1.58-4L236.45,124a.92.92,0,0,1,0-1.28l5.05-5a.9.9,0,0,1,1.27,0l2.58,2.58a16.3,16.3,0,0,1,4-1.6V115a.9.9,0,0,1,.26-.64.94.94,0,0,1,.64-.26h7a.89.89,0,0,1,.9.9v4a17.22,17.22,0,0,1,3.68,1.69l2.94-2.94a.9.9,0,0,1,1.27,0l5,5a.87.87,0,0,1,.27.63.91.91,0,0,1-.27.64l-3.21,3.21a16.37,16.37,0,0,1,1.27,3.45l4.7,0h0a.93.93,0,0,1,.64.24.94.94,0,0,1,.26.63v7.05a.83.83,0,0,1-.26.61.87.87,0,0,1-.64.23h0l-5,0a15.85,15.85,0,0,1-1.31,3.08l3.51,3.52a.89.89,0,0,1,0,1.28l-5,5.05a.91.91,0,0,1-1.28,0l-3.51-3.51a16.18,16.18,0,0,1-3,1.3V155a1,1,0,0,1-.26.66A.93.93,0,0,1,257.33,156Zm-6.15-1.85h5.24v-4.7a.88.88,0,0,1,.66-.87,14.26,14.26,0,0,0,3.85-1.65.9.9,0,0,1,1.11.13l3.37,3.36,3.77-3.77-3.37-3.37a.91.91,0,0,1-.13-1.11,14.25,14.25,0,0,0,1.66-3.9.94.94,0,0,1,.87-.7h0l4.74,0v-5.22l-4.52,0h0a.91.91,0,0,1-.88-.74,14.44,14.44,0,0,0-1.55-4.24.92.92,0,0,1,.14-1.09l3.05-3-3.7-3.69-2.81,2.82a.91.91,0,0,1-1.15.1,14.71,14.71,0,0,0-4.43-2,.91.91,0,0,1-.67-.87v-3.75h-5.25v3.52a.92.92,0,0,1-.73.89,14.62,14.62,0,0,0-4.78,1.89.9.9,0,0,1-1.11-.13l-2.43-2.43-3.78,3.77,2.44,2.43a.92.92,0,0,1,.14,1.11,15.36,15.36,0,0,0-1.88,4.77.92.92,0,0,1-.89.73h-3.52v5.2l3.75,0h0a.94.94,0,0,1,.87.7,14.71,14.71,0,0,0,2,4.45.94.94,0,0,1-.11,1.16l-2.85,2.84,3.7,3.7,3.07-3.07a.91.91,0,0,1,1.08-.15,14.17,14.17,0,0,0,4.23,1.57.89.89,0,0,1,.73.88Z" transform="translate(-29.5 -51.75)"/><circle class="e" cx="59.62" cy="86.7" r="10.95"/><path class="i" d="M89.12,132A2.07,2.07,0,0,1,91,133.1a3.14,3.14,0,0,0-.51.39,1.88,1.88,0,0,1-2.67,0,2.76,2.76,0,0,0-.51-.39A2.06,2.06,0,0,1,89.12,132Zm2,1.83a.79.79,0,0,1,0,.22,2.42,2.42,0,0,0,2.4,2.4h.22a2.11,2.11,0,0,1-.19.23,2.56,2.56,0,0,0,0,3.62h0a1,1,0,0,1,.19.23.79.79,0,0,1-.22,0,2.41,2.41,0,0,0-2.4,2.4,1.55,1.55,0,0,1,0,.22,1.43,1.43,0,0,1-.23-.2,2.56,2.56,0,0,0-3.62,0h0a1.43,1.43,0,0,1-.23.2.79.79,0,0,1,0-.22,2.42,2.42,0,0,0-2.4-2.4.89.89,0,0,1-.23,0c.07-.08.13-.16.2-.23a2.56,2.56,0,0,0,0-3.62h0a1.43,1.43,0,0,1-.2-.23h.23a2.42,2.42,0,0,0,2.4-2.4.79.79,0,0,1,0-.22,1.43,1.43,0,0,1,.23.2,2.56,2.56,0,0,0,3.62,0h0C91,133.9,91.09,133.84,91.16,133.78Zm3.32,2.83a2.05,2.05,0,0,1,0,3.69,3.14,3.14,0,0,0-.39-.51,1.9,1.9,0,0,1,0-2.67A3.14,3.14,0,0,0,94.48,136.61ZM91,143.81a2.05,2.05,0,0,1-3.69,0,2.76,2.76,0,0,0,.51-.39,1.9,1.9,0,0,1,2.67,0A3.14,3.14,0,0,0,91,143.81Zm-7.2-3.51a2.05,2.05,0,0,1,0-3.69,3.14,3.14,0,0,0,.39.51,1.85,1.85,0,0,1,.55,1.34,1.88,1.88,0,0,1-.55,1.33A3.14,3.14,0,0,0,83.77,140.3Zm5.35,5A2.39,2.39,0,0,0,91.27,144a2.57,2.57,0,0,0,3.36-3.36,2.39,2.39,0,0,0,1.1-3.19,2.44,2.44,0,0,0-1.1-1.1A2.57,2.57,0,0,0,91.27,133a2.42,2.42,0,0,0-2.15-1.35A2.39,2.39,0,0,0,87,133a2.57,2.57,0,0,0-3.56,2.36,2.27,2.27,0,0,0,.2,1,2.39,2.39,0,0,0-1.1,3.2,2.42,2.42,0,0,0,1.1,1.09A2.57,2.57,0,0,0,87,144a2.38,2.38,0,0,0,2.14,1.34Zm2.36-2a3,3,0,0,0,0-.42,2.06,2.06,0,0,1,2.06-2.06,2.73,2.73,0,0,0,.41,0,1.68,1.68,0,0,1,.17.79,1.88,1.88,0,0,1-.55,1.33,1.85,1.85,0,0,1-1.33.56A2.11,2.11,0,0,1,91.48,143.32ZM94,136.1a2.73,2.73,0,0,0-.41,0A2.06,2.06,0,0,1,91.51,134a2.73,2.73,0,0,0,0-.41,1.66,1.66,0,0,1,.79-.17,1.8,1.8,0,0,1,1.33.55,1.84,1.84,0,0,1,.55,1.33A1.66,1.66,0,0,1,94,136.1Zm-7.21-2.5a2.73,2.73,0,0,0,0,.41,2.06,2.06,0,0,1-2.06,2.06,2.73,2.73,0,0,0-.41,0,1.66,1.66,0,0,1-.17-.79,1.88,1.88,0,0,1,.55-1.33,1.8,1.8,0,0,1,1.33-.55A2,2,0,0,1,86.77,133.6Zm-2.5,7.21a2.73,2.73,0,0,0,.41,0,2.06,2.06,0,0,1,2.06,2.06,2.73,2.73,0,0,0,0,.41,1.66,1.66,0,0,1-.79.17,1.86,1.86,0,0,1-1.88-1.87h0A1.66,1.66,0,0,1,84.27,140.81Z" transform="translate(-29.5 -51.75)"/></svg>