<svg xmlns="http://www.w3.org/2000/svg" width="262.29" height="182.69" viewBox="0 0 262.29 182.69"><defs><style>.a{opacity:0.35;}.b{fill:#b9e3eb;}.c,.h{fill:#fff;}.c{opacity:0.5;}.d{fill:#47a8b5;}.e{fill:#3e4449;}.f{fill:#f47523;}.g{fill:#e2e2e5;}</style></defs><title>set-up</title><g class="a"><path class="b" d="M263.76,132.36s-52.87-77.29-115-76.9S34.72,120.2,23.22,143.55,26.58,216.3,79,214,297.13,194.25,263.76,132.36Z" transform="translate(-19.57 -55.45)"/></g><rect class="c" x="39.28" y="20.75" width="166.18" height="99.75"/><rect class="c" x="135.26" y="33.14" width="91.3" height="71.92"/><rect class="d" x="135.8" y="34.37" width="92.01" height="8.44"/><circle class="e" cx="40.46" cy="69.34" r="28.18"/><circle class="f" cx="149.35" cy="69.41" r="3.16"/><circle class="f" cx="149.35" cy="82.65" r="3.16"/><circle class="f" cx="149.35" cy="95.2" r="3.16"/><rect class="g" x="40.73" y="120.49" width="164.64" height="12.98"/><path class="e" d="M142.57,178.57a3.68,3.68,0,1,0,3.68,3.68A3.68,3.68,0,0,0,142.57,178.57Zm0,5.18a1.5,1.5,0,1,1,1.49-1.5A1.5,1.5,0,0,1,142.57,183.75Z" transform="translate(-19.57 -55.45)"/><path class="e" d="M261.73,179.77a1.09,1.09,0,0,0-1.09,1.09v3.74a1.09,1.09,0,1,0,2.18,0v-3.74A1.09,1.09,0,0,0,261.73,179.77Z" transform="translate(-19.57 -55.45)"/><path class="e" d="M262.82,202.05V199a1.09,1.09,0,1,0-2.18,0v3.14C261.37,202,262.1,202,262.82,202.05Z" transform="translate(-19.57 -55.45)"/><path class="e" d="M261.73,188.81a1.09,1.09,0,0,0-1.09,1.09v3.75a1.09,1.09,0,1,0,2.18,0V189.9A1.09,1.09,0,0,0,261.73,188.81Z" transform="translate(-19.57 -55.45)"/><path class="e" d="M261.73,152.63a1.09,1.09,0,0,0-1.09,1.09v3.74a1.09,1.09,0,1,0,2.18,0v-3.74A1.09,1.09,0,0,0,261.73,152.63Z" transform="translate(-19.57 -55.45)"/><path class="e" d="M261.73,170.72a1.09,1.09,0,0,0-1.09,1.09v3.75a1.09,1.09,0,1,0,2.18,0v-3.75A1.09,1.09,0,0,0,261.73,170.72Z" transform="translate(-19.57 -55.45)"/><path class="e" d="M261.73,143.58a1.09,1.09,0,0,0-1.09,1.09v3.75a1.09,1.09,0,1,0,2.18,0v-3.75A1.09,1.09,0,0,0,261.73,143.58Z" transform="translate(-19.57 -55.45)"/><path class="e" d="M261.73,161.67a1.09,1.09,0,0,0-1.09,1.1v3.74a1.09,1.09,0,1,0,2.18,0v-3.74A1.09,1.09,0,0,0,261.73,161.67Z" transform="translate(-19.57 -55.45)"/><path class="e" d="M261.73,134.54a1.09,1.09,0,0,0-1.09,1.09v3.74a1.09,1.09,0,1,0,2.18,0v-3.74A1.09,1.09,0,0,0,261.73,134.54Z" transform="translate(-19.57 -55.45)"/><path class="e" d="M261.73,127.83h-2a1.09,1.09,0,1,0,0,2.18h.94V131a1.09,1.09,0,1,0,2.18,0v-2A1.09,1.09,0,0,0,261.73,127.83Z" transform="translate(-19.57 -55.45)"/><path class="e" d="M254.71,127.83h-3.59a1.09,1.09,0,1,0,0,2.18h3.59a1.09,1.09,0,1,0,0-2.18Z" transform="translate(-19.57 -55.45)"/><path class="e" d="M232.59,103.54a4.52,4.52,0,0,0-4.44,3.73H214.81a4.51,4.51,0,0,0-8.88,0H192.59a4.51,4.51,0,0,0-8.88,0H170.37a4.55,4.55,0,1,0,0,1.53h13.34a4.5,4.5,0,0,0,8.88,0h13.34a4.5,4.5,0,0,0,8.88,0h13.34a4.51,4.51,0,1,0,4.44-5.26ZM165.93,111a3,3,0,1,1,3-3A3,3,0,0,1,165.93,111Zm22.22,0a3,3,0,0,1-3-2.9s0-.07,0-.11,0,0,0-.08a3,3,0,1,1,3,3.09Zm22.22,0a3,3,0,1,1,3-3.22.8.8,0,0,0-.05.21.86.86,0,0,0,.05.23A3,3,0,0,1,210.37,111Zm22.22,0a3,3,0,1,1,3-3A3,3,0,0,1,232.59,111Z" transform="translate(-19.57 -55.45)"/><path class="e" d="M165.93,106.23a1.83,1.83,0,1,0,1.83,1.83A1.83,1.83,0,0,0,165.93,106.23Z" transform="translate(-19.57 -55.45)"/><path class="e" d="M188.17,106.23a1.83,1.83,0,1,0,1.83,1.83A1.83,1.83,0,0,0,188.17,106.23Z" transform="translate(-19.57 -55.45)"/><path class="e" d="M181.79,93.21h47.78a.77.77,0,1,0,0-1.53H181.79a.77.77,0,0,0,0,1.53Z" transform="translate(-19.57 -55.45)"/><path class="e" d="M181,95.52a.76.76,0,0,0,.76.76h58.8a.77.77,0,1,0,0-1.53h-58.8A.76.76,0,0,0,181,95.52Z" transform="translate(-19.57 -55.45)"/><path class="e" d="M159.53,91.6a2.29,2.29,0,1,0,2.28,2.29A2.3,2.3,0,0,0,159.53,91.6Z" transform="translate(-19.57 -55.45)"/><path class="e" d="M166.19,91.6a2.29,2.29,0,1,0,2.29,2.29A2.29,2.29,0,0,0,166.19,91.6Z" transform="translate(-19.57 -55.45)"/><path class="e" d="M172.86,91.6a2.29,2.29,0,1,0,2.29,2.29A2.3,2.3,0,0,0,172.86,91.6Z" transform="translate(-19.57 -55.45)"/><path class="e" d="M167.81,137a.59.59,0,1,0-.83.83l1.27,1.27a.58.58,0,0,0,.41.17.59.59,0,0,0,.42-.17l3-3a.59.59,0,1,0-.83-.83l-2.6,2.59Z" transform="translate(-19.57 -55.45)"/><path class="e" d="M171.9,137.36a.59.59,0,0,0-.58.59,2.54,2.54,0,1,1-2.54-2.54.59.59,0,1,0,0-1.17,3.72,3.72,0,1,0,3.71,3.71A.59.59,0,0,0,171.9,137.36Z" transform="translate(-19.57 -55.45)"/><path class="e" d="M174.93,137.09H218a.58.58,0,0,0,.55-.59.57.57,0,0,0-.55-.59h-43.1a.56.56,0,0,0-.54.59A.57.57,0,0,0,174.93,137.09Z" transform="translate(-19.57 -55.45)"/><path class="e" d="M227.52,138.94H174.93a.59.59,0,0,0,0,1.17h52.59a.59.59,0,0,0,0-1.17Z" transform="translate(-19.57 -55.45)"/><path class="e" d="M167.81,123.86a.59.59,0,1,0-.83.83l1.27,1.27a.58.58,0,0,0,.41.17.59.59,0,0,0,.42-.17l3-3a.59.59,0,1,0-.83-.83l-2.6,2.59Z" transform="translate(-19.57 -55.45)"/><path class="e" d="M171.9,124.21a.58.58,0,0,0-.58.59,2.54,2.54,0,1,1-2.54-2.54.6.6,0,0,0,.59-.59.59.59,0,0,0-.59-.59,3.72,3.72,0,1,0,3.71,3.72A.58.58,0,0,0,171.9,124.21Z" transform="translate(-19.57 -55.45)"/><path class="e" d="M174.93,123.93H218a.57.57,0,0,0,.55-.59.58.58,0,0,0-.55-.59h-43.1a.57.57,0,0,0-.54.59A.56.56,0,0,0,174.93,123.93Z" transform="translate(-19.57 -55.45)"/><path class="e" d="M227.52,125.78H174.93a.56.56,0,0,0-.54.59.57.57,0,0,0,.54.59h52.59a.58.58,0,0,0,.55-.59A.57.57,0,0,0,227.52,125.78Z" transform="translate(-19.57 -55.45)"/><path class="e" d="M167.81,149.86a.59.59,0,0,0-.83,0,.6.6,0,0,0,0,.84l1.27,1.26a.55.55,0,0,0,.41.18.56.56,0,0,0,.42-.18l3-3a.6.6,0,0,0,0-.84.6.6,0,0,0-.83,0l-2.6,2.6Z" transform="translate(-19.57 -55.45)"/><path class="e" d="M171.9,150.21a.59.59,0,0,0-.58.59,2.54,2.54,0,1,1-2.54-2.54.59.59,0,1,0,0-1.17,3.71,3.71,0,1,0,3.71,3.71A.59.59,0,0,0,171.9,150.21Z" transform="translate(-19.57 -55.45)"/><path class="e" d="M174.93,150H218a.58.58,0,0,0,.55-.59.57.57,0,0,0-.55-.59h-43.1a.56.56,0,0,0-.54.59A.57.57,0,0,0,174.93,150Z" transform="translate(-19.57 -55.45)"/><path class="e" d="M227.52,151.8H174.93a.59.59,0,0,0,0,1.17h52.59a.59.59,0,0,0,0-1.17Z" transform="translate(-19.57 -55.45)"/><path class="e" d="M112.89,132.06h16.16a.95.95,0,1,0,0-1.9H112.89a.95.95,0,1,0,0,1.9Z" transform="translate(-19.57 -55.45)"/><path class="e" d="M130,112a.94.94,0,0,0-.95-.95H112.89a.95.95,0,1,0,0,1.9h16.16A1,1,0,0,0,130,112Z" transform="translate(-19.57 -55.45)"/><path class="e" d="M122,121.55a1,1,0,0,0,1,1H138a1,1,0,1,0,0-1.9H122.94A.94.94,0,0,0,122,121.55Z" transform="translate(-19.57 -55.45)"/><path class="e" d="M106.37,122.5h5.7a1,1,0,0,0,0-1.9h-5.7a1,1,0,0,0,0,1.9Z" transform="translate(-19.57 -55.45)"/><path class="e" d="M137.34,149.28h-20a.95.95,0,1,0,0,1.9h20a1,1,0,0,0,0-1.9Z" transform="translate(-19.57 -55.45)"/><path class="e" d="M108,149.28h-5.71a1,1,0,0,0,0,1.9H108a.95.95,0,1,0,0-1.9Z" transform="translate(-19.57 -55.45)"/><path class="e" d="M112.07,103.38h19a1,1,0,0,0,0-1.91h-19a1,1,0,0,0,0,1.91Z" transform="translate(-19.57 -55.45)"/><path class="e" d="M96.59,103.38h6.52a1,1,0,0,0,0-1.91H96.59a1,1,0,0,0,0,1.91Z" transform="translate(-19.57 -55.45)"/><path class="e" d="M132,140.67a1,1,0,0,0-.95-.95h-19a.95.95,0,1,0,0,1.9h19A1,1,0,0,0,132,140.67Z" transform="translate(-19.57 -55.45)"/><path class="e" d="M96.59,141.62h6.52a1,1,0,0,0,0-1.9H96.59a1,1,0,0,0,0,1.9Z" transform="translate(-19.57 -55.45)"/><path class="e" d="M247.67,145.86V92.52a4.24,4.24,0,0,0-4.24-4.23H227.12V81.68A7.67,7.67,0,0,0,219.46,74H65.78a7.68,7.68,0,0,0-7.67,7.66v13.9a1,1,0,0,0,0,.23,29.12,29.12,0,0,0,0,58.11v29.53a7.67,7.67,0,0,0,7.67,7.66h56.51v30.46H106.7a1.09,1.09,0,1,0,0,2.18h72.37a1.09,1.09,0,1,0,0-2.18H163.16V191.11h56.3a7.67,7.67,0,0,0,7.66-7.66V161.52a1,1,0,0,0-.09-.42h16.4a4.24,4.24,0,0,0,4.24-4.23Zm-4.24-56a2.7,2.7,0,0,1,2.7,2.69v5.21H179.26v-7.9h64.17Zm-88.07,5.3V92.52a2.7,2.7,0,0,1,2.7-2.69h19.67v7.9H155.36ZM60.3,81.68a5.48,5.48,0,0,1,5.48-5.48H219.46a5.49,5.49,0,0,1,5.48,5.48v6.61H158.06a4.24,4.24,0,0,0-4.23,4.23v64.35a4.24,4.24,0,0,0,4.23,4.23h67a1.16,1.16,0,0,0-.08.42v12H60.3V154a29.12,29.12,0,0,0,0-58.23,1,1,0,0,0,0-.17ZM33.09,124.87A26.94,26.94,0,1,1,60,151.8,27,27,0,0,1,33.09,124.87ZM161,221.57H124.48V191.11H161Zm58.49-32.64H65.78a5.48,5.48,0,0,1-5.48-5.48v-7.74H224.94v7.74A5.49,5.49,0,0,1,219.46,188.93Zm26.67-59v26.89a2.7,2.7,0,0,1-2.7,2.69H158.06a2.7,2.7,0,0,1-2.7-2.69V99.26h90.77v28.6" transform="translate(-19.57 -55.45)"/><path class="g" d="M275.78,215.51a14.45,14.45,0,0,0-1.59-4.32l3.53-3.54L273,202.87l-3.32,3.32a15.14,15.14,0,0,0-4.51-2.08v-4.46h-6.77v4.24a14.5,14.5,0,0,0-4.87,1.94l-2.95-3-4.85,4.85,2.95,2.95a15.65,15.65,0,0,0-1.91,4.86h-4.25v6.77H247A15.05,15.05,0,0,0,249,226.8l-3.34,3.34,4.77,4.78,3.57-3.56a14.18,14.18,0,0,0,4.32,1.59v5.19h6.78v-5.38a14.4,14.4,0,0,0,3.92-1.69l3.85,3.85,4.84-4.85-3.84-3.84a14.15,14.15,0,0,0,1.69-3.95H281v-6.77Zm-8.21,9.22a9,9,0,1,1,0-12.71A9,9,0,0,1,267.57,224.73Z" transform="translate(-19.57 -55.45)"/><path class="e" d="M261.21,226.94a9.86,9.86,0,0,1-7-16.82h0a9.85,9.85,0,1,1,7,16.82Zm0-18a8.07,8.07,0,0,0-5.73,2.38h0A8.11,8.11,0,1,0,267,222.83,8.12,8.12,0,0,0,261.21,209Zm-6.35,1.77Z" transform="translate(-19.57 -55.45)"/><path class="e" d="M265.12,237.77h0l-6.78,0a.87.87,0,0,1-.86-.88v-4.49a15.75,15.75,0,0,1-3.3-1.23l-3.1,3.11a.89.89,0,0,1-1.23,0l-4.77-4.78a.85.85,0,0,1,0-1.22l2.85-2.85a15.27,15.27,0,0,1-1.62-3.51l-3.82,0h0a.92.92,0,0,1-.87-.9v-6.78a.88.88,0,0,1,.25-.61.9.9,0,0,1,.61-.25H246a17.12,17.12,0,0,1,1.52-3.86l-2.48-2.48a.86.86,0,0,1,0-1.23l4.84-4.85a.89.89,0,0,1,1.23,0l2.48,2.48a15.64,15.64,0,0,1,3.87-1.54v-3.55a.86.86,0,0,1,.25-.61.91.91,0,0,1,.62-.26h6.77a.83.83,0,0,1,.61.26.86.86,0,0,1,.25.61v3.81a15.88,15.88,0,0,1,3.53,1.63l2.83-2.83a.88.88,0,0,1,1.22,0l4.78,4.78a.87.87,0,0,1,0,1.22l-3.09,3.09a14.89,14.89,0,0,1,1.22,3.31H281a.89.89,0,0,1,.62.24.88.88,0,0,1,.25.61V221a.79.79,0,0,1-.25.58.88.88,0,0,1-.62.22h0l-4.76,0a16.13,16.13,0,0,1-1.25,3l3.37,3.38a.86.86,0,0,1,.25.61.9.9,0,0,1-.25.62l-4.85,4.84a.86.86,0,0,1-1.22,0l-3.38-3.37a14.51,14.51,0,0,1-2.91,1.25v4.73a.93.93,0,0,1-.25.64A.89.89,0,0,1,265.12,237.77ZM259.21,236h5v-4.52a.88.88,0,0,1,.64-.84,13.4,13.4,0,0,0,3.69-1.58.87.87,0,0,1,1.07.12l3.24,3.24,3.62-3.62-3.23-3.24a.86.86,0,0,1-.13-1.07,13.52,13.52,0,0,0,1.59-3.74.9.9,0,0,1,.84-.67h0l4.55,0v-5l-4.34,0h0a.88.88,0,0,1-.85-.71,13.76,13.76,0,0,0-1.5-4.08.88.88,0,0,1,.14-1l2.93-2.93L273,202.81l-2.71,2.71a.86.86,0,0,1-1.1.1,14.38,14.38,0,0,0-4.25-2,.87.87,0,0,1-.64-.84v-3.59h-5v3.37a.86.86,0,0,1-.7.85,14.22,14.22,0,0,0-4.59,1.82.85.85,0,0,1-1.07-.12l-2.33-2.34-3.63,3.62,2.34,2.34a.85.85,0,0,1,.13,1.06,14.93,14.93,0,0,0-1.8,4.59.88.88,0,0,1-.85.7h-3.38v5l3.6,0h0a.88.88,0,0,1,.83.67,14.49,14.49,0,0,0,2,4.27.89.89,0,0,1-.1,1.11l-2.74,2.73,3.55,3.56,3-2.95a.86.86,0,0,1,1-.14,13.36,13.36,0,0,0,4.07,1.5.86.86,0,0,1,.69.85Z" transform="translate(-19.57 -55.45)"/><path class="h" d="M77.2,112l-5.56-5.56a.79.79,0,0,0-1.09,0l-3.09,3.09-.66-.65a.76.76,0,0,0-1.09,0l-6.35,6.35a.74.74,0,0,0-.23.54.76.76,0,0,0,.23.55l.39.4L47,129.4a.83.83,0,0,0-.17.27l-3.71,9.79a.76.76,0,0,0,1,1l9.79-3.71a.73.73,0,0,0,.27-.17l12.72-12.72.4.4a.81.81,0,0,0,1.09,0l6.36-6.36a.77.77,0,0,0,0-1.09l-.66-.66,3.09-3.09A.77.77,0,0,0,77.2,112Zm-32,26.44.8-2.1,1.3,1.31ZM48.8,137l-.17-.27-1.87-1.84-.2-.13,1.26-3.31,4.29,4.29Zm4.75-2-1.84-1.84,3.73-3.73a.77.77,0,0,0-1.09-1.09l-3.73,3.73-2.06-2.06,12.28-12.28,2.06,2-3.42,3.43a.77.77,0,0,0,0,1.09.79.79,0,0,0,1.09,0L64,120.92l1.84,1.84Zm17.51-15.62-.66-.66a.77.77,0,0,0-1.09,0,.76.76,0,0,0-.23.55.74.74,0,0,0,.23.54l.66.66-2.1,2.1L61,115.73l2.1-2.1,4,4a.79.79,0,0,0,1.09,0,.76.76,0,0,0,.23-.55.77.77,0,0,0-.22-.54l-4-4,2.07-2.07,6.88,6.88Zm2-4.37-4.47-4.46L71.1,108l4.46,4.46Z" transform="translate(-19.57 -55.45)"/></svg>