<svg xmlns="http://www.w3.org/2000/svg" width="256.5" height="175.9" viewBox="0 0 256.5 175.9"><defs><style>.a{opacity:0.35;}.b{fill:#b9e3eb;}.c{fill:#fff;opacity:0.5;}.d{fill:#f47523;}.e{fill:#1e243a;}.f{fill:#1d243a;}.g{fill:#e2e2e5;}.h{fill:#3e4449;}.i{fill:#47a8b5;}</style></defs><title>tools-dialog-converter</title><g class="a"><path class="b" d="M273.32,149.15S221.09,68,157.11,66.61,37.72,130,25.2,153.75s1.37,75,55.39,74.22S305.92,213.87,273.32,149.15Z" transform="translate(-20.92 -66.59)"/></g><rect class="c" x="39.6" y="25.77" width="152.24" height="125.74"/><polygon class="b" points="168.96 123.55 167.24 139.33 47.59 139.33 47.59 90.03 180.59 90.03 180.59 113.4 168.96 123.55"/><path class="d" d="M264.17,79.5H230.73a5.66,5.66,0,0,0-5.7,5.66v17.73a5.66,5.66,0,0,0,5.7,5.66h12l7.87,7.87,5.74-7.87h7.83a5.65,5.65,0,0,0,5.69-5.66V85.16A5.65,5.65,0,0,0,264.17,79.5ZM234.79,97.29A3.21,3.21,0,1,1,238,94.08,3.21,3.21,0,0,1,234.79,97.29Zm12.66,0a3.21,3.21,0,1,1,3.21-3.21A3.21,3.21,0,0,1,247.45,97.29Zm12.65,0a3.21,3.21,0,1,1,3.21-3.21A3.21,3.21,0,0,1,260.1,97.29Z" transform="translate(-20.92 -66.59)"/><path class="e" d="M250.6,117.36a.9.9,0,0,1-.64-.26l-7.6-7.6H230.73a6.62,6.62,0,0,1-6.61-6.61V85.16a6.62,6.62,0,0,1,6.61-6.6h33.44a6.61,6.61,0,0,1,6.6,6.6v17.73a6.62,6.62,0,0,1-6.6,6.61h-7.38l-5.47,7.5a.88.88,0,0,1-.65.36Zm-19.87-37a4.81,4.81,0,0,0-4.81,4.81v17.73a4.81,4.81,0,0,0,4.81,4.81h12a.9.9,0,0,1,.63.27l7.13,7.12,5.12-7a.91.91,0,0,1,.73-.37h7.83a4.81,4.81,0,0,0,4.81-4.81V85.16a4.82,4.82,0,0,0-4.81-4.81Z" transform="translate(-20.92 -66.59)"/><path class="e" d="M234.79,98.18a4.11,4.11,0,1,1,4.11-4.1A4.11,4.11,0,0,1,234.79,98.18Zm0-6.42a2.32,2.32,0,1,0,2.32,2.32A2.32,2.32,0,0,0,234.79,91.76Z" transform="translate(-20.92 -66.59)"/><path class="e" d="M247.45,98.18a4.11,4.11,0,1,1,4.11-4.1A4.11,4.11,0,0,1,247.45,98.18Zm0-6.42a2.32,2.32,0,1,0,2.31,2.32A2.31,2.31,0,0,0,247.45,91.76Z" transform="translate(-20.92 -66.59)"/><path class="e" d="M260.1,98.18a4.11,4.11,0,1,1,4.11-4.1A4.11,4.11,0,0,1,260.1,98.18Zm0-6.42a2.32,2.32,0,1,0,2.32,2.32A2.32,2.32,0,0,0,260.1,91.76Z" transform="translate(-20.92 -66.59)"/><path class="e" d="M250.61,127.2a.85.85,0,0,1-.84-.84v-1.55a.84.84,0,0,1,1.68,0v1.55A.85.85,0,0,1,250.61,127.2Z" transform="translate(-20.92 -66.59)"/><path class="e" d="M250.61,193.19a.84.84,0,0,1-.84-.84v-3a.84.84,0,0,1,1.68,0v3A.84.84,0,0,1,250.61,193.19Zm0-8.25a.84.84,0,0,1-.84-.84v-3a.84.84,0,0,1,1.68,0v3A.84.84,0,0,1,250.61,184.94Zm0-8.25a.84.84,0,0,1-.84-.83v-3a.84.84,0,0,1,1.68,0v3A.84.84,0,0,1,250.61,176.69Zm0-8.25a.84.84,0,0,1-.84-.83v-3a.84.84,0,0,1,1.68,0v3A.84.84,0,0,1,250.61,168.44Zm0-8.25a.84.84,0,0,1-.84-.83v-3a.84.84,0,0,1,1.68,0v3A.84.84,0,0,1,250.61,160.19Zm0-8.24a.85.85,0,0,1-.84-.84v-3a.84.84,0,0,1,1.68,0v3A.85.85,0,0,1,250.61,152Zm0-8.25a.85.85,0,0,1-.84-.84v-3a.84.84,0,0,1,1.68,0v3A.85.85,0,0,1,250.61,143.7Zm0-8.25a.85.85,0,0,1-.84-.84v-3a.84.84,0,0,1,1.68,0v3A.85.85,0,0,1,250.61,135.45Z" transform="translate(-20.92 -66.59)"/><path class="e" d="M250.61,199.53h-1.55a.84.84,0,0,1,0-1.68h.71v-.6a.84.84,0,0,1,1.68,0v1.44A.85.85,0,0,1,250.61,199.53Z" transform="translate(-20.92 -66.59)"/><path class="e" d="M243.32,199.53h-1.44a.84.84,0,0,1,0-1.68h1.44a.84.84,0,0,1,0,1.68Z" transform="translate(-20.92 -66.59)"/><path class="f" d="M210.4,216.16a4,4,0,0,1-3.32,1.79H62.85a4.18,4.18,0,0,1-4.14-4.22V98.45a4,4,0,0,1,4-4H207.28a3.85,3.85,0,0,1,3.78,3.93v86.85a3.7,3.7,0,0,1,2.52,0V98.37a6.42,6.42,0,0,0-6.38-6.44H62.73a6.58,6.58,0,0,0-6.54,6.6v115.2a6.7,6.7,0,0,0,6.66,6.73H207.08a6.55,6.55,0,0,0,5.89-3.82A3.61,3.61,0,0,1,210.4,216.16Z" transform="translate(-20.92 -66.59)"/><path class="f" d="M194.62,108.71H58.37a1.26,1.26,0,0,1-1.26-1.25h0a1.26,1.26,0,0,1,1.26-1.26H194.62a1.26,1.26,0,1,1,0,2.51Z" transform="translate(-20.92 -66.59)"/><path class="f" d="M86.64,107.62a1.25,1.25,0,0,1-1.25-1.25h0V94.12a1.25,1.25,0,0,1,1.25-1.26h0a1.25,1.25,0,0,1,1.26,1.26v12.25A1.25,1.25,0,0,1,86.64,107.62Z" transform="translate(-20.92 -66.59)"/><path class="f" d="M67,103.89a3.8,3.8,0,1,1,3.8-3.8A3.8,3.8,0,0,1,67,103.89Zm0-5.08a1.29,1.29,0,1,0,1.28,1.28A1.28,1.28,0,0,0,67,98.81Z" transform="translate(-20.92 -66.59)"/><path class="f" d="M77.21,103.89a3.8,3.8,0,1,1,3.8-3.8A3.8,3.8,0,0,1,77.21,103.89Zm0-5.08a1.29,1.29,0,1,0,1.28,1.28,1.28,1.28,0,0,0-1.28-1.28Z" transform="translate(-20.92 -66.59)"/><path class="f" d="M171.63,99H92.26a1.26,1.26,0,0,1,0-2.52h79.37a1.26,1.26,0,0,1,1.26,1.26h0A1.27,1.27,0,0,1,171.63,99Z" transform="translate(-20.92 -66.59)"/><path class="f" d="M134.89,104H92.27A1.25,1.25,0,0,1,91,102.76h0a1.25,1.25,0,0,1,1.26-1.26h42.62a1.25,1.25,0,0,1,1.25,1.26h0a1.25,1.25,0,0,1-1.25,1.25Z" transform="translate(-20.92 -66.59)"/><path class="f" d="M211.4,108.71h-6.88a1.25,1.25,0,0,1-1.26-1.25h0a1.25,1.25,0,0,1,1.26-1.26h6.88a1.25,1.25,0,0,1,1.25,1.25h0a1.25,1.25,0,0,1-1.25,1.25Z" transform="translate(-20.92 -66.59)"/><path class="f" d="M204.85,144a1.25,1.25,0,0,1-1.26,1.26H66.34A1.26,1.26,0,0,1,65.08,144V116.52a1.26,1.26,0,0,1,1.26-1.26H203.59a1.25,1.25,0,0,1,1.26,1.25h0ZM67.6,142.78H202.34v-25H67.6Z" transform="translate(-20.92 -66.59)"/><path class="f" d="M69,207.47h-1.2a.71.71,0,0,1-.71-.72h0v-1.19a.72.72,0,0,1,1.43-.05V206H69a.71.71,0,0,1,.74.69.73.73,0,0,1-.69.74Z" transform="translate(-20.92 -66.59)"/><path class="f" d="M190.47,207.47h-2.31a.71.71,0,0,1-.69-.74.7.7,0,0,1,.69-.69h2.31a.72.72,0,0,1,0,1.43Zm-6.38,0h-2.32a.71.71,0,0,1-.68-.74.7.7,0,0,1,.68-.69h2.32a.72.72,0,0,1,.69.74A.73.73,0,0,1,184.09,207.47Zm-6.39,0h-2.31a.73.73,0,0,1-.69-.74.72.72,0,0,1,.69-.69h2.31a.7.7,0,0,1,.69.74A.71.71,0,0,1,177.7,207.47Zm-6.38,0H169a.71.71,0,0,1-.69-.74A.7.7,0,0,1,169,206h2.31a.71.71,0,0,1,.69.74A.72.72,0,0,1,171.32,207.47Zm-6.38,0h-2.32a.73.73,0,0,1-.69-.74.72.72,0,0,1,.69-.69h2.32a.72.72,0,0,1,.69.74A.73.73,0,0,1,164.94,207.47Zm-6.39,0h-2.31a.72.72,0,0,1-.69-.74.7.7,0,0,1,.69-.69h2.31a.7.7,0,0,1,.69.74A.71.71,0,0,1,158.55,207.47Zm-6.38,0h-2.31a.71.71,0,0,1-.69-.74.7.7,0,0,1,.69-.69h2.31a.72.72,0,0,1,.69.74A.73.73,0,0,1,152.17,207.47Zm-6.38,0h-2.32a.73.73,0,0,1-.69-.74.72.72,0,0,1,.69-.69h2.32a.7.7,0,0,1,.68.74A.71.71,0,0,1,145.79,207.47Zm-6.39,0h-2.31a.72.72,0,0,1-.69-.74.7.7,0,0,1,.69-.69h2.31a.7.7,0,0,1,.69.74A.71.71,0,0,1,139.4,207.47Zm-6.38,0h-2.31a.71.71,0,0,1-.69-.74.7.7,0,0,1,.69-.69H133a.72.72,0,0,1,.69.74A.73.73,0,0,1,133,207.47Zm-6.39,0h-2.31a.73.73,0,0,1-.69-.74.72.72,0,0,1,.69-.69h2.31a.7.7,0,0,1,.69.74A.71.71,0,0,1,126.63,207.47Zm-6.38,0h-2.31a.73.73,0,0,1-.69-.74.72.72,0,0,1,.69-.69h2.31a.7.7,0,0,1,.69.74.71.71,0,0,1-.69.69Zm-6.38,0h-2.31a.71.71,0,0,1-.69-.74.7.7,0,0,1,.69-.69h2.31a.72.72,0,0,1,.69.74A.73.73,0,0,1,113.87,207.47Zm-6.39,0h-2.31a.73.73,0,0,1-.69-.74.72.72,0,0,1,.69-.69h2.31a.7.7,0,0,1,.69.74A.71.71,0,0,1,107.48,207.47Zm-6.38,0H98.79a.71.71,0,0,1-.69-.74.7.7,0,0,1,.69-.69h2.31a.72.72,0,0,1,0,1.43Zm-6.38,0H92.4a.71.71,0,0,1-.68-.74.7.7,0,0,1,.68-.69h2.32a.72.72,0,0,1,.69.74A.73.73,0,0,1,94.72,207.47Zm-6.39,0H86a.73.73,0,0,1-.69-.74A.72.72,0,0,1,86,206h2.31a.7.7,0,0,1,.69.74.71.71,0,0,1-.69.69Zm-6.38,0H79.64a.71.71,0,0,1-.69-.74.7.7,0,0,1,.69-.69H82a.72.72,0,0,1,0,1.43Zm-6.38,0H73.25a.71.71,0,0,1-.68-.74.7.7,0,0,1,.68-.69h2.32a.72.72,0,0,1,.69.74A.73.73,0,0,1,75.57,207.47Z" transform="translate(-20.92 -66.59)"/><path class="f" d="M202.22,183a.71.71,0,0,1-.71-.72h0V180a.72.72,0,0,1,1.43,0v2.29a.71.71,0,0,1-.71.72Zm0-6.39a.72.72,0,0,1-.71-.72h0V173.6a.72.72,0,0,1,1.43,0v2.29A.72.72,0,0,1,202.22,176.61Zm0-6.4a.71.71,0,0,1-.71-.71h0v-2.29a.72.72,0,0,1,1.43,0v2.29a.71.71,0,0,1-.71.71Zm0-6.39a.71.71,0,0,1-.71-.72v-2.28a.72.72,0,0,1,1.43,0v2.28a.72.72,0,0,1-.72.72Z" transform="translate(-20.92 -66.59)"/><path class="f" d="M202.22,157.81a.71.71,0,0,1-.71-.71h0v-.48H201a.73.73,0,0,1-.69-.74.72.72,0,0,1,.69-.69h1.19a.71.71,0,0,1,.72.71h0v1.2A.71.71,0,0,1,202.22,157.81Z" transform="translate(-20.92 -66.59)"/><path class="f" d="M196.76,156.62h-2.31a.71.71,0,0,1-.69-.74.7.7,0,0,1,.69-.69h2.31a.72.72,0,0,1,.69.74A.73.73,0,0,1,196.76,156.62Zm-6.38,0h-2.32a.73.73,0,0,1-.69-.74.72.72,0,0,1,.69-.69h2.32a.72.72,0,0,1,.69.74A.73.73,0,0,1,190.38,156.62Zm-6.39,0h-2.31a.72.72,0,0,1-.69-.74.71.71,0,0,1,.69-.69H184a.7.7,0,0,1,.69.74A.72.72,0,0,1,184,156.62Zm-6.38,0H175.3a.71.71,0,0,1-.69-.74.7.7,0,0,1,.69-.69h2.31a.72.72,0,0,1,.69.74A.73.73,0,0,1,177.61,156.62Zm-6.38,0h-2.32a.73.73,0,0,1-.69-.74.72.72,0,0,1,.69-.69h2.32a.7.7,0,0,1,.68.74A.72.72,0,0,1,171.23,156.62Zm-6.39,0h-2.31a.72.72,0,0,1-.69-.74.7.7,0,0,1,.69-.69h2.31a.7.7,0,0,1,.69.74A.72.72,0,0,1,164.84,156.62Zm-6.38,0h-2.31a.71.71,0,0,1-.69-.74.7.7,0,0,1,.69-.69h2.31a.72.72,0,0,1,.69.74A.73.73,0,0,1,158.46,156.62Zm-6.38,0h-2.32a.73.73,0,0,1-.69-.74.72.72,0,0,1,.69-.69h2.32a.72.72,0,0,1,.69.74A.73.73,0,0,1,152.08,156.62Zm-6.39,0h-2.31a.72.72,0,0,1-.69-.74.71.71,0,0,1,.69-.69h2.31a.7.7,0,0,1,.69.74A.72.72,0,0,1,145.69,156.62Zm-6.38,0H137a.71.71,0,0,1-.69-.74.7.7,0,0,1,.69-.69h2.31a.72.72,0,0,1,.69.74A.73.73,0,0,1,139.31,156.62Zm-6.38,0h-2.32a.73.73,0,0,1-.69-.74.72.72,0,0,1,.69-.69h2.32a.72.72,0,0,1,.69.74A.73.73,0,0,1,132.93,156.62Zm-6.39,0h-2.31a.72.72,0,0,1-.69-.74.71.71,0,0,1,.69-.69h2.31a.7.7,0,0,1,.69.74A.72.72,0,0,1,126.54,156.62Zm-6.38,0h-2.31a.71.71,0,0,1-.69-.74.7.7,0,0,1,.69-.69h2.31a.71.71,0,0,1,.69.74.73.73,0,0,1-.69.69Zm-6.38,0h-2.32a.73.73,0,0,1-.69-.74.72.72,0,0,1,.69-.69h2.32a.7.7,0,0,1,.68.74A.72.72,0,0,1,113.78,156.62Zm-6.39,0h-2.31a.72.72,0,0,1-.69-.74.7.7,0,0,1,.69-.69h2.31a.7.7,0,0,1,.69.74A.72.72,0,0,1,107.39,156.62Zm-6.38,0H98.7a.71.71,0,0,1-.69-.74.7.7,0,0,1,.69-.69H101a.72.72,0,0,1,.69.74A.73.73,0,0,1,101,156.62Zm-6.38,0H92.31a.73.73,0,0,1-.69-.74.72.72,0,0,1,.69-.69h2.32a.7.7,0,0,1,.68.74A.72.72,0,0,1,94.63,156.62Zm-6.39,0H85.93a.71.71,0,0,1-.69-.74.7.7,0,0,1,.69-.69h2.31a.72.72,0,0,1,.69.74.73.73,0,0,1-.69.69Zm-6.38,0H79.55a.71.71,0,0,1-.69-.74.7.7,0,0,1,.69-.69h2.31a.72.72,0,0,1,.69.74A.73.73,0,0,1,81.86,156.62Zm-6.39,0H73.16a.73.73,0,0,1-.69-.74.72.72,0,0,1,.69-.69h2.31a.7.7,0,0,1,.69.74A.72.72,0,0,1,75.47,156.62Z" transform="translate(-20.92 -66.59)"/><path class="f" d="M67.79,157.81a.71.71,0,0,1-.71-.71h0v-1.2a.71.71,0,0,1,.71-.71H69a.71.71,0,0,1,.74.69.73.73,0,0,1-.69.74h-.53v.47a.71.71,0,0,1-.71.72Z" transform="translate(-20.92 -66.59)"/><path class="f" d="M67.79,202.56a.71.71,0,0,1-.71-.72h0v-2.29a.72.72,0,0,1,1.43-.05v2.34A.72.72,0,0,1,67.79,202.56Zm0-6.4a.71.71,0,0,1-.71-.71h0v-2.29a.72.72,0,0,1,1.43,0v2.29A.71.71,0,0,1,67.79,196.16Zm0-6.39a.71.71,0,0,1-.71-.71h0v-2.29a.7.7,0,0,1,.74-.69.71.71,0,0,1,.69.69v2.29a.71.71,0,0,1-.72.71Zm0-6.39a.71.71,0,0,1-.71-.72h0v-2.29a.71.71,0,0,1,.69-.74.73.73,0,0,1,.74.69v2.34A.72.72,0,0,1,67.79,183.38Zm0-6.39a.71.71,0,0,1-.71-.72h0V174a.71.71,0,0,1,.69-.74.72.72,0,0,1,.74.69v2.34a.72.72,0,0,1-.72.72Zm0-6.39a.72.72,0,0,1-.71-.72h0v-2.29a.7.7,0,0,1,.69-.74.71.71,0,0,1,.74.69v2.34a.73.73,0,0,1-.72.72Zm0-6.4a.71.71,0,0,1-.71-.71h0V161.2a.7.7,0,0,1,.74-.69.71.71,0,0,1,.69.69v2.29a.71.71,0,0,1-.72.71Z" transform="translate(-20.92 -66.59)"/><path class="f" d="M101.62,181.85h-19a.71.71,0,0,1-.72-.71h0v-19a.72.72,0,0,1,.72-.72h19a.72.72,0,0,1,.72.72h0v19A.71.71,0,0,1,101.62,181.85Zm-18.28-1.43h17.57V162.86H83.34Z" transform="translate(-20.92 -66.59)"/><path class="f" d="M89.54,169.76a.74.74,0,0,1-.51-.2l-6.9-6.91a.71.71,0,0,1,1-1l6.9,6.9a.72.72,0,0,1,0,1,.71.71,0,0,1-.5.21Z" transform="translate(-20.92 -66.59)"/><path class="f" d="M101.63,181.85a.71.71,0,0,1-.51-.21l-6.91-6.9a.72.72,0,0,1,1-1l6.9,6.91a.71.71,0,0,1,0,1A.67.67,0,0,1,101.63,181.85Z" transform="translate(-20.92 -66.59)"/><path class="f" d="M94.72,169.76a.71.71,0,0,1-.72-.71.75.75,0,0,1,.21-.51l6.91-6.91a.72.72,0,0,1,1,0,.71.71,0,0,1,0,1l-6.91,6.9A.67.67,0,0,1,94.72,169.76Z" transform="translate(-20.92 -66.59)"/><path class="f" d="M82.63,181.85a.71.71,0,0,1-.72-.71.75.75,0,0,1,.21-.51L89,173.72a.72.72,0,0,1,1,1l-6.91,6.9A.67.67,0,0,1,82.63,181.85Z" transform="translate(-20.92 -66.59)"/><path class="f" d="M145.37,181.85h-19a.71.71,0,0,1-.72-.71h0v-19a.72.72,0,0,1,.72-.72h19a.71.71,0,0,1,.71.72h0v19A.71.71,0,0,1,145.37,181.85Zm-18.29-1.43h17.57V162.86H127.08Z" transform="translate(-20.92 -66.59)"/><path class="f" d="M133.28,169.76a.73.73,0,0,1-.51-.2l-6.91-6.91a.72.72,0,0,1,1-1l6.9,6.9a.72.72,0,0,1,0,1,.71.71,0,0,1-.5.21Z" transform="translate(-20.92 -66.59)"/><path class="f" d="M145.36,181.85a.67.67,0,0,1-.5-.21l-6.91-6.9a.72.72,0,0,1,0-1,.71.71,0,0,1,1,0l6.91,6.91a.72.72,0,0,1-.51,1.22Z" transform="translate(-20.92 -66.59)"/><path class="f" d="M138.45,169.76a.71.71,0,0,1-.5-1.22l6.91-6.9a.71.71,0,0,1,1,0,.73.73,0,0,1,0,1l-6.91,6.9A.69.69,0,0,1,138.45,169.76Z" transform="translate(-20.92 -66.59)"/><path class="f" d="M126.37,181.85a.71.71,0,0,1-.72-.71.75.75,0,0,1,.21-.51l6.91-6.91a.71.71,0,0,1,1,0,.72.72,0,0,1,0,1l-6.91,6.9A.67.67,0,0,1,126.37,181.85Z" transform="translate(-20.92 -66.59)"/><path class="f" d="M189.16,181.85h-19a.71.71,0,0,1-.72-.71h0v-19a.72.72,0,0,1,.72-.72h19a.72.72,0,0,1,.72.72h0v19A.71.71,0,0,1,189.16,181.85Zm-18.28-1.43h17.56V162.86H170.88Z" transform="translate(-20.92 -66.59)"/><path class="f" d="M177.07,169.76a.7.7,0,0,1-.5-.2l-6.91-6.91a.71.71,0,0,1,0-1,.7.7,0,0,1,1,0l6.91,6.9a.72.72,0,0,1,0,1,.75.75,0,0,1-.51.21Z" transform="translate(-20.92 -66.59)"/><path class="f" d="M189.16,181.85a.71.71,0,0,1-.51-.21l-6.91-6.9a.74.74,0,0,1,0-1,.72.72,0,0,1,1,0l6.9,6.91a.71.71,0,0,1,0,1A.67.67,0,0,1,189.16,181.85Z" transform="translate(-20.92 -66.59)"/><path class="f" d="M182.25,169.76a.71.71,0,0,1-.71-.71.74.74,0,0,1,.2-.51l6.91-6.9a.71.71,0,0,1,1,1l-6.9,6.9A.71.71,0,0,1,182.25,169.76Z" transform="translate(-20.92 -66.59)"/><path class="f" d="M170.17,181.85a.71.71,0,0,1-.72-.71.75.75,0,0,1,.21-.51l6.91-6.91a.71.71,0,0,1,1,0,.72.72,0,0,1,0,1l-6.91,6.9A.69.69,0,0,1,170.17,181.85Z" transform="translate(-20.92 -66.59)"/><path class="f" d="M107.34,189.63H78.72a.71.71,0,0,1-.69-.74.7.7,0,0,1,.69-.69h28.62a.71.71,0,0,1,.69.74A.73.73,0,0,1,107.34,189.63Z" transform="translate(-20.92 -66.59)"/><path class="f" d="M107.34,196.5H78.72a.71.71,0,0,1-.69-.74.7.7,0,0,1,.69-.69h28.62a.71.71,0,0,1,.69.74A.73.73,0,0,1,107.34,196.5Z" transform="translate(-20.92 -66.59)"/><path class="f" d="M150.19,189.63H121.57a.73.73,0,0,1-.69-.74.72.72,0,0,1,.69-.69h28.62a.7.7,0,0,1,.69.74.72.72,0,0,1-.69.69Z" transform="translate(-20.92 -66.59)"/><path class="f" d="M150.19,196.5H121.57a.73.73,0,0,1-.69-.74.72.72,0,0,1,.69-.69h28.62a.7.7,0,0,1,.69.74.72.72,0,0,1-.69.69Z" transform="translate(-20.92 -66.59)"/><path class="f" d="M194,189.63H165.35a.73.73,0,0,1-.69-.74.72.72,0,0,1,.69-.69H194a.7.7,0,0,1,.74.69.71.71,0,0,1-.68.74Z" transform="translate(-20.92 -66.59)"/><path class="f" d="M189.73,196.5H165.35a.73.73,0,0,1-.69-.74.72.72,0,0,1,.69-.69h24.38a.7.7,0,0,1,.74.69.71.71,0,0,1-.69.74Z" transform="translate(-20.92 -66.59)"/><path class="f" d="M138.21,144.85a.7.7,0,0,1-.72-.7.75.75,0,0,1,.21-.51l17.71-17.7a2.91,2.91,0,0,1,4.12,0l17.27,17.27a.71.71,0,0,1-1,1l-17.27-17.27a1.49,1.49,0,0,0-2.11,0h0l-17.7,17.7A.7.7,0,0,1,138.21,144.85Z" transform="translate(-20.92 -66.59)"/><path class="f" d="M172.34,139.61a.7.7,0,0,1-.7-.71.72.72,0,0,1,.37-.62l14.63-8a3.62,3.62,0,0,1,3.69.14l12.28,7.85a.71.71,0,1,1-.76,1.19l-12.29-7.85a2.21,2.21,0,0,0-2.25-.08l-14.63,8A.77.77,0,0,1,172.34,139.61Z" transform="translate(-20.92 -66.59)"/><path class="f" d="M175.65,130.44a4.61,4.61,0,1,1,4.6-4.61A4.61,4.61,0,0,1,175.65,130.44Zm0-7.79a3.19,3.19,0,1,0,3.19,3.18A3.18,3.18,0,0,0,175.65,122.65Z" transform="translate(-20.92 -66.59)"/><path class="f" d="M126.4,127.09H77.24c-.68,0-1.23-.32-1.23-.71s.55-.72,1.23-.72H126.4c.68,0,1.23.32,1.23.72S127.08,127.09,126.4,127.09Z" transform="translate(-20.92 -66.59)"/><path class="f" d="M126.4,134H77.24c-.68,0-1.23-.32-1.23-.71s.55-.72,1.23-.72H126.4c.68,0,1.23.32,1.23.72S127.08,134,126.4,134Z" transform="translate(-20.92 -66.59)"/><path class="g" d="M225.33,195.29A21.17,21.17,0,0,0,223,188.9l5.23-5.23-7.05-7-4.91,4.9a22.2,22.2,0,0,0-6.67-3.07v-6.6h-10v6.27a22,22,0,0,0-7.2,2.86L188,176.62l-7.16,7.16,4.36,4.36a23.34,23.34,0,0,0-2.82,7.18l-6.27,0v10h6.6a22.1,22.1,0,0,0,3.06,6.68l-4.94,4.93,7.06,7.06,5.26-5.26a21.22,21.22,0,0,0,6.38,2.35v7.66h10l0-8a21.29,21.29,0,0,0,5.8-2.48l5.68,5.68,7.16-7.16-5.68-5.68a21.59,21.59,0,0,0,2.5-5.84h8v-10ZM213.21,208.9a13.27,13.27,0,1,1,0-18.76A13.26,13.26,0,0,1,213.21,208.9Z" transform="translate(-20.92 -66.59)"/><path class="h" d="M203.82,214.07a14.55,14.55,0,0,1-10.29-24.84h0a14.55,14.55,0,1,1,10.29,24.84Zm0-26.54a12,12,0,0,0-8.48,3.51h0a12,12,0,1,0,8.48-3.51Zm-9.38,2.61Z" transform="translate(-20.92 -66.59)"/><path class="h" d="M209.59,230.06h0l-10,0a1.28,1.28,0,0,1-1.28-1.29v-6.64a23,23,0,0,1-4.87-1.81l-4.59,4.58a1.28,1.28,0,0,1-1.81,0L180,217.81a1.27,1.27,0,0,1,0-1.81l4.21-4.21a23.13,23.13,0,0,1-2.39-5.18l-5.64,0h0a1.37,1.37,0,0,1-.91-.41,1.33,1.33,0,0,1-.37-.93v-10a1.26,1.26,0,0,1,1.28-1.26h5.25a25.06,25.06,0,0,1,2.25-5.69L180,184.69a1.3,1.3,0,0,1-.38-.91,1.27,1.27,0,0,1,.38-.9l7.16-7.16a1.28,1.28,0,0,1,1.81,0l3.66,3.65a23.08,23.08,0,0,1,5.71-2.27v-5.24a1.28,1.28,0,0,1,1.28-1.29h10a1.3,1.3,0,0,1,1.28,1.28v5.64a23.46,23.46,0,0,1,5.22,2.4l4.17-4.17a1.28,1.28,0,0,1,1.81,0l7.05,7.05a1.27,1.27,0,0,1,.38.9,1.3,1.3,0,0,1-.38.91l-4.55,4.55a23.12,23.12,0,0,1,1.8,4.9l6.66,0h0a1.23,1.23,0,0,1,1.28,1.24v10a1.17,1.17,0,0,1-.37.86,1.25,1.25,0,0,1-.91.33h0l-7,0a22.26,22.26,0,0,1-1.86,4.37l5,5a1.28,1.28,0,0,1,0,1.82L222,224.86a1.28,1.28,0,0,1-1.81,0l-5-5a22.49,22.49,0,0,1-4.32,1.85l0,7a1.37,1.37,0,0,1-.38.94A1.3,1.3,0,0,1,209.59,230.06Zm-8.73-2.63h7.44v-6.66a1.28,1.28,0,0,1,1-1.24,20,20,0,0,0,5.45-2.34,1.27,1.27,0,0,1,1.58.18l4.78,4.78,5.35-5.35L221.62,212a1.28,1.28,0,0,1-.18-1.58,20.31,20.31,0,0,0,2.35-5.53,1.32,1.32,0,0,1,1.24-1h0l6.71,0v-7.4l-6.41.05h0a1.3,1.3,0,0,1-1.26-1.05,19.72,19.72,0,0,0-2.2-6,1.29,1.29,0,0,1,.21-1.54l4.32-4.32-5.24-5.25-4,4a1.29,1.29,0,0,1-1.63.15,20.94,20.94,0,0,0-6.28-2.9,1.28,1.28,0,0,1-.95-1.24v-5.31h-7.44v5a1.27,1.27,0,0,1-1,1.26,20.31,20.31,0,0,0-6.78,2.69,1.28,1.28,0,0,1-1.58-.18L188,178.43l-5.35,5.35,3.46,3.46a1.28,1.28,0,0,1,.19,1.56,21.81,21.81,0,0,0-2.66,6.78,1.29,1.29,0,0,1-1.26,1h0l-5,0V204l5.31-.05h0a1.32,1.32,0,0,1,1.23,1,21.08,21.08,0,0,0,2.89,6.31,1.3,1.3,0,0,1-.15,1.64l-4,4,5.25,5.24,4.35-4.35a1.29,1.29,0,0,1,1.54-.21,19.86,19.86,0,0,0,6,2.22,1.27,1.27,0,0,1,1,1.25Z" transform="translate(-20.92 -66.59)"/><circle class="h" cx="42.3" cy="146.2" r="29.7"/><path class="i" d="M46.92,224.38A2.64,2.64,0,0,0,47,228l.09.09a2.46,2.46,0,0,0,3.55-.06L70.1,207.38l-3.69-3.69Z" transform="translate(-20.92 -66.59)"/><path class="g" d="M60.28,197.45l-.06.07c6.25-.17,11.6.15,6.19,6.17l3.69,3.69c2.51.19,5.16,1.76,7.92,4.41l4.15-4.41c-.64-2.23-4.89-6.18-9.12-10.13A8.84,8.84,0,0,0,60.28,197.45Z" transform="translate(-20.92 -66.59)"/><polygon class="g" points="61.24 140.8 57.1 145.19 56.56 145.76 58.03 147.23 63.34 141.6 61.86 140.13 61.24 140.8"/><path class="h" d="M65,207.5a.44.44,0,0,0-.33-.13.47.47,0,0,0-.33.14l-10,10.58a.47.47,0,0,0-.13.34.48.48,0,0,0,.14.34.53.53,0,0,0,.27.13.41.41,0,0,0,.19,0,.45.45,0,0,0,.2-.12l10-10.58a.48.48,0,0,0,.14-.34A.53.53,0,0,0,65,207.5Z" transform="translate(-20.92 -66.59)"/><path class="h" d="M77.19,203.51l-3.09-3.09a.47.47,0,0,0-.33-.14.46.46,0,0,0-.33.15.5.5,0,0,0,0,.68l3.09,3.09a.49.49,0,0,0,.27.13.41.41,0,0,0,.19,0,.37.37,0,0,0,.2-.12A.49.49,0,0,0,77.19,203.51Z" transform="translate(-20.92 -66.59)"/><polygon class="g" points="52.63 162.14 52.62 162.13 52.62 162.13 52.63 162.14"/><path class="g" d="M73.57,228.71l-.47-.49.44.5Z" transform="translate(-20.92 -66.59)"/><polygon class="g" points="52.62 162.13 52.62 162.13 52.18 161.62 49.79 159.08 52.62 162.13"/><path class="g" d="M55.86,196.81a5.22,5.22,0,0,0-5.65-1.48h0l4.22,4.9L53.21,202l-1.86.85L47.14,198a5.15,5.15,0,0,0,.67,5.75,5.27,5.27,0,0,0,5.65,1.59l12.21,14.19h0l1.57,1.86a5.31,5.31,0,0,0,.72,5.83,5.12,5.12,0,0,0,5.56,1.53l-2.82-3.05,2.39,2.55-3.77-4.39,1.11-1.71,2-.94,4.22,4.91,0,0a5.19,5.19,0,0,0-.63-5.79,5.31,5.31,0,0,0-5.7-1.57l-1.56-1.84h0L56.55,202.7A5.36,5.36,0,0,0,55.86,196.81Z" transform="translate(-20.92 -66.59)"/><path class="g" d="M47.14,198h0v0Z" transform="translate(-20.92 -66.59)"/></svg>