<svg xmlns="http://www.w3.org/2000/svg" width="260.84" height="189.03" viewBox="0 0 260.84 189.03"><defs><style>.a{opacity:0.35;}.b{fill:#b9e3eb;}.c,.h{fill:#fff;}.d{fill:#3e4449;}.e{fill:#e2e2e5;}.f{fill:#f47523;}.g{fill:#47a8b5;}.h{fill-rule:evenodd;}</style></defs><title>tools</title><g class="a"><path class="b" d="M26,101.54s6.37,96.33,61.67,128.56,135.21,2.41,157.67-12.29S280.5,151.49,232.83,126,28.83,29.11,26,101.54Z" transform="translate(-18.83 -55.48)"/></g><polygon class="c" points="61.12 48.81 201.52 48.81 207.63 49.76 211.44 52.58 209.76 145.37 215.89 145.7 223.95 145.58 221.82 154.57 218.16 157.17 40.85 157.17 36.44 153.29 34.13 150.11 34.13 146.74 50.32 147.35 48.46 53.33 51.48 49.76 61.12 48.81"/><rect class="b" x="59.86" y="60.27" width="139.35" height="76.48"/><path class="d" d="M64.73,61.51H32.65a5.18,5.18,0,0,0-5.42,5.17v17a5.66,5.66,0,0,0,5.42,5.73h7.51L45.67,97l7.55-7.55H64.73a5.79,5.79,0,0,0,5.58-5.73v-17A5.32,5.32,0,0,0,64.73,61.51Z" transform="translate(-18.83 -55.48)"/><path class="d" d="M235.77,213.76H61.14A8.17,8.17,0,0,1,53,205.59v-3.37a1.15,1.15,0,0,1,1.15-1.15H242.78a1.15,1.15,0,0,1,1.16,1.15v3.37A8.18,8.18,0,0,1,235.77,213.76ZM55.28,203.37v2.22a5.86,5.86,0,0,0,5.86,5.86H235.77a5.86,5.86,0,0,0,5.86-5.86v-2.22Z" transform="translate(-18.83 -55.48)"/><path class="d" d="M161.64,208.77H135.09a1.15,1.15,0,0,1-1.15-1.15v-5.28a1.16,1.16,0,1,1,2.31,0v4.12h24.24v-4.12a1.16,1.16,0,1,1,2.31,0v5.28A1.16,1.16,0,0,1,161.64,208.77Z" transform="translate(-18.83 -55.48)"/><path class="d" d="M66.82,202.83a1.15,1.15,0,0,1-1.16-1.15V111.33a8.75,8.75,0,0,1,8.88-8.6H222.28a8.52,8.52,0,0,1,8.63,8.6v89.52a1.16,1.16,0,1,1-2.31,0V111.33a6.24,6.24,0,0,0-6.32-6.29H74.54A6.44,6.44,0,0,0,68,111.33v90.35A1.15,1.15,0,0,1,66.82,202.83Z" transform="translate(-18.83 -55.48)"/><path class="d" d="M77.54,194.59a1.13,1.13,0,0,1-.82-.32,1.07,1.07,0,0,1-.34-.79V114.6a1.16,1.16,0,0,1,1.16-1.15H219.2a1.16,1.16,0,0,1,1.15,1.15v78.8a1.13,1.13,0,0,1-1.15,1.13l-141.66.06Zm1.15-78.83v76.56L218,192.24V115.76Z" transform="translate(-18.83 -55.48)"/><path class="c" d="M61.55,74.83,55.38,69.2a1,1,0,0,0-1.47.06,1,1,0,0,0-.27.75,1,1,0,0,0,.34.72L59.3,75.6,54,80.46a1,1,0,0,0-.34.72,1,1,0,0,0,.27.75,1,1,0,0,0,.77.34,1,1,0,0,0,.7-.27l6.17-5.63a1,1,0,0,0,0-1.54Z" transform="translate(-18.83 -55.48)"/><path class="c" d="M43.64,69.26a1,1,0,0,0-1.47-.06L36,74.83a1,1,0,0,0,0,1.54L42.17,82a1,1,0,0,0,.7.27,1,1,0,0,0,.7-1.81L38.25,75.6l5.32-4.87A1,1,0,0,0,43.64,69.26Z" transform="translate(-18.83 -55.48)"/><path class="c" d="M48.26,69.69a1,1,0,0,0-.49-.63A1,1,0,0,0,47,69a1,1,0,0,0-.63.49,1,1,0,0,0-.1.79l3,11.26a1,1,0,0,0,1,.77,1.27,1.27,0,0,0,.28,0,1.1,1.1,0,0,0,.63-.49,1,1,0,0,0,.1-.79Z" transform="translate(-18.83 -55.48)"/><path class="d" d="M51.31,177.17H49.17a1.16,1.16,0,0,1,0-2.31h2.14a1.16,1.16,0,1,1,0,2.31Z" transform="translate(-18.83 -55.48)"/><path class="d" d="M41.42,177.17H37a1.16,1.16,0,1,1,0-2.31h4.45a1.16,1.16,0,0,1,0,2.31Z" transform="translate(-18.83 -55.48)"/><path class="d" d="M29.05,177.17h-2A1.15,1.15,0,0,1,25.92,176v-2a1.16,1.16,0,0,1,2.31,0v.83h.82a1.16,1.16,0,1,1,0,2.31Z" transform="translate(-18.83 -55.48)"/><path class="d" d="M27.07,144.16A1.16,1.16,0,0,0,28.23,143v-4.12a1.16,1.16,0,0,0-2.31,0V143A1.15,1.15,0,0,0,27.07,144.16Z" transform="translate(-18.83 -55.48)"/><path class="d" d="M27.07,167.58a1.16,1.16,0,0,0,1.16-1.16V162.3a1.16,1.16,0,1,0-2.31,0v4.12A1.15,1.15,0,0,0,27.07,167.58Z" transform="translate(-18.83 -55.48)"/><path class="d" d="M27.07,155.87a1.16,1.16,0,0,0,1.16-1.16v-4.12a1.16,1.16,0,1,0-2.31,0v4.12A1.15,1.15,0,0,0,27.07,155.87Z" transform="translate(-18.83 -55.48)"/><path class="d" d="M27.07,132.45a1.15,1.15,0,0,1-1.15-1.16v-2.14A1.14,1.14,0,0,1,27.07,128h2a1.15,1.15,0,1,1,0,2.3h-.82v1A1.16,1.16,0,0,1,27.07,132.45Z" transform="translate(-18.83 -55.48)"/><path class="d" d="M38.45,130.3h-3.3a1.15,1.15,0,1,1,0-2.3h3.3a1.15,1.15,0,1,1,0,2.3Z" transform="translate(-18.83 -55.48)"/><path class="d" d="M46.53,130.3H44.39a1.15,1.15,0,1,1,0-2.3h1v-.83a1.16,1.16,0,0,1,2.31,0v2A1.15,1.15,0,0,1,46.53,130.3Z" transform="translate(-18.83 -55.48)"/><path class="d" d="M46.53,119.42a1.15,1.15,0,0,1-1.15-1.15v-5a1.16,1.16,0,1,1,2.31,0v5A1.16,1.16,0,0,1,46.53,119.42Z" transform="translate(-18.83 -55.48)"/><path class="d" d="M46.53,105.9a1.15,1.15,0,0,1-1.15-1.16V102.6a1.16,1.16,0,1,1,2.31,0v2.14A1.16,1.16,0,0,1,46.53,105.9Z" transform="translate(-18.83 -55.48)"/><polygon class="e" points="126.13 111.2 126.13 111.17 126.13 111.17 126.13 111.2"/><path class="e" d="M145,166.69l0-1.84,0,1.8Z" transform="translate(-18.83 -55.48)"/><polygon class="e" points="126.13 111.17 126.13 111.17 126.16 109.36 125.86 99.88 126.13 111.17"/><path class="e" d="M166.46,69.92a14.18,14.18,0,0,0-8.82-13.17h0l-.25,17.55-5.72,1.47-5.29-1.63.25-17.53a14,14,0,0,0-9,12.89,14.34,14.34,0,0,0,8.62,13.41l-.72,50.84h.05l-.15,6.6a14.39,14.39,0,0,0-9,13.16A13.94,13.94,0,0,0,145,166.65l-.26-11.29.29,9.49.22-15.72,5.33-1.48,5.68,1.63L156,166.84h.09a14.15,14.15,0,0,0,9.16-12.92,14.47,14.47,0,0,0-8.78-13.46l.15-6.54h-.05l.71-50.79A14.54,14.54,0,0,0,166.46,69.92Z" transform="translate(-18.83 -55.48)"/><path class="e" d="M146.62,56.6v0l.06,0Z" transform="translate(-18.83 -55.48)"/><path class="d" d="M157.58,139.76l.12-5.79v0l.71-50.05a15.92,15.92,0,0,0,6.32-5.22,15.41,15.41,0,0,0,2.87-8.72A14.81,14.81,0,0,0,165,61.29a16,16,0,0,0-6.85-5.57,1.11,1.11,0,0,0-1.56,1h0l-.24,16.7-4.58,1.18-4.19-1.29.23-16.56a1,1,0,0,0,0-.59,1.11,1.11,0,0,0-1.07-.7h0a1.43,1.43,0,0,0-.35.06l0,0h0a15,15,0,0,0-9.67,13.92,15.51,15.51,0,0,0,8.62,14.13l-.71,50.12h0l-.13,5.86a15.53,15.53,0,0,0-9,13.88,15,15,0,0,0,9.15,14.13,1.08,1.08,0,0,0,.55.17h.07a1.13,1.13,0,0,0,1-.68,1.09,1.09,0,0,0,0-.71l.24-16.44,4.22-1.17,4.55,1.31-.24,16.71a1.1,1.1,0,0,0,.32.79,2.31,2.31,0,0,0,.19.14h0a1.15,1.15,0,0,0,.25.12.79.79,0,0,0,.22.05l.1,0h.06a1,1,0,0,0,.41-.08,15.93,15.93,0,0,0,7-5.37,14.82,14.82,0,0,0,2.87-8.57,15.41,15.41,0,0,0-2.61-8.79A15.6,15.6,0,0,0,157.58,139.76Zm-.42,25.31.23-15.77a1.14,1.14,0,0,0-.81-1.09l-5.68-1.63a1,1,0,0,0-.6,0L145,148.05a1.13,1.13,0,0,0-.82,1.06l-.22,15.74a12.77,12.77,0,0,1-6.39-11.31,13.25,13.25,0,0,1,8.32-12.14,1.09,1.09,0,0,0,.7-1l.15-6.59a0,0,0,0,1,0,0h0l.71-50.84a1.1,1.1,0,0,0-.67-1,13.23,13.23,0,0,1-8-12.36,12.77,12.77,0,0,1,6.74-11.14l-.22,15.75a1.13,1.13,0,0,0,.79,1.08l5.29,1.63a.93.93,0,0,0,.33,0,1.27,1.27,0,0,0,.28,0l5.72-1.47a1.12,1.12,0,0,0,.84-1.07l.22-15.75a12.79,12.79,0,0,1,6.59,11.34,13.45,13.45,0,0,1-8.47,12.18,1.11,1.11,0,0,0-.7,1l-.72,50.78h0l-.14,6.52a1.11,1.11,0,0,0,.67,1.05,13.26,13.26,0,0,1,8.1,12.42A12.78,12.78,0,0,1,157.16,165.07Z" transform="translate(-18.83 -55.48)"/><path class="d" d="M151.81,98.07h0a1,1,0,0,0-.79.31,1.08,1.08,0,0,0-.34.79l-.34,23.92a1.1,1.1,0,0,0,.32.79,1.08,1.08,0,0,0,.78.34h0a1.13,1.13,0,0,0,.78-.31,1.17,1.17,0,0,0,.34-.79l.34-23.92A1.13,1.13,0,0,0,151.81,98.07Z" transform="translate(-18.83 -55.48)"/><path class="f" d="M196.91,65.56a7.1,7.1,0,0,0-8.37,5.52L182,102.92l17.09,3.51,6.52-31.84a7.08,7.08,0,0,0-5.51-8.37Z" transform="translate(-18.83 -55.48)"/><polygon class="e" points="158.69 100.23 156.7 103.76 157.54 109.93 160.9 110.61 164.04 105.27 163.82 101.22 174.35 49.86 169.23 48.81 158.69 100.23"/><path class="d" d="M205.54,68.65a8.15,8.15,0,0,0-5.2-3.52l-3.21-.66a8.21,8.21,0,0,0-9.68,6.39l-6.53,31.84a1.11,1.11,0,0,0,.87,1.32l5,1-10.31,50.28-1.9,3.38a1.14,1.14,0,0,0-.14.7l.85,6.16a1.13,1.13,0,0,0,.88.95l3.36.68a.78.78,0,0,0,.22,0,1.15,1.15,0,0,0,1-.55l3.15-5.35a1.15,1.15,0,0,0,.15-.63l-.21-3.9,10.3-50.25,4.8,1a.93.93,0,0,0,.23,0,1.1,1.1,0,0,0,.94-.51,1.26,1.26,0,0,0,.15-.38l6.53-31.84A8.11,8.11,0,0,0,205.54,68.65Zm-22.21,33.4,6.31-30.74a6,6,0,0,1,7-4.65l3.21.66a6,6,0,0,1,4.65,7l-6.3,30.75Zm-1.59,58.43-2.57,4.36-1.79-.37-.69-5,1.8-3.2a1.2,1.2,0,0,0,.13-.33L189,105.49l2.93.6-10.33,50.39a1,1,0,0,0,0,.29Z" transform="translate(-18.83 -55.48)"/><path class="d" d="M192.13,72.15a1.11,1.11,0,0,0-1.32.87l-2.45,12a1.11,1.11,0,0,0,.87,1.32.82.82,0,0,0,.22,0,1.12,1.12,0,0,0,.94-.51,1.06,1.06,0,0,0,.16-.38l2.45-12a1.11,1.11,0,0,0-.87-1.32Z" transform="translate(-18.83 -55.48)"/><path class="d" d="M188.18,91.46a1.11,1.11,0,0,0-1.32.87l-1,5.08a1.11,1.11,0,0,0,.87,1.32l.22,0a1.13,1.13,0,0,0,1.1-.89l1-5.09A1.11,1.11,0,0,0,188.18,91.46Z" transform="translate(-18.83 -55.48)"/><path class="g" d="M194.82,160.54a6,6,0,0,0,1.22,8.4l.24.18a6,6,0,0,0,8.41-1.22l40-53.67-9.87-7.36Z" transform="translate(-18.83 -55.48)"/><path class="e" d="M218.47,94.37l-.13.17c14.78-2.3,27.56-3.22,16.52,12.33l9.87,7.36c6-.33,12.76,2.46,20.1,7.71l8.53-11.43c-2.19-4.93-13.45-12.74-24.66-20.54A21.6,21.6,0,0,0,218.47,94.37Z" transform="translate(-18.83 -55.48)"/><polygon class="e" points="254.5 55.05 246 66.45 244.9 67.93 248.83 70.86 259.72 56.26 255.79 53.33 254.5 55.05"/><path class="d" d="M279.22,110.85l-3.93-2.93h0a1.11,1.11,0,0,0-.83-.21,1.08,1.08,0,0,0-.73.44l-.27.35c-3.5-5.1-13.44-12-23.91-19.3l-.2-.14a22.72,22.72,0,0,0-31.78,4.64l-.13.17a1.12,1.12,0,0,0-.06,1.25,1.09,1.09,0,0,0,1.13.52,85.49,85.49,0,0,1,12.6-1.27c3.45,0,5.68.69,6.43,1.91,1.06,1.71-.18,5.14-3.58,9.94l-40,53.65a7.13,7.13,0,0,0,1.45,10l.24.18a7.13,7.13,0,0,0,4.25,1.41,7.37,7.37,0,0,0,1-.07,7.49,7.49,0,0,0,1.86-.54,7.11,7.11,0,0,0,2.82-2.25l39.71-53.22c5.15-.12,11.18,2.19,17.94,6.86l-.4.54a1.12,1.12,0,0,0,.23,1.56l3.93,2.93a1.09,1.09,0,0,0,.67.23l.16,0a1,1,0,0,0,.29-.08,1.19,1.19,0,0,0,.45-.35l10.89-14.6a1.12,1.12,0,0,0-.23-1.57Zm-75.43,56.38a4.89,4.89,0,0,1-6.84,1l-.24-.18a4.8,4.8,0,0,1-1.91-3.21,4.86,4.86,0,0,1,.91-3.63l39.38-52.76,8.08,6Zm63.64-42.45-2.14-1.59.44-.59h0l4.24-5.68a1.08,1.08,0,0,0,.21-.83,1.13,1.13,0,0,0-.43-.74,1.11,1.11,0,0,0-.83-.21,1.1,1.1,0,0,0-.74.44l-3.6,4.82a49,49,0,0,0-9.89-5.45,24.46,24.46,0,0,0-9.58-1.83l-8.73-6.51c3.56-5.26,4.59-9,3.07-11.5-1.22-2-3.94-2.94-8.32-3a71.19,71.19,0,0,0-10,.87,20.47,20.47,0,0,1,27-2.11l.21.14c10.38,7.22,21.12,14.69,23.78,19.37l-.64.86a1.12,1.12,0,0,0,.22,1.56,1.1,1.1,0,0,0,.67.22,1.17,1.17,0,0,0,.45-.09,1.13,1.13,0,0,0,.45-.36l1.05-1.41h0l.6-.8L277,112Z" transform="translate(-18.83 -55.48)"/><path class="d" d="M232.74,116.07a1.11,1.11,0,0,0-1.56.23l-20.47,27.43a1.08,1.08,0,0,0-.21.83,1.1,1.1,0,0,0,.44.74,1.14,1.14,0,0,0,.66.22,1.06,1.06,0,0,0,.46-.1,1.16,1.16,0,0,0,.44-.35L233,117.63a1.09,1.09,0,0,0,.21-.82A1.1,1.1,0,0,0,232.74,116.07Z" transform="translate(-18.83 -55.48)"/><path class="d" d="M260.4,103.12,252.14,97a1.13,1.13,0,0,0-.83-.21,1.1,1.1,0,0,0-.74.44,1.12,1.12,0,0,0,.23,1.56l8.26,6.17a1.17,1.17,0,0,0,.67.22,1,1,0,0,0,.45-.1,1.1,1.1,0,0,0,.45-.35A1.12,1.12,0,0,0,260.4,103.12Z" transform="translate(-18.83 -55.48)"/><path class="d" d="M86.37,211.45h-44a1.21,1.21,0,1,0,0,2.4h44a1.21,1.21,0,1,0,0-2.4Z" transform="translate(-18.83 -55.48)"/><path class="d" d="M34.47,211.45H20.21a1.21,1.21,0,1,0,0,2.4H34.47a1.21,1.21,0,1,0,0-2.4Z" transform="translate(-18.83 -55.48)"/><path class="d" d="M114.91,219.12H61.06a1.21,1.21,0,1,0,0,2.39h53.85a1.21,1.21,0,1,0,0-2.39Z" transform="translate(-18.83 -55.48)"/><path class="d" d="M212.09,211.45h44a1.21,1.21,0,1,1,0,2.4h-44a1.21,1.21,0,1,1,0-2.4Z" transform="translate(-18.83 -55.48)"/><path class="d" d="M264,211.45h14.26a1.21,1.21,0,1,1,0,2.4H264a1.21,1.21,0,1,1,0-2.4Z" transform="translate(-18.83 -55.48)"/><path class="d" d="M183.55,219.12h53.86a1.21,1.21,0,1,1,0,2.39H183.55a1.21,1.21,0,1,1,0-2.39Z" transform="translate(-18.83 -55.48)"/><path class="d" d="M119.28,163.73H88.9a1.16,1.16,0,1,1,0-2.31h30.38a1.16,1.16,0,1,1,0,2.31Z" transform="translate(-18.83 -55.48)"/><path class="d" d="M133.36,173.46H88.9a1.16,1.16,0,1,1,0-2.31h44.46a1.16,1.16,0,0,1,0,2.31Z" transform="translate(-18.83 -55.48)"/><path class="d" d="M181,182.86H88.9a1.16,1.16,0,1,1,0-2.31H181a1.16,1.16,0,0,1,0,2.31Z" transform="translate(-18.83 -55.48)"/><circle class="d" cx="81.77" cy="84.63" r="12.86"/><path class="h" d="M100.6,132.48a2.42,2.42,0,0,1,2.17,1.35,3.3,3.3,0,0,0-.6.46,2.23,2.23,0,0,1-3.14,0,2.66,2.66,0,0,0-.6-.46A2.42,2.42,0,0,1,100.6,132.48Zm2.4,2.14a2.44,2.44,0,0,1,0,.27,2.81,2.81,0,0,0,2.81,2.81h.27l-.23.28a3,3,0,0,0,0,4.25h0a1.49,1.49,0,0,1,.23.27l-.27,0a2.81,2.81,0,0,0-2.81,2.81,1.1,1.1,0,0,1,0,.26l-.27-.23a3,3,0,0,0-4.25,0h0l-.27.23a1.1,1.1,0,0,1,0-.26,2.81,2.81,0,0,0-2.81-2.81l-.26,0a2.88,2.88,0,0,1,.22-.27,3,3,0,0,0,0-4.25h0a1.18,1.18,0,0,1-.22-.28h.26a2.81,2.81,0,0,0,2.81-2.81,1.23,1.23,0,0,1,0-.27l.27.24a3,3,0,0,0,4.25,0h0Zm3.9,3.33a2.43,2.43,0,0,1,1.09,3.24,2.47,2.47,0,0,1-1.09,1.1,3.46,3.46,0,0,0-.47-.6,2.23,2.23,0,0,1,0-3.14A3,3,0,0,0,106.9,138Zm-4.13,8.46a2.42,2.42,0,0,1-4.34,0A3,3,0,0,0,99,146a2.23,2.23,0,0,1,3.14,0A3,3,0,0,0,102.77,146.41Zm-8.46-4.12a2.43,2.43,0,0,1,0-4.34,3.41,3.41,0,0,0,.46.6,2.22,2.22,0,0,1,0,3.14A3,3,0,0,0,94.31,142.29Zm6.29,5.87a2.81,2.81,0,0,0,2.52-1.57,3.13,3.13,0,0,0,1.17.23,3,3,0,0,0,3-3,3.35,3.35,0,0,0-.24-1.17,2.81,2.81,0,0,0,0-5,3.35,3.35,0,0,0,.24-1.17,3,3,0,0,0-3-3,3.13,3.13,0,0,0-1.17.23,2.84,2.84,0,0,0-2.52-1.58,2.79,2.79,0,0,0-2.51,1.58,3.18,3.18,0,0,0-1.18-.23,3,3,0,0,0-3,3,2.64,2.64,0,0,0,.24,1.17,2.8,2.8,0,0,0,0,5,3,3,0,0,0-.24,1.17,3,3,0,0,0,3,3,3.18,3.18,0,0,0,1.18-.23,2.81,2.81,0,0,0,2.51,1.57Zm2.77-2.33a4,4,0,0,0,0-.49,2.43,2.43,0,0,1,2.41-2.42,3.91,3.91,0,0,0,.49,0,2.21,2.21,0,0,1,.2.92,2.25,2.25,0,0,1-.65,1.57,2.19,2.19,0,0,1-1.57.65A2.41,2.41,0,0,1,103.37,145.83Zm2.94-8.48a3.91,3.91,0,0,0-.49,0,2.43,2.43,0,0,1-2.41-2.42,4,4,0,0,0,0-.49,2.24,2.24,0,0,1,.92-.2,2.19,2.19,0,0,1,1.57.65,2.25,2.25,0,0,1,.65,1.57A2.21,2.21,0,0,1,106.31,137.35Zm-8.47-2.94a2.7,2.7,0,0,0,0,.49,2.43,2.43,0,0,1-2.42,2.42l-.48,0a1.93,1.93,0,0,1-.2-.92,2.24,2.24,0,0,1,.64-1.57,2.21,2.21,0,0,1,1.57-.65A2.46,2.46,0,0,1,97.84,134.41Zm-2.94,8.48a3.87,3.87,0,0,0,.48,0,2.42,2.42,0,0,1,2.42,2.42,2.7,2.7,0,0,0,0,.49,2.29,2.29,0,0,1-.93.2,2.21,2.21,0,0,1-2.21-2.21h0A1.93,1.93,0,0,1,94.9,142.89Z" transform="translate(-18.83 -55.48)"/></svg>