<svg xmlns="http://www.w3.org/2000/svg" width="266.44" height="198.54" viewBox="0 0 266.44 198.54"><defs><style>.a{opacity:0.35;}.b,.d{fill:#b1d2e9;}.b{opacity:0.7;isolation:isolate;}.c,.i{fill:#fff;}.e{fill:#3e4449;}.f{fill:#e2e2e5;}.g{fill:#f47523;}.h{fill:#4266b0;}.i{fill-rule:evenodd;}</style></defs><title>tools</title><g class="a"><path class="b" d="M32.74,108.17S39,203.23,93.6,235.05,227,237.42,249.2,222.92s34.72-65.45-12.32-90.59S35.56,36.69,32.74,108.17Z" transform="translate(-16.67 -50.73)"/></g><polygon class="c" points="69.35 60.16 207.9 60.16 213.93 61.1 217.7 63.88 216.04 155.45 222.09 155.78 230.04 155.66 227.94 164.53 224.33 167.1 49.35 167.1 45 163.27 42.72 160.13 42.72 156.8 58.69 157.41 56.85 64.62 59.84 61.1 69.35 60.16"/><rect class="d" x="68.1" y="71.48" width="137.52" height="75.48"/><path class="e" d="M243.4,73.52a1.81,1.81,0,1,0-1.19,3.41,2.09,2.09,0,0,0,.59.1,1.81,1.81,0,0,0,1.71-1.22A1.79,1.79,0,0,0,243.4,73.52Z" transform="translate(-16.67 -50.73)"/><path class="e" d="M237.41,68.74a1.81,1.81,0,0,0,.6,3.51,1.81,1.81,0,1,0-.6-3.51Z" transform="translate(-16.67 -50.73)"/><path class="e" d="M249.61,63.6h0a1.8,1.8,0,0,0,1.26.52,1.81,1.81,0,0,0,1.28-3.09h0v0a1.81,1.81,0,1,0-2.55,2.56Z" transform="translate(-16.67 -50.73)"/><path class="e" d="M239.71,62.18a1.8,1.8,0,1,0-1.91,3.06,1.71,1.71,0,0,0,.95.27,1.8,1.8,0,0,0,1-3.33Z" transform="translate(-16.67 -50.73)"/><path class="e" d="M253.33,66.93a1.8,1.8,0,1,0-.4,3.58l.2,0a1.81,1.81,0,0,0,.2-3.6Z" transform="translate(-16.67 -50.73)"/><path class="e" d="M248.57,72.93a1.8,1.8,0,0,0-.57,2.49,1.82,1.82,0,0,0,1.53.84,1.76,1.76,0,0,0,1-.28,1.8,1.8,0,1,0-1.92-3Z" transform="translate(-16.67 -50.73)"/><path class="e" d="M244.27,58.3a1.81,1.81,0,0,0,.21,3.6h.2a1.81,1.81,0,0,0-.41-3.59Z" transform="translate(-16.67 -50.73)"/><path class="e" d="M108.62,54.62a1.81,1.81,0,1,0-1.92,3.06,1.86,1.86,0,0,0,1,.27,1.8,1.8,0,0,0,1-3.33Z" transform="translate(-16.67 -50.73)"/><path class="e" d="M106.31,61.18a1.8,1.8,0,1,0,2.3,1.1A1.8,1.8,0,0,0,106.31,61.18Z" transform="translate(-16.67 -50.73)"/><path class="e" d="M118.51,56h0a1.8,1.8,0,0,0,2.56-2.54v0h0A1.8,1.8,0,1,0,118.51,56Z" transform="translate(-16.67 -50.73)"/><path class="e" d="M113.18,50.74a1.81,1.81,0,0,0,.2,3.6h.21a1.81,1.81,0,0,0-.41-3.59Z" transform="translate(-16.67 -50.73)"/><path class="e" d="M112.3,66a1.81,1.81,0,0,0-2.3,1.12A1.8,1.8,0,1,0,112.3,66Z" transform="translate(-16.67 -50.73)"/><path class="e" d="M117.47,65.37a1.8,1.8,0,1,0,2.49.56A1.81,1.81,0,0,0,117.47,65.37Z" transform="translate(-16.67 -50.73)"/><path class="e" d="M122.23,59.36a1.81,1.81,0,0,0-.4,3.59h.2a1.81,1.81,0,0,0,.2-3.6Z" transform="translate(-16.67 -50.73)"/><path class="e" d="M260.43,179.22a1.8,1.8,0,1,0-1.92,3.05,1.8,1.8,0,1,0,1.92-3.05Z" transform="translate(-16.67 -50.73)"/><path class="e" d="M258.13,185.77a1.81,1.81,0,0,0,.6,3.51,1.7,1.7,0,0,0,.59-.1,1.81,1.81,0,0,0-1.19-3.41Z" transform="translate(-16.67 -50.73)"/><path class="e" d="M274.05,184a1.81,1.81,0,1,0-.4,3.59h.2a1.81,1.81,0,0,0,.2-3.6Z" transform="translate(-16.67 -50.73)"/><path class="e" d="M270.33,180.64h0a1.82,1.82,0,0,0,1.28.53,1.81,1.81,0,0,0,1.27-3.08h0a1.81,1.81,0,0,0-2.56,0,1.8,1.8,0,0,0,0,2.53Z" transform="translate(-16.67 -50.73)"/><path class="e" d="M269.29,190a1.81,1.81,0,0,0,1,3.34,1.87,1.87,0,0,0,1-.28,1.81,1.81,0,1,0-1.92-3.06Z" transform="translate(-16.67 -50.73)"/><path class="e" d="M265,175.34a1.81,1.81,0,0,0,.21,3.6l.2,0h0a1.8,1.8,0,1,0-.41-3.58Z" transform="translate(-16.67 -50.73)"/><path class="e" d="M264.11,190.55a1.8,1.8,0,0,0-1.18,3.41,1.7,1.7,0,0,0,.59.1,1.8,1.8,0,0,0,.59-3.51Z" transform="translate(-16.67 -50.73)"/><path class="e" d="M128.73,87.36a1.36,1.36,0,0,0-1.36,1.35v8.67a1.36,1.36,0,0,0,2.71,0V88.71A1.36,1.36,0,0,0,128.73,87.36Z" transform="translate(-16.67 -50.73)"/><path class="e" d="M133.15,91.78h-8.66a1.36,1.36,0,1,0,0,2.71h8.66a1.36,1.36,0,0,0,0-2.71Z" transform="translate(-16.67 -50.73)"/><path class="e" d="M22.26,52.59A1.35,1.35,0,0,0,20.91,54v8.66a1.35,1.35,0,1,0,2.7,0V54A1.35,1.35,0,0,0,22.26,52.59Z" transform="translate(-16.67 -50.73)"/><path class="e" d="M26.68,57H18a1.35,1.35,0,0,0,0,2.7h8.66a1.35,1.35,0,1,0,0-2.7Z" transform="translate(-16.67 -50.73)"/><path class="e" d="M256.83,141.82a1.34,1.34,0,0,0-1.35,1.35v8.66a1.35,1.35,0,1,0,2.7,0v-8.66A1.34,1.34,0,0,0,256.83,141.82Z" transform="translate(-16.67 -50.73)"/><path class="e" d="M261.25,146.24h-8.66a1.36,1.36,0,0,0,0,2.71h8.66a1.36,1.36,0,1,0,0-2.71Z" transform="translate(-16.67 -50.73)"/><path class="e" d="M71,68.67H39.33A5.1,5.1,0,0,0,34,73.77V90.56a5.57,5.57,0,0,0,5.34,5.65h7.41l5.44,7.45,7.45-7.45H71a5.72,5.72,0,0,0,5.51-5.65V73.77A5.25,5.25,0,0,0,71,68.67Z" transform="translate(-16.67 -50.73)"/><path class="e" d="M239.78,218.92H67.45a8.07,8.07,0,0,1-8.07-8.06v-3.33a1.14,1.14,0,0,1,1.14-1.14H246.71a1.14,1.14,0,0,1,1.14,1.14v3.33A8.07,8.07,0,0,1,239.78,218.92ZM61.66,208.67v2.19a5.79,5.79,0,0,0,5.79,5.78H239.78a5.79,5.79,0,0,0,5.79-5.78v-2.19Z" transform="translate(-16.67 -50.73)"/><path class="e" d="M166.63,214h-26.2a1.14,1.14,0,0,1-1.14-1.13v-5.21a1.14,1.14,0,1,1,2.28,0v4.07h23.92v-4.07a1.14,1.14,0,1,1,2.28,0v5.21A1.14,1.14,0,0,1,166.63,214Z" transform="translate(-16.67 -50.73)"/><path class="e" d="M73.05,208.14A1.14,1.14,0,0,1,71.91,207V117.83a8.63,8.63,0,0,1,8.76-8.48h145.8a8.41,8.41,0,0,1,8.51,8.48v88.35a1.14,1.14,0,1,1-2.27,0V117.83a6.15,6.15,0,0,0-6.24-6.2H80.67a6.35,6.35,0,0,0-6.48,6.2V207A1.14,1.14,0,0,1,73.05,208.14Z" transform="translate(-16.67 -50.73)"/><path class="e" d="M83.63,200a1.16,1.16,0,0,1-.81-.31,1.11,1.11,0,0,1-.33-.79V121.07a1.14,1.14,0,0,1,1.14-1.14h139.8a1.14,1.14,0,0,1,1.14,1.14v77.75a1.12,1.12,0,0,1-1.14,1.12L83.63,200Zm1.14-77.8v75.56l137.52-.08V122.2Z" transform="translate(-16.67 -50.73)"/><path class="c" d="M67.85,81.81l-6.09-5.56a1,1,0,0,0-1.45.07,1,1,0,0,0-.27.74,1,1,0,0,0,.34.71l5.25,4.8-5.25,4.8a1,1,0,0,0-.07,1.45,1,1,0,0,0,.76.34,1,1,0,0,0,.69-.27l6.09-5.56a1,1,0,0,0,0-1.52Z" transform="translate(-16.67 -50.73)"/><path class="c" d="M50.18,76.32a1,1,0,0,0-1.45-.07l-6.09,5.56a1,1,0,0,0,0,1.52l6.08,5.56a1.06,1.06,0,0,0,.7.27,1,1,0,0,0,.76-.34,1,1,0,0,0-.07-1.45l-5.25-4.8,5.25-4.8A1,1,0,0,0,50.18,76.32Z" transform="translate(-16.67 -50.73)"/><path class="c" d="M54.73,76.74a1,1,0,0,0-.48-.62,1,1,0,0,0-.78-.1,1,1,0,0,0-.72,1.26l3,11.12a1,1,0,0,0,1,.76.75.75,0,0,0,.26,0,1,1,0,0,0,.63-.48,1.06,1.06,0,0,0,.1-.78Z" transform="translate(-16.67 -50.73)"/><path class="e" d="M57.75,182.81H55.64a1.14,1.14,0,1,1,0-2.28h2.11a1.14,1.14,0,1,1,0,2.28Z" transform="translate(-16.67 -50.73)"/><path class="e" d="M48,182.81h-4.4a1.14,1.14,0,0,1,0-2.28H48a1.14,1.14,0,0,1,0,2.28Z" transform="translate(-16.67 -50.73)"/><path class="e" d="M35.78,182.81h-2a1.14,1.14,0,0,1-1.14-1.14v-1.95a1.14,1.14,0,0,1,2.28,0v.81h.81a1.14,1.14,0,0,1,0,2.28Z" transform="translate(-16.67 -50.73)"/><path class="e" d="M33.83,150.23A1.14,1.14,0,0,0,35,149.09V145a1.14,1.14,0,1,0-2.28,0v4.07A1.14,1.14,0,0,0,33.83,150.23Z" transform="translate(-16.67 -50.73)"/><path class="e" d="M33.83,173.34A1.14,1.14,0,0,0,35,172.2v-4.07a1.14,1.14,0,0,0-2.28,0v4.07A1.14,1.14,0,0,0,33.83,173.34Z" transform="translate(-16.67 -50.73)"/><path class="e" d="M33.83,161.79A1.14,1.14,0,0,0,35,160.65v-4.07a1.14,1.14,0,1,0-2.28,0v4.07A1.14,1.14,0,0,0,33.83,161.79Z" transform="translate(-16.67 -50.73)"/><path class="e" d="M33.83,138.68a1.14,1.14,0,0,1-1.14-1.14v-2.12a1.14,1.14,0,0,1,1.14-1.14h2a1.14,1.14,0,1,1,0,2.28H35v1A1.14,1.14,0,0,1,33.83,138.68Z" transform="translate(-16.67 -50.73)"/><path class="e" d="M45.06,136.56H41.8a1.14,1.14,0,1,1,0-2.28h3.26a1.14,1.14,0,1,1,0,2.28Z" transform="translate(-16.67 -50.73)"/><path class="e" d="M53,136.56H50.92a1.14,1.14,0,1,1,0-2.28h1v-.81a1.14,1.14,0,0,1,2.28,0v1.95A1.14,1.14,0,0,1,53,136.56Z" transform="translate(-16.67 -50.73)"/><path class="e" d="M53,125.82a1.14,1.14,0,0,1-1.14-1.14V119.8a1.14,1.14,0,1,1,2.28,0v4.88A1.14,1.14,0,0,1,53,125.82Z" transform="translate(-16.67 -50.73)"/><path class="e" d="M53,112.47a1.14,1.14,0,0,1-1.14-1.14v-2.11a1.14,1.14,0,0,1,2.28,0v2.11A1.14,1.14,0,0,1,53,112.47Z" transform="translate(-16.67 -50.73)"/><polygon class="f" points="133.5 121.73 133.5 121.7 133.5 121.7 133.5 121.73"/><path class="f" d="M150.25,172.46l-.05-1.81,0,1.78Z" transform="translate(-16.67 -50.73)"/><polygon class="f" points="133.5 121.7 133.5 121.7 133.53 119.92 133.24 110.56 133.5 121.7"/><path class="f" d="M171.38,77a14,14,0,0,0-8.7-13h0l-.25,17.32-5.64,1.45-5.22-1.61.24-17.3a13.77,13.77,0,0,0-8.87,12.73,14.17,14.17,0,0,0,8.51,13.23L150.73,140h.05l-.15,6.51a14.21,14.21,0,0,0-8.91,13,13.76,13.76,0,0,0,8.45,13l-.26-11.14.29,9.36.21-15.52,5.27-1.45,5.6,1.61L161,172.62h.09a14,14,0,0,0,9-12.75,14.3,14.3,0,0,0-8.66-13.29l.14-6.45h0L162.3,90A14.34,14.34,0,0,0,171.38,77Z" transform="translate(-16.67 -50.73)"/><path class="f" d="M151.8,63.82v0l.06,0Z" transform="translate(-16.67 -50.73)"/><path class="e" d="M162.62,145.89l.12-5.71v0l.7-49.4a15.58,15.58,0,0,0,6.24-5.15A15.07,15.07,0,0,0,172.51,77a14.59,14.59,0,0,0-2.59-8.53A15.76,15.76,0,0,0,163.15,63a1.09,1.09,0,0,0-1.45.57,1.11,1.11,0,0,0-.09.43h0l-.23,16.48-4.53,1.16-4.13-1.27L153,64a1,1,0,0,0,0-.58,1.09,1.09,0,0,0-1-.69h0a.83.83,0,0,0-.35.06h0l0,0a14.82,14.82,0,0,0-9.54,13.73,15.3,15.3,0,0,0,8.5,14l-.7,49.46h0l-.12,5.78a15.36,15.36,0,0,0-8.92,13.7,14.84,14.84,0,0,0,9,14,1.31,1.31,0,0,0,.54.17h.08a1.09,1.09,0,0,0,1-.67,1.13,1.13,0,0,0,0-.7l.23-16.22,4.16-1.15,4.49,1.29L160,172.6a1.14,1.14,0,0,0,.31.79l.19.13h0a1.15,1.15,0,0,0,.25.12.8.8,0,0,0,.21,0l.11,0h.05a1,1,0,0,0,.41-.08,15.71,15.71,0,0,0,6.91-5.3,14.57,14.57,0,0,0,2.82-8.45,15.08,15.08,0,0,0-2.57-8.68A15.43,15.43,0,0,0,162.62,145.89Zm-.41,25,.22-15.57a1.1,1.1,0,0,0-.8-1.07l-5.6-1.61a1,1,0,0,0-.6,0l-5.26,1.45a1.11,1.11,0,0,0-.81,1.05l-.22,15.53a12.57,12.57,0,0,1-6.3-11.16,13,13,0,0,1,8.21-12,1.09,1.09,0,0,0,.69-1l.14-6.5v0h0l.71-50.18a1.09,1.09,0,0,0-.66-1,13.08,13.08,0,0,1-7.86-12.21,12.59,12.59,0,0,1,6.65-11l-.21,15.54a1.1,1.1,0,0,0,.77,1.07l5.23,1.6a.7.7,0,0,0,.32,0,1.18,1.18,0,0,0,.27,0l5.65-1.45a1.12,1.12,0,0,0,.83-1.06l.21-15.55A12.61,12.61,0,0,1,170.3,77a13.28,13.28,0,0,1-8.36,12,1.1,1.1,0,0,0-.69,1l-.71,50.12h0l-.14,6.43a1.1,1.1,0,0,0,.67,1,13.1,13.1,0,0,1,8,12.25A12.64,12.64,0,0,1,162.21,170.87Z" transform="translate(-16.67 -50.73)"/><path class="e" d="M156.93,104.75h0a.94.94,0,0,0-.78.31,1.08,1.08,0,0,0-.34.77l-.33,23.61a1.09,1.09,0,0,0,.31.78,1.14,1.14,0,0,0,.78.34h0a1.11,1.11,0,0,0,.77-.31,1.16,1.16,0,0,0,.34-.78l.33-23.61A1.1,1.1,0,0,0,156.93,104.75Z" transform="translate(-16.67 -50.73)"/><path class="g" d="M201.43,72.67a7,7,0,0,0-8.25,5.44l-6.44,31.43L203.6,113,210,81.57a7,7,0,0,0-5.44-8.25Z" transform="translate(-16.67 -50.73)"/><polygon class="f" points="165.64 110.91 163.67 114.39 164.5 120.47 167.82 121.15 170.92 115.88 170.7 111.89 181.09 61.2 176.04 60.16 165.64 110.91"/><path class="e" d="M210,75.71a8,8,0,0,0-5.13-3.47l-3.17-.65a8.11,8.11,0,0,0-9.55,6.3l-6.44,31.43a1,1,0,0,0,.16.82,1.09,1.09,0,0,0,.69.48l4.92,1-10.17,49.63-1.89,3.33a1.17,1.17,0,0,0-.13.69l.84,6.08a1.08,1.08,0,0,0,.87.93l3.31.68a.78.78,0,0,0,.22,0,1.13,1.13,0,0,0,1-.55l3.11-5.27a1.12,1.12,0,0,0,.15-.62l-.22-3.85,10.17-49.6,4.74,1,.23,0a1.1,1.1,0,0,0,.92-.51.85.85,0,0,0,.15-.37l6.44-31.43A8,8,0,0,0,210,75.71Zm-21.91,33,6.22-30.34a5.89,5.89,0,0,1,7-4.59l3.17.65A5.89,5.89,0,0,1,209,81.35l-6.22,30.34Zm-1.58,57.66-2.53,4.3-1.77-.36-.68-4.94,1.78-3.16a1,1,0,0,0,.12-.32l10.21-49.79,2.89.59-10.2,49.73a2.83,2.83,0,0,0,0,.29Z" transform="translate(-16.67 -50.73)"/><path class="e" d="M196.72,79.17a1.1,1.1,0,0,0-1.3.86L193,91.86a1.15,1.15,0,0,0,.16.83,1.1,1.1,0,0,0,.7.47.86.86,0,0,0,.22,0,1.09,1.09,0,0,0,.93-.5,1.06,1.06,0,0,0,.16-.38l2.42-11.83a1.1,1.1,0,0,0-.86-1.3Z" transform="translate(-16.67 -50.73)"/><path class="e" d="M192.82,98.22a1.1,1.1,0,0,0-.83.16,1.09,1.09,0,0,0-.48.7l-1,5a1.06,1.06,0,0,0,.16.83,1.09,1.09,0,0,0,.7.48l.22,0a1.13,1.13,0,0,0,.93-.51,1.2,1.2,0,0,0,.15-.37l1-5A1.11,1.11,0,0,0,192.82,98.22Z" transform="translate(-16.67 -50.73)"/><path class="h" d="M199.37,166.39a5.93,5.93,0,0,0,1.21,8.3l.23.18a5.94,5.94,0,0,0,8.3-1.21l39.52-53-9.74-7.27Z" transform="translate(-16.67 -50.73)"/><path class="f" d="M222.71,101.09l-.13.17c14.59-2.27,27.2-3.17,16.31,12.17l9.74,7.27c5.93-.33,12.59,2.42,19.83,7.61L276.88,117c-2.16-4.87-13.27-12.58-24.34-20.27A21.31,21.31,0,0,0,222.71,101.09Z" transform="translate(-16.67 -50.73)"/><polygon class="f" points="260.19 66.33 251.8 77.57 250.71 79.03 254.59 81.92 265.34 67.52 261.46 64.62 260.19 66.33"/><path class="e" d="M282.67,117.36l-3.88-2.89h0a1.1,1.1,0,0,0-.82-.21,1.13,1.13,0,0,0-.73.43L277,115c-3.46-5-13.26-11.86-23.6-19.05l-.19-.13a22.41,22.41,0,0,0-31.36,4.57l-.13.17a1.09,1.09,0,0,0-.06,1.23,1.06,1.06,0,0,0,1.11.52,86.11,86.11,0,0,1,12.44-1.26c3.4,0,5.6.69,6.35,1.9,1,1.68-.19,5.07-3.54,9.8l-39.51,52.94a7,7,0,0,0,1.43,9.84l.23.18a7,7,0,0,0,4.19,1.4,7.38,7.38,0,0,0,2.86-.6,7.06,7.06,0,0,0,2.79-2.23l39.19-52.52c5.08-.12,11,2.16,17.71,6.77l-.4.53a1.1,1.1,0,0,0,.23,1.54l3.88,2.9a1.11,1.11,0,0,0,.66.22h.15a1.4,1.4,0,0,0,.29-.09,1,1,0,0,0,.44-.35l10.75-14.4a1.1,1.1,0,0,0,.21-.82A1.13,1.13,0,0,0,282.67,117.36ZM208.22,173a4.82,4.82,0,0,1-6.75,1l-.23-.18a4.73,4.73,0,0,1-1.89-3.17,4.79,4.79,0,0,1,.91-3.58L239.11,115l8,5.94ZM271,131.11l-2.11-1.57.43-.58h0l4.19-5.6a1.1,1.1,0,0,0-.23-1.55,1.1,1.1,0,0,0-.81-.2,1.07,1.07,0,0,0-.73.43l-3.55,4.76a48,48,0,0,0-9.77-5.38A23.93,23.93,0,0,0,249,119.6l-8.61-6.42c3.51-5.19,4.52-8.93,3-11.35-1.2-1.94-3.88-2.91-8.2-2.94a70.84,70.84,0,0,0-9.9.85,20.23,20.23,0,0,1,26.6-2.08l.21.14c10.25,7.13,20.84,14.5,23.46,19.11l-.63.85a1.11,1.11,0,0,0,.89,1.77,1.13,1.13,0,0,0,.44-.1,1.09,1.09,0,0,0,.44-.35l1-1.39h0l.59-.79,2.11,1.57Z" transform="translate(-16.67 -50.73)"/><path class="e" d="M236.8,122.51a1.18,1.18,0,0,0-.82-.21,1.14,1.14,0,0,0-.73.44l-20.2,27.07a1.15,1.15,0,0,0-.21.82,1.1,1.1,0,0,0,.44.72,1.05,1.05,0,0,0,.66.22,1.12,1.12,0,0,0,.44-.09,1.09,1.09,0,0,0,.44-.35L237,124.06a1.1,1.1,0,0,0,.21-.82A1.13,1.13,0,0,0,236.8,122.51Z" transform="translate(-16.67 -50.73)"/><path class="e" d="M264.09,109.73l-8.15-6.09a1.1,1.1,0,1,0-1.32,1.77l8.15,6.09a1.14,1.14,0,0,0,.66.22,1.22,1.22,0,0,0,.45-.1,1.14,1.14,0,0,0,.44-.35A1.1,1.1,0,0,0,264.09,109.73Z" transform="translate(-16.67 -50.73)"/><path class="e" d="M92.35,216.64H49A1.2,1.2,0,1,0,49,219h43.4a1.2,1.2,0,1,0,0-2.37Z" transform="translate(-16.67 -50.73)"/><path class="e" d="M41.13,216.64H27.05a1.2,1.2,0,1,0,0,2.37H41.13a1.2,1.2,0,1,0,0-2.37Z" transform="translate(-16.67 -50.73)"/><path class="e" d="M120.51,224.21H67.37a1.19,1.19,0,1,0,0,2.36h53.14a1.19,1.19,0,1,0,0-2.36Z" transform="translate(-16.67 -50.73)"/><path class="e" d="M216.42,216.64h43.4a1.2,1.2,0,1,1,0,2.37h-43.4a1.2,1.2,0,1,1,0-2.37Z" transform="translate(-16.67 -50.73)"/><path class="e" d="M267.64,216.64h14.08a1.2,1.2,0,1,1,0,2.37H267.64a1.2,1.2,0,1,1,0-2.37Z" transform="translate(-16.67 -50.73)"/><path class="e" d="M188.25,224.21H241.4a1.19,1.19,0,1,1,0,2.36H188.25a1.19,1.19,0,1,1,0-2.36Z" transform="translate(-16.67 -50.73)"/><path class="e" d="M124.83,169.54h-30a1.14,1.14,0,1,1,0-2.27h30a1.14,1.14,0,1,1,0,2.27Z" transform="translate(-16.67 -50.73)"/><path class="e" d="M138.72,179.15H94.84a1.14,1.14,0,1,1,0-2.28h43.88a1.14,1.14,0,1,1,0,2.28Z" transform="translate(-16.67 -50.73)"/><path class="e" d="M185.76,188.42H94.84a1.14,1.14,0,0,1,0-2.28h90.92a1.14,1.14,0,0,1,0,2.28Z" transform="translate(-16.67 -50.73)"/><circle class="e" cx="89.73" cy="95.51" r="12.69"/><path class="i" d="M106.39,138.71a2.37,2.37,0,0,1,2.14,1.33,3.68,3.68,0,0,0-.59.45,2.2,2.2,0,0,1-3.1,0,2.37,2.37,0,0,0-.59-.45A2.38,2.38,0,0,1,106.39,138.71Zm2.36,2.11a2.28,2.28,0,0,1,0,.26,2.78,2.78,0,0,0,2.78,2.78h.25a2,2,0,0,1-.22.27,3,3,0,0,0,0,4.2h0a1.13,1.13,0,0,1,.22.27h-.25a2.78,2.78,0,0,0-2.78,2.78,2.28,2.28,0,0,1,0,.26,2.91,2.91,0,0,1-.27-.24,3,3,0,0,0-4.2,0h0a2.91,2.91,0,0,1-.27.24,2.28,2.28,0,0,1,0-.26,2.78,2.78,0,0,0-2.77-2.78H101a2,2,0,0,1,.22-.27,3,3,0,0,0,0-4.2h0a1.13,1.13,0,0,1-.22-.27h.26a2.78,2.78,0,0,0,2.77-2.78,2.28,2.28,0,0,1,0-.26l.27.24a3,3,0,0,0,4.2,0h0Zm3.85,3.29a2.38,2.38,0,0,1,1.08,3.2,2.45,2.45,0,0,1-1.08,1.08,3.36,3.36,0,0,0-.45-.6,2.19,2.19,0,0,1,0-3.09A3.18,3.18,0,0,0,112.6,144.11Zm-4.07,8.35a2.39,2.39,0,0,1-3.2,1.08,2.45,2.45,0,0,1-1.08-1.08,2.67,2.67,0,0,0,.59-.46,2.2,2.2,0,0,1,3.1,0A3.23,3.23,0,0,0,108.53,152.46Zm-8.35-4.07a2.4,2.4,0,0,1-1.08-3.2,2.35,2.35,0,0,1,1.08-1.08,3.74,3.74,0,0,0,.46.59,2.18,2.18,0,0,1,0,3.09A3,3,0,0,0,100.18,148.39Zm6.21,5.79a2.77,2.77,0,0,0,2.49-1.55,3,3,0,0,0,4.13-2.74,2.9,2.9,0,0,0-.24-1.16,2.77,2.77,0,0,0,0-5,2.86,2.86,0,0,0,.24-1.15,3,3,0,0,0-4.13-2.75,2.82,2.82,0,0,0-2.49-1.56,2.77,2.77,0,0,0-2.48,1.56,3.08,3.08,0,0,0-1.16-.23,3,3,0,0,0-3,3,2.69,2.69,0,0,0,.23,1.15,2.77,2.77,0,0,0,0,5,3.08,3.08,0,0,0-.23,1.16,3,3,0,0,0,3,3,3.08,3.08,0,0,0,1.16-.23,2.81,2.81,0,0,0,2.48,1.55Zm2.73-2.3a2.59,2.59,0,0,0,0-.48,2.39,2.39,0,0,1,2.38-2.39,3.64,3.64,0,0,0,.48,0,2,2,0,0,1,.2.91,2.21,2.21,0,0,1-.64,1.55,2.14,2.14,0,0,1-1.55.63A2.22,2.22,0,0,1,109.12,151.88Zm2.9-8.36a2.45,2.45,0,0,0-.48,0,2.39,2.39,0,0,1-2.38-2.39,2.59,2.59,0,0,0,0-.48,2.07,2.07,0,0,1,.91-.19,2.11,2.11,0,0,1,1.55.64,2.2,2.2,0,0,1,.64,1.55A2.08,2.08,0,0,1,112,143.52Zm-8.36-2.91a3.87,3.87,0,0,0,0,.48,2.4,2.4,0,0,1-2.39,2.39,2.59,2.59,0,0,0-.48,0,2.23,2.23,0,0,1-.2-.91,2.28,2.28,0,0,1,.64-1.55,2.11,2.11,0,0,1,1.55-.64A2.32,2.32,0,0,1,103.66,140.61Zm-2.9,8.37a3.87,3.87,0,0,0,.48,0,2.4,2.4,0,0,1,2.39,2.39,3.87,3.87,0,0,0,0,.48,2,2,0,0,1-.91.19,2.19,2.19,0,0,1-2.19-2.17h0A2.16,2.16,0,0,1,100.76,149Z" transform="translate(-16.67 -50.73)"/></svg>