<svg xmlns="http://www.w3.org/2000/svg" width="247.65" height="175.59" viewBox="0 0 247.65 175.59"><defs><style>.a{opacity:0.35;}.b{fill:#b9e3eb;}.c,.i{fill:#fff;}.c{opacity:0.5;}.d{fill:#1d243a;}.e{fill:#e2e2e5;}.f{fill:#3e4449;}.g{fill:#f47523;}.h{fill:#47a8b5;}</style></defs><title>using-the-tools</title><g class="a"><path class="b" d="M28.82,116S41.09,200.15,91.87,224.6s118.84-7.27,137.54-21.73,26.28-60.65-17.33-79.7S26.3,52.27,28.82,116Z" transform="translate(-28.79 -57.99)"/></g><rect class="c" x="46.91" y="40.78" width="129.64" height="105.08"/><path class="d" d="M202,206H79.22a5.69,5.69,0,0,1-5.66-5.72v-98a5.58,5.58,0,0,1,5.56-5.61H202.05a5.45,5.45,0,0,1,5.43,5.48V200.4A5.56,5.56,0,0,1,202,206ZM79.12,98.77a3.42,3.42,0,0,0-3.42,3.41v98.09a3.55,3.55,0,0,0,3.52,3.58H202a3.38,3.38,0,0,0,3.39-3.37V102.11a3.28,3.28,0,0,0-3.22-3.34h-123Z" transform="translate(-28.79 -57.99)"/><path class="d" d="M191.35,110.91H75.41a1.07,1.07,0,0,1-1.07-1.07h0a1.07,1.07,0,0,1,1.07-1.08H191.35a1.08,1.08,0,0,1,0,2.15Z" transform="translate(-28.79 -57.99)"/><path class="d" d="M99.47,110a1.07,1.07,0,0,1-1.07-1.07h0V98.49a1.07,1.07,0,0,1,1.07-1.08h0a1.07,1.07,0,0,1,1.07,1.08v10.42A1.07,1.07,0,0,1,99.47,110Z" transform="translate(-28.79 -57.99)"/><path class="d" d="M82.74,106.8A3.24,3.24,0,1,1,86,103.57,3.23,3.23,0,0,1,82.74,106.8Zm0-4.32a1.09,1.09,0,1,0,1.09,1.09,1.09,1.09,0,0,0-1.09-1.09Z" transform="translate(-28.79 -57.99)"/><path class="d" d="M91.44,106.8a3.24,3.24,0,1,1,3.24-3.23A3.23,3.23,0,0,1,91.44,106.8Zm0-4.32a1.09,1.09,0,1,0,1.09,1.09,1.09,1.09,0,0,0-1.09-1.09Z" transform="translate(-28.79 -57.99)"/><path class="d" d="M171.78,102.63H104.25a1.07,1.07,0,0,1,0-2.14h67.53a1.07,1.07,0,0,1,1.07,1.07h0a1.07,1.07,0,0,1-1.07,1.07Z" transform="translate(-28.79 -57.99)"/><path class="d" d="M140.52,106.91H104.25a1.07,1.07,0,0,1-1.07-1.07h0a1.07,1.07,0,0,1,1.07-1.07h36.27a1.07,1.07,0,0,1,1.07,1.07h0a1.07,1.07,0,0,1-1.07,1.07Z" transform="translate(-28.79 -57.99)"/><path class="d" d="M205.62,110.91h-5.85a1.07,1.07,0,0,1-1.07-1.07h0a1.07,1.07,0,0,1,1.07-1.08h5.85a1.07,1.07,0,0,1,1.07,1.07h0a1.07,1.07,0,0,1-1.07,1.07Z" transform="translate(-28.79 -57.99)"/><path class="d" d="M200.05,141A1.06,1.06,0,0,1,199,142H82.19A1.07,1.07,0,0,1,81.12,141V117.54a1.07,1.07,0,0,1,1.07-1.07H199a1.07,1.07,0,0,1,1.07,1.07h0ZM83.27,139.89H197.91V118.62H83.27Z" transform="translate(-28.79 -57.99)"/><path class="d" d="M106.77,172H87.63a.72.72,0,0,1-.72-.72V152.14a.72.72,0,0,1,.72-.72h19.14a.73.73,0,0,1,.73.72v19.15A.73.73,0,0,1,106.77,172Zm-18.42-1.44h17.7V152.86H88.35Z" transform="translate(-28.79 -57.99)"/><path class="d" d="M94.59,159.82a.71.71,0,0,1-.51-.21l-7-7a.72.72,0,0,1,0-1,.73.73,0,0,1,1,0l7,7a.72.72,0,0,1,0,1,.71.71,0,0,1-.51.21Z" transform="translate(-28.79 -57.99)"/><path class="d" d="M106.77,172a.75.75,0,0,1-.51-.21l-7-7a.72.72,0,0,1,1-1l7,7a.72.72,0,0,1,0,1,.74.74,0,0,1-.51.21Z" transform="translate(-28.79 -57.99)"/><path class="d" d="M99.81,159.82a.72.72,0,0,1-.51-1.23l7-7a.72.72,0,0,1,1,0,.71.71,0,0,1,0,1l-7,7A.71.71,0,0,1,99.81,159.82Z" transform="translate(-28.79 -57.99)"/><path class="d" d="M87.63,172a.72.72,0,0,1-.72-.72.68.68,0,0,1,.21-.51l7-7a.72.72,0,0,1,1,1l-7,7A.75.75,0,0,1,87.63,172Z" transform="translate(-28.79 -57.99)"/><path class="d" d="M150.85,172H131.7a.72.72,0,0,1-.72-.72V152.14a.72.72,0,0,1,.72-.72h19.15a.72.72,0,0,1,.72.72v19.15A.72.72,0,0,1,150.85,172Zm-18.43-1.44h17.71V152.86H132.42Z" transform="translate(-28.79 -57.99)"/><path class="d" d="M138.67,159.82a.69.69,0,0,1-.51-.21l-7-7a.72.72,0,0,1,1-1l7,7a.72.72,0,0,1,0,1,.71.71,0,0,1-.51.21Z" transform="translate(-28.79 -57.99)"/><path class="d" d="M150.85,172a.74.74,0,0,1-.51-.21l-7-7a.72.72,0,0,1,0-1,.73.73,0,0,1,1,0l7,7a.72.72,0,0,1,0,1,.75.75,0,0,1-.51.21Z" transform="translate(-28.79 -57.99)"/><path class="d" d="M143.89,159.82a.72.72,0,0,1-.51-1.23l7-7a.72.72,0,0,1,1,1l-7,7A.71.71,0,0,1,143.89,159.82Z" transform="translate(-28.79 -57.99)"/><path class="d" d="M131.7,172a.73.73,0,0,1-.72-.72.72.72,0,0,1,.21-.51l7-7a.72.72,0,0,1,1,1h0l-7,7A.72.72,0,0,1,131.7,172Z" transform="translate(-28.79 -57.99)"/><path class="d" d="M195,172H175.84a.72.72,0,0,1-.72-.72V152.14a.72.72,0,0,1,.72-.72H195a.72.72,0,0,1,.72.72v19.15A.72.72,0,0,1,195,172Zm-18.43-1.44h17.7V152.86h-17.7Z" transform="translate(-28.79 -57.99)"/><path class="d" d="M182.8,159.82a.71.71,0,0,1-.51-.21l-7-7a.72.72,0,0,1,1-1l7,7a.72.72,0,0,1,0,1,.71.71,0,0,1-.51.21Z" transform="translate(-28.79 -57.99)"/><path class="d" d="M195,172a.74.74,0,0,1-.51-.21l-7-7a.72.72,0,0,1,1-1l7,7a.72.72,0,0,1,0,1,.75.75,0,0,1-.51.21Z" transform="translate(-28.79 -57.99)"/><path class="d" d="M188,159.82a.72.72,0,0,1-.72-.72.75.75,0,0,1,.21-.51l7-7a.72.72,0,0,1,1,1l-7,7A.69.69,0,0,1,188,159.82Z" transform="translate(-28.79 -57.99)"/><path class="d" d="M175.84,172a.72.72,0,0,1-.51-1.23l7-7a.72.72,0,0,1,1,0,.7.7,0,0,1,0,1l-7,7A.74.74,0,0,1,175.84,172Z" transform="translate(-28.79 -57.99)"/><path class="d" d="M112.53,179.84H83.69a.72.72,0,1,1,0-1.44h28.84a.72.72,0,0,1,0,1.44Z" transform="translate(-28.79 -57.99)"/><path class="d" d="M112.53,186.76H83.69a.72.72,0,1,1,0-1.44h28.84a.72.72,0,0,1,0,1.44Z" transform="translate(-28.79 -57.99)"/><path class="d" d="M112.53,193.91H83.69a.72.72,0,1,1,0-1.44h28.84a.72.72,0,0,1,0,1.44Z" transform="translate(-28.79 -57.99)"/><path class="d" d="M155.72,179.84H126.87a.72.72,0,0,1,0-1.44h28.85a.72.72,0,0,1,0,1.44Z" transform="translate(-28.79 -57.99)"/><path class="d" d="M155.72,186.76H126.87a.72.72,0,1,1,0-1.44h28.85a.72.72,0,0,1,0,1.44Z" transform="translate(-28.79 -57.99)"/><path class="d" d="M155.72,193.91H126.87a.72.72,0,0,1,0-1.44h28.85a.72.72,0,0,1,0,1.44Z" transform="translate(-28.79 -57.99)"/><path class="d" d="M199.83,179.84H171a.72.72,0,0,1,0-1.44h28.84a.72.72,0,1,1,0,1.44Z" transform="translate(-28.79 -57.99)"/><path class="d" d="M199.83,186.76H171a.72.72,0,1,1,0-1.44h28.84a.72.72,0,1,1,0,1.44Z" transform="translate(-28.79 -57.99)"/><path class="d" d="M199.83,193.91H171a.72.72,0,0,1,0-1.44h28.84a.72.72,0,1,1,0,1.44Z" transform="translate(-28.79 -57.99)"/><path class="d" d="M143.34,141.66a.6.6,0,0,1-.6-.6.58.58,0,0,1,.18-.43L158,125.56a2.48,2.48,0,0,1,3.51,0l14.7,14.7a.6.6,0,0,1-.85.85l-14.7-14.7a1.28,1.28,0,0,0-1.8,0h0l-15.07,15.07A.62.62,0,0,1,143.34,141.66Z" transform="translate(-28.79 -57.99)"/><path class="d" d="M172.39,137.2a.6.6,0,0,1-.29-1.13l12.46-6.77a3.06,3.06,0,0,1,3.13.11l10.46,6.68a.6.6,0,1,1-.65,1L187,130.42a1.89,1.89,0,0,0-1.91-.07l-12.45,6.78A.73.73,0,0,1,172.39,137.2Z" transform="translate(-28.79 -57.99)"/><path class="d" d="M175.2,129.39a3.92,3.92,0,1,1,3.92-3.92A3.91,3.91,0,0,1,175.2,129.39Zm0-6.63a2.71,2.71,0,1,0,2.72,2.71A2.72,2.72,0,0,0,175.2,122.76Z" transform="translate(-28.79 -57.99)"/><path class="d" d="M133.3,126.54H91.46c-.57,0-1-.27-1-.6s.47-.61,1-.61H133.3c.58,0,1,.27,1,.61S133.88,126.54,133.3,126.54Z" transform="translate(-28.79 -57.99)"/><path class="d" d="M133.3,132.39H91.46c-.57,0-1-.27-1-.61s.47-.61,1-.61H133.3c.58,0,1,.27,1,.61S133.88,132.39,133.3,132.39Z" transform="translate(-28.79 -57.99)"/><polygon class="e" points="121.49 99.56 121.49 99.53 121.49 99.53 121.49 99.56"/><path class="e" d="M150.35,157.57l.13-1.66-.2,1.61Z" transform="translate(-28.79 -57.99)"/><polygon class="e" points="121.49 99.53 121.49 99.53 121.69 97.92 122.35 89.38 121.49 99.53"/><path class="e" d="M179,72.87a12.79,12.79,0,0,0-6.63-12.68h0L170.4,75.92l-5.27.76-4.59-2L162.47,59a12.6,12.6,0,0,0-9.31,10.69,13,13,0,0,0,6.42,12.87L154,128.08h0l-.77,5.9a13,13,0,0,0-9.38,10.92,12.56,12.56,0,0,0,6.4,12.61l.86-10.15-.66,8.54,1.73-14.08,4.92-.8,4.94,2-1.94,15.73h.08a12.77,12.77,0,0,0,9.48-10.7,13.08,13.08,0,0,0-6.56-12.93l.76-5.85h0l5.58-45.47A13.1,13.1,0,0,0,179,72.87Z" transform="translate(-28.79 -57.99)"/><path class="e" d="M162.48,59h0Z" transform="translate(-28.79 -57.99)"/><path class="f" d="M164.21,134.64l.68-5.19h0v0L170.4,84.6a14.41,14.41,0,0,0,6.18-4.06A13.83,13.83,0,0,0,180,73a13.27,13.27,0,0,0-1.51-8,14.5,14.5,0,0,0-5.6-5.66,1,1,0,0,0-1.38.38.89.89,0,0,0-.12.38h0l-1.84,15-4.23.61-3.63-1.56,1.82-14.82a1,1,0,0,0,0-.54,1,1,0,0,0-.89-.73h0a1.19,1.19,0,0,0-.32,0h-.07a13.54,13.54,0,0,0-10,11.54,14,14,0,0,0,6.35,13.51L153,128h0l-.68,5.24a14,14,0,0,0-9.46,11.57,13.54,13.54,0,0,0,6.84,13.56.88.88,0,0,0,.47.21h.06a1,1,0,0,0,1.09-1.14l1.81-14.72,3.9-.64,4,1.62-1.84,15a1,1,0,0,0,.2.74.75.75,0,0,0,.17.14v0a.92.92,0,0,0,.21.13.7.7,0,0,0,.19.06l.09,0h0a1.2,1.2,0,0,0,.38,0,14.34,14.34,0,0,0,6.8-4.14,13.34,13.34,0,0,0,3.41-7.4,14,14,0,0,0-1.48-8.15A14.17,14.17,0,0,0,164.21,134.64Zm-2.83,22.66,1.73-14.13a1,1,0,0,0-.62-1.06l-4.93-2A1,1,0,0,0,157,140l-4.93.8a1,1,0,0,0-.84.87l-1.73,14.09A11.5,11.5,0,0,1,144.89,145,12,12,0,0,1,153.53,135a1,1,0,0,0,.73-.84l.77-5.89h0v0l5.6-45.53a1,1,0,0,0-.51-1,12,12,0,0,1-5.93-11.87,11.48,11.48,0,0,1,7.13-9.33l-1.73,14.1a1,1,0,0,0,.6,1l4.59,2a.72.72,0,0,0,.28.07h.26l5.27-.76a1,1,0,0,0,.86-.88l1.73-14.11A11.56,11.56,0,0,1,178,72.75a12.12,12.12,0,0,1-8.78,10.1,1,1,0,0,0-.73.85l-5.59,45.48h0l-.76,5.83a1,1,0,0,0,.5,1A12,12,0,0,1,168.68,148,11.55,11.55,0,0,1,161.38,157.3Z" transform="translate(-28.79 -57.99)"/><path class="f" d="M163.1,96.68h0a.89.89,0,0,0-.74.21,1,1,0,0,0-.38.67L159.34,119a1,1,0,0,0,.21.74,1,1,0,0,0,.67.38h0a1,1,0,0,0,1.11-.88L164,97.81A1,1,0,0,0,163.1,96.68Z" transform="translate(-28.79 -57.99)"/><path class="g" d="M206.7,71.92a6.4,6.4,0,0,0-8,4.14L189.71,104l15,4.8,9-27.92a6.39,6.39,0,0,0-4.13-8Z" transform="translate(-28.79 -57.99)"/><polygon class="e" points="151.76 92.89 149.63 95.87 149.78 101.48 152.73 102.42 156.07 97.93 156.26 94.28 170.7 49.25 166.21 47.81 151.76 92.89"/><path class="f" d="M214.14,75.53a7.34,7.34,0,0,0-4.32-3.67L207,71a7.42,7.42,0,0,0-9.31,4.79l-8.95,27.92a1,1,0,0,0,.07.77,1,1,0,0,0,.58.5l4.37,1.4-14.14,44.09-2,2.84a1,1,0,0,0-.18.62l.16,5.61a1,1,0,0,0,.7.93l2.94.94a.65.65,0,0,0,.19,0,1,1,0,0,0,.92-.4l3.34-4.48a1,1,0,0,0,.2-.55l.19-3.52,14.13-44.07,4.21,1.35.2.05a1,1,0,0,0,.89-.37,1.06,1.06,0,0,0,.18-.33l9-27.92A7.28,7.28,0,0,0,214.14,75.53ZM191,103.32l8.64-27a5.39,5.39,0,0,1,6.77-3.48l2.82.9a5.39,5.39,0,0,1,3.48,6.77l-8.64,27Zm-7.12,52.25-2.72,3.66-1.58-.5-.13-4.56,1.93-2.69a1.32,1.32,0,0,0,.15-.29L195.69,107l2.57.83L184.09,152a1,1,0,0,0-.05.25Z" transform="translate(-28.79 -57.99)"/><path class="f" d="M201.78,77.37a1,1,0,0,0-.77.06,1,1,0,0,0-.5.59l-3.37,10.51a1,1,0,0,0,.66,1.27l.19,0a1,1,0,0,0,.9-.37,1,1,0,0,0,.17-.32l3.37-10.52a1,1,0,0,0-.06-.77A1,1,0,0,0,201.78,77.37Z" transform="translate(-28.79 -57.99)"/><path class="f" d="M196.35,94.29a1,1,0,0,0-.76.07,1,1,0,0,0-.5.58l-1.43,4.46a1,1,0,0,0,.06.77,1,1,0,0,0,.59.5l.2,0a1,1,0,0,0,.89-.37.92.92,0,0,0,.18-.32L197,95.56A1,1,0,0,0,196.35,94.29Z" transform="translate(-28.79 -57.99)"/><path class="h" d="M195.59,156.89a5.42,5.42,0,0,0,.27,7.66l.2.18a5.42,5.42,0,0,0,7.66-.27l41.14-44.24-8.14-7.56Z" transform="translate(-28.79 -57.99)"/><path class="e" d="M223.24,99.85l-.14.14c13.49-.62,25-.2,13.62,12.67l8.14,7.56c5.42.29,11.2,3.45,17.27,8.87l8.76-9.42c-1.48-4.63-10.82-12.74-20.11-20.82A19.49,19.49,0,0,0,223.24,99.85Z" transform="translate(-28.79 -57.99)"/><polygon class="e" points="242.08 61.7 233.35 71.09 232.21 72.32 235.45 75.33 246.64 63.3 243.4 60.28 242.08 61.7"/><path class="f" d="M276.12,120.55l-3.24-3h0a1,1,0,0,0-.72-.27,1,1,0,0,0-.71.32l-.27.29c-2.65-4.91-10.88-12.08-19.57-19.64l-.16-.14a20.5,20.5,0,0,0-28.95,1.06l-.13.15a1,1,0,0,0-.18,1.11,1,1,0,0,0,1,.58,77.27,77.27,0,0,1,11.43.08c3.09.36,5,1.18,5.58,2.35.78,1.63-.67,4.59-4.19,8.56l-41.12,44.22a6.41,6.41,0,0,0,.33,9.08l.2.18a6.26,6.26,0,0,0,3.67,1.68,5.87,5.87,0,0,0,.94,0,6.2,6.2,0,0,0,1.71-.3,6.36,6.36,0,0,0,2.76-1.75l40.79-43.86c4.63.39,9.81,3,15.42,7.9l-.41.44a1,1,0,0,0,.05,1.43l3.24,3a1,1,0,0,0,.58.26h.15a.86.86,0,0,0,.27-.05A1,1,0,0,0,265,134l11.19-12a1,1,0,0,0,.27-.72A1,1,0,0,0,276.12,120.55ZM203,163.77a4.42,4.42,0,0,1-6.23.23l-.2-.19a4.41,4.41,0,0,1-.22-6.23l40.44-43.49,6.66,6.19Zm61.21-31.87-1.76-1.64.45-.49h0l4.35-4.68a1,1,0,0,0-.05-1.43,1.06,1.06,0,0,0-.72-.27,1,1,0,0,0-.7.32l-3.7,4a44.06,44.06,0,0,0-8.34-5.85,22,22,0,0,0-8.42-2.58l-7.19-6.68c3.71-4.37,5-7.67,3.87-10-.9-1.88-3.25-3-7.17-3.48a64.07,64.07,0,0,0-9.08-.2,18.51,18.51,0,0,1,24.39.73l.17.15c8.61,7.49,17.51,15.23,19.44,19.68l-.66.71a1,1,0,0,0,.05,1.43,1,1,0,0,0,.58.26.94.94,0,0,0,.41,0,1.05,1.05,0,0,0,.44-.27l1.08-1.17h0l.61-.66,1.77,1.64Z" transform="translate(-28.79 -57.99)"/><path class="f" d="M233.93,120.71a1,1,0,0,0-.73-.27,1,1,0,0,0-.7.32l-21,22.61a1,1,0,0,0,.05,1.42,1.11,1.11,0,0,0,.58.27,1.2,1.2,0,0,0,.42,0,1.11,1.11,0,0,0,.43-.28l21-22.61a1,1,0,0,0,0-1.42Z" transform="translate(-28.79 -57.99)"/><path class="f" d="M260,111.78l-6.81-6.33a1,1,0,0,0-.72-.27,1,1,0,0,0-.71.32,1,1,0,0,0,.06,1.42l6.81,6.34a1,1,0,0,0,1,.22,1,1,0,0,0,.38-1.7Z" transform="translate(-28.79 -57.99)"/><path class="f" d="M75.28,59.84H46.34a4.66,4.66,0,0,0-4.88,4.66V79.85A5.1,5.1,0,0,0,46.34,85h6.78l5,6.81L64.9,85H75.28a5.23,5.23,0,0,0,5-5.17V64.5A4.8,4.8,0,0,0,75.28,59.84Z" transform="translate(-28.79 -57.99)"/><path class="i" d="M72.41,71.85l-5.56-5.08a1,1,0,0,0-1.33.06.93.93,0,0,0,.06,1.33l4.8,4.39-4.8,4.39a1,1,0,0,0-.31.65,1,1,0,0,0,.94,1,1,1,0,0,0,.64-.25l5.56-5.08a.93.93,0,0,0,0-1.39Z" transform="translate(-28.79 -57.99)"/><path class="i" d="M56.26,66.83a1,1,0,0,0-1.33-.06l-5.57,5.08a1,1,0,0,0,0,1.39l5.57,5.08a.93.93,0,0,0,.63.25.94.94,0,0,0,.64-1.63l-4.81-4.39,4.81-4.39A1,1,0,0,0,56.26,66.83Z" transform="translate(-28.79 -57.99)"/><path class="i" d="M60.42,67.22a.94.94,0,0,0-1.15-.66,1,1,0,0,0-.57.44.93.93,0,0,0-.09.71l2.74,10.16a1,1,0,0,0,.91.7.93.93,0,0,0,.24,0,.91.91,0,0,0,.57-.44.93.93,0,0,0,.1-.71Z" transform="translate(-28.79 -57.99)"/><path class="f" d="M63.18,164.17H61.25a1,1,0,1,1,0-2.08h1.93a1,1,0,1,1,0,2.08Z" transform="translate(-28.79 -57.99)"/><path class="f" d="M54.25,164.17h-4a1,1,0,1,1,0-2.08h4a1,1,0,1,1,0,2.08Z" transform="translate(-28.79 -57.99)"/><path class="f" d="M43.1,164.17H41.31a1,1,0,0,1-1-1v-1.78a1,1,0,0,1,2.08,0v.74h.75a1,1,0,1,1,0,2.08Z" transform="translate(-28.79 -57.99)"/><path class="f" d="M41.31,134.4a1,1,0,0,0,1-1.05v-3.71a1,1,0,1,0-2.08,0v3.71A1,1,0,0,0,41.31,134.4Z" transform="translate(-28.79 -57.99)"/><path class="f" d="M41.31,155.52a1,1,0,0,0,1-1v-3.72a1,1,0,0,0-2.08,0v3.72A1,1,0,0,0,41.31,155.52Z" transform="translate(-28.79 -57.99)"/><path class="f" d="M41.31,145a1,1,0,0,0,1-1V140.2a1,1,0,0,0-2.08,0v3.72A1,1,0,0,0,41.31,145Z" transform="translate(-28.79 -57.99)"/><path class="f" d="M41.31,123.83a1,1,0,0,1-1-1v-1.93a1,1,0,0,1,1-1H43.1a1,1,0,0,1,0,2.08h-.75v.89A1,1,0,0,1,41.31,123.83Z" transform="translate(-28.79 -57.99)"/><path class="f" d="M51.58,121.9h-3a1,1,0,1,1,0-2.08h3a1,1,0,0,1,0,2.08Z" transform="translate(-28.79 -57.99)"/><path class="f" d="M58.86,121.9H56.93a1,1,0,1,1,0-2.08h.89v-.75a1,1,0,0,1,2.09,0v1.79A1,1,0,0,1,58.86,121.9Z" transform="translate(-28.79 -57.99)"/><path class="f" d="M58.86,112.08a1,1,0,0,1-1-1v-4.46a1,1,0,1,1,2.09,0V111A1,1,0,0,1,58.86,112.08Z" transform="translate(-28.79 -57.99)"/><path class="f" d="M58.86,99.88a1,1,0,0,1-1-1V96.91a1,1,0,1,1,2.09,0v1.93A1,1,0,0,1,58.86,99.88Z" transform="translate(-28.79 -57.99)"/></svg>