<svg xmlns="http://www.w3.org/2000/svg" width="250.49" height="171.23" viewBox="0 0 250.49 171.23"><defs><style>.a{opacity:0.35;}.b{fill:#b9e3eb;}.c{fill:#fff;opacity:0.5;}.d{fill:#f47523;}.e{fill:#3e4449;}.f{fill:#1e243a;}.g{fill:#e2e2e5;}</style></defs><title>config-dialog-converter</title><g class="a"><path class="b" d="M272,139.87S221,60.62,158.5,59.26,41.9,121.18,29.68,144.36,31,217.64,83.77,216.84,303.82,203.07,272,139.87Z" transform="translate(-25.49 -59.24)"/></g><rect class="c" x="38.67" y="25.16" width="148.68" height="122.8"/><polygon class="b" points="165 120.65 163.32 136.07 46.48 136.07 46.48 87.92 176.36 87.92 176.36 110.75 165 120.65"/><path class="d" d="M263.05,71.85H230.39a5.53,5.53,0,0,0-5.57,5.52V94.69a5.53,5.53,0,0,0,5.57,5.53h11.72l7.68,7.68,5.61-7.68h7.65a5.51,5.51,0,0,0,5.55-5.53V77.37A5.51,5.51,0,0,0,263.05,71.85ZM234.36,89.22a3.14,3.14,0,1,1,3.14-3.14A3.14,3.14,0,0,1,234.36,89.22Zm12.36,0a3.14,3.14,0,1,1,3.14-3.14A3.14,3.14,0,0,1,246.72,89.22Zm12.36,0a3.14,3.14,0,1,1,3.13-3.14A3.15,3.15,0,0,1,259.08,89.22Z" transform="translate(-25.49 -59.24)"/><path class="e" d="M249.79,108.82a.86.86,0,0,1-.61-.25l-7.43-7.43H230.39a6.45,6.45,0,0,1-6.45-6.45V77.37a6.45,6.45,0,0,1,6.45-6.44h32.66a6.45,6.45,0,0,1,6.45,6.44V94.69a6.45,6.45,0,0,1-6.45,6.45h-7.2l-5.35,7.32a.86.86,0,0,1-.64.36Zm-19.4-36.14a4.71,4.71,0,0,0-4.7,4.69V94.69a4.71,4.71,0,0,0,4.7,4.7h11.72a.87.87,0,0,1,.62.26l7,7,5-6.86a.88.88,0,0,1,.71-.36h7.65a4.71,4.71,0,0,0,4.7-4.7V77.37a4.71,4.71,0,0,0-4.7-4.69Z" transform="translate(-25.49 -59.24)"/><path class="e" d="M234.36,90.09a4,4,0,1,1,4-4A4,4,0,0,1,234.36,90.09Zm0-6.27a2.26,2.26,0,1,0,2.26,2.26A2.27,2.27,0,0,0,234.36,83.82Z" transform="translate(-25.49 -59.24)"/><path class="e" d="M246.72,90.09a4,4,0,1,1,4-4A4,4,0,0,1,246.72,90.09Zm0-6.27A2.26,2.26,0,1,0,249,86.08,2.26,2.26,0,0,0,246.72,83.82Z" transform="translate(-25.49 -59.24)"/><path class="e" d="M259.08,90.09a4,4,0,1,1,4-4A4,4,0,0,1,259.08,90.09Zm0-6.27a2.26,2.26,0,1,0,2.26,2.26A2.26,2.26,0,0,0,259.08,83.82Z" transform="translate(-25.49 -59.24)"/><path class="f" d="M249.81,118.43a.82.82,0,0,1-.82-.82v-1.52a.82.82,0,0,1,1.64,0v1.52A.82.82,0,0,1,249.81,118.43Z" transform="translate(-25.49 -59.24)"/><path class="f" d="M249.81,182.87a.82.82,0,0,1-.82-.81v-2.92a.82.82,0,0,1,1.64,0v2.92A.82.82,0,0,1,249.81,182.87Zm0-8.05A.82.82,0,0,1,249,174v-2.92a.82.82,0,0,1,1.64,0V174A.82.82,0,0,1,249.81,174.82Zm0-8.06A.82.82,0,0,1,249,166V163a.82.82,0,0,1,1.64,0V166A.82.82,0,0,1,249.81,166.76Zm0-8a.82.82,0,0,1-.82-.82V155a.82.82,0,1,1,1.64,0v2.92A.82.82,0,0,1,249.81,158.71Zm0-8.06a.82.82,0,0,1-.82-.82v-2.91a.82.82,0,0,1,1.64,0v2.91A.82.82,0,0,1,249.81,150.65Zm0-8.05a.82.82,0,0,1-.82-.82v-2.92a.82.82,0,0,1,1.64,0v2.92A.82.82,0,0,1,249.81,142.6Zm0-8.06a.82.82,0,0,1-.82-.82V130.8a.82.82,0,0,1,1.64,0v2.92A.82.82,0,0,1,249.81,134.54Zm0-8.06a.82.82,0,0,1-.82-.81v-2.92a.82.82,0,0,1,1.64,0v2.92A.82.82,0,0,1,249.81,126.48Z" transform="translate(-25.49 -59.24)"/><path class="f" d="M249.81,189.06h-1.52a.82.82,0,1,1,0-1.63h.7v-.59a.82.82,0,0,1,1.64,0v1.4A.82.82,0,0,1,249.81,189.06Z" transform="translate(-25.49 -59.24)"/><path class="f" d="M242.69,189.06h-1.4a.82.82,0,1,1,0-1.63h1.4a.82.82,0,0,1,0,1.63Z" transform="translate(-25.49 -59.24)"/><path class="e" d="M210.54,205.31a3.89,3.89,0,0,1-3.24,1.74H66.44a4.08,4.08,0,0,1-4-4.11V90.36a3.91,3.91,0,0,1,3.93-3.91H207.49a3.77,3.77,0,0,1,3.7,3.83V175.1a3.62,3.62,0,0,1,2.45,0V90.28A6.26,6.26,0,0,0,207.41,84H66.33a6.43,6.43,0,0,0-6.39,6.44V202.94a6.55,6.55,0,0,0,6.5,6.57H207.3a6.37,6.37,0,0,0,5.75-3.74A3.5,3.5,0,0,1,210.54,205.31Z" transform="translate(-25.49 -59.24)"/><path class="e" d="M195.13,100.38H62.07a1.23,1.23,0,0,1-1.23-1.23h0a1.23,1.23,0,0,1,1.23-1.23H195.13a1.23,1.23,0,1,1,0,2.46Z" transform="translate(-25.49 -59.24)"/><path class="e" d="M89.68,99.31a1.23,1.23,0,0,1-1.23-1.23h0v-12a1.23,1.23,0,0,1,1.23-1.23h0a1.23,1.23,0,0,1,1.23,1.23v12A1.23,1.23,0,0,1,89.68,99.31Z" transform="translate(-25.49 -59.24)"/><path class="e" d="M70.48,95.67A3.72,3.72,0,1,1,74.19,92,3.72,3.72,0,0,1,70.48,95.67Zm0-5A1.26,1.26,0,1,0,71.73,92a1.25,1.25,0,0,0-1.25-1.26Z" transform="translate(-25.49 -59.24)"/><path class="e" d="M80.47,95.67A3.72,3.72,0,1,1,84.18,92,3.72,3.72,0,0,1,80.47,95.67Zm0-5A1.26,1.26,0,1,0,81.72,92a1.26,1.26,0,0,0-1.25-1.26Z" transform="translate(-25.49 -59.24)"/><path class="e" d="M172.67,90.88H95.17a1.23,1.23,0,0,1,0-2.46h77.5a1.23,1.23,0,0,1,1.23,1.23h0a1.23,1.23,0,0,1-1.23,1.23Z" transform="translate(-25.49 -59.24)"/><path class="e" d="M136.79,95.79H95.17a1.23,1.23,0,0,1-1.23-1.23h0a1.23,1.23,0,0,1,1.23-1.23h41.62A1.23,1.23,0,0,1,138,94.56h0a1.23,1.23,0,0,1-1.23,1.23Z" transform="translate(-25.49 -59.24)"/><path class="e" d="M211.51,100.38h-6.72a1.23,1.23,0,0,1-1.23-1.23h0a1.23,1.23,0,0,1,1.23-1.23h6.72a1.23,1.23,0,0,1,1.23,1.23h0a1.23,1.23,0,0,1-1.23,1.23Z" transform="translate(-25.49 -59.24)"/><path class="e" d="M205.12,134.87a1.23,1.23,0,0,1-1.23,1.23h-134a1.23,1.23,0,0,1-1.22-1.23V108a1.23,1.23,0,0,1,1.22-1.23h134a1.23,1.23,0,0,1,1.23,1.22h0Zm-134-1.23H202.66V109.22H71.08Z" transform="translate(-25.49 -59.24)"/><path class="e" d="M72.44,196.82H71.27a.7.7,0,0,1-.7-.7h0V195a.7.7,0,0,1,1.4-.06v.52h.47a.7.7,0,0,1,.72.67.71.71,0,0,1-.67.73Z" transform="translate(-25.49 -59.24)"/><path class="e" d="M191.08,196.82h-2.26a.7.7,0,0,1,0-1.4h2.26a.71.71,0,0,1,.67.73A.7.7,0,0,1,191.08,196.82Zm-6.24,0h-2.26a.7.7,0,0,1,0-1.4h2.26a.7.7,0,0,1,0,1.4Zm-6.23,0h-2.26a.7.7,0,0,1,0-1.4h2.26a.7.7,0,0,1,0,1.4Zm-6.24,0h-2.26a.7.7,0,0,1,0-1.4h2.26a.7.7,0,0,1,0,1.4Zm-6.23,0h-2.26a.7.7,0,0,1,0-1.4h2.26a.7.7,0,0,1,0,1.4Zm-6.23,0h-2.26a.7.7,0,0,1,0-1.4h2.26a.7.7,0,0,1,0,1.4Zm-6.24,0h-2.26a.7.7,0,0,1,0-1.4h2.26a.7.7,0,0,1,0,1.4Zm-6.23,0h-2.26a.7.7,0,0,1,0-1.4h2.26a.71.71,0,0,1,.67.73A.7.7,0,0,1,147.44,196.82Zm-6.24,0h-2.26a.7.7,0,0,1,0-1.4h2.26a.7.7,0,0,1,0,1.4Zm-6.23,0h-2.26a.7.7,0,0,1-.67-.73.7.7,0,0,1,.67-.67H135a.7.7,0,0,1,0,1.4Zm-6.23,0h-2.26a.7.7,0,0,1,0-1.4h2.26a.71.71,0,0,1,.67.73A.7.7,0,0,1,128.74,196.82Zm-6.24,0h-2.25a.7.7,0,0,1,0-1.4h2.25a.7.7,0,0,1,0,1.4Zm-6.23,0H114a.7.7,0,0,1,0-1.4h2.26a.71.71,0,0,1,.67.73A.7.7,0,0,1,116.27,196.82Zm-6.24,0h-2.26a.7.7,0,0,1,0-1.4H110a.7.7,0,0,1,0,1.4Zm-6.23,0h-2.26a.7.7,0,0,1,0-1.4h2.26a.7.7,0,0,1,0,1.4Zm-6.23,0H95.31a.7.7,0,0,1,0-1.4h2.26a.71.71,0,0,1,.67.73A.7.7,0,0,1,97.57,196.82Zm-6.24,0H89.07a.7.7,0,0,1,0-1.4h2.26a.7.7,0,0,1,0,1.4Zm-6.23,0H82.84a.7.7,0,0,1,0-1.4H85.1a.7.7,0,0,1,0,1.4Zm-6.24,0H76.61a.7.7,0,0,1,0-1.4h2.25a.7.7,0,0,1,0,1.4Z" transform="translate(-25.49 -59.24)"/><path class="e" d="M202.56,172.92a.7.7,0,0,1-.7-.7h0V170a.7.7,0,0,1,1.39,0v2.24a.69.69,0,0,1-.69.7Zm0-6.24a.7.7,0,0,1-.7-.7h0v-2.24a.7.7,0,0,1,.7-.69.69.69,0,0,1,.69.69V166A.7.7,0,0,1,202.56,166.68Zm0-6.25a.69.69,0,0,1-.7-.69h0V157.5a.7.7,0,0,1,1.39,0v2.24a.7.7,0,0,1-.69.7h0Zm0-6.24a.7.7,0,0,1-.7-.7v-2.23a.7.7,0,0,1,1.39,0v2.23a.69.69,0,0,1-.69.7Z" transform="translate(-25.49 -59.24)"/><path class="e" d="M202.55,148.32a.69.69,0,0,1-.69-.7h0v-.46h-.47a.7.7,0,0,1,0-1.4h1.16a.7.7,0,0,1,.7.7h0v1.17A.69.69,0,0,1,202.55,148.32Z" transform="translate(-25.49 -59.24)"/><path class="e" d="M197.22,147.16H195a.7.7,0,0,1,0-1.4h2.26a.7.7,0,0,1,0,1.4Zm-6.24,0h-2.25a.7.7,0,0,1,0-1.4H191a.7.7,0,0,1,0,1.4Zm-6.23,0h-2.26a.7.7,0,0,1,0-1.4h2.26a.7.7,0,0,1,0,1.4Zm-6.23,0h-2.26a.7.7,0,0,1,0-1.4h2.26a.71.71,0,0,1,.67.73A.7.7,0,0,1,178.52,147.16Zm-6.24,0H170a.71.71,0,0,1-.67-.73.7.7,0,0,1,.67-.67h2.26a.7.7,0,0,1,0,1.4Zm-6.23,0h-2.26a.7.7,0,0,1,0-1.4h2.26a.7.7,0,0,1,0,1.4Zm-6.24,0h-2.25a.7.7,0,0,1,0-1.4h2.25a.7.7,0,0,1,0,1.4Zm-6.23,0h-2.26a.71.71,0,0,1-.67-.73.7.7,0,0,1,.67-.67h2.26a.7.7,0,0,1,0,1.4Zm-6.23,0h-2.26a.7.7,0,0,1,0-1.4h2.26a.71.71,0,0,1,.67.73A.7.7,0,0,1,147.35,147.16Zm-6.24,0h-2.26a.7.7,0,0,1,0-1.4h2.26a.7.7,0,0,1,0,1.4Zm-6.23,0h-2.26a.7.7,0,0,1,0-1.4h2.26a.7.7,0,0,1,0,1.4Zm-6.23,0h-2.26a.7.7,0,0,1,0-1.4h2.26a.7.7,0,0,1,0,1.4Zm-6.24,0h-2.26a.71.71,0,0,1-.67-.73.7.7,0,0,1,.67-.67h2.26a.7.7,0,0,1,0,1.4Zm-6.23,0h-2.26a.7.7,0,0,1,0-1.4h2.26a.71.71,0,0,1,.67.73A.7.7,0,0,1,116.18,147.16Zm-6.24,0h-2.26a.7.7,0,0,1,0-1.4h2.26a.7.7,0,0,1,0,1.4Zm-6.23,0h-2.26a.7.7,0,0,1,0-1.4h2.26a.7.7,0,0,1,0,1.4Zm-6.23,0H95.22a.7.7,0,0,1,0-1.4h2.26a.71.71,0,0,1,.67.73A.7.7,0,0,1,97.48,147.16Zm-6.24,0H89a.7.7,0,0,1,0-1.4h2.26a.7.7,0,0,1,0,1.4Zm-6.23,0H82.75a.7.7,0,0,1,0-1.4H85a.71.71,0,0,1,.67.73A.7.7,0,0,1,85,147.16Zm-6.24,0H76.51a.71.71,0,0,1-.67-.73.7.7,0,0,1,.67-.67h2.26a.7.7,0,0,1,0,1.4Z" transform="translate(-25.49 -59.24)"/><path class="e" d="M71.27,148.32a.7.7,0,0,1-.7-.7h0v-1.16a.7.7,0,0,1,.7-.7h1.17a.7.7,0,0,1,0,1.4H72v.46a.69.69,0,0,1-.69.7Z" transform="translate(-25.49 -59.24)"/><path class="e" d="M71.27,192a.7.7,0,0,1-.7-.7h0v-2.23a.71.71,0,0,1,.68-.73A.7.7,0,0,1,72,189v2.29A.7.7,0,0,1,71.27,192Zm0-6.24a.7.7,0,0,1-.7-.7h0v-2.24a.71.71,0,0,1,.73-.67.7.7,0,0,1,.67.67v2.24A.7.7,0,0,1,71.27,185.78Zm0-6.24a.71.71,0,0,1-.7-.7h0V176.6a.7.7,0,0,1,1.4,0v2.24a.7.7,0,0,1-.7.7Zm0-6.25a.7.7,0,0,1-.7-.7h0v-2.23a.71.71,0,0,1,.68-.73.7.7,0,0,1,.72.68v2.28A.7.7,0,0,1,71.27,173.29Zm0-6.24a.7.7,0,0,1-.7-.7h0v-2.23a.71.71,0,0,1,.68-.73.7.7,0,0,1,.72.67v2.29a.7.7,0,0,1-.7.7Zm0-6.24a.7.7,0,0,1-.7-.7h0v-2.24a.7.7,0,0,1,.68-.72.69.69,0,0,1,.72.67v2.29a.7.7,0,0,1-.7.7Zm0-6.24a.71.71,0,0,1-.7-.7h0v-2.24a.7.7,0,0,1,1.4,0v2.24a.7.7,0,0,1-.7.7Z" transform="translate(-25.49 -59.24)"/><path class="e" d="M104.31,171.8H85.76a.7.7,0,0,1-.7-.7h0V152.55a.7.7,0,0,1,.7-.7h18.55a.7.7,0,0,1,.7.7h0v18.56A.7.7,0,0,1,104.31,171.8Zm-17.85-1.39h17.15V153.25H86.46Z" transform="translate(-25.49 -59.24)"/><path class="e" d="M92.51,160a.71.71,0,0,1-.5-.21l-6.74-6.74a.7.7,0,0,1,1-1L93,158.81a.69.69,0,0,1,0,1,.71.71,0,0,1-.49.21Z" transform="translate(-25.49 -59.24)"/><path class="e" d="M104.31,171.8a.7.7,0,0,1-.49-.2l-6.75-6.75a.71.71,0,0,1,0-1,.7.7,0,0,1,1,0l6.75,6.75a.7.7,0,0,1-.5,1.19Z" transform="translate(-25.49 -59.24)"/><path class="e" d="M97.57,160a.7.7,0,0,1-.7-.7.7.7,0,0,1,.2-.5l6.75-6.74a.69.69,0,0,1,1,0,.71.71,0,0,1,0,1l-6.74,6.74A.71.71,0,0,1,97.57,160Z" transform="translate(-25.49 -59.24)"/><path class="e" d="M85.76,171.8a.7.7,0,0,1-.7-.7.71.71,0,0,1,.21-.49L92,163.86a.71.71,0,0,1,1,0,.7.7,0,0,1,0,.95l-6.75,6.75A.68.68,0,0,1,85.76,171.8Z" transform="translate(-25.49 -59.24)"/><path class="e" d="M147,171.8H128.47a.69.69,0,0,1-.69-.7h0V152.55a.69.69,0,0,1,.69-.7H147a.7.7,0,0,1,.7.7h0v18.56A.71.71,0,0,1,147,171.8Zm-17.86-1.39h17.16V153.25H129.17Z" transform="translate(-25.49 -59.24)"/><path class="e" d="M135.22,160a.71.71,0,0,1-.49-.21L128,153.05a.71.71,0,0,1,0-1,.7.7,0,0,1,.95,0l6.75,6.75a.71.71,0,0,1-.5,1.19Z" transform="translate(-25.49 -59.24)"/><path class="e" d="M147,171.8a.7.7,0,0,1-.5-.2l-6.74-6.75a.7.7,0,0,1,1-1l6.75,6.75a.71.71,0,0,1,0,1A.7.7,0,0,1,147,171.8Z" transform="translate(-25.49 -59.24)"/><path class="e" d="M140.28,160a.7.7,0,0,1-.7-.7.72.72,0,0,1,.2-.5l6.75-6.74a.7.7,0,0,1,1,1l-6.75,6.74A.71.71,0,0,1,140.28,160Z" transform="translate(-25.49 -59.24)"/><path class="e" d="M128.47,171.8a.7.7,0,0,1-.49-1.19l6.75-6.75a.7.7,0,0,1,1,1L129,171.6A.7.7,0,0,1,128.47,171.8Z" transform="translate(-25.49 -59.24)"/><path class="e" d="M189.8,171.8H171.25a.7.7,0,0,1-.7-.7h0V152.55a.7.7,0,0,1,.7-.7H189.8a.7.7,0,0,1,.7.7h0v18.56A.7.7,0,0,1,189.8,171.8Zm-17.86-1.39H189.1V153.25H171.94Z" transform="translate(-25.49 -59.24)"/><path class="e" d="M178,160a.71.71,0,0,1-.49-.21l-6.75-6.74a.71.71,0,0,1,0-1,.7.7,0,0,1,1,0l6.75,6.75a.69.69,0,0,1,0,1,.73.73,0,0,1-.5.21Z" transform="translate(-25.49 -59.24)"/><path class="e" d="M189.79,171.8a.7.7,0,0,1-.49-.2l-6.75-6.75a.7.7,0,0,1,1-1l6.75,6.75a.7.7,0,0,1-.5,1.19Z" transform="translate(-25.49 -59.24)"/><path class="e" d="M183.05,160a.7.7,0,0,1-.7-.7.72.72,0,0,1,.2-.5l6.75-6.74a.7.7,0,0,1,1,1l-6.75,6.74A.71.71,0,0,1,183.05,160Z" transform="translate(-25.49 -59.24)"/><path class="e" d="M171.25,171.8a.7.7,0,0,1-.5-1.19l6.75-6.75a.7.7,0,0,1,1,1l-6.75,6.75A.7.7,0,0,1,171.25,171.8Z" transform="translate(-25.49 -59.24)"/><path class="e" d="M109.89,179.4H81.94a.7.7,0,0,1-.67-.73.69.69,0,0,1,.67-.67h28a.7.7,0,0,1,.68.72A.72.72,0,0,1,109.89,179.4Z" transform="translate(-25.49 -59.24)"/><path class="e" d="M109.89,186.1H81.94a.7.7,0,0,1,0-1.39h28a.7.7,0,0,1,0,1.39Z" transform="translate(-25.49 -59.24)"/><path class="e" d="M151.74,179.4H123.79a.7.7,0,0,1-.67-.73.69.69,0,0,1,.67-.67h28a.7.7,0,0,1,.68.72.72.72,0,0,1-.68.68Z" transform="translate(-25.49 -59.24)"/><path class="e" d="M151.74,186.1H123.79a.7.7,0,0,1,0-1.39h28a.7.7,0,0,1,0,1.39Z" transform="translate(-25.49 -59.24)"/><path class="e" d="M194.5,179.4h-28a.71.71,0,0,1-.67-.73.7.7,0,0,1,.67-.67h28a.69.69,0,0,1,.72.67.7.7,0,0,1-.67.73Z" transform="translate(-25.49 -59.24)"/><path class="e" d="M190.35,186.1H166.54a.7.7,0,0,1,0-1.39h23.81a.7.7,0,1,1,.06,1.39Z" transform="translate(-25.49 -59.24)"/><path class="e" d="M140,135.67a.69.69,0,0,1-.7-.69.67.67,0,0,1,.21-.49l17.29-17.3a2.84,2.84,0,0,1,4,0l16.87,16.88a.69.69,0,0,1-1,1l-16.87-16.87a1.45,1.45,0,0,0-2.06,0h0l-17.3,17.29A.64.64,0,0,1,140,135.67Z" transform="translate(-25.49 -59.24)"/><path class="e" d="M173.37,130.55a.69.69,0,0,1-.69-.69.7.7,0,0,1,.36-.61l14.29-7.77a3.54,3.54,0,0,1,3.61.13l12,7.67a.69.69,0,1,1-.75,1.16l-12-7.67a2.17,2.17,0,0,0-2.2-.07l-14.29,7.77A.73.73,0,0,1,173.37,130.55Z" transform="translate(-25.49 -59.24)"/><path class="e" d="M176.6,121.59a4.5,4.5,0,1,1,4.5-4.5A4.49,4.49,0,0,1,176.6,121.59Zm0-7.61a3.12,3.12,0,1,0,3.11,3.11A3.12,3.12,0,0,0,176.6,114Z" transform="translate(-25.49 -59.24)"/><path class="e" d="M128.51,118.32h-48c-.66,0-1.2-.31-1.2-.69s.54-.7,1.2-.7h48c.66,0,1.2.31,1.2.7S129.17,118.32,128.51,118.32Z" transform="translate(-25.49 -59.24)"/><path class="e" d="M128.51,125h-48c-.66,0-1.2-.31-1.2-.7s.54-.69,1.2-.69h48c.66,0,1.2.31,1.2.69S129.17,125,128.51,125Z" transform="translate(-25.49 -59.24)"/><path class="g" d="M225.12,184.92a20.91,20.91,0,0,0-2.29-6.24l5.1-5.1L221,166.69l-4.78,4.79a22,22,0,0,0-6.52-3V162H200v6.12a21.43,21.43,0,0,0-7,2.79l-4.25-4.26-7,7,4.26,4.26a22.59,22.59,0,0,0-2.75,7h-6.13v9.76h6.44a21.68,21.68,0,0,0,3,6.52L181.7,206l6.89,6.89,5.14-5.14a20.9,20.9,0,0,0,6.23,2.31v7.47h9.77V209.8a20.74,20.74,0,0,0,5.66-2.43l5.55,5.55,7-7-5.55-5.55a20.91,20.91,0,0,0,2.45-5.7h7.8v-9.77Zm-11.84,13.3a13,13,0,1,1,0-18.33A13,13,0,0,1,213.28,198.22Z" transform="translate(-25.49 -59.24)"/><path class="e" d="M204.12,203.27A14.21,14.21,0,0,1,194.07,179h0a14.21,14.21,0,1,1,10.05,24.26Zm0-25.92a11.59,11.59,0,0,0-8.28,3.43h0a11.71,11.71,0,1,0,16.56,16.56,11.71,11.71,0,0,0-8.28-20ZM195,179.89Z" transform="translate(-25.49 -59.24)"/><path class="e" d="M209.74,218.88h0l-9.77,0a1.27,1.27,0,0,1-1.25-1.27V211.1a22.27,22.27,0,0,1-4.76-1.77l-4.48,4.48a1.27,1.27,0,0,1-1.77,0l-6.89-6.89a1.28,1.28,0,0,1-.37-.89,1.26,1.26,0,0,1,.37-.88l4.11-4.11a23.19,23.19,0,0,1-2.34-5.06l-5.5.05h0a1.34,1.34,0,0,1-1.25-1.31V185a1.23,1.23,0,0,1,.37-.88,1.25,1.25,0,0,1,.88-.36h5.13a24.46,24.46,0,0,1,2.19-5.55l-3.58-3.59a1.26,1.26,0,0,1-.37-.88,1.28,1.28,0,0,1,.37-.89l7-7a1.25,1.25,0,0,1,1.77,0l3.57,3.57a22.49,22.49,0,0,1,5.59-2.22V162a1.23,1.23,0,0,1,1.25-1.25h9.77a1.27,1.27,0,0,1,.88.36,1.28,1.28,0,0,1,.37.89v5.5a23.49,23.49,0,0,1,5.1,2.34l4.07-4.07a1.25,1.25,0,0,1,1.77,0l6.89,6.89a1.26,1.26,0,0,1,0,1.76l-4.45,4.45a22.19,22.19,0,0,1,1.75,4.78l6.51,0h0a1.21,1.21,0,0,1,1.25,1.22v9.76a1.16,1.16,0,0,1-.36.84,1.24,1.24,0,0,1-.89.32h0l-6.86,0a22.48,22.48,0,0,1-1.82,4.27l4.87,4.87a1.29,1.29,0,0,1,.36.89,1.25,1.25,0,0,1-.36.89l-7,7a1.24,1.24,0,0,1-1.76,0l-4.87-4.86a21.35,21.35,0,0,1-4.21,1.8v6.83a1.32,1.32,0,0,1-.36.91A1.27,1.27,0,0,1,209.74,218.88Zm-8.52-2.57h7.27v-6.51a1.24,1.24,0,0,1,.93-1.21,19.5,19.5,0,0,0,5.32-2.29,1.26,1.26,0,0,1,1.55.18l4.66,4.66,5.22-5.22-4.66-4.67a1.26,1.26,0,0,1-.18-1.54,19.68,19.68,0,0,0,2.3-5.4,1.28,1.28,0,0,1,1.21-1h0l6.55.05v-7.23l-6.26,0h0a1.27,1.27,0,0,1-1.23-1,19.43,19.43,0,0,0-2.15-5.88,1.25,1.25,0,0,1,.2-1.5l4.22-4.23L221,168.46l-3.9,3.91a1.25,1.25,0,0,1-1.59.14,20.68,20.68,0,0,0-6.13-2.83,1.25,1.25,0,0,1-.93-1.21v-5.18h-7.27v4.87a1.25,1.25,0,0,1-1,1.23,19.94,19.94,0,0,0-6.62,2.62,1.24,1.24,0,0,1-1.54-.18l-3.37-3.37-5.23,5.22,3.38,3.38a1.25,1.25,0,0,1,.18,1.53,21.58,21.58,0,0,0-2.6,6.61,1.24,1.24,0,0,1-1.22,1h0l-4.87,0v7.22l5.19-.06h0a1.3,1.3,0,0,1,1.21,1,20.74,20.74,0,0,0,2.82,6.17,1.24,1.24,0,0,1-.15,1.59L183.47,206l5.12,5.12,4.26-4.25a1.24,1.24,0,0,1,1.49-.21,19.36,19.36,0,0,0,5.87,2.17,1.25,1.25,0,0,1,1,1.22Z" transform="translate(-25.49 -59.24)"/><circle class="e" cx="41.14" cy="142.23" r="29"/><path class="g" d="M78.53,198.18a12.31,12.31,0,0,0-1.34-3.67l3-3-4-4.05-2.81,2.82a12.58,12.58,0,0,0-3.83-1.77v-3.78H63.77v3.6A12.64,12.64,0,0,0,59.65,190l-2.5-2.5L53,191.58l2.5,2.5a13.31,13.31,0,0,0-1.61,4.12h-3.6v5.72h3.78a12.56,12.56,0,0,0,1.76,3.83L53,210.57l4.05,4,3-3A12.38,12.38,0,0,0,63.76,213v4.39h5.74v-4.56a12.41,12.41,0,0,0,3.32-1.42l3.26,3.25,4.1-4.1-3.26-3.26a12.28,12.28,0,0,0,1.44-3.34h4.58v-5.74Zm-7,7.8a7.61,7.61,0,1,1,0-10.76A7.61,7.61,0,0,1,71.58,206Z" transform="translate(-25.49 -59.24)"/></svg>