<svg xmlns="http://www.w3.org/2000/svg" width="242.9" height="178.02" viewBox="0 0 242.9 178.02"><defs><style>.a{opacity:0.35;}.b{fill:#b9e3eb;}.c{fill:#fff;opacity:0.5;}.d{fill:#f47523;}.e{fill:#3e4449;}.f{fill:#e2e2e5;}</style></defs><title>config-page-structure-converter</title><g class="a"><path class="b" d="M33.22,183.4s67,63.45,126.65,50.2,96.42-86,102.65-110.9-18.34-69.35-68.3-56.3S-11.76,130.73,33.22,183.4Z" transform="translate(-25.17 -57.4)"/></g><rect class="c" x="65.75" y="33.6" width="145.52" height="120.19"/><rect class="c" x="16.19" y="4.9" width="118.85" height="91.62"/><rect class="b" x="75.05" y="93.88" width="126.31" height="46.93"/><polygon class="d" points="190.04 149.54 206.51 159.37 227.41 122.83 211.26 112.86 190.04 149.54"/><path class="e" d="M50.75,66.49a2.89,2.89,0,1,0-2.89-2.89A2.89,2.89,0,0,0,50.75,66.49Zm0-3.86h0a1,1,0,0,1,0,1.95,1,1,0,1,1,0-1.95Z" transform="translate(-25.17 -57.4)"/><path class="e" d="M58.52,66.49a2.89,2.89,0,1,0-2.89-2.89A2.89,2.89,0,0,0,58.52,66.49Zm0-3.86h0a1,1,0,1,1-1,1A1,1,0,0,1,58.52,62.63Z" transform="translate(-25.17 -57.4)"/><path class="e" d="M130.25,60.85H70a1,1,0,1,0,0,1.91h60.29a1,1,0,0,0,1-.95h0A1,1,0,0,0,130.25,60.85Z" transform="translate(-25.17 -57.4)"/><path class="e" d="M102.34,64.67H70a1,1,0,0,0-1,1h0a1,1,0,0,0,1,1h32.38a1,1,0,0,0,1-1h0A1,1,0,0,0,102.34,64.67Z" transform="translate(-25.17 -57.4)"/><polygon class="e" points="36.16 56.43 36.16 56.43 36.16 56.43 36.16 56.43"/><path class="e" d="M54.66,124.52a.64.64,0,0,0,.46.19H72.21a.65.65,0,0,0,.65-.64V107a.65.65,0,0,0-.65-.64H55.12a.64.64,0,0,0-.64.64v17.08h0A.69.69,0,0,0,54.66,124.52Zm6.22-10.88a.64.64,0,0,0,.45.19.66.66,0,0,0,.46-.19.65.65,0,0,0,0-.91l-5.12-5.11h14l-5.11,5.11a.66.66,0,0,0-.19.46.64.64,0,0,0,.64.64.66.66,0,0,0,.46-.19l5.12-5.12v14l-5.12-5.12a.65.65,0,0,0-.9,0,.64.64,0,0,0,0,.91l5.12,5.12h-14l5.12-5.12a.65.65,0,0,0,0-.9.65.65,0,0,0-.91,0l-5.12,5.12v-14Z" transform="translate(-25.17 -57.4)"/><path class="e" d="M51.6,131.7H77.35a.64.64,0,1,0,0-1.28H51.6a.64.64,0,1,0,0,1.28Z" transform="translate(-25.17 -57.4)"/><path class="e" d="M77.35,136.6H51.6a.64.64,0,1,0,0,1.28H77.35a.64.64,0,1,0,0-1.28Z" transform="translate(-25.17 -57.4)"/><path class="e" d="M77.35,143H51.6a.65.65,0,1,0,0,1.29H77.35a.65.65,0,0,0,0-1.29Z" transform="translate(-25.17 -57.4)"/><path class="e" d="M133.31,79.66a3.5,3.5,0,1,0,3.5,3.5A3.5,3.5,0,0,0,133.31,79.66Zm0,5.92a2.42,2.42,0,1,1,2.42-2.42A2.42,2.42,0,0,1,133.31,85.58Z" transform="translate(-25.17 -57.4)"/><path class="e" d="M95.9,83H58.54c-.51,0-.93.24-.93.54s.42.55.93.55H95.9c.51,0,.93-.25.93-.55S96.41,83,95.9,83Z" transform="translate(-25.17 -57.4)"/><path class="e" d="M95.9,88.25H58.54c-.51,0-.93.24-.93.54s.42.55.93.55H95.9c.51,0,.93-.25.93-.55S96.41,88.25,95.9,88.25Z" transform="translate(-25.17 -57.4)"/><path class="e" d="M98.77,94a3.61,3.61,0,1,0,3.61,3.61A3.61,3.61,0,0,0,98.77,94Zm0,4.83a1.22,1.22,0,0,1,0-2.44h0a1.22,1.22,0,1,1,0,2.44Z" transform="translate(-25.17 -57.4)"/><path class="e" d="M108.49,94a3.61,3.61,0,1,0,3.61,3.61A3.61,3.61,0,0,0,108.49,94Zm0,4.83a1.22,1.22,0,1,1,0-2.44h0a1.22,1.22,0,0,1,0,2.44Z" transform="translate(-25.17 -57.4)"/><path class="e" d="M198.15,94.16H122.78a1.2,1.2,0,0,0,0,2.39h75.37a1.2,1.2,0,0,0,1.2-1.2h0A1.19,1.19,0,0,0,198.15,94.16Z" transform="translate(-25.17 -57.4)"/><path class="e" d="M163.26,98.93H122.79a1.2,1.2,0,0,0-1.2,1.2h0a1.19,1.19,0,0,0,1.2,1.19h40.47a1.19,1.19,0,0,0,1.19-1.19h0A1.19,1.19,0,0,0,163.26,98.93Z" transform="translate(-25.17 -57.4)"/><path class="e" d="M228.51,140.52a1.19,1.19,0,0,0,1.2-1.19V113.2h0a1.2,1.2,0,0,0-1.2-1.2H98.17a1.2,1.2,0,0,0-1.2,1.2v26.13a1.19,1.19,0,0,0,1.2,1.19ZM99.36,114.39h128v19.33l-11.41-7.29a3.46,3.46,0,0,0-3.5-.12l-13.9,7.56-.06.06-11.79-11.79a2.76,2.76,0,0,0-3.91,0l-16,16H99.36Zm101.39,23.74H168.66l15-15h0a1.42,1.42,0,0,1,2,0Zm1.9,0-3.23-3.23,13.63-7.41a2.13,2.13,0,0,1,2.14.08L226.85,135a.71.71,0,0,0,.47.09v3Z" transform="translate(-25.17 -57.4)"/><path class="e" d="M100.68,198.21h-.46v-.5a.67.67,0,0,0-.7-.65.67.67,0,0,0-.66.7v1.13a.68.68,0,0,0,.68.68h1.19a.68.68,0,0,0,0-1.36Z" transform="translate(-25.17 -57.4)"/><path class="e" d="M119.05,198.21h-2.2a.68.68,0,0,0,0,1.36h2.2a.68.68,0,0,0,0-1.36Z" transform="translate(-25.17 -57.4)"/><path class="e" d="M143.3,198.21h-2.2a.68.68,0,0,0,0,1.36h2.2a.68.68,0,0,0,0-1.36Z" transform="translate(-25.17 -57.4)"/><path class="e" d="M137.24,198.21H135a.69.69,0,0,0-.65.66.67.67,0,0,0,.65.7h2.2a.68.68,0,0,0,0-1.36Z" transform="translate(-25.17 -57.4)"/><path class="e" d="M149.37,198.21h-2.2a.69.69,0,0,0-.66.66.68.68,0,0,0,.66.7h2.2a.68.68,0,0,0,.65-.65A.69.69,0,0,0,149.37,198.21Z" transform="translate(-25.17 -57.4)"/><path class="e" d="M155.42,198.21h-2.19a.69.69,0,0,0-.66.66.68.68,0,0,0,.66.7h2.19a.68.68,0,0,0,.66-.65A.69.69,0,0,0,155.42,198.21Z" transform="translate(-25.17 -57.4)"/><path class="e" d="M113,198.21h-2.2a.69.69,0,0,0-.65.66.67.67,0,0,0,.65.7H113a.67.67,0,0,0,.65-.65A.68.68,0,0,0,113,198.21Z" transform="translate(-25.17 -57.4)"/><path class="e" d="M106.93,198.21h-2.2a.68.68,0,0,0,0,1.36h2.2a.68.68,0,0,0,0-1.36Z" transform="translate(-25.17 -57.4)"/><path class="e" d="M161.49,198.21h-2.2a.68.68,0,0,0-.65.66.67.67,0,0,0,.65.7h2.2a.68.68,0,0,0,.65-.65A.69.69,0,0,0,161.49,198.21Z" transform="translate(-25.17 -57.4)"/><path class="e" d="M125.11,198.21h-2.19a.69.69,0,0,0-.66.66.68.68,0,0,0,.66.7h2.19a.68.68,0,0,0,0-1.36Z" transform="translate(-25.17 -57.4)"/><path class="e" d="M131.18,198.21H129a.69.69,0,0,0-.66.66.68.68,0,0,0,.66.7h2.2a.68.68,0,0,0,.65-.65A.69.69,0,0,0,131.18,198.21Z" transform="translate(-25.17 -57.4)"/><path class="e" d="M197.86,198.21h-2.2a.69.69,0,0,0-.65.66.67.67,0,0,0,.65.7h2.2a.68.68,0,0,0,0-1.36Z" transform="translate(-25.17 -57.4)"/><path class="e" d="M210,198.21h-2.2a.69.69,0,0,0-.66.66.68.68,0,0,0,.66.7H210a.68.68,0,0,0,.65-.65A.69.69,0,0,0,210,198.21Z" transform="translate(-25.17 -57.4)"/><path class="e" d="M203.92,198.21h-2.19a.68.68,0,0,0,0,1.36h2.19a.68.68,0,0,0,0-1.36Z" transform="translate(-25.17 -57.4)"/><path class="e" d="M167.55,198.21h-2.2a.69.69,0,0,0-.65.66.67.67,0,0,0,.65.7h2.2a.68.68,0,0,0,0-1.36Z" transform="translate(-25.17 -57.4)"/><path class="e" d="M213.85,199.57h2.2a.68.68,0,0,0,0-1.36h-2.2a.69.69,0,0,0-.65.66A.67.67,0,0,0,213.85,199.57Z" transform="translate(-25.17 -57.4)"/><path class="e" d="M173.61,198.21h-2.2a.68.68,0,0,0,0,1.36h2.2a.68.68,0,0,0,0-1.36Z" transform="translate(-25.17 -57.4)"/><path class="e" d="M179.67,198.21h-2.19a.69.69,0,0,0-.66.66.68.68,0,0,0,.66.7h2.19a.68.68,0,0,0,0-1.36Z" transform="translate(-25.17 -57.4)"/><path class="e" d="M185.74,198.21h-2.2a.69.69,0,0,0-.66.66.68.68,0,0,0,.66.7h2.2a.68.68,0,0,0,.65-.65A.69.69,0,0,0,185.74,198.21Z" transform="translate(-25.17 -57.4)"/><path class="e" d="M191.8,198.21h-2.2a.69.69,0,0,0-.65.66.67.67,0,0,0,.65.7h2.2a.68.68,0,0,0,0-1.36Z" transform="translate(-25.17 -57.4)"/><path class="e" d="M227.22,166.73a.68.68,0,0,0-.69.68v2.17a.68.68,0,0,0,1.36,0v-2.17A.69.69,0,0,0,227.22,166.73Z" transform="translate(-25.17 -57.4)"/><path class="e" d="M227.22,160.66a.68.68,0,0,0-.69.68v2.17a.67.67,0,0,0,.68.68h0a.67.67,0,0,0,.68-.68v-2.17A.69.69,0,0,0,227.22,160.66Z" transform="translate(-25.17 -57.4)"/><path class="e" d="M227.22,154.59a.68.68,0,0,0-.69.68v2.17a.67.67,0,0,0,.68.68h0a.68.68,0,0,0,.68-.68v-2.17A.69.69,0,0,0,227.22,154.59Z" transform="translate(-25.17 -57.4)"/><path class="e" d="M227.22,172.8a.68.68,0,0,0-.69.68v2.17a.67.67,0,0,0,.68.68h0a.67.67,0,0,0,.68-.68v-2.17A.69.69,0,0,0,227.22,172.8Z" transform="translate(-25.17 -57.4)"/><path class="e" d="M227.21,152.41a.68.68,0,0,0,.68-.68V150.6a.69.69,0,0,0-.68-.68h-1.13a.68.68,0,0,0,0,1.36h.45v.45A.67.67,0,0,0,227.21,152.41Z" transform="translate(-25.17 -57.4)"/><path class="e" d="M147.08,151.28h2.2a.68.68,0,0,0,.65-.65.69.69,0,0,0-.65-.71h-2.2a.68.68,0,0,0,0,1.36Z" transform="translate(-25.17 -57.4)"/><path class="e" d="M161.4,151.28a.68.68,0,0,0,0-1.36h-2.2a.68.68,0,0,0,0,1.36Z" transform="translate(-25.17 -57.4)"/><path class="e" d="M173.52,151.28a.68.68,0,0,0,0-1.36h-2.19a.68.68,0,0,0,0,1.36Z" transform="translate(-25.17 -57.4)"/><path class="e" d="M167.46,151.28a.68.68,0,0,0,0-1.36h-2.2a.68.68,0,0,0,0,1.36Z" transform="translate(-25.17 -57.4)"/><path class="e" d="M137.15,149.92H135a.68.68,0,0,0,0,1.36h2.2a.68.68,0,0,0,0-1.36Z" transform="translate(-25.17 -57.4)"/><path class="e" d="M141,151.28h2.19a.68.68,0,0,0,0-1.36H141a.68.68,0,0,0,0,1.36Z" transform="translate(-25.17 -57.4)"/><path class="e" d="M131.09,151.28a.68.68,0,0,0,0-1.36h-2.2a.68.68,0,0,0,0,1.36Z" transform="translate(-25.17 -57.4)"/><path class="e" d="M125,151.28a.68.68,0,0,0,.65-.65.69.69,0,0,0-.65-.71h-2.2a.68.68,0,0,0,0,1.36Z" transform="translate(-25.17 -57.4)"/><path class="e" d="M104.64,151.28h2.2a.68.68,0,0,0,0-1.36h-2.2a.68.68,0,0,0,0,1.36Z" transform="translate(-25.17 -57.4)"/><path class="e" d="M119.62,150.63a.69.69,0,0,0-.66-.71h-2.2a.68.68,0,0,0,0,1.36H119A.69.69,0,0,0,119.62,150.63Z" transform="translate(-25.17 -57.4)"/><path class="e" d="M180.24,150.63a.69.69,0,0,0-.65-.71h-2.2a.68.68,0,0,0,0,1.36h2.2A.68.68,0,0,0,180.24,150.63Z" transform="translate(-25.17 -57.4)"/><path class="e" d="M155.34,149.92h-2.2a.68.68,0,0,0,0,1.36h2.2a.68.68,0,0,0,0-1.36Z" transform="translate(-25.17 -57.4)"/><path class="e" d="M189.51,151.28h2.2a.68.68,0,0,0,0-1.36h-2.2a.68.68,0,0,0,0,1.36Z" transform="translate(-25.17 -57.4)"/><path class="e" d="M183.45,151.28h2.2a.68.68,0,0,0,.65-.65.69.69,0,0,0-.65-.71h-2.2a.68.68,0,0,0,0,1.36Z" transform="translate(-25.17 -57.4)"/><path class="e" d="M209.9,151.28a.68.68,0,0,0,.65-.65.69.69,0,0,0-.65-.71h-2.2a.68.68,0,0,0,0,1.36Z" transform="translate(-25.17 -57.4)"/><path class="e" d="M197.77,149.92h-2.2a.68.68,0,0,0,0,1.36h2.2a.68.68,0,0,0,0-1.36Z" transform="translate(-25.17 -57.4)"/><path class="e" d="M203.83,151.28a.68.68,0,0,0,0-1.36h-2.19a.68.68,0,0,0,0,1.36Z" transform="translate(-25.17 -57.4)"/><path class="e" d="M216,151.28a.68.68,0,0,0,0-1.36h-2.2a.68.68,0,0,0,0,1.36Z" transform="translate(-25.17 -57.4)"/><path class="e" d="M222,149.92h-2.2a.68.68,0,0,0,0,1.36H222a.67.67,0,0,0,.65-.65A.68.68,0,0,0,222,149.92Z" transform="translate(-25.17 -57.4)"/><path class="e" d="M112.9,149.92h-2.19a.68.68,0,0,0,0,1.36h2.19a.68.68,0,0,0,0-1.36Z" transform="translate(-25.17 -57.4)"/><path class="e" d="M100.68,149.92H99.55a.67.67,0,0,0-.68.68v1.13a.67.67,0,0,0,.68.68h0a.68.68,0,0,0,.68-.68v-.45h.5a.67.67,0,0,0,.65-.7A.68.68,0,0,0,100.68,149.92Z" transform="translate(-25.17 -57.4)"/><path class="e" d="M100.22,161.7v0a.68.68,0,1,0-1.35,0v2.17a.67.67,0,0,0,.68.68h0a.67.67,0,0,0,.67-.68Z" transform="translate(-25.17 -57.4)"/><path class="e" d="M100.22,167.77v-.05a.68.68,0,1,0-1.35.05v2.17a.67.67,0,0,0,.68.68h0a.67.67,0,0,0,.67-.68Z" transform="translate(-25.17 -57.4)"/><path class="e" d="M99.52,191.35a.67.67,0,0,0-.65.7v2.18a.68.68,0,1,0,1.35,0V192A.67.67,0,0,0,99.52,191.35Z" transform="translate(-25.17 -57.4)"/><path class="e" d="M100.22,186a.68.68,0,0,0-1.35,0v2.18a.68.68,0,1,0,1.35,0Z" transform="translate(-25.17 -57.4)"/><path class="e" d="M100.22,173.84v-.05a.68.68,0,1,0-1.35.05V176a.68.68,0,0,0,1.35,0Z" transform="translate(-25.17 -57.4)"/><path class="e" d="M100.22,179.91a.68.68,0,0,0-1.35,0v2.18a.68.68,0,0,0,.68.68h0a.69.69,0,0,0,.67-.68Z" transform="translate(-25.17 -57.4)"/><path class="e" d="M100.22,155.63a.68.68,0,0,0-1.35,0v2.17a.67.67,0,0,0,.68.68h0a.67.67,0,0,0,.67-.68Z" transform="translate(-25.17 -57.4)"/><path class="e" d="M113,156.52v18a.68.68,0,0,0,.6.67h18.13a.71.71,0,0,0,.48-.19.68.68,0,0,0,.19-.5v-18a.68.68,0,0,0-.68-.68h-18A.69.69,0,0,0,113,156.52Zm6.76,7a.72.72,0,0,0,.48.2h0a.7.7,0,0,0,.48-.2.68.68,0,0,0,0-1l-5.41-5.41H130l-5.4,5.4a.7.7,0,0,0-.2.49.67.67,0,0,0,.68.67.66.66,0,0,0,.48-.2l5.4-5.39v14.75l-5.39-5.39a.67.67,0,0,0-.93,0,.68.68,0,0,0,0,1l5.4,5.4H115.27l5.4-5.4a.67.67,0,0,0,0-.93.68.68,0,0,0-1,0l-5.4,5.4V158.16Z" transform="translate(-25.17 -57.4)"/><path class="e" d="M154.49,156.52v18a.67.67,0,0,0,.6.67h18.12a1.08,1.08,0,0,0,.19,0l.07,0a.66.66,0,0,0,.42-.62v-18a.68.68,0,0,0-.68-.68h-18A.68.68,0,0,0,154.49,156.52Zm6.76,7a.72.72,0,0,0,.48.2h0a.72.72,0,0,0,.48-.2.67.67,0,0,0,0-1l-5.4-5.41h14.76l-5.4,5.4a.67.67,0,0,0-.2.48.69.69,0,0,0,.68.69.72.72,0,0,0,.48-.2l5.4-5.41v14.77l-5.4-5.4a.67.67,0,0,0-1,0,.69.69,0,0,0,0,1l5.4,5.4H156.81l5.4-5.4a.68.68,0,1,0-1-1l-5.4,5.39V158.17Z" transform="translate(-25.17 -57.4)"/><path class="e" d="M196.08,156.52v18h0a.6.6,0,0,0,.06.27h0a.74.74,0,0,0,.14.22h0a.56.56,0,0,0,.2.14h0a.56.56,0,0,0,.25.05h18a.68.68,0,0,0,.69-.67v-18a.69.69,0,0,0-.68-.68H196.76A.69.69,0,0,0,196.08,156.52Zm6.76,7a.72.72,0,0,0,.48.2h0a.7.7,0,0,0,.48-.2.67.67,0,0,0,0-1l-5.4-5.41h14.76l-5.4,5.4a.67.67,0,0,0-.2.48.7.7,0,0,0,.68.69.72.72,0,0,0,.48-.2l5.4-5.41v14.77l-5.4-5.4a.67.67,0,0,0-1,0,.69.69,0,0,0,0,1l5.4,5.4H198.4l5.4-5.4a.68.68,0,0,0-1-1l-5.4,5.4V158.16Z" transform="translate(-25.17 -57.4)"/><path class="e" d="M109.27,181.92a.67.67,0,0,0,.65.71H137.1a.68.68,0,0,0,0-1.36H109.92A.67.67,0,0,0,109.27,181.92Z" transform="translate(-25.17 -57.4)"/><path class="e" d="M137.76,188.5a.69.69,0,0,0-.66-.71H109.92a.68.68,0,0,0-.65.66.67.67,0,0,0,.65.7H137.1A.69.69,0,0,0,137.76,188.5Z" transform="translate(-25.17 -57.4)"/><path class="e" d="M150,181.92a.69.69,0,0,0,.66.71H177.8a.68.68,0,0,0,0-1.36H150.62A.69.69,0,0,0,150,181.92Z" transform="translate(-25.17 -57.4)"/><path class="e" d="M177.8,189.15a.68.68,0,0,0,0-1.36H150.62a.69.69,0,0,0-.66.66.68.68,0,0,0,.66.7Z" transform="translate(-25.17 -57.4)"/><path class="e" d="M219.37,181.27H192.19a.68.68,0,0,0,0,1.36h27.23a.68.68,0,1,0,0-1.36Z" transform="translate(-25.17 -57.4)"/><path class="e" d="M219.37,187.79H192.19a.69.69,0,0,0-.65.66.67.67,0,0,0,.65.7h27.23a.68.68,0,0,0,.66-.7A.69.69,0,0,0,219.37,187.79Z" transform="translate(-25.17 -57.4)"/><path class="e" d="M202,126.42a4.38,4.38,0,1,0-4.37-4.37A4.38,4.38,0,0,0,202,126.42Zm0-7.4a3,3,0,1,1-3,3A3,3,0,0,1,202,119Z" transform="translate(-25.17 -57.4)"/><path class="e" d="M108.51,123.24H155.2c.65,0,1.17-.3,1.17-.68s-.52-.68-1.17-.68H108.51c-.64,0-1.16.31-1.16.68S107.87,123.24,108.51,123.24Z" transform="translate(-25.17 -57.4)"/><path class="e" d="M155.2,128.41H108.51c-.64,0-1.16.3-1.16.67s.52.68,1.16.68H155.2c.65,0,1.17-.3,1.17-.68S155.85,128.41,155.2,128.41Z" transform="translate(-25.17 -57.4)"/><path class="e" d="M265.41,148.68l-8.48-4.9a5.33,5.33,0,0,0-7.27,1.95l-3.26,5.65a5.42,5.42,0,0,0-5.93,2.55l-2.48,4.3V96a6.09,6.09,0,0,0-6.06-6.11H162.12V62.3a4.88,4.88,0,0,0-4.84-4.9H47.52a5,5,0,0,0-5,5v87.52a5.09,5.09,0,0,0,5.06,5.11H88.53v50.47a6.35,6.35,0,0,0,6.32,6.39H213.09l-1.57,15.59a2.54,2.54,0,0,0,.09.95h0a2.58,2.58,0,0,0,3.18,1.8,2.39,2.39,0,0,0,.82-.39L230.67,219a12.22,12.22,0,0,0,1.67-1.46s0,.07,0,.11l.19-.18v-.08a12.25,12.25,0,0,0,1.64-2.22l19.59-33.95a5.41,5.41,0,0,0,5-2.69L264.84,168a5.39,5.39,0,0,0-.74-6.39l3.26-5.65A5.33,5.33,0,0,0,265.41,148.68ZM47.52,59.32H64.73v8.92H44.47V62.36A3,3,0,0,1,47.52,59.32Zm.09,93.82a3.17,3.17,0,0,1-3.14-3.2V70.15H147.72a1,1,0,1,0,0-1.91H66.65V59.32h90.69a2.92,2.92,0,0,1,2.87,3v5.94h-5a1,1,0,0,0-1,1h0a1,1,0,0,0,1,1h5v19.7H155.5V76.08a1,1,0,0,0-1-1H50.27a1,1,0,0,0-1,1V97a1,1,0,0,0,1,1H88.53v55.2ZM149.43,89.85l-5-3.18a2.76,2.76,0,0,0-2.8-.1l-6,3.28h-8l-6.61-6.61a2.2,2.2,0,0,0-3.13,0l-6.61,6.61H94.74A6.25,6.25,0,0,0,88.53,96H51.22V77H153.58V89.85Zm-2,0h-9.54l4.28-2.33a1.69,1.69,0,0,1,1.71.06ZM90.92,103.4V96a3.81,3.81,0,0,1,3.82-3.8h21.51V103.4Zm21.92-13.55L118.7,84a1.12,1.12,0,0,1,1.6,0l5.85,5.85ZM90.92,205.52V105.79H220a1.2,1.2,0,0,0,0-2.39H118.64V92.24H232A3.66,3.66,0,0,1,235.6,96v7.43h-6.21a1.19,1.19,0,0,0-1.2,1.19h0a1.2,1.2,0,0,0,1.2,1.2h6.21v56.58l-1.22,2.11a5.44,5.44,0,0,0,.18,5.69l-1.56,2.7a12.61,12.61,0,0,1-3.07,5.34l-2.05,3.53s0,0,0,0v-2.17a.68.68,0,1,0-1.36,0v2.17a.67.67,0,0,0,1.05.56l-11,19h-.25a17.52,17.52,0,0,1-1.07,2.28h0l-.33.57a12.18,12.18,0,0,0-1.57,4.88h-.07c0,.16,0,.32,0,.48H94.85A4,4,0,0,1,90.92,205.52Zm123.34,22,.65-6.51,4.65,2.69Zm7.72-5.56L215.21,218l.86-8.57L229,216.9Zm9.81-8.11A10.5,10.5,0,0,1,231,215l-6.27-3.62,6.14-10.64h0a1.36,1.36,0,0,0-.5-1.86h0a1.36,1.36,0,0,0-1.85.5L222.41,210l-5.68-3.28a9.08,9.08,0,0,1,.6-1.21L236.64,172l5.75,3.32-5.66,9.81a1.37,1.37,0,0,0-.13,1,1.35,1.35,0,0,0,1.66.95,1.33,1.33,0,0,0,.82-.63l5.66-9.8,6.36,3.67Zm30.71-47.18-2.34,4.06-11.32-6.53h0a1.36,1.36,0,0,0-1.85.49,1.34,1.34,0,0,0-.14,1,1.35,1.35,0,0,0,.63.83l11.32,6.53-2.39,4.14h0a2.71,2.71,0,0,1-3.55,1.06l-15.26-8.81a2.67,2.67,0,0,1-1.17-1.74c.21-.87.44-1.73.72-2.57l2-3.43,2.15,1.24h0a1.36,1.36,0,0,0,1.85-.5h0a1.36,1.36,0,0,0-.5-1.85l-2.15-1.24,2.34-4.07a2.71,2.71,0,0,1,3.68-1l15,8.66a2.73,2.73,0,0,1,1.26,1.64A2.69,2.69,0,0,1,262.5,166.65ZM265,154.6,261.87,160l-13-7.51,3.14-5.44h0a2.62,2.62,0,0,1,3.58-1l8.48,4.89h0A2.62,2.62,0,0,1,265,154.6Z" transform="translate(-25.17 -57.4)"/><circle class="e" cx="63.6" cy="147.52" r="29.52"/><path class="f" d="M100.88,201.57a12.73,12.73,0,0,0-1.37-3.73l3-3.05-4.12-4.11-2.86,2.86a12.87,12.87,0,0,0-3.89-1.8V187.9H85.86v3.66a12.64,12.64,0,0,0-4.2,1.66l-2.55-2.54-4.17,4.18,2.54,2.54a13.63,13.63,0,0,0-1.65,4.19H72.17v5.83H76a12.61,12.61,0,0,0,1.79,3.89l-2.88,2.89,4.11,4.11,3.07-3.07a12.48,12.48,0,0,0,3.73,1.38v4.47h5.84v-4.64A12.48,12.48,0,0,0,95.07,215l3.31,3.31,4.18-4.18-3.32-3.31a12.33,12.33,0,0,0,1.46-3.41h4.67v-5.84Zm-7.08,8a7.74,7.74,0,1,1,0-11A7.75,7.75,0,0,1,93.8,209.52Z" transform="translate(-25.17 -57.4)"/></svg>