<svg xmlns="http://www.w3.org/2000/svg" width="240.82" height="194.31" viewBox="0 0 240.82 194.31"><defs><style>.a{opacity:0.35;}.b{fill:#b9e3eb;}.c{fill:#fff;opacity:0.5;}.d{fill:#f47523;}.e{fill:#47a8b5;}.f{fill:#e2e2e5;}.g{fill:#3e4449;}</style></defs><title>config-policy-importer</title><g class="a"><path class="b" d="M40.6,194.54s63.85,60.52,120.8,47.87,92-82,97.9-105.77-17.48-66.14-65.14-53.7S-2.3,144.3,40.6,194.54Z" transform="translate(-23.84 -49.84)"/></g><rect class="c" x="71.79" y="56.57" width="138.79" height="114.63"/><rect class="b" x="80.46" y="114.15" width="120.68" height="44.67"/><polygon class="d" points="190.34 167.14 206.04 176.53 225.99 141.67 210.58 132.16 190.34 167.14"/><rect class="e" x="28.32" y="39.45" width="84.55" height="45.29"/><path class="f" d="M70.75,72.62a20,20,0,0,0-2.16-5.88l4.81-4.81-6.49-6.49L62.39,60a20.35,20.35,0,0,0-6.13-2.84V51.06h-9.2v5.77a20,20,0,0,0-6.62,2.63l-4-4L29.83,62l4,4a21.47,21.47,0,0,0-2.6,6.61H25.48v9.19h6.07A20.18,20.18,0,0,0,34.38,88l-4.55,4.55L36.32,99l4.85-4.85A19.31,19.31,0,0,0,47,96.33v7h9.21V96.07a19.84,19.84,0,0,0,5.33-2.29L66.81,99l6.59-6.59-5.23-5.23a20,20,0,0,0,2.3-5.37h7.36v-9.2ZM59.59,85.15a12.21,12.21,0,1,1,0-17.27A12.21,12.21,0,0,1,59.59,85.15Z" transform="translate(-23.84 -49.84)"/><path class="g" d="M104.73,208.94h-.43v-.48a.65.65,0,0,0-.67-.63.66.66,0,0,0-.63.68v1.08a.65.65,0,0,0,.65.65h1.13a.66.66,0,0,0,.63-.68A.65.65,0,0,0,104.73,208.94Z" transform="translate(-23.84 -49.84)"/><path class="g" d="M122.29,208.94h-2.1a.65.65,0,0,0-.63.62.66.66,0,0,0,.63.68h2.1a.65.65,0,0,0,.62-.63A.63.63,0,0,0,122.29,208.94Z" transform="translate(-23.84 -49.84)"/><path class="g" d="M145.46,208.94h-2.1a.65.65,0,0,0-.63.62.66.66,0,0,0,.63.68h2.1a.65.65,0,0,0,0-1.3Z" transform="translate(-23.84 -49.84)"/><path class="g" d="M139.66,208.94h-2.09a.65.65,0,0,0-.63.62.66.66,0,0,0,.63.68h2.09a.66.66,0,0,0,.63-.63A.65.65,0,0,0,139.66,208.94Z" transform="translate(-23.84 -49.84)"/><path class="g" d="M151.25,208.94h-2.1a.64.64,0,0,0-.62.62.65.65,0,0,0,.62.68h2.1a.67.67,0,0,0,.63-.63A.65.65,0,0,0,151.25,208.94Z" transform="translate(-23.84 -49.84)"/><path class="g" d="M157,208.94h-2.1a.65.65,0,0,0-.63.62.66.66,0,0,0,.63.68H157a.65.65,0,0,0,.62-.63A.63.63,0,0,0,157,208.94Z" transform="translate(-23.84 -49.84)"/><path class="g" d="M116.5,208.94h-2.1a.65.65,0,0,0-.63.62.66.66,0,0,0,.63.68h2.1a.65.65,0,0,0,.62-.63A.63.63,0,0,0,116.5,208.94Z" transform="translate(-23.84 -49.84)"/><path class="g" d="M110.71,208.94h-2.1a.65.65,0,0,0-.63.62.66.66,0,0,0,.63.68h2.1a.65.65,0,0,0,0-1.3Z" transform="translate(-23.84 -49.84)"/><path class="g" d="M162.83,208.94h-2.1a.64.64,0,0,0-.62.62.65.65,0,0,0,.62.68h2.1a.67.67,0,0,0,.63-.63A.65.65,0,0,0,162.83,208.94Z" transform="translate(-23.84 -49.84)"/><path class="g" d="M128.08,208.94H126a.64.64,0,0,0-.62.62.65.65,0,0,0,.62.68h2.1a.67.67,0,0,0,.63-.63A.65.65,0,0,0,128.08,208.94Z" transform="translate(-23.84 -49.84)"/><path class="g" d="M133.87,208.94h-2.1a.64.64,0,0,0-.62.62.65.65,0,0,0,.62.68h2.1a.67.67,0,0,0,.63-.63A.65.65,0,0,0,133.87,208.94Z" transform="translate(-23.84 -49.84)"/><path class="g" d="M197.58,208.94h-2.1a.64.64,0,0,0-.62.62.65.65,0,0,0,.62.68h2.1a.67.67,0,0,0,.63-.63A.65.65,0,0,0,197.58,208.94Z" transform="translate(-23.84 -49.84)"/><path class="g" d="M209.17,208.94h-2.1a.65.65,0,0,0-.63.62.66.66,0,0,0,.63.68h2.1a.65.65,0,0,0,0-1.3Z" transform="translate(-23.84 -49.84)"/><path class="g" d="M203.37,208.94h-2.1a.64.64,0,0,0-.62.62.66.66,0,0,0,.62.68h2.1a.66.66,0,0,0,.63-.63A.65.65,0,0,0,203.37,208.94Z" transform="translate(-23.84 -49.84)"/><path class="g" d="M168.62,208.94h-2.1a.64.64,0,0,0-.62.62.66.66,0,0,0,.62.68h2.1a.67.67,0,0,0,.63-.63A.65.65,0,0,0,168.62,208.94Z" transform="translate(-23.84 -49.84)"/><path class="g" d="M215,210.24a.65.65,0,0,0,.62-.63.63.63,0,0,0-.62-.67h-2.1a.65.65,0,0,0-.63.62.66.66,0,0,0,.63.68Z" transform="translate(-23.84 -49.84)"/><path class="g" d="M174.41,208.94h-2.09a.65.65,0,0,0-.63.62.66.66,0,0,0,.63.68h2.09a.66.66,0,0,0,.63-.63A.65.65,0,0,0,174.41,208.94Z" transform="translate(-23.84 -49.84)"/><path class="g" d="M180.21,208.94h-2.1a.65.65,0,0,0-.63.62.66.66,0,0,0,.63.68h2.1a.65.65,0,0,0,0-1.3Z" transform="translate(-23.84 -49.84)"/><path class="g" d="M186,208.94h-2.1a.65.65,0,0,0-.63.62.66.66,0,0,0,.63.68H186a.65.65,0,0,0,.62-.63A.63.63,0,0,0,186,208.94Z" transform="translate(-23.84 -49.84)"/><path class="g" d="M191.79,208.94h-2.1a.64.64,0,0,0-.62.62.65.65,0,0,0,.62.68h2.1a.65.65,0,0,0,.62-.63A.63.63,0,0,0,191.79,208.94Z" transform="translate(-23.84 -49.84)"/><path class="g" d="M225.63,178.86a.66.66,0,0,0-.66.65v2.07a.65.65,0,0,0,1.3,0v-2.07A.65.65,0,0,0,225.63,178.86Z" transform="translate(-23.84 -49.84)"/><path class="g" d="M225.63,173.06a.66.66,0,0,0-.66.65v2.07a.65.65,0,0,0,.65.65h0a.66.66,0,0,0,.65-.66v-2.07A.65.65,0,0,0,225.63,173.06Z" transform="translate(-23.84 -49.84)"/><path class="g" d="M225.63,167.26a.66.66,0,0,0-.66.65V170a.65.65,0,0,0,.65.64h0a.65.65,0,0,0,.65-.64v-2.08A.65.65,0,0,0,225.63,167.26Z" transform="translate(-23.84 -49.84)"/><path class="g" d="M225.63,184.66a.66.66,0,0,0-.66.65v2.07a.65.65,0,0,0,.65.65h0a.65.65,0,0,0,.65-.65v-2.07A.65.65,0,0,0,225.63,184.66Z" transform="translate(-23.84 -49.84)"/><path class="g" d="M224.54,164.1H225v.43a.65.65,0,1,0,1.3,0v-1.08a.65.65,0,0,0-.65-.65h-1.08a.66.66,0,0,0-.63.63A.65.65,0,0,0,224.54,164.1Z" transform="translate(-23.84 -49.84)"/><path class="g" d="M149.07,164.1h2.09a.65.65,0,0,0,0-1.3h-2.09a.65.65,0,0,0,0,1.3Z" transform="translate(-23.84 -49.84)"/><path class="g" d="M160.65,164.1h2.1a.65.65,0,0,0,0-1.3h-2.1a.66.66,0,0,0-.63.63A.65.65,0,0,0,160.65,164.1Z" transform="translate(-23.84 -49.84)"/><path class="g" d="M172.23,164.1h2.1a.65.65,0,0,0,0-1.3h-2.1a.65.65,0,0,0-.62.63A.63.63,0,0,0,172.23,164.1Z" transform="translate(-23.84 -49.84)"/><path class="g" d="M166.44,164.1h2.1a.65.65,0,0,0,0-1.3h-2.1a.66.66,0,0,0-.63.63A.65.65,0,0,0,166.44,164.1Z" transform="translate(-23.84 -49.84)"/><path class="g" d="M137.48,164.1h2.1a.65.65,0,0,0,0-1.3h-2.1a.65.65,0,0,0-.62.63A.63.63,0,0,0,137.48,164.1Z" transform="translate(-23.84 -49.84)"/><path class="g" d="M143.27,164.1h2.1a.65.65,0,0,0,0-1.3h-2.1a.65.65,0,0,0-.62.63A.63.63,0,0,0,143.27,164.1Z" transform="translate(-23.84 -49.84)"/><path class="g" d="M131.69,164.1h2.1a.65.65,0,0,0,0-1.3h-2.1a.66.66,0,0,0-.63.63A.65.65,0,0,0,131.69,164.1Z" transform="translate(-23.84 -49.84)"/><path class="g" d="M125.9,164.1H128a.65.65,0,0,0,0-1.3h-2.1a.66.66,0,0,0-.63.63A.65.65,0,0,0,125.9,164.1Z" transform="translate(-23.84 -49.84)"/><path class="g" d="M108.52,164.1h2.1a.65.65,0,0,0,0-1.3h-2.1a.65.65,0,0,0-.62.63A.63.63,0,0,0,108.52,164.1Z" transform="translate(-23.84 -49.84)"/><path class="g" d="M120.1,164.1h2.1a.65.65,0,0,0,0-1.3h-2.1a.65.65,0,0,0,0,1.3Z" transform="translate(-23.84 -49.84)"/><path class="g" d="M178,164.1h2.1a.65.65,0,0,0,0-1.3H178a.65.65,0,0,0-.62.63A.63.63,0,0,0,178,164.1Z" transform="translate(-23.84 -49.84)"/><path class="g" d="M154.86,164.1H157a.65.65,0,0,0,0-1.3h-2.1a.65.65,0,0,0,0,1.3Z" transform="translate(-23.84 -49.84)"/><path class="g" d="M189.61,164.1h2.09a.65.65,0,0,0,0-1.3h-2.09a.65.65,0,0,0,0,1.3Z" transform="translate(-23.84 -49.84)"/><path class="g" d="M183.81,164.1h2.1a.65.65,0,0,0,0-1.3h-2.1a.65.65,0,0,0,0,1.3Z" transform="translate(-23.84 -49.84)"/><path class="g" d="M207,164.1h2.1a.65.65,0,0,0,0-1.3H207a.65.65,0,0,0-.62.63A.63.63,0,0,0,207,164.1Z" transform="translate(-23.84 -49.84)"/><path class="g" d="M195.4,164.1h2.1a.65.65,0,0,0,.62-.63.65.65,0,0,0-.62-.67h-2.1a.65.65,0,0,0,0,1.3Z" transform="translate(-23.84 -49.84)"/><path class="g" d="M201.19,164.1h2.1a.65.65,0,0,0,0-1.3h-2.1a.66.66,0,0,0-.63.63A.65.65,0,0,0,201.19,164.1Z" transform="translate(-23.84 -49.84)"/><path class="g" d="M212.77,164.1h2.1a.65.65,0,0,0,0-1.3h-2.1a.65.65,0,0,0-.62.63A.63.63,0,0,0,212.77,164.1Z" transform="translate(-23.84 -49.84)"/><path class="g" d="M218.56,164.1h2.1a.65.65,0,0,0,0-1.3h-2.1a.65.65,0,0,0,0,1.3Z" transform="translate(-23.84 -49.84)"/><path class="g" d="M114.31,164.1h2.1a.65.65,0,0,0,0-1.3h-2.1a.65.65,0,0,0,0,1.3Z" transform="translate(-23.84 -49.84)"/><path class="g" d="M104.73,162.8h-1.08a.65.65,0,0,0-.65.65v1.08a.65.65,0,0,0,.65.65h0a.65.65,0,0,0,.64-.65v-.43h.48a.66.66,0,0,0,.63-.67A.66.66,0,0,0,104.73,162.8Z" transform="translate(-23.84 -49.84)"/><path class="g" d="M103.65,176.78h0a.65.65,0,0,0,.65-.65V174a.65.65,0,0,0-1.3,0v2.08A.65.65,0,0,0,103.65,176.78Z" transform="translate(-23.84 -49.84)"/><path class="g" d="M103.65,182.58h0a.65.65,0,0,0,.65-.65v-2.12a.65.65,0,0,0-1.3,0v2.08A.65.65,0,0,0,103.65,182.58Z" transform="translate(-23.84 -49.84)"/><path class="g" d="M103.65,205.78a.65.65,0,0,0,.65-.65V203a.65.65,0,0,0-1.3.05v2.08A.65.65,0,0,0,103.65,205.78Z" transform="translate(-23.84 -49.84)"/><path class="g" d="M103.65,200a.65.65,0,0,0,.65-.65v-2.08a.64.64,0,0,0-.62-.62.65.65,0,0,0-.68.62v2.08A.65.65,0,0,0,103.65,200Z" transform="translate(-23.84 -49.84)"/><path class="g" d="M103.65,188.38a.65.65,0,0,0,.65-.65v-2.12a.65.65,0,1,0-1.3,0v2.08A.65.65,0,0,0,103.65,188.38Z" transform="translate(-23.84 -49.84)"/><path class="g" d="M103.65,194.18h0a.65.65,0,0,0,.65-.65v-2.08a.64.64,0,0,0-.62-.62.65.65,0,0,0-.68.62v2.08A.65.65,0,0,0,103.65,194.18Z" transform="translate(-23.84 -49.84)"/><path class="g" d="M103.65,171h0a.65.65,0,0,0,.65-.65v-2.08a.64.64,0,0,0-.62-.62.66.66,0,0,0-.68.62v2.08A.65.65,0,0,0,103.65,171Z" transform="translate(-23.84 -49.84)"/><path class="g" d="M116.46,169.11v17.24a.64.64,0,0,0,.57.63l.08,0h17.24a.71.71,0,0,0,.46-.19.7.7,0,0,0,.19-.48V169.11a.66.66,0,0,0-.65-.65H117.11A.65.65,0,0,0,116.46,169.11Zm1.3,1.56,5.16,5.17a.66.66,0,0,0,.46.19h0a.65.65,0,0,0,.46-1.11l-5.16-5.16h14.1l-5.16,5.16a.66.66,0,0,0-.19.46.65.65,0,0,0,.65.65.66.66,0,0,0,.46-.19l5.16-5.16v14.09l-5.16-5.15a.65.65,0,0,0-.92.92l5.16,5.16h-14.1l5.16-5.16a.65.65,0,0,0-.92-.92l-5.16,5.16Z" transform="translate(-23.84 -49.84)"/><path class="g" d="M156.8,168.46a.65.65,0,0,0-.65.65v17.24a.64.64,0,0,0,.57.63l.08,0H174a.53.53,0,0,0,.18,0h.07a.66.66,0,0,0,.4-.6V169.11a.65.65,0,0,0-.65-.65Zm16.58,16.32-5.16-5.16a.65.65,0,1,0-.91.92l5.15,5.16h-14.1l5.16-5.16a.65.65,0,1,0-.92-.92l-5.15,5.16v-14.1l5.16,5.16a.64.64,0,0,0,.45.19h0a.65.65,0,0,0,.46-1.11l-5.16-5.16h14.1l-5.16,5.16a.66.66,0,0,0-.19.46.65.65,0,0,0,.65.65.66.66,0,0,0,.46-.19l5.16-5.17Z" transform="translate(-23.84 -49.84)"/><path class="g" d="M196.08,186.8h0a.5.5,0,0,0,.19.13h0a.59.59,0,0,0,.23.05h17.24a.65.65,0,0,0,.65-.65V169.11a.65.65,0,0,0-.65-.65H196.53a.66.66,0,0,0-.65.65v17.23h0a.54.54,0,0,0,.06.25h0A.48.48,0,0,0,196.08,186.8Zm1.1-16.12,5.16,5.16a.66.66,0,0,0,.46.19h0a.65.65,0,0,0,.46-1.11l-5.16-5.16h14.1L207,174.92a.66.66,0,0,0-.19.46.65.65,0,0,0,.65.65.66.66,0,0,0,.46-.19l5.16-5.16v14.1L208,179.62a.65.65,0,1,0-.92.92l5.16,5.16H198.1l5.16-5.16a.65.65,0,1,0-.92-.92l-5.16,5.16Z" transform="translate(-23.84 -49.84)"/><path class="g" d="M113.56,194.05h26a.65.65,0,0,0,0-1.3h-26a.65.65,0,0,0-.62.63A.65.65,0,0,0,113.56,194.05Z" transform="translate(-23.84 -49.84)"/><path class="g" d="M140.16,199.66a.66.66,0,0,0-.63-.68h-26a.65.65,0,0,0,0,1.3h26A.65.65,0,0,0,140.16,199.66Z" transform="translate(-23.84 -49.84)"/><path class="g" d="M152.45,194.05h26a.65.65,0,0,0,0-1.3h-26a.65.65,0,0,0,0,1.3Z" transform="translate(-23.84 -49.84)"/><path class="g" d="M178.41,200.28a.65.65,0,0,0,.63-.62.66.66,0,0,0-.63-.68h-26a.66.66,0,0,0-.63.63.65.65,0,0,0,.63.67Z" transform="translate(-23.84 -49.84)"/><path class="g" d="M218.13,192.75h-26a.65.65,0,0,0,0,1.3h26a.66.66,0,0,0,.63-.67A.66.66,0,0,0,218.13,192.75Z" transform="translate(-23.84 -49.84)"/><path class="g" d="M218.13,199h-26a.66.66,0,0,0-.63.63.65.65,0,0,0,.63.67h26a.65.65,0,0,0,.63-.67A.66.66,0,0,0,218.13,199Z" transform="translate(-23.84 -49.84)"/><path class="g" d="M201.51,132a4.18,4.18,0,1,0,4.17,4.18A4.18,4.18,0,0,0,201.51,132Zm0,7.07a2.89,2.89,0,1,1,2.89-2.89A2.89,2.89,0,0,1,201.51,139.06Z" transform="translate(-23.84 -49.84)"/><path class="g" d="M156.83,142.25H112.22c-.62,0-1.12.29-1.12.64s.5.65,1.12.65h44.61c.61,0,1.11-.29,1.11-.65S157.44,142.25,156.83,142.25Z" transform="translate(-23.84 -49.84)"/><path class="g" d="M262.12,161.61,254,156.94a5.08,5.08,0,0,0-6.94,1.86L244,164.19a5.18,5.18,0,0,0-5.66,2.44l-2.37,4.11V111.25a5.82,5.82,0,0,0-5.79-5.84h-75.9a21.38,21.38,0,0,1-4,0H138.31V92.8a5.25,5.25,0,0,0-5.25-5.25H69.45l-.33-.33A1,1,0,0,1,69,86.1a21.05,21.05,0,0,0,1.27-3,.94.94,0,0,1,.89-.65h4.42A2.47,2.47,0,0,0,78,80V73.83a2.48,2.48,0,0,0-2.47-2.47H71.49a.94.94,0,0,1-.9-.71,20.83,20.83,0,0,0-1.26-3.41.93.93,0,0,1,.17-1.07l2.75-2.75a2.47,2.47,0,0,0,0-3.5L67.9,55.57a2.47,2.47,0,0,0-3.49,0L62,58a.92.92,0,0,1-1.12.13,21.77,21.77,0,0,0-3.77-1.73,1,1,0,0,1-.65-.89V52.32h0A2.47,2.47,0,0,0,54,49.84H47.84a2.48,2.48,0,0,0-2.47,2.48v2.75a.94.94,0,0,1-.7.91,20.93,20.93,0,0,0-4.18,1.66.94.94,0,0,1-1.11-.15l-1.91-1.92a2.47,2.47,0,0,0-3.49,0L29.53,60a2.46,2.46,0,0,0,0,3.49l1.92,1.93a.91.91,0,0,1,.18,1.07A22.69,22.69,0,0,0,30,70.72a.93.93,0,0,1-.89.68H26.31a2.47,2.47,0,0,0-2.47,2.47V80a2.47,2.47,0,0,0,2.47,2.46h3.14a1,1,0,0,1,.9.65,20.92,20.92,0,0,0,1.72,3.76A.94.94,0,0,1,31.94,88l-2.42,2.41a2.47,2.47,0,0,0,0,3.49l4.36,4.36h0a2.47,2.47,0,0,0,3.49,0l2.78-2.78a1,1,0,0,1,1.09-.18,20.87,20.87,0,0,0,3.41,1.27.94.94,0,0,1,.7.9v4A2.48,2.48,0,0,0,47.82,104h1.59v28.25a5.25,5.25,0,0,0,5.25,5.25H93.12v28.37H93a1.09,1.09,0,0,1,0,.18c-.07.56-.13,1.1-.21,1.64h.37v48.22a6.09,6.09,0,0,0,6,6.11h113l-1.5,14.89a2.82,2.82,0,0,0,.09.91,2.46,2.46,0,0,0,3.82,1.34l14.38-10.36a10.64,10.64,0,0,0,1.61-1.39.54.54,0,0,1-.05.11,1.54,1.54,0,0,1,.19-.17v-.08a11.94,11.94,0,0,0,1.56-2.12L251,192.72a5.15,5.15,0,0,0,4.8-2.57l5.82-10.08a5.17,5.17,0,0,0-.71-6.12l3.12-5.39A5.1,5.1,0,0,0,262.12,161.61Zm-63-13.16,13-7.08a2,2,0,0,1,2,.08l11.15,7.12a.63.63,0,0,0,.44.09v2.88H202.16Zm1.26,3.09H169.69l14.37-14.37h0a1.36,1.36,0,0,1,1.92,0Zm14.49-11.18a3.32,3.32,0,0,0-3.35-.12l-13.28,7.23s0,0-.06.05l-11.26-11.26a2.64,2.64,0,0,0-3.73,0l-15.28,15.28H103.48v-14h29.57a5,5,0,0,0,1.35-.2h22.43c.61,0,1.11-.29,1.11-.65s-.5-.65-1.11-.65H136.71a5.21,5.21,0,0,0,1.59-3.75v-3.4h87.42v18.47Zm-167-38.3a.54.54,0,0,1-.54-.53v-4a2.89,2.89,0,0,0-2.13-2.76,18.69,18.69,0,0,1-3.08-1.15,2.91,2.91,0,0,0-1.26-.29,2.87,2.87,0,0,0-2.05.85L36,96.93a.54.54,0,0,1-.75,0l-4.36-4.35h0a.53.53,0,0,1,0-.75l2.42-2.41a2.87,2.87,0,0,0,.43-3.47,19.21,19.21,0,0,1-1.56-3.42,2.9,2.9,0,0,0-2.73-2H26.29a.51.51,0,0,1-.53-.53V73.86a.55.55,0,0,1,.15-.38.58.58,0,0,1,.38-.15H29a2.87,2.87,0,0,0,2.77-2.08,21.26,21.26,0,0,1,1.52-3.85,2.85,2.85,0,0,0-.52-3.34l-1.93-1.92h0a.54.54,0,0,1,0-.76l4.45-4.45a.56.56,0,0,1,.76,0L38,58.85a2.87,2.87,0,0,0,3.38.5,19.33,19.33,0,0,1,3.79-1.51,2.89,2.89,0,0,0,2.12-2.78V52.31a.54.54,0,0,1,.54-.53H54a.53.53,0,0,1,.53.53v3.15a2.9,2.9,0,0,0,2,2.73,19.67,19.67,0,0,1,3.43,1.57,2.84,2.84,0,0,0,3.46-.44l2.38-2.38h0a.55.55,0,0,1,.76,0l4.35,4.36h0a.53.53,0,0,1,0,.75L68.12,64.8a2.92,2.92,0,0,0-.56,3.29,17.79,17.79,0,0,1,1.14,3.08,2.9,2.9,0,0,0,2.78,2.14h4.06a.53.53,0,0,1,.53.53V80h0a.53.53,0,0,1-.53.53H71.11a2.87,2.87,0,0,0-2.73,2,19.2,19.2,0,0,1-1.14,2.69,2.84,2.84,0,0,0-.13,2.35H67l.2.11a2.83,2.83,0,0,0,.59.92l3.13,3.13h0a.53.53,0,0,1,0,.75l-4.45,4.45a.56.56,0,0,1-.76,0l-3.12-3.12a2.88,2.88,0,0,0-3.39-.51,17.16,17.16,0,0,1-2.65,1.13,2.89,2.89,0,0,0-2,2.74v4.38h0a.53.53,0,0,1-.54.53Zm4.34,30.2V104H54a2.46,2.46,0,0,0,2.47-2.48V97.15a.94.94,0,0,1,.65-.89A20.48,20.48,0,0,0,60.06,95a1,1,0,0,1,1.12.15l3.12,3.13h0a2.49,2.49,0,0,0,3.5,0l4.45-4.45a2.49,2.49,0,0,0,0-3.5l0,0h60.84a2.5,2.5,0,0,1,2.5,2.5v27.64s0,0,0,.06v.14h0v11.62a2.48,2.48,0,0,1-2.49,2.49H54.66A2.49,2.49,0,0,1,52.16,132.26Zm160.18,87.48H99.17a3.79,3.79,0,0,1-3.76-3.82V137.51h5.78v15.17a1.14,1.14,0,0,0,1.15,1.14H226.86a1.15,1.15,0,0,0,1.15-1.14v-25a1.15,1.15,0,0,0-1.15-1.14H138.3v-5.93h80.42a1.15,1.15,0,0,0,0-2.29H138.31v-2h26.21a1.14,1.14,0,0,0,1.15-1.14h0a1.14,1.14,0,0,0-1.15-1.14H138.31v-2.28h59.55a1.14,1.14,0,0,0,0-2.28H138.31V107.7h91.9a3.49,3.49,0,0,1,3.43,3.56v7.09H227.7a1.14,1.14,0,0,0-1.14,1.14h0a1.14,1.14,0,0,0,1.14,1.15h5.94V174.7l-1.16,2a5.12,5.12,0,0,0-.52,3.92,5.21,5.21,0,0,0,.68,1.52l-1.48,2.58a12.21,12.21,0,0,1-2.94,5.1l-1.95,3.38v-2.1a.65.65,0,1,0-1.3,0v2.07a.65.65,0,0,0,.65.65.69.69,0,0,0,.35-.11l-10.49,18.17h-.24a15.83,15.83,0,0,1-1,2.17h0c-.1.19-.2.37-.31.55a11.66,11.66,0,0,0-1.5,4.66h-.07C212.35,219.43,212.34,219.59,212.34,219.74Zm.91,17.18.62-6.22,4.45,2.57Zm7.37-5.32-6.46-3.73.82-8.19,12.33,7.11Zm9.37-7.74a8.35,8.35,0,0,1-.72,1.07l-6-3.46,5.87-10.17h0a1.3,1.3,0,0,0-.48-1.77h0a1.3,1.3,0,0,0-1.77.48L221,220.18l-5.42-3.13a8.31,8.31,0,0,1,.57-1.16l18.45-32,5.49,3.17-5.4,9.36a1.32,1.32,0,0,0-.13,1,1.3,1.3,0,0,0,1.59.91,1.24,1.24,0,0,0,.78-.6l5.41-9.36,6.07,3.5Zm29.34-45.07-2.23,3.88-10.82-6.24a1.28,1.28,0,0,0-1.76.47,1.25,1.25,0,0,0-.14,1,1.31,1.31,0,0,0,.6.78l10.82,6.25-2.28,4h0a2.6,2.6,0,0,1-3.4,1l-14.57-8.42a2.54,2.54,0,0,1-1.12-1.66c.2-.83.43-1.65.68-2.46l1.89-3.28,2.06,1.19h0a1.3,1.3,0,0,0,1.77-.48h0a1.3,1.3,0,0,0-.48-1.77l-2-1.19,2.24-3.87a2.57,2.57,0,0,1,3.51-.94l14.34,8.27a2.57,2.57,0,0,1,.94,3.52Zm2.4-11.52-3,5.2-12.43-7.18,3-5.2a2.5,2.5,0,0,1,3.41-.91l8.11,4.67h0A2.51,2.51,0,0,1,261.73,167.27Z" transform="translate(-23.84 -49.84)"/><path class="g" d="M164.26,97.78A1.38,1.38,0,0,0,162.75,99v2.47a1.39,1.39,0,1,0,2.76-.26V99A1.38,1.38,0,0,0,164.26,97.78Z" transform="translate(-23.84 -49.84)"/><path class="g" d="M165.51,86.9a1.39,1.39,0,0,0-2.76,0v4.49a1.39,1.39,0,0,0,2.76-.26Z" transform="translate(-23.84 -49.84)"/><path class="g" d="M161.83,78.26h.92v1.19a1.39,1.39,0,1,0,2.76-.26v-2.3a1.38,1.38,0,0,0-1.38-1.38h-2.29a1.38,1.38,0,0,0-1.38,1.38A1.37,1.37,0,0,0,161.83,78.26Z" transform="translate(-23.84 -49.84)"/><path class="g" d="M150.63,78.26h4.3a1.38,1.38,0,0,0-.26-2.75h-4a1.38,1.38,0,0,0-1.38,1.38h0A1.38,1.38,0,0,0,150.63,78.26Z" transform="translate(-23.84 -49.84)"/><path class="g" d="M139.43,78.26h4.31a1.38,1.38,0,0,0-.26-2.75h-4a1.38,1.38,0,0,0-1.38,1.38h0A1.37,1.37,0,0,0,139.43,78.26Z" transform="translate(-23.84 -49.84)"/><path class="g" d="M128.23,78.26h4.3a1.38,1.38,0,1,0-.26-2.75h-4a1.38,1.38,0,1,0,0,2.75Z" transform="translate(-23.84 -49.84)"/><path class="g" d="M118.85,78.26h2.46a1.38,1.38,0,1,0-.26-2.75h-2.19a1.38,1.38,0,0,0-1.38,1.38A1.37,1.37,0,0,0,118.85,78.26Z" transform="translate(-23.84 -49.84)"/><path class="g" d="M106.8,78.26h4.3a1.38,1.38,0,0,0-.26-2.75h-4a1.38,1.38,0,0,0-1.38,1.38h0A1.38,1.38,0,0,0,106.8,78.26Z" transform="translate(-23.84 -49.84)"/><path class="g" d="M95.6,78.26h4.31a1.38,1.38,0,0,0-.26-2.75H95.6a1.38,1.38,0,0,0-1.38,1.38h0A1.37,1.37,0,0,0,95.6,78.26Z" transform="translate(-23.84 -49.84)"/><path class="g" d="M84.4,78.26h4.3a1.38,1.38,0,1,0-.26-2.75h-4a1.38,1.38,0,1,0,0,2.75Z" transform="translate(-23.84 -49.84)"/><path class="g" d="M80.81,104.26h29a1.38,1.38,0,0,0,0-2.75h-29a1.38,1.38,0,0,0,0,2.75Z" transform="translate(-23.84 -49.84)"/><path class="g" d="M124.71,111.24h-62A1.39,1.39,0,0,0,63,114h61.72a1.13,1.13,0,0,0,.26,0,1.39,1.39,0,0,0-.26-2.76Z" transform="translate(-23.84 -49.84)"/><path class="g" d="M124.71,120.79h-62a1.39,1.39,0,0,0,.26,2.76h61.72a1.13,1.13,0,0,0,.26,0,1.39,1.39,0,0,0-.26-2.76Z" transform="translate(-23.84 -49.84)"/><path class="g" d="M59.52,66.9a13.16,13.16,0,1,0,0,18.61A13.17,13.17,0,0,0,59.52,66.9ZM42.28,84.16a11.23,11.23,0,1,1,15.88,0A11.23,11.23,0,0,1,42.28,84.16Z" transform="translate(-23.84 -49.84)"/><circle class="g" cx="69.69" cy="160.05" r="30.01"/><path class="f" d="M105.84,206.49a12.58,12.58,0,0,0-1.39-3.79l3.1-3.1-4.18-4.18-2.91,2.91a13.45,13.45,0,0,0-4-1.83v-3.91H90.57v3.72A12.87,12.87,0,0,0,86.3,198l-2.58-2.59-4.25,4.25,2.59,2.58a13.59,13.59,0,0,0-1.68,4.26H76.66v5.93h3.91a13.17,13.17,0,0,0,1.82,4l-2.93,2.93,4.18,4.18,3.12-3.12a12.6,12.6,0,0,0,3.79,1.4v4.54H96.5v-4.71a12.43,12.43,0,0,0,3.44-1.48l3.37,3.37,4.25-4.25-3.37-3.37a12.55,12.55,0,0,0,1.48-3.46h4.75v-5.93Zm-7.19,8.08a7.87,7.87,0,1,1,0-11.13A7.86,7.86,0,0,1,98.65,214.57Z" transform="translate(-23.84 -49.84)"/></svg>