<svg xmlns="http://www.w3.org/2000/svg" width="254.73" height="181.73" viewBox="0 0 254.73 181.73"><defs><style>.a{opacity:0.35;}.b{fill:#b9e3eb;}.c{fill:#47a8b5;}.d,.h,.i{fill:#fff;}.d{opacity:0.5;}.e{fill:#f47523;}.f{fill:#e2e2e5;}.g{fill:#3e4449;}.h{fill-rule:evenodd;}</style></defs><title>java-docs</title><g class="a"><path class="b" d="M28.52,180.14s71,67.29,134.32,53.23,102.25-91.22,108.85-117.6-19.44-73.55-72.43-59.71S-19.17,124.29,28.52,180.14Z" transform="translate(-17.97 -53.57)"/></g><rect class="c" x="61.74" y="29.41" width="157.96" height="13.98"/><rect class="d" x="61.74" y="43.38" width="158.54" height="104.05"/><polygon class="b" points="12.2 131.39 12.2 124.26 17.13 123 52.83 124.29 57.69 118.73 78.95 120.18 81.89 122.64 79.86 169.84 80.97 172.42 78.95 172.42 17.13 174.08 12.88 173.22 11.18 169.84 12.17 132.76 12.2 131.39"/><path class="e" d="M218,125a15,15,0,0,0-1.66-4.51l3.69-3.69-5-5-3.46,3.46a15.88,15.88,0,0,0-4.71-2.18v-4.65h-7.06v4.43a15.29,15.29,0,0,0-5.08,2l-3.08-3.07-5,5.05,3.08,3.07a16.07,16.07,0,0,0-2,5.07h-4.43v7.05h4.65a15.39,15.39,0,0,0,2.17,4.71l-3.49,3.49,5,5,3.71-3.72a15,15,0,0,0,4.5,1.67v5.4h7.06V143a14.86,14.86,0,0,0,4.09-1.75l4,4,5-5.06-4-4a15.1,15.1,0,0,0,1.77-4.12h5.64V125Zm-8.56,9.6a9.36,9.36,0,1,1,0-13.24A9.36,9.36,0,0,1,209.39,134.59Z" transform="translate(-17.97 -53.57)"/><path class="f" d="M142,164.44a14.42,14.42,0,0,0-1.55-4.2l3.44-3.44-4.64-4.64L136,155.38a14.57,14.57,0,0,0-4.39-2V149H125v4.13A14.26,14.26,0,0,0,120.3,155l-2.87-2.87-4.71,4.71,2.87,2.87a15.3,15.3,0,0,0-1.85,4.73l-4.13,0V171H114a14.82,14.82,0,0,0,2,4.39l-3.25,3.25,4.64,4.65,3.47-3.47a13.79,13.79,0,0,0,4.2,1.56v5h6.58v-5.24a13.8,13.8,0,0,0,3.82-1.63l3.74,3.74,4.71-4.72-3.74-3.74a14,14,0,0,0,1.65-3.84h5.26v-6.59Zm-8,9a8.74,8.74,0,1,1,0-12.36A8.73,8.73,0,0,1,134,173.41Z" transform="translate(-17.97 -53.57)"/><path class="g" d="M88.61,93a4,4,0,1,0-3.94-4A4,4,0,0,0,88.61,93Zm0-5.43a1.48,1.48,0,1,1-1.48,1.48A1.48,1.48,0,0,1,88.61,87.61Z" transform="translate(-17.97 -53.57)"/><path class="g" d="M99.53,93a4,4,0,1,0-4-4A3.95,3.95,0,0,0,99.53,93Zm0-5.43a1.48,1.48,0,1,1-1.48,1.48A1.48,1.48,0,0,1,99.53,87.61Z" transform="translate(-17.97 -53.57)"/><path class="g" d="M198.87,85.44H114.22a1.24,1.24,0,1,0,0,2.47h84.65a1.24,1.24,0,1,0,0-2.47Z" transform="translate(-17.97 -53.57)"/><path class="g" d="M159.75,90.87H114.22a1.23,1.23,0,1,0,0,2.46h45.53a1.23,1.23,0,1,0,0-2.46Z" transform="translate(-17.97 -53.57)"/><path class="g" d="M240.22,97a1.06,1.06,0,0,0-.09-.4V86.51a6,6,0,0,0-6-6h-149a6.38,6.38,0,0,0-6.37,6.38v84.9H77.26a7.93,7.93,0,0,0-6.88,4,.88.88,0,0,0-.29-.06H32.22A4.3,4.3,0,0,0,27.93,180v43.87a4.3,4.3,0,0,0,4.29,4.29h63a4.29,4.29,0,0,0,4.29-4.29v-20.4h134a6.53,6.53,0,0,0,6.59-6.47V97.44A1.12,1.12,0,0,0,240.22,97ZM85.08,83H107V95.64a1.24,1.24,0,0,0,0,.16H81.17V86.89A3.92,3.92,0,0,1,85.08,83ZM30,180a2.25,2.25,0,0,1,2.24-2.24H69.28L68.05,180a5.48,5.48,0,0,1-4.83,2.88H30Zm67.48,3.92v40a2.25,2.25,0,0,1-2.24,2.24h-63A2.25,2.25,0,0,1,30,223.87V185H63.22A7.53,7.53,0,0,0,69.85,181l2.22-4.07a5.9,5.9,0,0,1,5.19-3.09h3.5l.41.13v-.13h14a2.25,2.25,0,0,1,2.24,2.24ZM233.54,201h-134V176.08a4.3,4.3,0,0,0-4.29-4.29h-14V98.27H223a1.24,1.24,0,0,0,0-2.47H109.41a1.24,1.24,0,0,0,0-.16V83H234.09a3.56,3.56,0,0,1,3.58,3.53V95.8h-3.62a1.24,1.24,0,0,0,0,2.47h3.62V197A4.07,4.07,0,0,1,233.54,201Z" transform="translate(-17.97 -53.57)"/><path class="g" d="M195.31,120.26a10.55,10.55,0,1,0,14.93,0A10.57,10.57,0,0,0,195.31,120.26Zm13.18,13.17a8.08,8.08,0,1,1,0-11.43A8,8,0,0,1,208.49,133.43Z" transform="translate(-17.97 -53.57)"/><path class="g" d="M224.15,123.91a1.16,1.16,0,0,0-.87-.33h0l-4.42,0a16.67,16.67,0,0,0-1.12-3.06l3-3a1.23,1.23,0,0,0,0-1.74l-5-5a1.23,1.23,0,0,0-1.74,0l-2.75,2.75a17,17,0,0,0-3.28-1.51v-3.71a1.23,1.23,0,0,0-.36-.87,1.27,1.27,0,0,0-.88-.36h-7a1.23,1.23,0,0,0-1.23,1.23v3.43a15.9,15.9,0,0,0-3.62,1.44l-2.39-2.39a1.19,1.19,0,0,0-.87-.37,1.23,1.23,0,0,0-.87.37l-5,5a1.23,1.23,0,0,0,0,1.74l2.4,2.41a18.41,18.41,0,0,0-1.42,3.61l-3.43,0h0a1.2,1.2,0,0,0-.87.33,1.13,1.13,0,0,0-.37.84v7a1.2,1.2,0,0,0,.36.86,1.21,1.21,0,0,0,.87.33h0l3.71,0a16.67,16.67,0,0,0,1.5,3.31l-2.77,2.77a1.23,1.23,0,0,0,0,1.74l5,5a1.24,1.24,0,0,0,1.75,0l3-3.06a16.55,16.55,0,0,0,3,1.12v4.39a1.23,1.23,0,0,0,1.24,1.22l7,0h0a1.24,1.24,0,0,0,.88-.33,1.18,1.18,0,0,0,.36-.85v-4.66a15.4,15.4,0,0,0,2.63-1.12l3.32,3.32a1.24,1.24,0,0,0,1.75,0l5-5a1.24,1.24,0,0,0,0-1.75l-3.32-3.33a15.43,15.43,0,0,0,1.14-2.67l4.69,0h0a1.2,1.2,0,0,0,.87-.33,1.18,1.18,0,0,0,.36-.85v-7A1.18,1.18,0,0,0,224.15,123.91Zm-6.48,6.57h0a1.25,1.25,0,0,0-1.19.94,13.77,13.77,0,0,1-1.62,3.79,1.23,1.23,0,0,0,.18,1.52l3.12,3.12-3.29,3.28L211.76,140a1.25,1.25,0,0,0-1.53-.17,13.33,13.33,0,0,1-3.74,1.6,1.24,1.24,0,0,0-.91,1.2V147H201v-4.14a1.22,1.22,0,0,0-1-1.21,13.79,13.79,0,0,1-4.12-1.52,1.23,1.23,0,0,0-1.47.2l-2.83,2.82-3.2-3.21,2.59-2.6a1.24,1.24,0,0,0,.15-1.57,14.26,14.26,0,0,1-2-4.33,1.27,1.27,0,0,0-1.19-.94h0l-3.39.05V126l3.17,0h0a1.25,1.25,0,0,0,1.21-1,15,15,0,0,1,1.83-4.67,1.24,1.24,0,0,0-.18-1.51l-2.19-2.19,3.28-3.28,2.19,2.19a1.24,1.24,0,0,0,1.52.18,13.86,13.86,0,0,1,4.65-1.85,1.23,1.23,0,0,0,1-1.21v-3.17h4.55v3.4a1.24,1.24,0,0,0,.91,1.19,14.29,14.29,0,0,1,4.31,2,1.24,1.24,0,0,0,1.57-.15l2.57-2.57,3.21,3.21-2.8,2.81a1.23,1.23,0,0,0-.2,1.48,14,14,0,0,1,1.51,4.14,1.26,1.26,0,0,0,1.21,1h0l4.17,0v4.51Z" transform="translate(-17.97 -53.57)"/><path class="g" d="M121.82,161.5a9.19,9.19,0,1,0,13,0A9.18,9.18,0,0,0,121.82,161.5Zm11.24,11.25a6.72,6.72,0,1,1,0-9.51A6.72,6.72,0,0,1,133.06,172.75Z" transform="translate(-17.97 -53.57)"/><path class="g" d="M149.15,163.58a1.24,1.24,0,0,0-.87-.38h0l-4.42,0a15.15,15.15,0,0,0-1.11-3l3-3a1.21,1.21,0,0,0,0-1.74l-5-5a1.21,1.21,0,0,0-1.74,0l-2.74,2.74a17,17,0,0,0-3.28-1.51V148a1.23,1.23,0,0,0-.36-.87,1.24,1.24,0,0,0-.87-.36h-7a1.24,1.24,0,0,0-.87.36,1.23,1.23,0,0,0-.36.87v3.43A15.79,15.79,0,0,0,120,152.9l-2.39-2.39a1.19,1.19,0,0,0-.87-.37,1.23,1.23,0,0,0-.87.36l-5,5a1.23,1.23,0,0,0,0,1.74l2.4,2.39a17.91,17.91,0,0,0-1.42,3.58l-3.43,0h0a1.26,1.26,0,0,0-.87.39,1.32,1.32,0,0,0-.36.91v7a1.23,1.23,0,0,0,.36.87,1.26,1.26,0,0,0,.88.35h3.71a17.72,17.72,0,0,0,1.5,3.29l-2.77,2.77a1.24,1.24,0,0,0,0,1.75l4.95,5a1.27,1.27,0,0,0,.88.36,1.24,1.24,0,0,0,.87-.36l3.05-3.05a16.55,16.55,0,0,0,3,1.12V188a1.23,1.23,0,0,0,1.23,1.23h7a1.23,1.23,0,0,0,.87-.35,1.22,1.22,0,0,0,.36-.86v-4.67a15.4,15.4,0,0,0,2.63-1.12l3.32,3.32a1.24,1.24,0,0,0,1.75,0l5-5a1.21,1.21,0,0,0,0-1.74l-3.32-3.32a15.77,15.77,0,0,0,1.14-2.67h4.69a1.27,1.27,0,0,0,.88-.36,1.23,1.23,0,0,0,.36-.87v-7A1.26,1.26,0,0,0,149.15,163.58Zm-6.48,6.69h0a1.22,1.22,0,0,0-1.19.91,13.93,13.93,0,0,1-1.61,3.77,1.22,1.22,0,0,0,.17,1.52l3.12,3.12-3.28,3.28-3.12-3.11a1.24,1.24,0,0,0-1.53-.18,13.39,13.39,0,0,1-3.73,1.6,1.25,1.25,0,0,0-.92,1.2v4.34H126v-4.14a1.23,1.23,0,0,0-1-1.21,13.63,13.63,0,0,1-4.11-1.52,1.24,1.24,0,0,0-1.48.2l-2.82,2.82-3.21-3.21,2.59-2.59a1.24,1.24,0,0,0,.15-1.57,14.45,14.45,0,0,1-2-4.32,1.22,1.22,0,0,0-1.19-.91h-3.4v-4.57l3.17,0h0a1.19,1.19,0,0,0,1.21-.95,15.11,15.11,0,0,1,1.83-4.61,1.24,1.24,0,0,0-.18-1.51l-2.19-2.19,3.28-3.28,2.19,2.19a1.23,1.23,0,0,0,1.52.18,14.07,14.07,0,0,1,4.65-1.85,1.22,1.22,0,0,0,1-1.21v-3.17h4.55v3.4a1.23,1.23,0,0,0,.91,1.19,14.18,14.18,0,0,1,4.31,2,1.24,1.24,0,0,0,1.57-.15l2.57-2.57,3.21,3.21-2.8,2.79a1.23,1.23,0,0,0-.2,1.47,13.58,13.58,0,0,1,1.51,4.11,1.21,1.21,0,0,0,1.21,1h0l4.17,0v4.58Z" transform="translate(-17.97 -53.57)"/><path class="g" d="M149.64,117.25a1.23,1.23,0,0,0-1.23-1.23H102.22a1.23,1.23,0,1,0,0,2.46h46.19A1.23,1.23,0,0,0,149.64,117.25Z" transform="translate(-17.97 -53.57)"/><path class="g" d="M156.63,128.51H136.74a1.24,1.24,0,1,0,0,2.47h19.89a1.24,1.24,0,0,0,0-2.47Z" transform="translate(-17.97 -53.57)"/><path class="g" d="M216.63,181.28H185.89a1.24,1.24,0,1,0,0,2.47h30.74a1.24,1.24,0,0,0,0-2.47Z" transform="translate(-17.97 -53.57)"/><path class="g" d="M183.59,168.62H164.85a1.24,1.24,0,1,0,0,2.47h18.74a1.24,1.24,0,0,0,0-2.47Z" transform="translate(-17.97 -53.57)"/><path class="g" d="M200.35,171.09a1.24,1.24,0,1,0,0-2.47h-6.41a1.24,1.24,0,0,0,0,2.47Z" transform="translate(-17.97 -53.57)"/><path class="g" d="M59.13,220.87H55a1,1,0,1,0,0,2h4.1a1,1,0,1,0,0-2Z" transform="translate(-17.97 -53.57)"/><path class="g" d="M74,220.87H65.53a1,1,0,0,0,0,2H74a1,1,0,1,0,0-2Z" transform="translate(-17.97 -53.57)"/><path class="g" d="M93.46,211.26a1,1,0,0,0-1,1v8.21a.37.37,0,0,1-.37.37H79.53a1,1,0,0,0,0,2H92.07a2.42,2.42,0,0,0,2.42-2.42v-8.21A1,1,0,0,0,93.46,211.26Z" transform="translate(-17.97 -53.57)"/><path class="g" d="M58.58,97H62.5a1.19,1.19,0,1,0,0-2.38H58.58a1.19,1.19,0,0,0,0,2.38Z" transform="translate(-17.97 -53.57)"/><path class="g" d="M68.13,97h2a1.19,1.19,0,1,0,0-2.38h-2a1.19,1.19,0,1,0,0,2.38Z" transform="translate(-17.97 -53.57)"/><circle class="e" cx="11.62" cy="129.23" r="11.62"/><path class="h" d="M29.59,175.9a2.22,2.22,0,0,1,2,1.22,2.79,2.79,0,0,0-.54.42,2,2,0,0,1-2.84,0,2.79,2.79,0,0,0-.54-.42A2.22,2.22,0,0,1,29.59,175.9Zm2.16,1.94a1.93,1.93,0,0,1,0,.24,2.55,2.55,0,0,0,2.55,2.54h.23a2.43,2.43,0,0,1-.2.25,2.73,2.73,0,0,0,0,3.85h0a1.16,1.16,0,0,1,.2.25h-.23a2.55,2.55,0,0,0-2.55,2.55,1.85,1.85,0,0,1,0,.23,1.64,1.64,0,0,1-.25-.21,2.71,2.71,0,0,0-3.84,0h0a1.64,1.64,0,0,1-.25.21,1.85,1.85,0,0,1,0-.23A2.55,2.55,0,0,0,24.85,185h-.24l.2-.25a2.71,2.71,0,0,0,0-3.84h0a1.69,1.69,0,0,1-.2-.25h.24a2.54,2.54,0,0,0,2.54-2.54,1.93,1.93,0,0,1,0-.24l.25.21a2.72,2.72,0,0,0,3.85,0h0Zm3.52,3a2.17,2.17,0,0,1,1,2.93,2.21,2.21,0,0,1-1,1,2.71,2.71,0,0,0-.41-.55,2,2,0,0,1,0-2.83A3,3,0,0,0,35.27,180.85Zm-3.72,7.64a2.19,2.19,0,0,1-2.93,1,2.16,2.16,0,0,1-1-1,2.41,2.41,0,0,0,.54-.41,2,2,0,0,1,2.84,0A2.41,2.41,0,0,0,31.55,188.49Zm-7.65-3.72a2.19,2.19,0,0,1,0-3.92,3.57,3.57,0,0,0,.42.54,1.92,1.92,0,0,1,.58,1.42,2,2,0,0,1-.58,1.41A3.2,3.2,0,0,0,23.9,184.77Zm5.69,5.3a2.51,2.51,0,0,0,2.27-1.42,2.78,2.78,0,0,0,1.06.21,2.74,2.74,0,0,0,2.73-2.72,3,3,0,0,0-.22-1.06,2.52,2.52,0,0,0,1.16-3.39,2.56,2.56,0,0,0-1.16-1.16,2.91,2.91,0,0,0,.22-1.06,2.74,2.74,0,0,0-2.73-2.72,2.78,2.78,0,0,0-1.06.21,2.52,2.52,0,0,0-4.55,0,2.73,2.73,0,0,0-3.57,3.57,2.54,2.54,0,0,0-1.16,3.39,2.6,2.6,0,0,0,1.16,1.16,2.78,2.78,0,0,0-.21,1.06,2.73,2.73,0,0,0,3.78,2.51,2.54,2.54,0,0,0,2.28,1.42Zm2.5-2.11a3.15,3.15,0,0,0,0-.44,2.19,2.19,0,0,1,2.19-2.18,3.11,3.11,0,0,0,.43,0,1.71,1.71,0,0,1,.18.83,2,2,0,0,1-.58,1.42,2,2,0,0,1-2.25.4Zm2.65-7.65a2.09,2.09,0,0,0-.43,0,2.19,2.19,0,0,1-2.19-2.18,3.15,3.15,0,0,0,0-.44,2,2,0,0,1,.83-.18,2,2,0,0,1,2,2A1.74,1.74,0,0,1,34.74,180.31Zm-7.65-2.66a3.13,3.13,0,0,0,0,.44,2.18,2.18,0,0,1-2.18,2.18,2.18,2.18,0,0,0-.44,0,2,2,0,0,1,2.66-2.66Zm-2.66,7.66a3.25,3.25,0,0,0,.44,0,2.18,2.18,0,0,1,2.18,2.18,3.13,3.13,0,0,0,0,.44,1.87,1.87,0,0,1-.84.18,2,2,0,0,1-2-2h0A2,2,0,0,1,24.43,185.31Z" transform="translate(-17.97 -53.57)"/><path class="g" d="M50.91,108.38a1.2,1.2,0,0,1-1.2-1.2v-4.09a1.2,1.2,0,0,1,2.39,0v4.09A1.19,1.19,0,0,1,50.91,108.38Z" transform="translate(-17.97 -53.57)"/><path class="g" d="M50.91,118.27a1.2,1.2,0,0,1-1.2-1.2V113a1.2,1.2,0,0,1,2.39,0v4.09A1.19,1.19,0,0,1,50.91,118.27Z" transform="translate(-17.97 -53.57)"/><path class="g" d="M50.91,128.16a1.2,1.2,0,0,1-1.2-1.2v-4.09a1.2,1.2,0,0,1,2.39,0V127A1.19,1.19,0,0,1,50.91,128.16Z" transform="translate(-17.97 -53.57)"/><path class="g" d="M50.91,157.83a1.2,1.2,0,0,1-1.2-1.2v-4.09a1.2,1.2,0,0,1,2.39,0v4.09A1.19,1.19,0,0,1,50.91,157.83Z" transform="translate(-17.97 -53.57)"/><path class="g" d="M50.91,138.05a1.2,1.2,0,0,1-1.2-1.2v-4.09a1.2,1.2,0,0,1,2.39,0v4.09A1.19,1.19,0,0,1,50.91,138.05Z" transform="translate(-17.97 -53.57)"/><path class="g" d="M50.91,167.72a1.2,1.2,0,0,1-1.2-1.2v-4.09a1.2,1.2,0,0,1,2.39,0v4.09A1.19,1.19,0,0,1,50.91,167.72Z" transform="translate(-17.97 -53.57)"/><path class="g" d="M50.91,147.94a1.2,1.2,0,0,1-1.2-1.2v-4.09a1.2,1.2,0,0,1,2.39,0v4.09A1.19,1.19,0,0,1,50.91,147.94Z" transform="translate(-17.97 -53.57)"/><path class="g" d="M50.91,99.17A1.19,1.19,0,0,0,52.1,98V97h1a1.19,1.19,0,1,0,0-2.38H50.91a1.19,1.19,0,0,0-1.2,1.19V98A1.19,1.19,0,0,0,50.91,99.17Z" transform="translate(-17.97 -53.57)"/><circle class="g" cx="221.74" cy="140.85" r="30.78"/><path class="i" d="M230.52,185.09a1.45,1.45,0,0,0-2,0l-8.31,8.31a1.45,1.45,0,0,0,0,2l8.31,8.31a1.46,1.46,0,0,0,1,.42,1.44,1.44,0,0,0,1-2.45l-7.3-7.3,7.3-7.3A1.44,1.44,0,0,0,230.52,185.09Z" transform="translate(-17.97 -53.57)"/><path class="i" d="M259.25,193.4l-8.32-8.31a1.47,1.47,0,0,0-2,0,1.44,1.44,0,0,0,0,2l7.3,7.3-7.3,7.3a1.44,1.44,0,0,0,0,2,1.46,1.46,0,0,0,1,.42,1.42,1.42,0,0,0,1-.42l8.32-8.31a1.45,1.45,0,0,0,0-2Z" transform="translate(-17.97 -53.57)"/><path class="i" d="M244.15,184.8a1.42,1.42,0,0,0-1.09,0,1.44,1.44,0,0,0-.81.74l-7.69,16.63a1.45,1.45,0,0,0,.71,1.91,1.38,1.38,0,0,0,.6.13,1.44,1.44,0,0,0,1.3-.83l7.69-16.63a1.45,1.45,0,0,0,0-1.1A1.42,1.42,0,0,0,244.15,184.8Z" transform="translate(-17.97 -53.57)"/></svg>