<svg xmlns="http://www.w3.org/2000/svg" width="253.01" height="166" viewBox="0 0 253.01 166"><defs><style>.a{opacity:0.35;}.b{fill:#b9e3eb;}.c,.h{fill:#fff;}.c{opacity:0.5;}.d{fill:#47a8b5;}.e{fill:#e2e2e5;}.f{fill:#3e4449;}.g{fill:#f47523;}</style></defs><title>project-planning</title><g class="a"><path class="b" d="M265.89,141.5s-53.81-78.66-117-78.27S32.78,129.13,21.08,152.9s3.42,74,56.72,71.73S299.85,204.49,265.89,141.5Z" transform="translate(-17.36 -63.23)"/></g><rect class="c" x="52.9" y="11.85" width="168.45" height="99.91"/><rect class="c" x="149.5" y="25.69" width="91.88" height="70.85"/><rect class="d" x="149.5" y="25.69" width="92.38" height="7.97"/><rect class="e" x="52.62" y="111.76" width="168.74" height="14.39"/><circle class="f" cx="52.62" cy="61.47" r="27.52"/><circle class="g" cx="163.22" cy="74.43" r="2.95"/><circle class="g" cx="163.22" cy="61.2" r="2.95"/><circle class="g" cx="163.13" cy="87.41" r="2.95"/><path class="f" d="M153.85,179.09a3.74,3.74,0,1,0,3.74,3.74A3.75,3.75,0,0,0,153.85,179.09Zm0,5.26a1.52,1.52,0,1,1,1.52-1.52A1.52,1.52,0,0,1,153.85,184.35Z" transform="translate(-17.36 -63.23)"/><path class="f" d="M245.31,102.86a4.58,4.58,0,0,0-4.5,3.78H227.25a4.58,4.58,0,0,0-9,0H204.67a4.57,4.57,0,0,0-9,0H182.1a4.62,4.62,0,1,0,0,1.56h13.55a4.57,4.57,0,0,0,9,0h13.55a4.57,4.57,0,0,0,9,0H240.8a4.58,4.58,0,1,0,4.51-5.34Zm-67.72,7.62a3,3,0,1,1,3-3A3,3,0,0,1,177.59,110.48Zm22.57,0a3,3,0,0,1-3-3,.43.43,0,0,0,0-.11s0,0,0-.08a3,3,0,1,1,3,3.14Zm22.58,0a3,3,0,1,1,3-3.27.78.78,0,0,0,0,.21.59.59,0,0,0,.05.23A3,3,0,0,1,222.74,110.48Zm22.57,0a3,3,0,1,1,3-3A3,3,0,0,1,245.31,110.48Z" transform="translate(-17.36 -63.23)"/><path class="f" d="M177.59,105.59a1.86,1.86,0,1,0,1.86,1.86A1.86,1.86,0,0,0,177.59,105.59Z" transform="translate(-17.36 -63.23)"/><path class="f" d="M200.18,105.59a1.86,1.86,0,1,0,1.86,1.86A1.86,1.86,0,0,0,200.18,105.59Z" transform="translate(-17.36 -63.23)"/><path class="f" d="M193.71,92.37h48.54a.78.78,0,0,0,0-1.56H193.71a.78.78,0,0,0,0,1.56Z" transform="translate(-17.36 -63.23)"/><path class="f" d="M192.93,94.71a.77.77,0,0,0,.78.78h59.73a.78.78,0,1,0,0-1.56H193.71A.77.77,0,0,0,192.93,94.71Z" transform="translate(-17.36 -63.23)"/><path class="f" d="M171.08,90.73a2.33,2.33,0,1,0,2.32,2.32A2.32,2.32,0,0,0,171.08,90.73Z" transform="translate(-17.36 -63.23)"/><path class="f" d="M177.85,90.73a2.33,2.33,0,1,0,2.33,2.32A2.32,2.32,0,0,0,177.85,90.73Z" transform="translate(-17.36 -63.23)"/><path class="f" d="M184.63,90.73A2.33,2.33,0,1,0,187,93.05,2.33,2.33,0,0,0,184.63,90.73Z" transform="translate(-17.36 -63.23)"/><path class="f" d="M179.5,136.87a.6.6,0,0,0-.84.85l1.28,1.28a.59.59,0,0,0,.85,0l3.05-3.05a.6.6,0,1,0-.84-.85l-2.63,2.64Z" transform="translate(-17.36 -63.23)"/><path class="f" d="M183.66,137.22a.6.6,0,0,0-.6.6,2.58,2.58,0,1,1-2.58-2.58.59.59,0,0,0,.6-.59.6.6,0,0,0-.6-.6,3.77,3.77,0,1,0,3.78,3.77A.6.6,0,0,0,183.66,137.22Z" transform="translate(-17.36 -63.23)"/><path class="f" d="M186.74,136.94h43.78a.6.6,0,0,0,0-1.19H186.74a.6.6,0,0,0,0,1.19Z" transform="translate(-17.36 -63.23)"/><path class="f" d="M240.17,138.82H186.74a.6.6,0,0,0,0,1.2h53.43a.6.6,0,0,0,0-1.2Z" transform="translate(-17.36 -63.23)"/><path class="f" d="M179.5,123.5a.6.6,0,1,0-.84.85l1.28,1.29a.62.62,0,0,0,.85,0l3.05-3.06a.59.59,0,1,0-.84-.84l-2.63,2.63Z" transform="translate(-17.36 -63.23)"/><path class="f" d="M183.66,123.86a.59.59,0,0,0-.6.59,2.58,2.58,0,1,1-2.58-2.57.6.6,0,0,0,0-1.2,3.78,3.78,0,1,0,3.78,3.77A.59.59,0,0,0,183.66,123.86Z" transform="translate(-17.36 -63.23)"/><path class="f" d="M186.74,123.58h43.78a.6.6,0,0,0,0-1.2H186.74a.6.6,0,0,0,0,1.2Z" transform="translate(-17.36 -63.23)"/><path class="f" d="M240.17,125.45H186.74a.6.6,0,0,0,0,1.2h53.43a.6.6,0,0,0,0-1.2Z" transform="translate(-17.36 -63.23)"/><path class="f" d="M179.5,149.92a.6.6,0,1,0-.84.85l1.28,1.29a.62.62,0,0,0,.85,0l3.05-3.06a.59.59,0,1,0-.84-.84l-2.63,2.63Z" transform="translate(-17.36 -63.23)"/><path class="f" d="M183.66,150.28a.6.6,0,0,0-.6.6,2.58,2.58,0,1,1-2.58-2.58.6.6,0,0,0,0-1.2,3.78,3.78,0,1,0,3.78,3.78A.6.6,0,0,0,183.66,150.28Z" transform="translate(-17.36 -63.23)"/><path class="f" d="M186.74,150h43.78a.6.6,0,0,0,0-1.2H186.74a.6.6,0,0,0,0,1.2Z" transform="translate(-17.36 -63.23)"/><path class="f" d="M240.17,151.89H186.74a.57.57,0,0,0-.56.59.58.58,0,0,0,.56.6h53.43a.58.58,0,0,0,.55-.6A.57.57,0,0,0,240.17,151.89Z" transform="translate(-17.36 -63.23)"/><path class="f" d="M123.69,131.84h16.43a1,1,0,0,0,0-1.94H123.69a1,1,0,0,0,0,1.94Z" transform="translate(-17.36 -63.23)"/><path class="f" d="M141.08,111.44a1,1,0,0,0-1-1H123.69a1,1,0,0,0,0,1.94h16.43A1,1,0,0,0,141.08,111.44Z" transform="translate(-17.36 -63.23)"/><path class="f" d="M132.94,121.15a1,1,0,0,0,1,1h15.31a1,1,0,1,0,0-1.93H133.91A1,1,0,0,0,132.94,121.15Z" transform="translate(-17.36 -63.23)"/><path class="f" d="M117.07,122.12h5.8a1,1,0,0,0,0-1.93h-5.8a1,1,0,1,0,0,1.93Z" transform="translate(-17.36 -63.23)"/><path class="f" d="M148.53,149.33H128.25a1,1,0,0,0,0,1.94h20.28a1,1,0,0,0,0-1.94Z" transform="translate(-17.36 -63.23)"/><path class="f" d="M118.73,149.33h-5.8a1,1,0,0,0,0,1.94h5.8a1,1,0,0,0,0-1.94Z" transform="translate(-17.36 -63.23)"/><path class="f" d="M122.87,102.69h19.32a1,1,0,0,0,0-1.93H122.87a1,1,0,1,0,0,1.93Z" transform="translate(-17.36 -63.23)"/><path class="f" d="M107.13,102.69h6.63a1,1,0,0,0,0-1.93h-6.63a1,1,0,0,0,0,1.93Z" transform="translate(-17.36 -63.23)"/><path class="f" d="M143.15,140.58a1,1,0,0,0-1-1H122.87a1,1,0,1,0,0,1.93h19.32A1,1,0,0,0,143.15,140.58Z" transform="translate(-17.36 -63.23)"/><path class="f" d="M107.13,141.55h6.63a1,1,0,0,0,0-1.93h-6.63a1,1,0,0,0,0,1.93Z" transform="translate(-17.36 -63.23)"/><path class="f" d="M260.63,145.85V91.66a4.3,4.3,0,0,0-4.29-4.3H239.76V80.65A7.81,7.81,0,0,0,232,72.86H75.83A7.8,7.8,0,0,0,68,80.65V94.77a1,1,0,0,0,0,.23,29.58,29.58,0,0,0,0,59v30a7.8,7.8,0,0,0,7.79,7.79h57.42v30.94H117.4a1.11,1.11,0,1,0,0,2.22h73.53a1.11,1.11,0,1,0,0-2.22H174.77V191.84H232a7.81,7.81,0,0,0,7.79-7.79V161.77a1,1,0,0,0-.09-.43h16.67a4.3,4.3,0,0,0,4.29-4.3Zm-4.29-56.93a2.74,2.74,0,0,1,2.73,2.74V97H191.14v-8h65.2Zm-89.49,5.4V91.66a2.74,2.74,0,0,1,2.74-2.74h20v8H166.85ZM70.26,80.65a5.58,5.58,0,0,1,5.57-5.57H232a5.58,5.58,0,0,1,5.57,5.57v6.71H169.59a4.31,4.31,0,0,0-4.3,4.3V157a4.31,4.31,0,0,0,4.3,4.3h68a1,1,0,0,0-.09.43V174H70.26V154.11a29.59,29.59,0,0,0,0-59.17,1,1,0,0,0,0-.17ZM42.61,124.52A27.37,27.37,0,1,1,70,151.9,27.4,27.4,0,0,1,42.61,124.52Zm129.94,98.26H135.47V191.84h37.08ZM232,189.62H75.83a5.58,5.58,0,0,1-5.57-5.57v-7.86H237.54v7.86A5.58,5.58,0,0,1,232,189.62Zm27.1-59.9V157a2.74,2.74,0,0,1-2.73,2.74H169.59a2.74,2.74,0,0,1-2.74-2.74V98.51h92.22v29.06" transform="translate(-17.36 -63.23)"/><rect class="h" x="27.94" y="134.98" width="42.41" height="29.97"/><path class="d" d="M85.81,187.21H47.14a2.25,2.25,0,0,0-2.25,2.25v8H88.06v-8A2.25,2.25,0,0,0,85.81,187.21Z" transform="translate(-17.36 -63.23)"/><path class="f" d="M85.12,229.23H47.81a3.69,3.69,0,0,1-3.69-3.69V189.86a3.69,3.69,0,0,1,3.69-3.69H85.12a3.69,3.69,0,0,1,3.69,3.69v35.68A3.69,3.69,0,0,1,85.12,229.23ZM47.81,187.68a2.18,2.18,0,0,0-2.18,2.18v35.68a2.19,2.19,0,0,0,2.18,2.18H85.12a2.19,2.19,0,0,0,2.18-2.18V189.86a2.18,2.18,0,0,0-2.18-2.18Z" transform="translate(-17.36 -63.23)"/><path class="f" d="M87.7,198.21H44.89a.76.76,0,0,1,0-1.51H87.7a.76.76,0,1,1,0,1.51Z" transform="translate(-17.36 -63.23)"/><path class="f" d="M78.86,211a4.42,4.42,0,1,1,4.41-4.41A4.42,4.42,0,0,1,78.86,211Zm0-7.32a2.91,2.91,0,1,0,2.9,2.91A2.92,2.92,0,0,0,78.86,203.68Z" transform="translate(-17.36 -63.23)"/><path class="f" d="M66.3,223.8a4.42,4.42,0,1,1,4.42-4.42A4.42,4.42,0,0,1,66.3,223.8Zm0-7.32a2.91,2.91,0,1,0,2.91,2.9A2.9,2.9,0,0,0,66.3,216.48Z" transform="translate(-17.36 -63.23)"/><path class="f" d="M78.86,223.8a4.42,4.42,0,1,1,4.41-4.42A4.42,4.42,0,0,1,78.86,223.8Zm0-7.32a2.91,2.91,0,1,0,2.9,2.9A2.91,2.91,0,0,0,78.86,216.48Z" transform="translate(-17.36 -63.23)"/><path class="f" d="M53.74,223.8a4.42,4.42,0,1,1,4.42-4.42A4.42,4.42,0,0,1,53.74,223.8Zm0-7.32a2.91,2.91,0,1,0,2.91,2.9A2.9,2.9,0,0,0,53.74,216.48Z" transform="translate(-17.36 -63.23)"/><path class="f" d="M66.3,211a4.42,4.42,0,1,1,4.42-4.42A4.42,4.42,0,0,1,66.3,211Zm0-7.32a2.91,2.91,0,1,0,2.91,2.9A2.9,2.9,0,0,0,66.3,203.7Z" transform="translate(-17.36 -63.23)"/><path class="f" d="M53.74,211a4.42,4.42,0,1,1,4.42-4.42A4.42,4.42,0,0,1,53.74,211Zm0-7.32a2.91,2.91,0,1,0,2.91,2.9A2.9,2.9,0,0,0,53.74,203.7Z" transform="translate(-17.36 -63.23)"/><path class="f" d="M59.41,193.51H57a.76.76,0,0,1-.76-.76v-9.36a.76.76,0,0,1,1.51,0V192h1.69a.76.76,0,0,1,0,1.51Z" transform="translate(-17.36 -63.23)"/><path class="f" d="M77,193.51H74.54a.76.76,0,0,1-.76-.76v-9.36a.75.75,0,0,1,.76-.75.74.74,0,0,1,.75.75V192H77a.76.76,0,0,1,0,1.51Z" transform="translate(-17.36 -63.23)"/><path class="f" d="M24.9,124.7A1.11,1.11,0,0,0,26,123.59v-.79H27a1.11,1.11,0,0,0,0-2.22H24.9a1.11,1.11,0,0,0-1.11,1.11v1.9A1.11,1.11,0,0,0,24.9,124.7Z" transform="translate(-17.36 -63.23)"/><path class="f" d="M24.9,161.34A1.11,1.11,0,0,0,26,160.23v-3.8a1.11,1.11,0,0,0-2.22,0v3.8A1.11,1.11,0,0,0,24.9,161.34Z" transform="translate(-17.36 -63.23)"/><path class="f" d="M24.9,152.15A1.11,1.11,0,0,0,26,151v-3.81a1.11,1.11,0,0,0-2.22,0V151A1.11,1.11,0,0,0,24.9,152.15Z" transform="translate(-17.36 -63.23)"/><path class="f" d="M24.9,188.91A1.11,1.11,0,0,0,26,187.8V184a1.11,1.11,0,0,0-2.22,0v3.8A1.11,1.11,0,0,0,24.9,188.91Z" transform="translate(-17.36 -63.23)"/><path class="f" d="M24.9,170.53A1.11,1.11,0,0,0,26,169.42v-3.8a1.11,1.11,0,0,0-2.22,0v3.8A1.11,1.11,0,0,0,24.9,170.53Z" transform="translate(-17.36 -63.23)"/><path class="f" d="M24.9,198.1A1.11,1.11,0,0,0,26,197v-3.8a1.11,1.11,0,1,0-2.22,0V197A1.11,1.11,0,0,0,24.9,198.1Z" transform="translate(-17.36 -63.23)"/><path class="f" d="M24.9,179.72A1.11,1.11,0,0,0,26,178.61v-3.8a1.11,1.11,0,0,0-2.22,0v3.8A1.11,1.11,0,0,0,24.9,179.72Z" transform="translate(-17.36 -63.23)"/><path class="f" d="M24.9,207.3A1.11,1.11,0,0,0,26,206.19v-3.81a1.11,1.11,0,1,0-2.22,0v3.81A1.11,1.11,0,0,0,24.9,207.3Z" transform="translate(-17.36 -63.23)"/><path class="f" d="M24.9,143.09A1.11,1.11,0,0,0,26,142v-3.81a1.11,1.11,0,1,0-2.22,0V142A1.11,1.11,0,0,0,24.9,143.09Z" transform="translate(-17.36 -63.23)"/><path class="f" d="M24.9,133.9A1.11,1.11,0,0,0,26,132.79V129a1.11,1.11,0,1,0-2.22,0v3.81A1.11,1.11,0,0,0,24.9,133.9Z" transform="translate(-17.36 -63.23)"/><path class="f" d="M24.9,214.11H27a1.11,1.11,0,0,0,0-2.22H26v-.95a1.11,1.11,0,1,0-2.22,0V213A1.11,1.11,0,0,0,24.9,214.11Z" transform="translate(-17.36 -63.23)"/><path class="f" d="M32,214.11h3.65a1.11,1.11,0,0,0,0-2.22H32a1.11,1.11,0,1,0,0,2.22Z" transform="translate(-17.36 -63.23)"/><path class="f" d="M40.39,214.11H44a1.11,1.11,0,0,0,0-2.22H40.39a1.11,1.11,0,1,0,0,2.22Z" transform="translate(-17.36 -63.23)"/><path class="f" d="M32,123.06h3.65a1.11,1.11,0,0,0,0-2.22H32a1.11,1.11,0,1,0,0,2.22Z" transform="translate(-17.36 -63.23)"/><path class="h" d="M87.74,112.59l-5.82-5.82a.84.84,0,0,0-1.15,0L77.53,110l-.69-.69a.82.82,0,0,0-.57-.24.8.8,0,0,0-.57.24L69,116a.82.82,0,0,0,0,1.14l.42.42L56.12,130.88a.77.77,0,0,0-.19.28L52,141.42a.82.82,0,0,0,1,1.05l10.27-3.89a.77.77,0,0,0,.28-.19L77,125.06l.42.41a.81.81,0,0,0,1.14,0l6.66-6.66a.8.8,0,0,0,0-1.14L84.5,117l3.24-3.25A.8.8,0,0,0,87.74,112.59ZM54.19,140.32l.84-2.21,1.37,1.37ZM58,138.89l-.18-.28-2-1.93-.21-.14,1.32-3.47,4.49,4.5Zm5-2.1L61,134.86,64.92,131a.8.8,0,0,0,0-1.14.81.81,0,0,0-1.14,0l-3.91,3.91-2.16-2.16,12.88-12.88,2.16,2.16-3.59,3.59a.81.81,0,0,0,0,1.15.83.83,0,0,0,1.14,0l3.59-3.6,1.93,1.93ZM81.3,120.41l-.69-.69a.81.81,0,0,0-1.14,0,.84.84,0,0,0-.24.58.82.82,0,0,0,.24.57l.69.69-2.2,2.2-7.21-7.21,2.2-2.2,4.17,4.17a.83.83,0,0,0,1.14,0,.84.84,0,0,0,.24-.58.82.82,0,0,0-.24-.57l-4.17-4.16L76.27,111l7.2,7.21Zm2.06-4.58-4.69-4.68,2.68-2.67L86,113.16Z" transform="translate(-17.36 -63.23)"/></svg>