<svg xmlns="http://www.w3.org/2000/svg" width="255.51" height="198.09" viewBox="0 0 255.51 198.09"><defs><style>.a{opacity:0.35;}.b{fill:#b9e3eb;}.c{fill:#fff;opacity:0.5;}.d{fill:#f47523;}.e{fill:none;}.f{fill:#1d243a;}.g{fill:#3e4449;}.h{fill:#47a8b5;}.i{fill:#e2e2e5;}</style></defs><title>tools-component-converter</title><g class="a"><path class="b" d="M267,106.35s-73.3-64.76-136.09-48.51-99,94.73-104.66,121.32,22,72.82,74.46,57.14S316.58,160.5,267,106.35Z" transform="translate(-20.71 -55.23)"/></g><rect class="c" x="61.21" y="33.94" width="125.85" height="136.11"/><rect class="b" x="70.27" y="93.24" width="107.93" height="66.79"/><rect class="d" x="195.27" y="58.62" width="50.78" height="50.78"/><rect class="e" x="70.35" y="62.01" width="106.69" height="20.43"/><path class="f" d="M202.13,226.55H86.69a7.09,7.09,0,0,1-7.08-7.08v-126a7.05,7.05,0,0,1,7-7H202.17a7.05,7.05,0,0,1,7,7V219.49A7.07,7.07,0,0,1,202.13,226.55ZM86.66,88.69a4.74,4.74,0,0,0-4.74,4.73V219.49a4.79,4.79,0,0,0,4.77,4.76H202.13a4.79,4.79,0,0,0,4.77-4.76V93.42a4.74,4.74,0,0,0-4.73-4.73Z" transform="translate(-20.71 -55.23)"/><path class="f" d="M188.42,107.67H80.78a1.16,1.16,0,1,1,0-2.31H188.42a1.16,1.16,0,1,1,0,2.31Z" transform="translate(-20.71 -55.23)"/><path class="f" d="M115.4,106.2a1.15,1.15,0,0,1-1.15-1.15V88.54a1.16,1.16,0,0,1,2.31,0v16.51A1.16,1.16,0,0,1,115.4,106.2Z" transform="translate(-20.71 -55.23)"/><path class="f" d="M91.33,101.27a4.51,4.51,0,1,1,4.5-4.5h0A4.5,4.5,0,0,1,91.33,101.27Zm0-6.71a2.19,2.19,0,1,0,2.19,2.19h0a2.19,2.19,0,0,0-2.19-2.19Z" transform="translate(-20.71 -55.23)"/><path class="f" d="M104.82,101.27a4.51,4.51,0,1,1,4.51-4.5A4.51,4.51,0,0,1,104.82,101.27Zm0-6.71A2.19,2.19,0,1,0,107,96.75h0a2.17,2.17,0,0,0-2.18-2.19Z" transform="translate(-20.71 -55.23)"/><path class="f" d="M182.56,94.87H122.88a1.16,1.16,0,1,1,0-2.31h59.68a1.16,1.16,0,1,1,0,2.31Z" transform="translate(-20.71 -55.23)"/><path class="f" d="M144.32,101.19H122.88a1.16,1.16,0,0,1,0-2.31h21.44a1.16,1.16,0,1,1,0,2.31Z" transform="translate(-20.71 -55.23)"/><path class="f" d="M208,107.67h-6.63a1.16,1.16,0,1,1,0-2.31H208a1.16,1.16,0,1,1,0,2.31Z" transform="translate(-20.71 -55.23)"/><path class="f" d="M197.76,138.83H91.07a1.17,1.17,0,0,1-1.16-1.16V117.23a1.15,1.15,0,0,1,1.16-1.15H197.76a1.15,1.15,0,0,1,1.15,1.15v20.44a1.17,1.17,0,0,1-1.15,1.16ZM92.22,136.51H196.6V118.39H92.22Z" transform="translate(-20.71 -55.23)"/><path class="f" d="M112.32,138a1.16,1.16,0,0,1-1.16-1.15V117.23a1.16,1.16,0,1,1,2.31,0h0v19.59A1.15,1.15,0,0,1,112.32,138Z" transform="translate(-20.71 -55.23)"/><path class="f" d="M133.75,138a1.15,1.15,0,0,1-1.15-1.15V117.23a1.16,1.16,0,1,1,2.31,0h0v19.59A1.16,1.16,0,0,1,133.75,138Z" transform="translate(-20.71 -55.23)"/><path class="f" d="M155,138a1.16,1.16,0,0,1-1.16-1.15V117.23a1.16,1.16,0,1,1,2.31,0h0v19.59A1.15,1.15,0,0,1,155,138Z" transform="translate(-20.71 -55.23)"/><path class="f" d="M176.47,138a1.16,1.16,0,0,1-1.15-1.15V117.23a1.16,1.16,0,1,1,2.31,0h0v19.59A1.16,1.16,0,0,1,176.47,138Z" transform="translate(-20.71 -55.23)"/><path class="f" d="M197.76,216.41H91.07a1.17,1.17,0,0,1-1.16-1.16V148.4a1.17,1.17,0,0,1,1.16-1.16H197.76a1.17,1.17,0,0,1,1.15,1.16v66.85a1.15,1.15,0,0,1-1.15,1.16ZM92.22,214.1H196.6V149.56H92.22Z" transform="translate(-20.71 -55.23)"/><path class="f" d="M92.13,203.92a1.15,1.15,0,0,1-.82-.34,1.17,1.17,0,0,1,0-1.63L120.23,173a4.76,4.76,0,0,1,6.72,0l28.21,28.21a1.15,1.15,0,0,1,0,1.63,1.14,1.14,0,0,1-1.63,0l-28.21-28.21a2.46,2.46,0,0,0-3.46,0L93,203.58A1.15,1.15,0,0,1,92.13,203.92Z" transform="translate(-20.71 -55.23)"/><path class="f" d="M147.88,195.36a1.15,1.15,0,0,1-1.16-1.15,1.18,1.18,0,0,1,.6-1l23.89-13a5.93,5.93,0,0,1,6,.22l20.07,12.83a1.16,1.16,0,0,1-1.25,2L176,182.36a3.6,3.6,0,0,0-3.67-.13l-23.89,13A1.47,1.47,0,0,1,147.88,195.36Z" transform="translate(-20.71 -55.23)"/><path class="f" d="M150.86,172.15a7.51,7.51,0,1,1,7.51-7.51A7.51,7.51,0,0,1,150.86,172.15Zm0-12.72a5.2,5.2,0,1,0,5.19,5.19h0A5.19,5.19,0,0,0,150.86,159.43Z" transform="translate(-20.71 -55.23)"/><path class="f" d="M23.8,163.37H21.87a1.17,1.17,0,0,1-1.16-1.15v-1.93a1.16,1.16,0,1,1,2.31,0v.77h.78a1.16,1.16,0,0,1,0,2.31Z" transform="translate(-20.71 -55.23)"/><path class="f" d="M63.12,163.37H59.61a1.16,1.16,0,1,1,0-2.31h3.51a1.16,1.16,0,1,1,0,2.31Zm-9.82,0H49.78a1.16,1.16,0,0,1,0-2.31H53.3a1.16,1.16,0,1,1,0,2.31Zm-9.84,0H39.94a1.16,1.16,0,0,1,0-2.31h3.52a1.16,1.16,0,1,1,0,2.31Zm-9.84,0h-3.5a1.16,1.16,0,1,1,0-2.31h3.52a1.16,1.16,0,1,1,0,2.31Z" transform="translate(-20.71 -55.23)"/><path class="f" d="M71.37,163.37H69.44a1.16,1.16,0,0,1,0-2.31h.78v-.77a1.16,1.16,0,1,1,2.31,0h0v1.92a1.16,1.16,0,0,1-1.16,1.16Z" transform="translate(-20.71 -55.23)"/><path class="f" d="M71.37,155.12A1.16,1.16,0,0,1,70.22,154v-3.52a1.16,1.16,0,1,1,2.31,0V154a1.16,1.16,0,0,1-1.16,1.15Zm0-9.84a1.16,1.16,0,0,1-1.15-1.15v-3.52a1.16,1.16,0,1,1,2.31,0v3.52a1.13,1.13,0,0,1-1.13,1.15Zm0-9.82a1.16,1.16,0,0,1-1.15-1.16v-3.51a1.16,1.16,0,1,1,2.31,0v3.51a1.16,1.16,0,0,1-1.16,1.16Zm0-9.84a1.16,1.16,0,0,1-1.15-1.15V121a1.16,1.16,0,1,1,2.31,0v3.52a1.16,1.16,0,0,1-1.16,1.15Z" transform="translate(-20.71 -55.23)"/><path class="f" d="M71.37,115.78a1.17,1.17,0,0,1-1.15-1.16v-.77h-.77a1.16,1.16,0,1,1,0-2.31h1.92a1.16,1.16,0,0,1,1.16,1.15v1.93a1.14,1.14,0,0,1-1.13,1.16Z" transform="translate(-20.71 -55.23)"/><path class="f" d="M63.12,113.85H59.61a1.16,1.16,0,1,1,0-2.31h3.51a1.17,1.17,0,0,1,1.16,1.16,1.14,1.14,0,0,1-1.14,1.15Zm-9.82,0H49.78a1.16,1.16,0,0,1,0-2.31H53.3a1.16,1.16,0,1,1,0,2.31Zm-9.84,0H39.94a1.16,1.16,0,0,1,0-2.31h3.52a1.16,1.16,0,1,1,0,2.31Zm-9.84,0h-3.5a1.16,1.16,0,1,1,0-2.31h3.52a1.16,1.16,0,0,1,0,2.31Z" transform="translate(-20.71 -55.23)"/><path class="f" d="M21.87,115.78a1.17,1.17,0,0,1-1.16-1.15V112.7a1.17,1.17,0,0,1,1.16-1.16H23.8a1.16,1.16,0,0,1,0,2.31H23v.77A1.15,1.15,0,0,1,21.87,115.78Z" transform="translate(-20.71 -55.23)"/><path class="f" d="M21.87,155.12A1.17,1.17,0,0,1,20.71,154v-3.52a1.16,1.16,0,1,1,2.31,0h0V154A1.15,1.15,0,0,1,21.87,155.12Zm0-9.84a1.17,1.17,0,0,1-1.16-1.15v-3.52a1.16,1.16,0,1,1,2.31,0v3.52a1.14,1.14,0,0,1-1.15,1.15Zm0-9.82a1.17,1.17,0,0,1-1.16-1.16v-3.51a1.16,1.16,0,1,1,2.31,0v3.51a1.16,1.16,0,0,1-1.15,1.16Zm0-9.84a1.17,1.17,0,0,1-1.16-1.16V121A1.16,1.16,0,1,1,23,121h0v3.51a1.15,1.15,0,0,1-1.15,1.16Z" transform="translate(-20.71 -55.23)"/><path class="f" d="M46.62,177.92a1.17,1.17,0,0,1-1.16-1.16v-2a1.16,1.16,0,0,1,2.32,0v2A1.17,1.17,0,0,1,46.62,177.92Z" transform="translate(-20.71 -55.23)"/><path class="f" d="M46.62,208a1.17,1.17,0,0,1-1.16-1.16v-3.54a1.16,1.16,0,0,1,2.32,0v3.54A1.17,1.17,0,0,1,46.62,208Zm0-10a1.17,1.17,0,0,1-1.16-1.15v-3.55a1.16,1.16,0,0,1,2.32,0v3.55A1.17,1.17,0,0,1,46.62,198Zm0-10a1.17,1.17,0,0,1-1.16-1.16v-3.54a1.16,1.16,0,0,1,2.32,0h0v3.54a1.17,1.17,0,0,1-1.16,1.16Z" transform="translate(-20.71 -55.23)"/><path class="f" d="M48.55,216.54H46.62a1.17,1.17,0,0,1-1.16-1.15v-1.93a1.16,1.16,0,0,1,2.32,0v.77h.77a1.16,1.16,0,1,1,0,2.31Z" transform="translate(-20.71 -55.23)"/><path class="f" d="M67.67,216.55H64.28a1.16,1.16,0,0,1,0-2.32h3.4a1.16,1.16,0,0,1,0,2.32Zm-9.56,0H54.72a1.16,1.16,0,0,1,0-2.32h3.39a1.16,1.16,0,0,1,0,2.32Z" transform="translate(-20.71 -55.23)"/><path class="f" d="M76,216.55H74a1.16,1.16,0,0,1,0-2.32h2a1.16,1.16,0,0,1,0,2.32Z" transform="translate(-20.71 -55.23)"/><path class="f" d="M264.32,166H217.43a3.76,3.76,0,0,1-3.76-3.76V115.32a3.76,3.76,0,0,1,3.76-3.76h46.89a3.76,3.76,0,0,1,3.76,3.76V162.2A3.77,3.77,0,0,1,264.32,166Zm-46.89-52.11A1.45,1.45,0,0,0,216,115.3h0v46.89a1.45,1.45,0,0,0,1.45,1.45h46.89a1.45,1.45,0,0,0,1.45-1.45h0V115.3a1.45,1.45,0,0,0-1.45-1.45H217.43Z" transform="translate(-20.71 -55.23)"/><path class="f" d="M266.46,155.63h-51a1.16,1.16,0,0,1,0-2.31h51a1.16,1.16,0,1,1,0,2.31Z" transform="translate(-20.71 -55.23)"/><path class="f" d="M241.92,148.51a1.13,1.13,0,0,1-.81-.34L227.92,135l-11.69,11.69a1.16,1.16,0,1,1-1.64-1.64h0l12.51-12.51a1.18,1.18,0,0,1,1.64,0l14,14a1.16,1.16,0,0,1-.82,2Z" transform="translate(-20.71 -55.23)"/><path class="f" d="M238.68,145.27a1.19,1.19,0,0,1-1-.53,1.14,1.14,0,0,1,.32-1.59h0l14.69-9.59a1.18,1.18,0,0,1,1.23,0l13.09,7.86a1.16,1.16,0,1,1-1.15,2l0,0-12.47-7.49-14.07,9.19A1.13,1.13,0,0,1,238.68,145.27Z" transform="translate(-20.71 -55.23)"/><path class="f" d="M242.66,128.6a5.13,5.13,0,1,1,5.13-5.13h0A5.13,5.13,0,0,1,242.66,128.6Zm0-8a2.83,2.83,0,1,0,2.82,2.82,2.82,2.82,0,0,0-2.82-2.82Z" transform="translate(-20.71 -55.23)"/><path class="f" d="M241.86,175.91a1.16,1.16,0,0,1-1.15-1.15v-2a1.16,1.16,0,0,1,2.31,0v2A1.17,1.17,0,0,1,241.86,175.91Z" transform="translate(-20.71 -55.23)"/><path class="f" d="M241.86,206.91a1.17,1.17,0,0,1-1.15-1.16v-3.7a1.16,1.16,0,0,1,2.31,0v3.7A1.17,1.17,0,0,1,241.86,206.91Zm0-10.33a1.17,1.17,0,0,1-1.15-1.16v-3.7a1.16,1.16,0,0,1,2.31,0v3.7a1.17,1.17,0,0,1-1.16,1.16Zm0-10.34a1.16,1.16,0,0,1-1.15-1.15v-3.7a1.16,1.16,0,1,1,2.31,0v3.72a1.18,1.18,0,0,1-1.16,1.16Z" transform="translate(-20.71 -55.23)"/><path class="f" d="M241.86,215.62h-1.93a1.17,1.17,0,0,1-1.16-1.15,1.15,1.15,0,0,1,1.15-1.16h.79v-.77a1.16,1.16,0,0,1,2.31,0v1.92A1.17,1.17,0,0,1,241.86,215.62Z" transform="translate(-20.71 -55.23)"/><path class="f" d="M233.92,215.62h-3.39a1.16,1.16,0,1,1,0-2.31h3.41a1.16,1.16,0,0,1,0,2.31Zm-9.41,0h-3.39a1.16,1.16,0,0,1,0-2.31h3.39a1.16,1.16,0,0,1,0,2.31Z" transform="translate(-20.71 -55.23)"/><path class="f" d="M215.26,215.62h-1.85a1.16,1.16,0,1,1,0-2.31h1.86a1.16,1.16,0,0,1,0,2.31Z" transform="translate(-20.71 -55.23)"/><circle class="g" cx="76.22" cy="163.88" r="34.21"/><path class="h" d="M78.16,232.45a3,3,0,0,0,.06,4.21l.11.11a2.84,2.84,0,0,0,4.09-.07l22.44-23.83-4.25-4.25Z" transform="translate(-20.71 -55.23)"/><path class="i" d="M93.56,201.43l-.08.08c7.21-.19,13.36.17,7.13,7.11l4.25,4.25c2.9.23,6,2,9.12,5.08l4.79-5.08c-.74-2.56-5.64-7.12-10.51-11.67A10.18,10.18,0,0,0,93.56,201.43Z" transform="translate(-20.71 -55.23)"/><polygon class="i" points="98.04 157.66 93.28 162.72 92.66 163.37 94.35 165.07 100.46 158.59 98.76 156.89 98.04 157.66"/><path class="g" d="M99,213a.56.56,0,0,0-.39-.15.52.52,0,0,0-.37.16L86.79,225.21a.54.54,0,0,0-.15.39.55.55,0,0,0,.16.39.53.53,0,0,0,.31.15.55.55,0,0,0,.22,0,.59.59,0,0,0,.23-.14L99,213.8a.59.59,0,0,0,.15-.4A.57.57,0,0,0,99,213Z" transform="translate(-20.71 -55.23)"/><path class="g" d="M113,208.41l-3.57-3.56a.55.55,0,0,0-.38-.16.6.6,0,0,0-.38.17.58.58,0,0,0,0,.79l3.57,3.55a.52.52,0,0,0,.3.16.53.53,0,0,0,.22,0,.61.61,0,0,0,.24-.15A.57.57,0,0,0,113,208.41Z" transform="translate(-20.71 -55.23)"/><polygon class="i" points="88.12 182.24 88.11 182.23 88.11 182.23 88.12 182.24"/><path class="i" d="M108.86,237.44l-.54-.57.5.58Z" transform="translate(-20.71 -55.23)"/><polygon class="i" points="88.11 182.23 88.11 182.23 87.61 181.65 84.85 178.72 88.11 182.23"/><path class="i" d="M88.46,200.69A6,6,0,0,0,82,199h0l4.86,5.65-1.41,2.07-2.13,1L78.42,202a5.92,5.92,0,0,0,.77,6.63,6.08,6.08,0,0,0,6.5,1.83l14.07,16.35h0l1.81,2.13a6.12,6.12,0,0,0,.83,6.72,5.91,5.91,0,0,0,6.41,1.76l-3.26-3.51,2.76,2.93L104,231.82l1.28-2,2.26-1.08,4.86,5.65,0,0a6,6,0,0,0-.72-6.68,6.14,6.14,0,0,0-6.57-1.81l-1.8-2.12v0l-14-16.34A6.16,6.16,0,0,0,88.46,200.69Z" transform="translate(-20.71 -55.23)"/><path class="i" d="M78.41,202h0v0Z" transform="translate(-20.71 -55.23)"/></svg>