<svg xmlns="http://www.w3.org/2000/svg" width="246.56" height="151.84" viewBox="0 0 246.56 151.84"><defs><style>.a{opacity:0.35;}.b{fill:#b9e3eb;}.c{fill:#e2e2e5;}.d,.g{fill:#fff;}.d{opacity:0.5;}.e{fill:#47a8b5;}.f{fill:#3e4449;}.h{fill:#f47523;}</style></defs><title>troubleshoot-tools</title><g class="a"><path class="b" d="M259.21,176.28S232.7,93,177.09,76.67s-119.37,27.25-135.92,45-16.53,65.94,30.91,78S272.43,240.57,259.21,176.28Z" transform="translate(-20.29 -73.08)"/></g><polygon class="c" points="185.27 118.42 30.64 118.42 31.4 105.97 186.78 105.97 185.27 118.42"/><rect class="d" x="30.27" y="12.27" width="155.82" height="91.65"/><polygon class="e" points="204.17 33.36 204.17 27.07 201.19 24.98 192.56 24.58 115.02 24.98 115.02 33.36 204.17 33.75 204.17 33.36"/><path class="f" d="M206.65,179H51a1,1,0,1,1,0-2H206.65a1,1,0,0,1,0,2Z" transform="translate(-20.29 -73.08)"/><path class="f" d="M111.07,223.33a1,1,0,0,1-1-1V192.93a1,1,0,1,1,2,0V222.3A1,1,0,0,1,111.07,223.33Z" transform="translate(-20.29 -73.08)"/><path class="f" d="M147.31,223.33a1,1,0,0,1-1-1V192.93a1,1,0,1,1,2.05,0V222.3A1,1,0,0,1,147.31,223.33Z" transform="translate(-20.29 -73.08)"/><path class="f" d="M163.24,224.06H95.43a1,1,0,0,1,0-2.05h67.81a1,1,0,1,1,0,2.05Z" transform="translate(-20.29 -73.08)"/><path class="f" d="M129,188.62a3.45,3.45,0,1,1,3.45-3.45A3.46,3.46,0,0,1,129,188.62Zm0-4.85a1.4,1.4,0,1,0,1.4,1.4A1.4,1.4,0,0,0,129,183.77Z" transform="translate(-20.29 -73.08)"/><path class="f" d="M201.09,193.48h-144a7.19,7.19,0,0,1-7.18-7.18V144.85a1,1,0,1,1,2.05,0V186.3a5.13,5.13,0,0,0,5.13,5.13h144a5.14,5.14,0,0,0,5.14-5.13V165.74a1,1,0,0,1,2,0V186.3A7.19,7.19,0,0,1,201.09,193.48Z" transform="translate(-20.29 -73.08)"/><path class="f" d="M50.93,130.54a1,1,0,0,1-1-1V90.93a7.19,7.19,0,0,1,7.18-7.18h144a7.19,7.19,0,0,1,7.18,7.18V97.2a1,1,0,1,1-2,0V90.93a5.14,5.14,0,0,0-5.14-5.13h-144A5.13,5.13,0,0,0,52,90.93v38.58A1,1,0,0,1,50.93,130.54Z" transform="translate(-20.29 -73.08)"/><rect class="d" x="115.62" y="34.35" width="89.07" height="56.42"/><path class="f" d="M220.71,165.89H138.43a4.57,4.57,0,0,1-4.56-4.57V101.19A4.14,4.14,0,0,1,138,97.05h83a4.22,4.22,0,0,1,4.21,4.21v60.13A4.51,4.51,0,0,1,220.71,165.89ZM138,99.1a2.09,2.09,0,0,0-2.09,2.09v60.13a2.52,2.52,0,0,0,2.52,2.52h82.28a2.46,2.46,0,0,0,2.46-2.45V101.26A2.17,2.17,0,0,0,221,99.1Z" transform="translate(-20.29 -73.08)"/><path class="f" d="M222.88,108.16h-88a1,1,0,0,1,0-2h88a1,1,0,0,1,0,2Z" transform="translate(-20.29 -73.08)"/><path class="f" d="M152,107.43a1,1,0,0,1-1-1V98.51a1,1,0,0,1,2,0v7.89A1,1,0,0,1,152,107.43Z" transform="translate(-20.29 -73.08)"/><path class="f" d="M140.7,105a2.38,2.38,0,1,1,2.37-2.38A2.38,2.38,0,0,1,140.7,105Z" transform="translate(-20.29 -73.08)"/><path class="f" d="M146.12,105a2.38,2.38,0,1,1,2.37-2.38A2.38,2.38,0,0,1,146.12,105Z" transform="translate(-20.29 -73.08)"/><path class="f" d="M204.17,103.48h-45a1,1,0,1,1,0-2h45a1,1,0,1,1,0,2Z" transform="translate(-20.29 -73.08)"/><rect class="c" x="124.21" y="44.58" width="25.9" height="17.17"/><path class="f" d="M224.19,108.16h-2.63a1,1,0,0,1,0-2h2.63a1,1,0,0,1,0,2Z" transform="translate(-20.29 -73.08)"/><path class="f" d="M169.75,135.82H144.57a1,1,0,0,1-1-1V117.66a1,1,0,0,1,1-1h25.18a1,1,0,0,1,1,1v17.13A1,1,0,0,1,169.75,135.82Zm-24.16-2h23.13V118.68H145.59Z" transform="translate(-20.29 -73.08)"/><path class="f" d="M169,142.65H145c-.79,0-1.44-.46-1.44-1s.65-1,1.44-1h24c.79,0,1.44.45,1.44,1S169.76,142.65,169,142.65Z" transform="translate(-20.29 -73.08)"/><path class="f" d="M169,148.94H145c-.79,0-1.44-.46-1.44-1s.65-1,1.44-1h24c.79,0,1.44.46,1.44,1S169.76,148.94,169,148.94Z" transform="translate(-20.29 -73.08)"/><path class="f" d="M169,155.37H145c-.79,0-1.44-.46-1.44-1s.65-1,1.44-1h24c.79,0,1.44.46,1.44,1S169.76,155.37,169,155.37Z" transform="translate(-20.29 -73.08)"/><path class="f" d="M116.13,139H98.74a1,1,0,0,1,0-2.05h17.39a1,1,0,0,1,0,2.05Z" transform="translate(-20.29 -73.08)"/><path class="f" d="M116.13,118.45H98.74a1,1,0,0,1,0-2h17.39a1,1,0,0,1,0,2Z" transform="translate(-20.29 -73.08)"/><path class="f" d="M125.78,128.74H109.55a1,1,0,0,1,0-2.05h16.23a1,1,0,0,1,0,2.05Z" transform="translate(-20.29 -73.08)"/><path class="f" d="M125.05,159.6H103.56a1,1,0,0,1,0-2h21.49a1,1,0,0,1,0,2Z" transform="translate(-20.29 -73.08)"/><path class="f" d="M93.48,159.6H87.34a1,1,0,1,1,0-2h6.14a1,1,0,0,1,0,2Z" transform="translate(-20.29 -73.08)"/><path class="f" d="M118.32,108.16H97.86a1,1,0,0,1,0-2h20.46a1,1,0,1,1,0,2Z" transform="translate(-20.29 -73.08)"/><path class="f" d="M88.22,108.16h-7a1,1,0,0,1,0-2h7a1,1,0,0,1,0,2Z" transform="translate(-20.29 -73.08)"/><path class="f" d="M118.32,149.32H97.86a1,1,0,0,1,0-2h20.46a1,1,0,1,1,0,2Z" transform="translate(-20.29 -73.08)"/><path class="g" d="M43.15,118.48a1.24,1.24,0,0,0-1.75,0l-7.12,7.13a1.23,1.23,0,0,0,0,1.74l7.12,7.12a1.24,1.24,0,0,0,1.75,0,1.25,1.25,0,0,0,0-1.74l-6.26-6.25,6.26-6.26A1.25,1.25,0,0,0,43.15,118.48Z" transform="translate(-20.29 -73.08)"/><path class="g" d="M67.77,125.61l-7.12-7.13a1.27,1.27,0,0,0-1.74,0,1.23,1.23,0,0,0,0,1.74l6.25,6.26-6.25,6.25a1.22,1.22,0,0,0-.36.87,1.23,1.23,0,0,0,1.23,1.23,1.2,1.2,0,0,0,.87-.36l7.12-7.12a1.23,1.23,0,0,0,0-1.74Z" transform="translate(-20.29 -73.08)"/><path class="f" d="M197.59,130.69h0a6.28,6.28,0,1,0,0,12.56h0a6.28,6.28,0,0,0,0-12.56Zm4.28,6.29a4.28,4.28,0,1,1-4.28-4.28h0A4.29,4.29,0,0,1,201.87,137Z" transform="translate(-20.29 -73.08)"/><path class="f" d="M202.63,148.34a1,1,0,0,0,.07.76,1,1,0,0,0,.88.54h0a.9.9,0,0,0,.44-.11,14.26,14.26,0,0,0,1.94-1.2,1,1,0,0,0-1.2-1.62,11.85,11.85,0,0,1-1.66,1A1,1,0,0,0,202.63,148.34Z" transform="translate(-20.29 -73.08)"/><path class="f" d="M199.81,148.89a12.64,12.64,0,0,1-1.95.2,1,1,0,0,0-1,1,1,1,0,0,0,1,1h0a14.19,14.19,0,0,0,2.26-.23,1,1,0,0,0-.36-2Z" transform="translate(-20.29 -73.08)"/><path class="f" d="M188.25,144.68a1,1,0,0,0-1.77.54,1,1,0,0,0,.22.74,13.44,13.44,0,0,0,1.58,1.62.93.93,0,0,0,.65.27h0a1.08,1.08,0,0,0,.76-.36,1,1,0,0,0-.1-1.41A12,12,0,0,1,188.25,144.68Z" transform="translate(-20.29 -73.08)"/><path class="f" d="M206.75,129.05a1,1,0,0,0,.75.35h0a1,1,0,0,0,.77-1.67,15,15,0,0,0-1.61-1.58l-.07-.06A1,1,0,0,0,205,127a1,1,0,0,0,.37.65A14,14,0,0,1,206.75,129.05Z" transform="translate(-20.29 -73.08)"/><path class="f" d="M210,136.64a1,1,0,0,0-.32.7,11.76,11.76,0,0,1-.22,2,1,1,0,0,0,.8,1.16h.19a1,1,0,0,0,1-.81,14.21,14.21,0,0,0,.25-2.27,1,1,0,0,0-1-1A1,1,0,0,0,210,136.64Z" transform="translate(-20.29 -73.08)"/><path class="f" d="M209.29,133.84a1,1,0,0,0,1,.75h0l.25,0a1,1,0,0,0,.61-.47,1,1,0,0,0,.1-.76,14.75,14.75,0,0,0-.77-2.14,1,1,0,1,0-1.82.81A11.52,11.52,0,0,1,209.29,133.84Z" transform="translate(-20.29 -73.08)"/><path class="f" d="M209.67,142.17a1,1,0,0,0-.76-.07,1,1,0,0,0-.59.49,12.46,12.46,0,0,1-1,1.66,1,1,0,0,0,.8,1.6h0a1,1,0,0,0,.8-.41,12.83,12.83,0,0,0,1.22-1.93,1,1,0,0,0,.06-.76A1,1,0,0,0,209.67,142.17Z" transform="translate(-20.29 -73.08)"/><path class="f" d="M194.38,148.67a12.7,12.7,0,0,1-1.84-.67,1,1,0,0,0-1.32.5,1,1,0,0,0,.5,1.32,13.17,13.17,0,0,0,2.12.77.92.92,0,0,0,.28,0h0a1,1,0,0,0,1-.74A1,1,0,0,0,194.38,148.67Z" transform="translate(-20.29 -73.08)"/><path class="f" d="M192.79,125.5a1,1,0,0,0,0-.76,1,1,0,0,0-1.34-.47,13.83,13.83,0,0,0-2,1.16,1,1,0,0,0-.24,1.39,1,1,0,0,0,.81.43h0a.9.9,0,0,0,.54-.18,13,13,0,0,1,1.69-1A1,1,0,0,0,192.79,125.5Z" transform="translate(-20.29 -73.08)"/><path class="f" d="M186.42,141.69a13.06,13.06,0,0,1-.62-1.89,1,1,0,0,0-1.94.5,12.8,12.8,0,0,0,.71,2.17,1,1,0,0,0,.92.61h0a.81.81,0,0,0,.39-.08A1,1,0,0,0,186.42,141.69Z" transform="translate(-20.29 -73.08)"/><path class="f" d="M186.49,128.25a16,16,0,0,0-1.26,1.9,1,1,0,0,0,.4,1.36,1,1,0,0,0,.47.12h0a1,1,0,0,0,.88-.52,12,12,0,0,1,1.11-1.66,1,1,0,0,0-.22-1.4,1,1,0,0,0-.74-.18A1,1,0,0,0,186.49,128.25Z" transform="translate(-20.29 -73.08)"/><path class="f" d="M184.48,137.29h0a1,1,0,0,0,1-.95,11.33,11.33,0,0,1,.25-1.93,1,1,0,0,0-.14-.76,1,1,0,0,0-.62-.43,1,1,0,0,0-.76.13,1,1,0,0,0-.43.63,14.32,14.32,0,0,0-.31,2.25,1,1,0,0,0,.26.73,1.06,1.06,0,0,0,.71.33Zm0-.37Z" transform="translate(-20.29 -73.08)"/><path class="f" d="M197.59,122.86a14.28,14.28,0,0,0-2.27.18,1,1,0,0,0,.15,2h.17a12.64,12.64,0,0,1,2-.16,1,1,0,0,0,1-1,1,1,0,0,0-.27-.72A1,1,0,0,0,197.59,122.86Z" transform="translate(-20.29 -73.08)"/><path class="f" d="M200.51,125.22a11.17,11.17,0,0,1,1.85.62,1.09,1.09,0,0,0,.39.08H203l0,0a1,1,0,0,0,.68-1.36,1,1,0,0,0-.53-.54,14.43,14.43,0,0,0-2.19-.73,1,1,0,0,0-1.2.76,1,1,0,0,0,.75,1.2Z" transform="translate(-20.29 -73.08)"/><path class="f" d="M216.34,136.23a1,1,0,0,0-.72-.27,1,1,0,0,0-1,1A17.11,17.11,0,0,1,197.54,154a1,1,0,0,0-.66,1.73,1,1,0,0,0,.69.27h0a19.05,19.05,0,0,0,19.05-19.11A1,1,0,0,0,216.34,136.23Z" transform="translate(-20.29 -73.08)"/><path class="f" d="M197.59,119.92a1,1,0,0,0,0-2,19.07,19.07,0,0,0-19,19.06,1,1,0,0,0,1,1h0a1,1,0,0,0,1-1A17.1,17.1,0,0,1,197.59,119.92Z" transform="translate(-20.29 -73.08)"/><path class="h" d="M260.77,201.35a14.57,14.57,0,0,0-1.59-4.34l3.54-3.54-4.78-4.78L254.62,192a14.89,14.89,0,0,0-4.53-2.08v-4.47h-6.78v4.25a14.63,14.63,0,0,0-4.88,1.94l-3-3-4.85,4.85,3,3a15.86,15.86,0,0,0-1.91,4.87h-4.25v6.77h4.47a14.78,14.78,0,0,0,2.08,4.53L230.63,216l4.78,4.78,3.57-3.56a14.24,14.24,0,0,0,4.33,1.59V224h6.78v-5.39a14.46,14.46,0,0,0,3.93-1.69l3.85,3.85,4.85-4.85-3.85-3.85a14.21,14.21,0,0,0,1.69-4H266v-6.78Zm-8.22,9.23a9,9,0,1,1,0-12.73A9,9,0,0,1,252.55,210.58Z" transform="translate(-20.29 -73.08)"/><path class="f" d="M246.19,214.08a9.86,9.86,0,0,1-7-16.84h0a9.86,9.86,0,1,1,7,16.84Zm0-18a8.05,8.05,0,0,0-5.75,2.38h0A8.12,8.12,0,1,0,251.93,210a8.13,8.13,0,0,0,0-11.49A8,8,0,0,0,246.19,196.09Zm-6.36,1.76Z" transform="translate(-20.29 -73.08)"/><path class="f" d="M250.09,224.92h0l-6.78,0a.88.88,0,0,1-.87-.88v-4.5a15.84,15.84,0,0,1-3.31-1.23L236,221.4a.86.86,0,0,1-1.22,0L230,216.61a.85.85,0,0,1,0-1.22l2.85-2.86a15.08,15.08,0,0,1-1.62-3.51l-3.82,0h0a.9.9,0,0,1-.62-.29.89.89,0,0,1-.25-.62v-6.79a.85.85,0,0,1,.26-.61.86.86,0,0,1,.61-.25H231a16.93,16.93,0,0,1,1.52-3.86L230,194.16a.85.85,0,0,1-.26-.62.83.83,0,0,1,.26-.61l4.85-4.85a.87.87,0,0,1,1.23,0l2.48,2.48a15.19,15.19,0,0,1,3.87-1.54v-3.56a.9.9,0,0,1,.25-.62.87.87,0,0,1,.62-.25h6.78a.86.86,0,0,1,.61.25.9.9,0,0,1,.25.62v3.82a16.38,16.38,0,0,1,3.54,1.62l2.83-2.82a.86.86,0,0,1,1.22,0l4.78,4.78a.85.85,0,0,1,0,1.22l-3.08,3.09a15.13,15.13,0,0,1,1.21,3.32H266a.89.89,0,0,1,.62.24.88.88,0,0,1,.25.61v6.78a.79.79,0,0,1-.25.58.84.84,0,0,1-.61.22h0l-4.77,0a15.59,15.59,0,0,1-1.26,3l3.37,3.39a.86.86,0,0,1,0,1.23l-4.85,4.85a.88.88,0,0,1-1.23,0L253.88,218a15.29,15.29,0,0,1-2.93,1.25V224a.91.91,0,0,1-.25.63A.87.87,0,0,1,250.09,224.92Zm-5.91-1.78h5v-4.52a.87.87,0,0,1,.64-.84,13.18,13.18,0,0,0,3.7-1.59.87.87,0,0,1,1.07.13l3.24,3.24,3.62-3.63-3.23-3.24a.87.87,0,0,1-.13-1.07,13.78,13.78,0,0,0,1.6-3.75.88.88,0,0,1,.83-.67h0l4.55,0v-5l-4.35,0h0a.88.88,0,0,1-.85-.71,13.76,13.76,0,0,0-1.5-4.08.89.89,0,0,1,.14-1l2.93-2.93-3.55-3.55-2.71,2.71a.86.86,0,0,1-1.1.1,14.32,14.32,0,0,0-4.26-2,.86.86,0,0,1-.64-.83v-3.61h-5v3.38a.87.87,0,0,1-.7.85,13.83,13.83,0,0,0-4.59,1.82.88.88,0,0,1-1.08-.12l-2.34-2.34-3.62,3.62,2.34,2.35a.88.88,0,0,1,.13,1.06,14.7,14.7,0,0,0-1.81,4.59.86.86,0,0,1-.85.7h-3.38v5l3.61,0h0a.9.9,0,0,1,.84.67,14.15,14.15,0,0,0,1.95,4.28.87.87,0,0,1-.1,1.11L231.86,216l3.55,3.55,3-3a.88.88,0,0,1,1-.14,13.55,13.55,0,0,0,4.07,1.5.87.87,0,0,1,.7.85Z" transform="translate(-20.29 -73.08)"/><path class="f" d="M246.13,128.57a1,1,0,0,0,1-1V124a1,1,0,1,0-2,0v3.51A1,1,0,0,0,246.13,128.57Z" transform="translate(-20.29 -73.08)"/><path class="f" d="M246.13,137.05a1,1,0,0,0,1-1v-3.51a1,1,0,1,0-2,0V136A1,1,0,0,0,246.13,137.05Z" transform="translate(-20.29 -73.08)"/><path class="f" d="M246.13,145.53a1,1,0,0,0,1-1V141a1,1,0,1,0-2,0v3.5A1,1,0,0,0,246.13,145.53Z" transform="translate(-20.29 -73.08)"/><path class="f" d="M246.13,171a1,1,0,0,0,1-1v-3.51a1,1,0,1,0-2,0v3.51A1,1,0,0,0,246.13,171Z" transform="translate(-20.29 -73.08)"/><path class="f" d="M246.13,154a1,1,0,0,0,1-1v-3.51a1,1,0,1,0-2,0V153A1,1,0,0,0,246.13,154Z" transform="translate(-20.29 -73.08)"/><path class="f" d="M246.13,179.44a1,1,0,0,0,1-1V174.9a1,1,0,1,0-2,0v3.51A1,1,0,0,0,246.13,179.44Z" transform="translate(-20.29 -73.08)"/><path class="f" d="M246.13,162.48a1,1,0,0,0,1-1V158a1,1,0,0,0-2,0v3.51A1,1,0,0,0,246.13,162.48Z" transform="translate(-20.29 -73.08)"/><path class="f" d="M246.13,120.68a1,1,0,0,1-1-1v-.88h-.88a1,1,0,1,1,0-2h1.9a1,1,0,0,1,1,1v1.9A1,1,0,0,1,246.13,120.68Z" transform="translate(-20.29 -73.08)"/><path class="f" d="M239.55,118.78h-3.36a1,1,0,0,1,0-2h3.36a1,1,0,1,1,0,2Z" transform="translate(-20.29 -73.08)"/><path class="f" d="M231.37,118.78h-1.75a1,1,0,1,1,0-2h1.75a1,1,0,0,1,0,2Z" transform="translate(-20.29 -73.08)"/><path class="e" d="M22.53,160.08a5,5,0,0,0,.1,6.95l.17.17a4.68,4.68,0,0,0,6.75-.11L66.6,127.77l-7-7Z" transform="translate(-20.29 -73.08)"/><path class="c" d="M47.94,108.88l-.12.13c11.89-.31,22.05.29,11.76,11.74l7,7c4.77.36,9.81,3.33,15.06,8.37l7.89-8.38c-1.22-4.23-9.3-11.76-17.34-19.26A16.81,16.81,0,0,0,47.94,108.88Z" transform="translate(-20.29 -73.08)"/><polygon class="c" points="69.23 54.71 61.37 63.05 60.34 64.14 63.14 66.93 73.22 56.24 70.42 53.44 69.23 54.71"/><path class="f" d="M94.14,128.66l-2.8-2.8h0a.9.9,0,0,0-.64-.26.92.92,0,0,0-.62.28l-.24.26C87.59,121.64,80.47,115,73,108l-.14-.13a17.7,17.7,0,0,0-25.52.41l-.12.13a.94.94,0,0,0-.18,1,.88.88,0,0,0,.84.55,67.05,67.05,0,0,1,10.06.29c2.72.39,4.41,1.16,4.88,2.24.65,1.49-.68,4.15-3.85,7.68l-37,39.31a5.94,5.94,0,0,0,.12,8.24l.18.18a5.52,5.52,0,0,0,5.54,1.4,5.63,5.63,0,0,0,2.46-1.53l36.74-39c4.07.44,8.59,3,13.44,7.46l-.37.39a.93.93,0,0,0,0,1.29l2.8,2.8a1,1,0,0,0,.5.25h.13l.24,0a1,1,0,0,0,.38-.24L94.15,130a.94.94,0,0,0,.26-.65A1,1,0,0,0,94.14,128.66Zm-65.22,37.8a3.87,3.87,0,0,1-2.73,1.21,3.78,3.78,0,0,1-2.77-1.13l-.17-.17a4.07,4.07,0,0,1-.08-5.65L59.6,122.05l5.75,5.74Zm54.5-27.74L81.9,137.2l.4-.43h0l3.92-4.17a.91.91,0,0,0,.26-.65,1,1,0,0,0-.27-.64.9.9,0,0,0-.64-.26.84.84,0,0,0-.62.28l-3.33,3.53a38.81,38.81,0,0,0-7.24-5.46A19,19,0,0,0,67,126.9l-6.21-6.2c3.34-3.89,4.53-6.85,3.59-9-.76-1.72-2.81-2.8-6.25-3.29a55,55,0,0,0-8-.35,15.94,15.94,0,0,1,21.47,1.13l.15.13c7.44,7,15.14,14.14,16.76,18.22l-.6.63a1,1,0,0,0,0,1.3,1,1,0,0,0,.51.25,1.1,1.1,0,0,0,.36,0,1,1,0,0,0,.39-.24l1-1h0l.55-.59,1.52,1.52Z" transform="translate(-20.29 -73.08)"/><path class="f" d="M57,128a.91.91,0,0,0-.63-.25.89.89,0,0,0-.63.27L36.77,148.12a.94.94,0,0,0-.25.65,1,1,0,0,0,.27.64.85.85,0,0,0,.51.25.74.74,0,0,0,.36,0,.88.88,0,0,0,.39-.24L57,129.29a1,1,0,0,0,.25-.65A.91.91,0,0,0,57,128Z" transform="translate(-20.29 -73.08)"/><path class="f" d="M80.09,120.4l-5.88-5.88a.84.84,0,0,0-.63-.25.89.89,0,0,0-.63.27,1,1,0,0,0,0,1.3l5.88,5.87a.85.85,0,0,0,.51.25.74.74,0,0,0,.36,0,.88.88,0,0,0,.39-.24A.93.93,0,0,0,80.09,120.4Z" transform="translate(-20.29 -73.08)"/><polygon class="c" points="52.86 95.28 52.84 95.26 52.84 95.26 52.86 95.28"/><path class="c" d="M73.2,168.32l-.89-.94.83,1Z" transform="translate(-20.29 -73.08)"/><polygon class="c" points="52.84 95.26 52.84 95.26 52.02 94.3 47.47 89.47 52.84 95.26"/><path class="c" d="M39.53,107.66a9.93,9.93,0,0,0-10.74-2.81h0l8,9.31-2.31,3.43L31,119.2l-8-9.31a9.76,9.76,0,0,0,1.27,10.93,10,10,0,0,0,10.73,3l23.21,27,0,0,3,3.53a10.06,10.06,0,0,0,1.38,11.08,9.73,9.73,0,0,0,10.57,2.92l-5.37-5.8,4.55,4.84L65.14,159l2.11-3.24L71,154l8,9.32.05,0a9.89,9.89,0,0,0-1.19-11,10.15,10.15,0,0,0-10.85-3l-3-3.49,0,0L40.83,118.86A10.17,10.17,0,0,0,39.53,107.66Z" transform="translate(-20.29 -73.08)"/><path class="c" d="M23,109.88h0v0Z" transform="translate(-20.29 -73.08)"/><path class="f" d="M67.27,148.39l-2.62-3.1h0L41.78,118.71a11.18,11.18,0,0,0,.9-5.67,10.78,10.78,0,0,0-2.55-5.9,10.26,10.26,0,0,0-5.39-3.31,11.1,11.1,0,0,0-6.17.26.77.77,0,0,0-.5,1,.7.7,0,0,0,.15.27h0l7.63,8.86L34,117l-2.79,1.27-7.56-8.79a.84.84,0,0,0-.3-.29.79.79,0,0,0-.88.13h0s0,0,0,0a1,1,0,0,0-.15.2v.05a10.52,10.52,0,0,0,1.38,11.78,10.87,10.87,0,0,0,11.08,3.4l22.88,26.6h0l2.65,3.13A10.9,10.9,0,0,0,62,165.93a10.52,10.52,0,0,0,11.35,3.16.74.74,0,0,0,.37-.17h0a.78.78,0,0,0,.22-.83.71.71,0,0,0-.31-.39L66.14,159l1.67-2.57,3-1.43,7.63,8.87a.8.8,0,0,0,.53.27l.17,0h0a.59.59,0,0,0,.19-.05l.14-.07.06,0h0a.84.84,0,0,0,.18-.23,11.21,11.21,0,0,0,1.18-6.06,10.34,10.34,0,0,0-2.48-5.82A10.78,10.78,0,0,0,73,148.35,11,11,0,0,0,67.27,148.39ZM78.8,161.85l-7.2-8.37a.78.78,0,0,0-.93-.2l-3.73,1.78a.79.79,0,0,0-.32.28l-2.11,3.25a.77.77,0,0,0,.06.93l7.18,8.35a8.9,8.9,0,0,1-8.59-3,9.26,9.26,0,0,1-1.27-10.22.78.78,0,0,0-.1-.85l-3-3.52h0l-23.21-27a.79.79,0,0,0-.83-.24,9.25,9.25,0,0,1-9.91-2.79,8.9,8.9,0,0,1-1.63-9l7.18,8.35a.79.79,0,0,0,.92.21l3.53-1.61a.62.62,0,0,0,.19-.12.87.87,0,0,0,.13-.15l2.32-3.42a.8.8,0,0,0-.06-1l-7.19-8.36A9,9,0,0,1,39,108.16a9.44,9.44,0,0,1,1.21,10.32.79.79,0,0,0,.1.86l23.19,27h0l2.95,3.49a.78.78,0,0,0,.84.23,9.31,9.31,0,0,1,10,2.76A9,9,0,0,1,78.8,161.85Z" transform="translate(-20.29 -73.08)"/><path class="f" d="M44.91,129.21h0a.68.68,0,0,0-.27.53.75.75,0,0,0,.19.57L55.75,143a.8.8,0,0,0,.53.27.79.79,0,0,0,.57-.19h0a.79.79,0,0,0,.26-.53.77.77,0,0,0-.19-.56L46,129.29A.78.78,0,0,0,44.91,129.21Z" transform="translate(-20.29 -73.08)"/></svg>