<svg xmlns="http://www.w3.org/2000/svg" width="242.65" height="187.75" viewBox="0 0 242.65 187.75"><defs><style>.a{opacity:0.35;}.b{fill:#b9e3eb;}.c{fill:#fff;opacity:0.5;}.d{fill:#f47523;}.e{fill:#3e4449;}.f{fill:#e2e2e5;}</style></defs><title>config-component-converter</title><g class="a"><path class="b" d="M263.69,102.53S194.08,41,134.46,56.46s-94,90-99.4,115.22S56,240.83,105.77,225.94,310.81,154,263.69,102.53Z" transform="translate(-29.83 -53.98)"/></g><rect class="c" x="58.13" y="32.23" width="119.52" height="129.26"/><rect class="b" x="66.73" y="88.54" width="102.5" height="63.43"/><rect class="d" x="185.44" y="55.67" width="48.22" height="48.22"/><path class="e" d="M202.12,216.68H92.48A6.74,6.74,0,0,1,85.76,210V90.25a6.7,6.7,0,0,1,6.7-6.69H202.15a6.69,6.69,0,0,1,6.69,6.69V210A6.71,6.71,0,0,1,202.12,216.68ZM92.46,85.75a4.51,4.51,0,0,0-4.5,4.5V210a4.53,4.53,0,0,0,4.52,4.52H202.12a4.54,4.54,0,0,0,4.53-4.52V90.25a4.52,4.52,0,0,0-4.5-4.5Z" transform="translate(-29.83 -53.98)"/><path class="e" d="M189.1,103.78H86.88a1.1,1.1,0,0,1,0-2.2H189.1a1.1,1.1,0,0,1,0,2.2Z" transform="translate(-29.83 -53.98)"/><path class="e" d="M119.76,102.39a1.1,1.1,0,0,1-1.1-1.1V85.62a1.1,1.1,0,1,1,2.19,0v15.67A1.09,1.09,0,0,1,119.76,102.39Z" transform="translate(-29.83 -53.98)"/><path class="e" d="M96.89,97.7a4.28,4.28,0,1,1,4.28-4.27h0A4.28,4.28,0,0,1,96.89,97.7Zm0-6.37A2.08,2.08,0,1,0,99,93.41h0a2.06,2.06,0,0,0-2.07-2.08Z" transform="translate(-29.83 -53.98)"/><path class="e" d="M109.71,97.7A4.28,4.28,0,1,1,114,93.43,4.28,4.28,0,0,1,109.71,97.7Zm0-6.37a2.08,2.08,0,1,0,2.08,2.08h0a2.08,2.08,0,0,0-2.08-2.08Z" transform="translate(-29.83 -53.98)"/><path class="e" d="M183.54,91.62H126.86a1.1,1.1,0,1,1,0-2.19h56.68a1.1,1.1,0,0,1,0,2.19Z" transform="translate(-29.83 -53.98)"/><path class="e" d="M147.21,97.63H126.86a1.1,1.1,0,1,1,0-2.2h20.35a1.1,1.1,0,0,1,0,2.2Z" transform="translate(-29.83 -53.98)"/><path class="e" d="M207.7,103.78h-6.3a1.1,1.1,0,0,1,0-2.2h6.3a1.1,1.1,0,1,1,0,2.2Z" transform="translate(-29.83 -53.98)"/><path class="e" d="M198,133.37H96.64a1.1,1.1,0,0,1-1.09-1.1V112.86a1.11,1.11,0,0,1,1.09-1.1H198a1.11,1.11,0,0,1,1.1,1.1v19.41a1.1,1.1,0,0,1-1.09,1.1Zm-100.22-2.2h99.12V114H97.74Z" transform="translate(-29.83 -53.98)"/><path class="e" d="M116.83,132.56a1.1,1.1,0,0,1-1.1-1.1v-18.6a1.1,1.1,0,0,1,2.19,0h0v18.6A1.09,1.09,0,0,1,116.83,132.56Z" transform="translate(-29.83 -53.98)"/><path class="e" d="M137.18,132.56a1.11,1.11,0,0,1-1.1-1.1v-18.6a1.1,1.1,0,0,1,2.2,0h0v18.6A1.1,1.1,0,0,1,137.18,132.56Z" transform="translate(-29.83 -53.98)"/><path class="e" d="M157.39,132.56a1.09,1.09,0,0,1-1.09-1.1v-18.6a1.1,1.1,0,1,1,2.19,0h0v18.6A1.1,1.1,0,0,1,157.39,132.56Z" transform="translate(-29.83 -53.98)"/><path class="e" d="M177.75,132.56a1.11,1.11,0,0,1-1.1-1.1v-18.6a1.1,1.1,0,0,1,2.2,0h0v18.6A1.1,1.1,0,0,1,177.75,132.56Z" transform="translate(-29.83 -53.98)"/><path class="e" d="M198,207.05H96.64a1.11,1.11,0,0,1-1.09-1.1V142.46a1.1,1.1,0,0,1,1.09-1.1H198a1.1,1.1,0,0,1,1.1,1.1V206a1.1,1.1,0,0,1-1.1,1.1Zm-100.22-2.2h99.12V143.56H97.74Z" transform="translate(-29.83 -53.98)"/><path class="e" d="M97.66,195.18a1.06,1.06,0,0,1-.78-.31,1.1,1.1,0,0,1,0-1.56l27.46-27.46a4.53,4.53,0,0,1,6.39,0l26.78,26.79a1.1,1.1,0,1,1-1.55,1.55L129.17,167.4a2.33,2.33,0,0,0-3.28,0L98.43,194.86A1,1,0,0,1,97.66,195.18Z" transform="translate(-29.83 -53.98)"/><path class="e" d="M150.6,187.06a1.11,1.11,0,0,1-1.11-1.1,1.1,1.1,0,0,1,.58-1l22.69-12.35a5.61,5.61,0,0,1,5.72.21L197.54,185a1.1,1.1,0,0,1-1.19,1.86l-19-12.18a3.44,3.44,0,0,0-3.49-.12l-22.69,12.35A1.52,1.52,0,0,1,150.6,187.06Z" transform="translate(-29.83 -53.98)"/><path class="e" d="M153.42,165a7.13,7.13,0,1,1,7.14-7.13A7.13,7.13,0,0,1,153.42,165Zm0-12.08a4.94,4.94,0,1,0,4.94,4.94h0A4.94,4.94,0,0,0,153.42,152.93Z" transform="translate(-29.83 -53.98)"/><path class="e" d="M32.76,156.68H30.93a1.12,1.12,0,0,1-1.1-1.1v-1.83a1.1,1.1,0,0,1,2.2,0v.73h.73a1.1,1.1,0,1,1,0,2.2Z" transform="translate(-29.83 -53.98)"/><path class="e" d="M70.11,156.68H66.77a1.1,1.1,0,0,1,0-2.2h3.34a1.1,1.1,0,0,1,0,2.2Zm-9.33,0H57.44a1.1,1.1,0,0,1,0-2.2h3.34a1.1,1.1,0,1,1,0,2.2Zm-9.35,0H48.09a1.1,1.1,0,0,1,0-2.2h3.35a1.1,1.1,0,0,1,0,2.2Zm-9.34,0H38.77a1.1,1.1,0,0,1,0-2.2H42.1a1.1,1.1,0,1,1,0,2.2Z" transform="translate(-29.83 -53.98)"/><path class="e" d="M77.94,156.68H76.11a1.1,1.1,0,0,1,0-2.2h.73v-.73a1.1,1.1,0,0,1,2.2,0h0v1.83a1.1,1.1,0,0,1-1.1,1.1Z" transform="translate(-29.83 -53.98)"/><path class="e" d="M77.94,148.84a1.11,1.11,0,0,1-1.1-1.09v-3.34a1.1,1.1,0,0,1,2.2,0v3.34a1.09,1.09,0,0,1-1.1,1.09Zm0-9.34a1.11,1.11,0,0,1-1.1-1.1v-3.34a1.1,1.1,0,0,1,2.2,0v3.34A1.09,1.09,0,0,1,78,139.5Zm0-9.33a1.11,1.11,0,0,1-1.1-1.1v-3.34a1.1,1.1,0,0,1,2.2,0v3.34a1.1,1.1,0,0,1-1.1,1.1Zm0-9.34a1.12,1.12,0,0,1-1.1-1.1v-3.34a1.1,1.1,0,0,1,2.2,0v3.34a1.1,1.1,0,0,1-1.1,1.1Z" transform="translate(-29.83 -53.98)"/><path class="e" d="M77.94,111.48a1.11,1.11,0,0,1-1.1-1.1v-.73h-.73a1.1,1.1,0,1,1,0-2.2h1.83a1.11,1.11,0,0,1,1.1,1.1v1.83a1.09,1.09,0,0,1-1.08,1.1Z" transform="translate(-29.83 -53.98)"/><path class="e" d="M70.11,109.65H66.77a1.1,1.1,0,1,1,0-2.19h3.34a1.09,1.09,0,0,1,1.09,1.09,1.07,1.07,0,0,1-1.07,1.1Zm-9.33,0H57.44a1.1,1.1,0,1,1,0-2.19h3.34a1.1,1.1,0,1,1,0,2.19Zm-9.35,0H48.09a1.1,1.1,0,0,1,0-2.19h3.35a1.1,1.1,0,0,1,0,2.19Zm-9.34,0H38.77a1.1,1.1,0,1,1,0-2.19H42.1a1.1,1.1,0,1,1,0,2.19Z" transform="translate(-29.83 -53.98)"/><path class="e" d="M30.93,111.48a1.11,1.11,0,0,1-1.1-1.09v-1.84a1.11,1.11,0,0,1,1.1-1.09h1.83a1.1,1.1,0,1,1,0,2.19H32v.73A1.1,1.1,0,0,1,30.93,111.48Z" transform="translate(-29.83 -53.98)"/><path class="e" d="M30.93,148.84a1.11,1.11,0,0,1-1.1-1.09v-3.34a1.1,1.1,0,0,1,2.2,0h0v3.34A1.11,1.11,0,0,1,30.93,148.84Zm0-9.34a1.11,1.11,0,0,1-1.1-1.1v-3.34a1.1,1.1,0,0,1,2.2,0v3.34a1.1,1.1,0,0,1-1.1,1.1Zm0-9.33a1.1,1.1,0,0,1-1.1-1.1v-3.34a1.1,1.1,0,0,1,2.2,0v3.34a1.11,1.11,0,0,1-1.1,1.1Zm0-9.34a1.12,1.12,0,0,1-1.1-1.1v-3.34a1.1,1.1,0,0,1,2.2,0h0v3.34a1.12,1.12,0,0,1-1.1,1.1Z" transform="translate(-29.83 -53.98)"/><path class="e" d="M54.44,170.49a1.1,1.1,0,0,1-1.1-1.1v-1.9a1.1,1.1,0,1,1,2.19,0v1.9A1.09,1.09,0,0,1,54.44,170.49Z" transform="translate(-29.83 -53.98)"/><path class="e" d="M54.44,199.05a1.1,1.1,0,0,1-1.1-1.1v-3.37a1.1,1.1,0,1,1,2.19,0V198A1.1,1.1,0,0,1,54.44,199.05Zm0-9.52a1.1,1.1,0,0,1-1.1-1.1v-3.37a1.1,1.1,0,0,1,2.19,0v3.37a1.09,1.09,0,0,1-1.09,1.1Zm0-9.52a1.1,1.1,0,0,1-1.1-1.1v-3.37a1.1,1.1,0,0,1,2.19,0h0v3.37a1.09,1.09,0,0,1-1.09,1.1Z" transform="translate(-29.83 -53.98)"/><path class="e" d="M56.27,207.17H54.44a1.09,1.09,0,0,1-1.1-1.09v-1.83a1.1,1.1,0,1,1,2.19,0V205h.74a1.1,1.1,0,1,1,0,2.19Z" transform="translate(-29.83 -53.98)"/><path class="e" d="M74.43,207.18H71.2a1.1,1.1,0,0,1,0-2.2h3.24a1.1,1.1,0,0,1,0,2.2Zm-9.08,0H62.13a1.1,1.1,0,1,1,0-2.2h3.22a1.1,1.1,0,0,1,0,2.2Z" transform="translate(-29.83 -53.98)"/><path class="e" d="M82.34,207.18H80.43a1.1,1.1,0,0,1,0-2.2h1.91a1.1,1.1,0,0,1,0,2.2Z" transform="translate(-29.83 -53.98)"/><path class="e" d="M261.17,159.14H216.65a3.57,3.57,0,0,1-3.57-3.57V111a3.57,3.57,0,0,1,3.57-3.57h44.52a3.59,3.59,0,0,1,3.58,3.57v44.53A3.59,3.59,0,0,1,261.17,159.14Zm-44.52-49.49a1.38,1.38,0,0,0-1.38,1.38h0v44.53a1.37,1.37,0,0,0,1.38,1.37h44.52a1.37,1.37,0,0,0,1.38-1.37h0V111a1.38,1.38,0,0,0-1.38-1.38H216.65Z" transform="translate(-29.83 -53.98)"/><path class="e" d="M263.21,149.33H214.73a1.1,1.1,0,1,1,0-2.2h48.48a1.1,1.1,0,1,1,0,2.2Z" transform="translate(-29.83 -53.98)"/><path class="e" d="M239.91,142.56a1.1,1.1,0,0,1-.78-.32l-12.52-12.52-11.1,11.1a1.1,1.1,0,1,1-1.56-1.55h0l11.88-11.88a1.12,1.12,0,0,1,1.56,0l13.29,13.3a1.09,1.09,0,0,1,0,1.55A1.06,1.06,0,0,1,239.91,142.56Z" transform="translate(-29.83 -53.98)"/><path class="e" d="M236.83,139.49a1.12,1.12,0,0,1-.92-.5,1.09,1.09,0,0,1,.3-1.52h0l13.95-9.11a1.12,1.12,0,0,1,1.17,0l12.43,7.47a1.1,1.1,0,0,1-1.09,1.91l0,0-11.85-7.12-13.35,8.73A1.1,1.1,0,0,1,236.83,139.49Z" transform="translate(-29.83 -53.98)"/><path class="e" d="M240.6,123.65a4.87,4.87,0,1,1,4.88-4.87h0A4.87,4.87,0,0,1,240.6,123.65Zm0-7.55a2.68,2.68,0,1,0,2.69,2.68,2.68,2.68,0,0,0-2.69-2.68Z" transform="translate(-29.83 -53.98)"/><path class="e" d="M239.85,168.59a1.12,1.12,0,0,1-1.1-1.1v-1.91a1.1,1.1,0,0,1,2.2,0v1.91A1.12,1.12,0,0,1,239.85,168.59Z" transform="translate(-29.83 -53.98)"/><path class="e" d="M239.85,198a1.12,1.12,0,0,1-1.1-1.1v-3.52a1.1,1.1,0,0,1,2.2,0v3.52A1.12,1.12,0,0,1,239.85,198Zm0-9.82a1.1,1.1,0,0,1-1.1-1.1V183.6a1.1,1.1,0,0,1,1.1-1.1,1.12,1.12,0,0,1,1.1,1.1v3.51a1.11,1.11,0,0,1-1.1,1.1Zm0-9.81a1.11,1.11,0,0,1-1.1-1.1v-3.51a1.1,1.1,0,1,1,2.2,0h0v3.51a1.11,1.11,0,0,1-1.1,1.1Z" transform="translate(-29.83 -53.98)"/><path class="e" d="M239.85,206.3H238a1.1,1.1,0,1,1,0-2.2h.74v-.73a1.09,1.09,0,0,1,1.1-1.09,1.1,1.1,0,0,1,1.1,1.09v1.83A1.12,1.12,0,0,1,239.85,206.3Z" transform="translate(-29.83 -53.98)"/><path class="e" d="M232.31,206.3h-3.23a1.1,1.1,0,0,1,0-2.2h3.24a1.11,1.11,0,0,1,1.09,1.11A1.09,1.09,0,0,1,232.31,206.3Zm-8.94,0h-3.22a1.09,1.09,0,0,1-1.09-1.1,1.1,1.1,0,0,1,1.09-1.1h3.22a1.1,1.1,0,1,1,0,2.2Z" transform="translate(-29.83 -53.98)"/><path class="e" d="M214.59,206.3h-1.76a1.1,1.1,0,0,1,0-2.2h1.77a1.1,1.1,0,0,1,0,2.2Z" transform="translate(-29.83 -53.98)"/><circle class="e" cx="72.19" cy="155.26" r="32.49"/><path class="f" d="M115.35,205.55a14,14,0,0,0-1.51-4.1l3.36-3.36-4.53-4.53-3.15,3.15a14.15,14.15,0,0,0-4.29-2V190.5H98.81v4a14,14,0,0,0-4.63,1.83l-2.8-2.8-4.6,4.6,2.8,2.8a15.14,15.14,0,0,0-1.81,4.61h-4V212H88a14,14,0,0,0,2,4.29l-3.18,3.18L91.32,224l3.38-3.38a13.84,13.84,0,0,0,4.1,1.51V227h6.42v-5.1a14,14,0,0,0,3.72-1.6L112.6,224l4.6-4.6-3.65-3.65a13.73,13.73,0,0,0,1.6-3.75h5.14v-6.42Zm-7.79,8.75a8.52,8.52,0,1,1,0-12.06A8.52,8.52,0,0,1,107.56,214.3Z" transform="translate(-29.83 -53.98)"/></svg>