<svg xmlns="http://www.w3.org/2000/svg" width="259.83" height="210.7" viewBox="0 0 259.83 210.7"><defs><style>.a{opacity:0.35;}.b{fill:#b9e3eb;}.c{fill:#e2e2e5;}.d,.g,.i{fill:#fff;}.d{opacity:0.5;}.e{fill:#47a8b5;}.f{fill:#3e4449;}.h{fill:#f47523;}.i{fill-rule:evenodd;}</style></defs><title>development</title><g class="a"><path class="b" d="M31.62,182.93S101.34,249,163.52,235.2s100.4-89.57,106.88-115.48-19.09-72.21-71.12-58.63S-15.22,128.09,31.62,182.93Z" transform="translate(-18.6 -44.26)"/></g><polygon class="c" points="209.91 141 55.81 141.01 56.57 128.59 211.42 128.59 209.91 141"/><rect class="d" x="55.44" y="35.22" width="155.29" height="91.33"/><polygon class="e" points="228.74 56.23 228.74 49.97 225.78 47.88 217.18 47.49 139.91 47.88 139.91 56.23 228.74 56.62 228.74 56.23"/><path class="f" d="M229.6,172.85H74.48a1,1,0,1,1,0-2H229.6a1,1,0,0,1,0,2Z" transform="translate(-18.6 -44.26)"/><path class="f" d="M134.34,217a1,1,0,0,1-1-1V186.69a1,1,0,0,1,2,0V216A1,1,0,0,1,134.34,217Z" transform="translate(-18.6 -44.26)"/><path class="f" d="M170.47,217a1,1,0,0,1-1-1V186.69a1,1,0,0,1,2,0V216A1,1,0,0,1,170.47,217Z" transform="translate(-18.6 -44.26)"/><path class="f" d="M186.34,217.71H118.76a1,1,0,1,1,0-2h67.58a1,1,0,1,1,0,2Z" transform="translate(-18.6 -44.26)"/><path class="f" d="M152.26,182.4a3.44,3.44,0,1,1,3.43-3.44A3.45,3.45,0,0,1,152.26,182.4Zm0-4.84a1.4,1.4,0,1,0,1.39,1.4A1.4,1.4,0,0,0,152.26,177.56Z" transform="translate(-18.6 -44.26)"/><path class="f" d="M224.06,187.23H80.55a7.16,7.16,0,0,1-7.16-7.15v-32a1,1,0,1,1,2,0v32a5.12,5.12,0,0,0,5.12,5.12H224.06a5.13,5.13,0,0,0,5.12-5.12V159.6a1,1,0,0,1,2,0v20.48A7.16,7.16,0,0,1,224.06,187.23Z" transform="translate(-18.6 -44.26)"/><path class="f" d="M74.41,95.39a1,1,0,0,1-1-1V85a7.16,7.16,0,0,1,7.16-7.15H224.06A7.16,7.16,0,0,1,231.22,85v6.25a1,1,0,0,1-2,0V85a5.12,5.12,0,0,0-5.12-5.11H80.55A5.11,5.11,0,0,0,75.43,85v9.33A1,1,0,0,1,74.41,95.39Z" transform="translate(-18.6 -44.26)"/><path class="f" d="M75.18,147.87a27.2,27.2,0,1,1,27.19-27.19A27.23,27.23,0,0,1,75.18,147.87Zm0-52.35a25.16,25.16,0,1,0,25.15,25.16A25.19,25.19,0,0,0,75.18,95.52Z" transform="translate(-18.6 -44.26)"/><rect class="d" x="140.5" y="57.22" width="88.76" height="56.22"/><path class="f" d="M243.61,159.74h-82a4.55,4.55,0,0,1-4.55-4.55V95.26a4.12,4.12,0,0,1,4.12-4.12h82.72a4.2,4.2,0,0,1,4.19,4.19v59.93A4.49,4.49,0,0,1,243.61,159.74ZM161.19,93.18a2.08,2.08,0,0,0-2.08,2.08v59.93a2.51,2.51,0,0,0,2.51,2.51h82a2.45,2.45,0,0,0,2.45-2.44V95.33a2.16,2.16,0,0,0-2.15-2.15Z" transform="translate(-18.6 -44.26)"/><path class="f" d="M245.77,102.21H158.09a1,1,0,0,1,0-2h87.68a1,1,0,0,1,0,2Z" transform="translate(-18.6 -44.26)"/><path class="f" d="M175.13,101.48a1,1,0,0,1-1-1V92.6a1,1,0,0,1,2,0v7.86A1,1,0,0,1,175.13,101.48Z" transform="translate(-18.6 -44.26)"/><path class="f" d="M163.88,99a2.37,2.37,0,1,1,2.36-2.36A2.36,2.36,0,0,1,163.88,99Z" transform="translate(-18.6 -44.26)"/><path class="f" d="M169.28,99a2.37,2.37,0,1,1,2.36-2.36A2.36,2.36,0,0,1,169.28,99Z" transform="translate(-18.6 -44.26)"/><path class="f" d="M227.12,97.55H182.26a1,1,0,1,1,0-2h44.86a1,1,0,0,1,0,2Z" transform="translate(-18.6 -44.26)"/><rect class="c" x="149.06" y="67.42" width="25.81" height="17.12"/><path class="f" d="M247.08,102.21h-2.62a1,1,0,0,1,0-2h2.62a1,1,0,0,1,0,2Z" transform="translate(-18.6 -44.26)"/><path class="f" d="M192.82,129.77H167.73a1,1,0,0,1-1-1V111.68a1,1,0,0,1,1-1h25.09a1,1,0,0,1,1,1v17.07A1,1,0,0,1,192.82,129.77Zm-24.07-2H191.8v-15H168.75Z" transform="translate(-18.6 -44.26)"/><path class="f" d="M192.05,136.59H168.11c-.79,0-1.43-.46-1.43-1s.64-1,1.43-1h23.94c.79,0,1.43.45,1.43,1S192.84,136.59,192.05,136.59Z" transform="translate(-18.6 -44.26)"/><path class="f" d="M192.05,142.85H168.11c-.79,0-1.43-.46-1.43-1s.64-1,1.43-1h23.94c.79,0,1.43.46,1.43,1S192.84,142.85,192.05,142.85Z" transform="translate(-18.6 -44.26)"/><path class="f" d="M192.05,149.26H168.11c-.79,0-1.43-.46-1.43-1s.64-1,1.43-1h23.94c.79,0,1.43.45,1.43,1S192.84,149.26,192.05,149.26Z" transform="translate(-18.6 -44.26)"/><path class="f" d="M139.39,133H122.06a1,1,0,1,1,0-2h17.33a1,1,0,1,1,0,2Z" transform="translate(-18.6 -44.26)"/><path class="f" d="M139.39,112.46H122.06a1,1,0,0,1,0-2h17.33a1,1,0,1,1,0,2Z" transform="translate(-18.6 -44.26)"/><path class="f" d="M149,122.72H132.84a1,1,0,0,1,0-2H149a1,1,0,1,1,0,2Z" transform="translate(-18.6 -44.26)"/><path class="f" d="M121.19,122.72h-6.12a1,1,0,0,1,0-2h6.12a1,1,0,0,1,0,2Z" transform="translate(-18.6 -44.26)"/><path class="f" d="M148.28,153.48H126.87a1,1,0,0,1,0-2h21.41a1,1,0,1,1,0,2Z" transform="translate(-18.6 -44.26)"/><path class="f" d="M116.82,153.48H110.7a1,1,0,0,1,0-2h6.12a1,1,0,0,1,0,2Z" transform="translate(-18.6 -44.26)"/><path class="f" d="M141.58,102.21H121.19a1,1,0,0,1,0-2h20.39a1,1,0,0,1,0,2Z" transform="translate(-18.6 -44.26)"/><path class="f" d="M111.57,102.21h-7a1,1,0,1,1,0-2h7a1,1,0,1,1,0,2Z" transform="translate(-18.6 -44.26)"/><path class="f" d="M141.58,143.23H121.19a1,1,0,0,1,0-2h20.39a1,1,0,0,1,0,2Z" transform="translate(-18.6 -44.26)"/><path class="f" d="M111.57,143.23h-7a1,1,0,0,1,0-2h7a1,1,0,0,1,0,2Z" transform="translate(-18.6 -44.26)"/><circle class="f" cx="55.9" cy="76.21" r="26.29"/><polygon class="b" points="199.98 162.89 199.98 156.8 204.19 155.73 234.69 156.83 238.83 152.07 257 153.31 259.51 155.41 257.78 195.74 258.72 197.94 257 197.94 204.19 199.36 200.56 198.62 199.11 195.74 199.96 164.06 199.98 162.89"/><path class="f" d="M76.81,231.11H75.06a1,1,0,1,1,0-2h1.75a1,1,0,0,1,0,2Z" transform="translate(-18.6 -44.26)"/><path class="f" d="M85.41,229.07h-3.5a1,1,0,1,0,0,2h3.5a1,1,0,0,0,0-2Z" transform="translate(-18.6 -44.26)"/><path class="f" d="M119.2,229.07h-3.5a1,1,0,1,0,0,2h3.5a1,1,0,0,0,0-2Z" transform="translate(-18.6 -44.26)"/><path class="f" d="M136.09,229.07H132.6a1,1,0,1,0,0,2h3.49a1,1,0,0,0,0-2Z" transform="translate(-18.6 -44.26)"/><path class="f" d="M127.64,229.07h-3.49a1,1,0,0,0,0,2h3.49a1,1,0,0,0,0-2Z" transform="translate(-18.6 -44.26)"/><path class="f" d="M144.54,229.07H141a1,1,0,1,0,0,2h3.5a1,1,0,0,0,0-2Z" transform="translate(-18.6 -44.26)"/><path class="f" d="M93.85,229.07H90.36a1,1,0,1,0,0,2h3.49a1,1,0,0,0,0-2Z" transform="translate(-18.6 -44.26)"/><path class="f" d="M102.3,229.07H98.81a1,1,0,1,0,0,2h3.49a1,1,0,0,0,0-2Z" transform="translate(-18.6 -44.26)"/><path class="f" d="M110.75,229.07h-3.5a1,1,0,1,0,0,2h3.5a1,1,0,0,0,0-2Z" transform="translate(-18.6 -44.26)"/><path class="f" d="M186.78,229.07h-3.5a1,1,0,0,0,0,2h3.5a1,1,0,0,0,0-2Z" transform="translate(-18.6 -44.26)"/><path class="f" d="M195.23,229.07h-3.5a1,1,0,1,0,0,2h3.5a1,1,0,0,0,0-2Z" transform="translate(-18.6 -44.26)"/><path class="f" d="M203.67,229.07h-3.49a1,1,0,0,0,0,2h3.49a1,1,0,0,0,0-2Z" transform="translate(-18.6 -44.26)"/><path class="f" d="M212.12,229.07h-3.49a1,1,0,1,0,0,2h3.49a1,1,0,0,0,0-2Z" transform="translate(-18.6 -44.26)"/><path class="f" d="M161.44,229.07h-3.5a1,1,0,0,0,0,2h3.5a1,1,0,0,0,0-2Z" transform="translate(-18.6 -44.26)"/><path class="f" d="M178.33,229.07h-3.49a1,1,0,0,0,0,2h3.49a1,1,0,0,0,0-2Z" transform="translate(-18.6 -44.26)"/><path class="f" d="M153,229.07h-3.5a1,1,0,0,0,0,2H153a1,1,0,0,0,0-2Z" transform="translate(-18.6 -44.26)"/><path class="f" d="M169.88,229.07h-3.49a1,1,0,1,0,0,2h3.49a1,1,0,0,0,0-2Z" transform="translate(-18.6 -44.26)"/><path class="f" d="M263.54,139.93a1,1,0,0,0,1-1v-3.49a1,1,0,0,0-2,0v3.49A1,1,0,0,0,263.54,139.93Z" transform="translate(-18.6 -44.26)"/><path class="f" d="M263.54,148.38a1,1,0,0,0,1-1v-3.49a1,1,0,1,0-2,0v3.49A1,1,0,0,0,263.54,148.38Z" transform="translate(-18.6 -44.26)"/><path class="f" d="M263.54,156.83a1,1,0,0,0,1-1v-3.5a1,1,0,1,0-2,0v3.5A1,1,0,0,0,263.54,156.83Z" transform="translate(-18.6 -44.26)"/><path class="f" d="M263.54,182.17a1,1,0,0,0,1-1v-3.49a1,1,0,1,0-2,0v3.49A1,1,0,0,0,263.54,182.17Z" transform="translate(-18.6 -44.26)"/><path class="f" d="M263.54,165.28a1,1,0,0,0,1-1v-3.5a1,1,0,0,0-2,0v3.5A1,1,0,0,0,263.54,165.28Z" transform="translate(-18.6 -44.26)"/><path class="f" d="M263.54,190.62a1,1,0,0,0,1-1v-3.49a1,1,0,1,0-2,0v3.49A1,1,0,0,0,263.54,190.62Z" transform="translate(-18.6 -44.26)"/><path class="f" d="M263.54,173.73a1,1,0,0,0,1-1v-3.5a1,1,0,1,0-2,0v3.5A1,1,0,0,0,263.54,173.73Z" transform="translate(-18.6 -44.26)"/><path class="f" d="M263.54,132.07a1,1,0,0,1-1-1v-.87h-.88a1,1,0,1,1,0-2h1.9a1,1,0,0,1,1,1v1.89A1,1,0,0,1,263.54,132.07Z" transform="translate(-18.6 -44.26)"/><path class="f" d="M257,130.18h-3.35a1,1,0,1,1,0-2H257a1,1,0,0,1,0,2Z" transform="translate(-18.6 -44.26)"/><path class="f" d="M248.83,130.18h-1.75a1,1,0,0,1,0-2h1.75a1,1,0,0,1,0,2Z" transform="translate(-18.6 -44.26)"/><path class="g" d="M66.66,112.5a1.23,1.23,0,0,0-1.74,0l-7.1,7.1a1.22,1.22,0,0,0,0,1.73l7.1,7.11a1.22,1.22,0,0,0,.87.35,1.23,1.23,0,0,0,.87-.35,1.25,1.25,0,0,0,0-1.74l-6.24-6.23,6.24-6.24A1.24,1.24,0,0,0,66.66,112.5Z" transform="translate(-18.6 -44.26)"/><path class="g" d="M91.2,119.6l-7.1-7.1a1.25,1.25,0,0,0-1.74,0,1.22,1.22,0,0,0,0,1.73l6.24,6.24-6.24,6.23a1.23,1.23,0,0,0-.36.87,1.24,1.24,0,0,0,.36.87,1.26,1.26,0,0,0,1.74,0l7.1-7.11a1.2,1.2,0,0,0,.36-.86A1.23,1.23,0,0,0,91.2,119.6Z" transform="translate(-18.6 -44.26)"/><path class="g" d="M78.31,112.25a1.22,1.22,0,0,0-1.63.6l-6.57,14.2a1.23,1.23,0,0,0,.6,1.63,1.2,1.2,0,0,0,.52.12,1.23,1.23,0,0,0,1.11-.72l6.56-14.2a1.18,1.18,0,0,0,0-.94A1.25,1.25,0,0,0,78.31,112.25Z" transform="translate(-18.6 -44.26)"/><path class="f" d="M274.77,195.6H259.43a6.82,6.82,0,0,0-5.88,3.4.85.85,0,0,0-.24-.05H221a3.68,3.68,0,0,0-3.67,3.67v37.47a3.68,3.68,0,0,0,3.67,3.67h53.81a3.68,3.68,0,0,0,3.67-3.67V199.27A3.68,3.68,0,0,0,274.77,195.6ZM221,200.7h31.65l-1.05,1.94a4.69,4.69,0,0,1-4.12,2.45H219.05v-2.47A1.91,1.91,0,0,1,221,200.7Zm55.72,39.39a1.91,1.91,0,0,1-1.91,1.91H221a1.91,1.91,0,0,1-1.91-1.91V206.84h28.39a6.44,6.44,0,0,0,5.66-3.37L255,200a5,5,0,0,1,4.43-2.63h15.34a1.91,1.91,0,0,1,1.91,1.91v40.82Z" transform="translate(-18.6 -44.26)"/><path class="f" d="M244,237.53h-3.51a.88.88,0,1,0,0,1.75H244a.88.88,0,0,0,0-1.75Z" transform="translate(-18.6 -44.26)"/><path class="f" d="M256.63,237.53h-7.22a.88.88,0,0,0,0,1.75h7.22a.88.88,0,1,0,0-1.75Z" transform="translate(-18.6 -44.26)"/><path class="f" d="M273.27,229.32a.88.88,0,0,0-.88.88v7a.31.31,0,0,1-.31.32H261.37a.88.88,0,0,0,0,1.75h10.71a2.07,2.07,0,0,0,2.07-2.07v-7A.88.88,0,0,0,273.27,229.32Z" transform="translate(-18.6 -44.26)"/><path class="f" d="M220.57,124.66h0a6.26,6.26,0,1,0,0,12.52h0a6.28,6.28,0,0,0,6.26-6.26,6.28,6.28,0,0,0-6.26-6.26Zm4.26,6.27a4.27,4.27,0,1,1-4.26-4.26h0A4.26,4.26,0,0,1,224.83,130.93Z" transform="translate(-18.6 -44.26)"/><path class="f" d="M225.59,142.25a1,1,0,0,0,.95,1.3h0a.9.9,0,0,0,.44-.11,14.15,14.15,0,0,0,1.93-1.2,1,1,0,0,0-.45-1.79,1,1,0,0,0-.74.18,11.85,11.85,0,0,1-1.66,1A1,1,0,0,0,225.59,142.25Z" transform="translate(-18.6 -44.26)"/><path class="f" d="M222.78,142.8a11.39,11.39,0,0,1-1.94.2,1,1,0,0,0,0,2h0a14.2,14.2,0,0,0,2.25-.24,1,1,0,0,0-.36-2Z" transform="translate(-18.6 -44.26)"/><path class="f" d="M211.26,138.6a1,1,0,0,0-1.41-.13,1,1,0,0,0-.35.68,1,1,0,0,0,.22.73,14.15,14.15,0,0,0,1.57,1.62.94.94,0,0,0,.65.26h0a1.06,1.06,0,0,0,.76-.35,1,1,0,0,0-.1-1.41A11.25,11.25,0,0,1,211.26,138.6Z" transform="translate(-18.6 -44.26)"/><path class="f" d="M229.7,123a1,1,0,0,0,.75.34h0a1,1,0,0,0,.67-.25,1,1,0,0,0,.09-1.4,14.91,14.91,0,0,0-1.6-1.58l-.07-.06a1,1,0,0,0-1.41.19,1,1,0,0,0-.19.74,1,1,0,0,0,.37.65A13.82,13.82,0,0,1,229.7,123Z" transform="translate(-18.6 -44.26)"/><path class="f" d="M233,130.6a1,1,0,0,0-.32.7,11.65,11.65,0,0,1-.22,1.94,1,1,0,0,0,.79,1.16h.2a1,1,0,0,0,1-.8,14.34,14.34,0,0,0,.25-2.26,1,1,0,0,0-1-1A1,1,0,0,0,233,130.6Z" transform="translate(-18.6 -44.26)"/><path class="f" d="M232.23,127.8a1,1,0,0,0,1,.75h0l.25,0a1,1,0,0,0,.7-1.22,13.62,13.62,0,0,0-.76-2.14,1,1,0,1,0-1.82.81A11.08,11.08,0,0,1,232.23,127.8Z" transform="translate(-18.6 -44.26)"/><path class="f" d="M232.61,136.1a1,1,0,0,0-.76-.07,1,1,0,0,0-.58.49,12.74,12.74,0,0,1-1,1.65,1,1,0,0,0,.2,1.4,1,1,0,0,0,.59.2h0a1,1,0,0,0,.79-.41,12.73,12.73,0,0,0,1.22-1.92,1,1,0,0,0,.06-.76A1,1,0,0,0,232.61,136.1Z" transform="translate(-18.6 -44.26)"/><path class="f" d="M217.37,142.58a12.12,12.12,0,0,1-1.83-.66,1,1,0,0,0-1.32.49,1,1,0,0,0,0,.76,1,1,0,0,0,.52.56,14.94,14.94,0,0,0,2.12.77.84.84,0,0,0,.27,0h0a1,1,0,0,0,1-.74A1,1,0,0,0,217.37,142.58Z" transform="translate(-18.6 -44.26)"/><path class="f" d="M215.79,119.49a1,1,0,0,0,0-.76,1,1,0,0,0-1.33-.46,14.24,14.24,0,0,0-1.95,1.15,1,1,0,0,0-.24,1.39,1,1,0,0,0,.8.43h0a1,1,0,0,0,.55-.18,11.81,11.81,0,0,1,1.68-1A1,1,0,0,0,215.79,119.49Z" transform="translate(-18.6 -44.26)"/><path class="f" d="M209.44,135.63a13.06,13.06,0,0,1-.62-1.89,1,1,0,0,0-1.22-.71,1,1,0,0,0-.71,1.21,12.41,12.41,0,0,0,.71,2.16,1,1,0,0,0,.91.62h0a.69.69,0,0,0,.38-.08A1,1,0,0,0,209.44,135.63Z" transform="translate(-18.6 -44.26)"/><path class="f" d="M209.51,122.24a14.44,14.44,0,0,0-1.26,1.89,1,1,0,0,0,.4,1.36,1.08,1.08,0,0,0,.47.11h0a1,1,0,0,0,.88-.51,11.36,11.36,0,0,1,1.1-1.66,1,1,0,0,0-.21-1.4,1,1,0,0,0-.74-.18A1,1,0,0,0,209.51,122.24Z" transform="translate(-18.6 -44.26)"/><path class="f" d="M207.51,131.24h0a1,1,0,0,0,1-1,11.34,11.34,0,0,1,.25-1.92,1,1,0,0,0-.13-.75,1,1,0,0,0-.63-.44,1,1,0,0,0-1.18.76,13.1,13.1,0,0,0-.31,2.25,1,1,0,0,0,.26.72,1,1,0,0,0,.71.33Zm0-.37Z" transform="translate(-18.6 -44.26)"/><path class="f" d="M220.57,116.86a14.16,14.16,0,0,0-2.26.18,1,1,0,0,0,.15,2h.17a13.75,13.75,0,0,1,2-.15,1,1,0,0,0,1-1,1.06,1.06,0,0,0-.27-.72A1,1,0,0,0,220.57,116.86Z" transform="translate(-18.6 -44.26)"/><path class="f" d="M223.48,119.21a13.39,13.39,0,0,1,1.85.62,1,1,0,0,0,.39.08h.22l0,0a1,1,0,0,0,.68-.59,1,1,0,0,0,0-.76,1,1,0,0,0-.53-.54,14.3,14.3,0,0,0-2.18-.73,1,1,0,0,0-.76.13,1,1,0,0,0-.44.62,1,1,0,0,0,.13.76A1,1,0,0,0,223.48,119.21Z" transform="translate(-18.6 -44.26)"/><path class="f" d="M239.25,130.19a1,1,0,0,0-1.68.74,17,17,0,0,1-17,17,1,1,0,0,0-.7.32,1,1,0,0,0,.05,1.41,1,1,0,0,0,.68.27h0a19,19,0,0,0,19-19.05A1,1,0,0,0,239.25,130.19Z" transform="translate(-18.6 -44.26)"/><path class="f" d="M220.57,113.93a1,1,0,0,0,1-1,1,1,0,0,0-1-1,19,19,0,0,0-19,19,1,1,0,0,0,1,1h0a1,1,0,0,0,.71-.29,1,1,0,0,0,.29-.71A17,17,0,0,1,220.57,113.93Z" transform="translate(-18.6 -44.26)"/><path class="e" d="M55.88,201.92H25.32a1.11,1.11,0,0,0-1.1,1.11V207l26.61.11,6.07,6.07.18,36.21h3.78A1.11,1.11,0,0,0,62,248.24v-40h0l0-.1Z" transform="translate(-18.6 -44.26)"/><path class="f" d="M49.74,225.39H26.51a.57.57,0,1,1,0-1.13H49.74a.57.57,0,1,1,0,1.13Z" transform="translate(-18.6 -44.26)"/><path class="f" d="M49.74,221.47H26.51a.57.57,0,0,1,0-1.14H49.74a.57.57,0,1,1,0,1.14Z" transform="translate(-18.6 -44.26)"/><path class="f" d="M49.74,229.24H26.51a.57.57,0,0,1-.57-.57.56.56,0,0,1,.57-.56H49.74a.56.56,0,0,1,.57.56A.57.57,0,0,1,49.74,229.24Z" transform="translate(-18.6 -44.26)"/><path class="f" d="M49.74,233.16H26.51a.57.57,0,1,1,0-1.13H49.74a.57.57,0,1,1,0,1.13Z" transform="translate(-18.6 -44.26)"/><path class="f" d="M49.74,237.16H26.51a.57.57,0,1,1,0-1.13H49.74a.57.57,0,1,1,0,1.13Z" transform="translate(-18.6 -44.26)"/><path class="f" d="M38.12,241H26.51a.57.57,0,0,1-.57-.57.56.56,0,0,1,.57-.56H38.12a.56.56,0,0,1,.57.56A.57.57,0,0,1,38.12,241Z" transform="translate(-18.6 -44.26)"/><path class="f" d="M30.05,216.49H26.51a.57.57,0,0,1,0-1.14h3.54a.57.57,0,1,1,0,1.14Z" transform="translate(-18.6 -44.26)"/><path class="f" d="M41.14,216.49H35a.57.57,0,0,1,0-1.14h6.18a.57.57,0,1,1,0,1.14Z" transform="translate(-18.6 -44.26)"/><path class="f" d="M55.86,255H20.28a1.68,1.68,0,0,1-1.68-1.67V208.1a1.68,1.68,0,0,1,1.68-1.67H50.76a.56.56,0,0,1,.56.57v5.11a.54.54,0,0,0,.54.53H57a.56.56,0,0,1,.56.56v40.09A1.67,1.67,0,0,1,55.86,255Zm-35.58-47.4a.54.54,0,0,0-.54.54v45.19a.54.54,0,0,0,.54.54H55.86a.54.54,0,0,0,.54-.54V213.77H51.86a1.67,1.67,0,0,1-1.67-1.66v-4.55Z" transform="translate(-18.6 -44.26)"/><path class="f" d="M56.9,213.7a.55.55,0,0,1-.4-.16l-6.07-6.07a.57.57,0,0,1,.8-.8l6.07,6.07a.56.56,0,0,1-.4,1Z" transform="translate(-18.6 -44.26)"/><path class="f" d="M60.86,249.91h-3.4a.57.57,0,1,1,0-1.13h3.4a.54.54,0,0,0,.54-.54V208.36l-5.75-5.87H25.32a.54.54,0,0,0-.54.54v3.47a.57.57,0,1,1-1.13,0V203a1.68,1.68,0,0,1,1.67-1.68H55.88a.61.61,0,0,1,.41.17l6.06,6.18a.76.76,0,0,1,.12.19l0,.1a.66.66,0,0,1,0,.34v39.91A1.68,1.68,0,0,1,60.86,249.91Z" transform="translate(-18.6 -44.26)"/><path class="f" d="M65.92,244.86H62.51a.57.57,0,1,1,0-1.13h3.41a.54.54,0,0,0,.54-.54V203.3l-5.76-5.87H30.38a.55.55,0,0,0-.55.54v3.48a.57.57,0,0,1-.56.57.58.58,0,0,1-.57-.57V198a1.68,1.68,0,0,1,1.68-1.67H60.94a.56.56,0,0,1,.4.17l6.06,6.18a.71.71,0,0,1,.12.18l0,.11a.54.54,0,0,1,0,.33v39.92A1.67,1.67,0,0,1,65.92,244.86Z" transform="translate(-18.6 -44.26)"/><path class="h" d="M262,58.09a12.27,12.27,0,0,0-1.31-3.58l2.92-2.92-3.95-4L257,50.39a12.54,12.54,0,0,0-3.73-1.73V45h-5.59v3.51a12.07,12.07,0,0,0-4,1.59l-2.44-2.44-4,4,2.44,2.44a13,13,0,0,0-1.58,4h-3.5v5.59h3.69a12.27,12.27,0,0,0,1.72,3.73l-2.77,2.77,4,3.94,2.94-2.94a12,12,0,0,0,3.57,1.32v4.28h5.59V72.34a11.8,11.8,0,0,0,3.25-1.4l3.17,3.18,4-4-3.18-3.18a11.79,11.79,0,0,0,1.4-3.27h4.47v-5.6Zm-6.78,7.61a7.42,7.42,0,1,1,0-10.5A7.42,7.42,0,0,1,255.26,65.7Z" transform="translate(-18.6 -44.26)"/><path class="f" d="M250,68.59a8.14,8.14,0,0,1-5.76-13.89h0A8.14,8.14,0,1,1,250,68.59Zm0-14.84a6.63,6.63,0,0,0-4.74,2h0a6.71,6.71,0,1,0,4.74-2Zm-5.25,1.45Z" transform="translate(-18.6 -44.26)"/><path class="f" d="M253.23,77.54h0l-5.59,0a.72.72,0,0,1-.72-.72V73.08a12.77,12.77,0,0,1-2.73-1l-2.57,2.57a.71.71,0,0,1-1,0l-3.94-3.95a.67.67,0,0,1-.21-.5.69.69,0,0,1,.21-.51L239,67.32a13.36,13.36,0,0,1-1.34-2.9l-3.15,0h0a.74.74,0,0,1-.51-.24.74.74,0,0,1-.21-.51V58.1a.67.67,0,0,1,.21-.5.69.69,0,0,1,.51-.21h2.93a14.33,14.33,0,0,1,1.26-3.18l-2.05-2.05a.72.72,0,0,1,0-1l4-4a.71.71,0,0,1,1,0l2,2a13.19,13.19,0,0,1,3.2-1.27V45a.72.72,0,0,1,.72-.72h5.59a.74.74,0,0,1,.51.21A.75.75,0,0,1,254,45v3.15a13.51,13.51,0,0,1,2.92,1.34l2.33-2.33a.71.71,0,0,1,1,0l4,3.94a.72.72,0,0,1,0,1l-2.55,2.54a12.29,12.29,0,0,1,1,2.74h3.73a.74.74,0,0,1,.51.2.71.71,0,0,1,.21.5v5.59a.67.67,0,0,1-.21.48.73.73,0,0,1-.51.18h0l-3.93,0a12.89,12.89,0,0,1-1,2.44l2.79,2.79a.75.75,0,0,1,.21.51.74.74,0,0,1-.21.51l-4,4a.71.71,0,0,1-1,0l-2.79-2.79a11.51,11.51,0,0,1-2.41,1v3.91a.8.8,0,0,1-.21.53A.78.78,0,0,1,253.23,77.54Zm-4.88-1.48h4.17V72.34a.73.73,0,0,1,.53-.7,11.09,11.09,0,0,0,3-1.3.7.7,0,0,1,.88.1l2.67,2.67,3-3L260,67.44a.71.71,0,0,1-.11-.88,11.35,11.35,0,0,0,1.32-3.09.73.73,0,0,1,.69-.56h0l3.76,0V58.8l-3.59,0h0a.72.72,0,0,1-.7-.58,11.24,11.24,0,0,0-1.24-3.37.71.71,0,0,1,.12-.86l2.42-2.42-2.94-2.93-2.23,2.23a.71.71,0,0,1-.91.09,11.77,11.77,0,0,0-3.51-1.62.72.72,0,0,1-.53-.7v-3h-4.16v2.79a.72.72,0,0,1-.57.71,11.36,11.36,0,0,0-3.8,1.5.71.71,0,0,1-.88-.1l-1.93-1.93-3,3,1.94,1.93a.74.74,0,0,1,.11.88,12,12,0,0,0-1.49,3.79.73.73,0,0,1-.71.57h-2.79v4.13l3,0h0a.75.75,0,0,1,.69.56A12,12,0,0,0,240.53,67a.73.73,0,0,1-.09.91l-2.26,2.26,2.94,2.94,2.43-2.44a.71.71,0,0,1,.86-.11,11.49,11.49,0,0,0,3.36,1.24.71.71,0,0,1,.58.7Z" transform="translate(-18.6 -44.26)"/><path class="f" d="M199.07,69.82A1.14,1.14,0,0,1,200.21,71V73.1a1.15,1.15,0,0,1-2.29,0V71A1.14,1.14,0,0,1,199.07,69.82Z" transform="translate(-18.6 -44.26)"/><path class="f" d="M199.07,59.5h2.13a1.15,1.15,0,0,1,0,2.29h-1v.82a1.15,1.15,0,1,1-2.29,0v-2A1.14,1.14,0,0,1,199.07,59.5Z" transform="translate(-18.6 -44.26)"/><path class="f" d="M206.93,59.5h3.28a1.15,1.15,0,1,1,0,2.29h-3.28a1.15,1.15,0,0,1,0-2.29Zm9.18,0h3.28a1.15,1.15,0,0,1,0,2.29h-3.28a1.15,1.15,0,1,1,0-2.29Z" transform="translate(-18.6 -44.26)"/><path class="f" d="M225.29,59.5h2a1.15,1.15,0,1,1,0,2.29h-2a1.15,1.15,0,1,1,0-2.29Z" transform="translate(-18.6 -44.26)"/><circle class="f" cx="200.1" cy="160.75" r="9.93"/><path class="i" d="M218.71,199.12a1.85,1.85,0,0,1,1.67,1,3.1,3.1,0,0,0-.46.35,1.71,1.71,0,0,1-2.42,0,2.3,2.3,0,0,0-.47-.35A1.88,1.88,0,0,1,218.71,199.12Zm1.85,1.65a1.33,1.33,0,0,1,0,.2,2.19,2.19,0,0,0,2.18,2.18h.2l-.17.21a2.32,2.32,0,0,0,0,3.28h0a1.2,1.2,0,0,1,.17.21h-.2a2.18,2.18,0,0,0-2.18,2.17.74.74,0,0,1,0,.21l-.21-.19a2.31,2.31,0,0,0-3.28,0h0a1.29,1.29,0,0,1-.21.19,1.48,1.48,0,0,1,0-.21,2.17,2.17,0,0,0-2.17-2.17h-.2a1.73,1.73,0,0,1,.17-.21,2.32,2.32,0,0,0,0-3.29h0a1.12,1.12,0,0,1-.17-.21h.2a2.18,2.18,0,0,0,2.17-2.18,1.41,1.41,0,0,1,0-.2,1.29,1.29,0,0,1,.21.19,2.33,2.33,0,0,0,3.29,0h0Zm3,2.57a1.88,1.88,0,0,1,0,3.35,3.33,3.33,0,0,0-.36-.46,1.72,1.72,0,0,1,0-2.43A2.28,2.28,0,0,0,223.57,203.34Zm-3.19,6.53a1.87,1.87,0,0,1-2.5.85,1.94,1.94,0,0,1-.85-.85,2.35,2.35,0,0,0,.47-.36,1.73,1.73,0,0,1,2.42,0A2.28,2.28,0,0,0,220.38,209.87Zm-6.53-3.18a1.88,1.88,0,0,1-.84-2.51,1.85,1.85,0,0,1,.84-.84,2.28,2.28,0,0,0,.36.46,1.72,1.72,0,0,1,.5,1.21,1.74,1.74,0,0,1-.5,1.22A2,2,0,0,0,213.85,206.69Zm4.86,4.53a2.16,2.16,0,0,0,1.94-1.21,2.53,2.53,0,0,0,.9.18,2.33,2.33,0,0,0,2.33-2.33,2.3,2.3,0,0,0-.18-.9,2.17,2.17,0,0,0,0-3.89,2.33,2.33,0,0,0-3-3,2.16,2.16,0,0,0-3.89,0,2.3,2.3,0,0,0-.9-.18,2.34,2.34,0,0,0-2.33,2.33,2.14,2.14,0,0,0,.19.9,2.16,2.16,0,0,0,0,3.89,2.3,2.3,0,0,0-.19.9,2.34,2.34,0,0,0,2.33,2.33,2.49,2.49,0,0,0,.9-.18,2.2,2.2,0,0,0,2,1.21Zm2.13-1.8a2.43,2.43,0,0,0,0-.38,1.87,1.87,0,0,1,1.87-1.86,2.31,2.31,0,0,0,.37,0,1.6,1.6,0,0,1,.16.71,1.81,1.81,0,0,1-.5,1.21,1.64,1.64,0,0,1-1.22.5A1.78,1.78,0,0,1,220.84,209.42Zm2.27-6.54a2.31,2.31,0,0,0-.37,0,1.87,1.87,0,0,1-1.87-1.87,2.31,2.31,0,0,0,0-.37,1.49,1.49,0,0,1,.71-.15,1.64,1.64,0,0,1,1.22.5,1.7,1.7,0,0,1,.5,1.21A1.6,1.6,0,0,1,223.11,202.88Zm-6.54-2.27a2.31,2.31,0,0,0,0,.37,1.87,1.87,0,0,1-1.86,1.87,2.43,2.43,0,0,0-.38,0,1.74,1.74,0,0,1-.15-.71,1.7,1.7,0,0,1,.5-1.21,1.64,1.64,0,0,1,1.21-.5A1.71,1.71,0,0,1,216.57,200.61Zm-2.27,6.54a2.43,2.43,0,0,0,.38,0,1.86,1.86,0,0,1,1.86,1.86,2.43,2.43,0,0,0,0,.38,1.56,1.56,0,0,1-.71.15,1.7,1.7,0,0,1-1.71-1.7h0A1.71,1.71,0,0,1,214.3,207.15Z" transform="translate(-18.6 -44.26)"/></svg>