<svg xmlns="http://www.w3.org/2000/svg" width="254.86" height="205.64" viewBox="0 0 254.86 205.64"><defs><style>.a{opacity:0.35;}.b{fill:#b9e3eb;}.c{fill:#fff;opacity:0.5;}.d{fill:#f47523;}.e{fill:#47a8b5;}.f{fill:#e2e2e5;}.g{fill:#1d243a;}.h{fill:#3e4449;}</style></defs><title>tools-policy-importer</title><g class="a"><path class="b" d="M37.11,196.92S104.69,261,165,247.59s97.32-86.83,103.61-111.94-18.51-70-68.95-56.84S-8.3,143.75,37.11,196.92Z" transform="translate(-19.37 -43.79)"/></g><rect class="c" x="75.98" y="59.86" width="146.89" height="121.32"/><rect class="b" x="85.15" y="120.8" width="127.72" height="47.28"/><polygon class="d" points="201.44 176.89 218.06 186.82 239.16 149.94 222.86 139.87 201.44 176.89"/><rect class="e" x="29.97" y="41.75" width="89.48" height="47.93"/><path class="f" d="M69,67.89a21,21,0,0,0-2.28-6.22l5.09-5.09L65,49.71l-4.78,4.78a21.51,21.51,0,0,0-6.49-3V45.07H43.94v6.11a21.18,21.18,0,0,0-7,2.78l-4.24-4.25-7,7L30,60.93a22.72,22.72,0,0,0-2.75,7h-6.1v9.73h6.43a21.59,21.59,0,0,0,3,6.51L25.72,89l6.86,6.86,5.13-5.12A20.72,20.72,0,0,0,43.93,93v7.45h9.75V92.71a20.62,20.62,0,0,0,5.64-2.43l5.53,5.53,7-7-5.54-5.53a20.89,20.89,0,0,0,2.44-5.68h7.79V67.89ZM57.2,81.15a12.92,12.92,0,1,1,0-18.27A12.91,12.91,0,0,1,57.2,81.15Z" transform="translate(-19.37 -43.79)"/><path class="g" d="M105,212.16h-.46v-.51a.69.69,0,0,0-1.37,0v1.15a.68.68,0,0,0,.69.68H105a.69.69,0,1,0,0-1.37Z" transform="translate(-19.37 -43.79)"/><path class="g" d="M123.56,212.16h-2.22a.69.69,0,0,0,0,1.37h2.22a.69.69,0,0,0,0-1.37Z" transform="translate(-19.37 -43.79)"/><path class="g" d="M148.08,212.16h-2.22a.69.69,0,0,0,0,1.37h2.22a.69.69,0,0,0,0-1.37Z" transform="translate(-19.37 -43.79)"/><path class="g" d="M142,212.16h-2.22a.69.69,0,0,0,0,1.37H142a.69.69,0,0,0,0-1.37Z" transform="translate(-19.37 -43.79)"/><path class="g" d="M154.21,212.16H152a.69.69,0,0,0,0,1.37h2.22a.69.69,0,0,0,0-1.37Z" transform="translate(-19.37 -43.79)"/><path class="g" d="M160.34,212.16h-2.22a.69.69,0,0,0,0,1.37h2.22a.69.69,0,0,0,0-1.37Z" transform="translate(-19.37 -43.79)"/><path class="g" d="M117.43,212.16h-2.22a.69.69,0,0,0,0,1.37h2.22a.69.69,0,0,0,0-1.37Z" transform="translate(-19.37 -43.79)"/><path class="g" d="M111.3,212.16h-2.22a.69.69,0,0,0,0,1.37h2.22a.69.69,0,0,0,0-1.37Z" transform="translate(-19.37 -43.79)"/><path class="g" d="M166.47,212.16h-2.22a.69.69,0,0,0,0,1.37h2.22a.69.69,0,0,0,0-1.37Z" transform="translate(-19.37 -43.79)"/><path class="g" d="M129.69,212.16h-2.22a.69.69,0,0,0,0,1.37h2.22a.69.69,0,0,0,0-1.37Z" transform="translate(-19.37 -43.79)"/><path class="g" d="M135.82,212.16H133.6a.69.69,0,0,0,0,1.37h2.22a.69.69,0,0,0,0-1.37Z" transform="translate(-19.37 -43.79)"/><path class="g" d="M203.24,212.16H201a.69.69,0,0,0,0,1.37h2.22a.69.69,0,0,0,0-1.37Z" transform="translate(-19.37 -43.79)"/><path class="g" d="M215.5,212.16h-2.22a.69.69,0,0,0,0,1.37h2.22a.69.69,0,0,0,0-1.37Z" transform="translate(-19.37 -43.79)"/><path class="g" d="M209.37,212.16h-2.22a.69.69,0,0,0,0,1.37h2.22a.69.69,0,0,0,0-1.37Z" transform="translate(-19.37 -43.79)"/><path class="g" d="M172.6,212.16h-2.22a.69.69,0,0,0,0,1.37h2.22a.69.69,0,0,0,0-1.37Z" transform="translate(-19.37 -43.79)"/><path class="g" d="M221.63,213.53a.69.69,0,0,0,0-1.37h-2.22a.69.69,0,0,0,0,1.37Z" transform="translate(-19.37 -43.79)"/><path class="g" d="M178.73,212.16h-2.22a.69.69,0,0,0,0,1.37h2.22a.69.69,0,0,0,0-1.37Z" transform="translate(-19.37 -43.79)"/><path class="g" d="M184.86,212.16h-2.23a.69.69,0,0,0,0,1.37h2.23a.69.69,0,0,0,0-1.37Z" transform="translate(-19.37 -43.79)"/><path class="g" d="M191,212.16h-2.23a.69.69,0,0,0,0,1.37H191a.69.69,0,0,0,0-1.37Z" transform="translate(-19.37 -43.79)"/><path class="g" d="M197.12,212.16h-2.23a.69.69,0,0,0,0,1.37h2.23a.69.69,0,0,0,0-1.37Z" transform="translate(-19.37 -43.79)"/><path class="g" d="M232.93,180.33a.7.7,0,0,0-.7.68v2.2a.69.69,0,1,0,1.38,0V181A.69.69,0,0,0,232.93,180.33Z" transform="translate(-19.37 -43.79)"/><path class="g" d="M232.93,174.19a.7.7,0,0,0-.7.68v2.2a.69.69,0,0,0,.69.69h0a.69.69,0,0,0,.69-.69v-2.2A.7.7,0,0,0,232.93,174.19Z" transform="translate(-19.37 -43.79)"/><path class="g" d="M232.93,168.05a.71.71,0,0,0-.7.69v2.19a.69.69,0,0,0,.69.69h0a.69.69,0,0,0,.69-.69v-2.19A.7.7,0,0,0,232.93,168.05Z" transform="translate(-19.37 -43.79)"/><path class="g" d="M232.93,186.47a.69.69,0,0,0-.7.68v2.2a.68.68,0,0,0,.69.68h0a.69.69,0,0,0,.69-.69v-2.2A.69.69,0,0,0,232.93,186.47Z" transform="translate(-19.37 -43.79)"/><path class="g" d="M231.77,164.71h.46v.45a.69.69,0,1,0,1.38,0V164a.69.69,0,0,0-.69-.69h-1.15a.69.69,0,0,0-.66.66A.7.7,0,0,0,231.77,164.71Z" transform="translate(-19.37 -43.79)"/><path class="g" d="M151.9,164.71h2.22a.7.7,0,0,0,.66-.67.68.68,0,0,0-.66-.71H151.9a.68.68,0,0,0-.66.66A.69.69,0,0,0,151.9,164.71Z" transform="translate(-19.37 -43.79)"/><path class="g" d="M164.16,164.71h2.22a.69.69,0,0,0,0-1.38h-2.22a.68.68,0,0,0-.66.66A.69.69,0,0,0,164.16,164.71Z" transform="translate(-19.37 -43.79)"/><path class="g" d="M176.42,164.71h2.22a.69.69,0,0,0,0-1.38h-2.22a.68.68,0,0,0-.66.66A.69.69,0,0,0,176.42,164.71Z" transform="translate(-19.37 -43.79)"/><path class="g" d="M170.29,164.71h2.22a.69.69,0,0,0,0-1.38h-2.22a.68.68,0,0,0-.66.66A.69.69,0,0,0,170.29,164.71Z" transform="translate(-19.37 -43.79)"/><path class="g" d="M139.64,164.71h2.22a.7.7,0,0,0,.66-.67.68.68,0,0,0-.66-.71h-2.22a.68.68,0,0,0-.66.66A.69.69,0,0,0,139.64,164.71Z" transform="translate(-19.37 -43.79)"/><path class="g" d="M145.77,164.71H148a.7.7,0,0,0,.66-.67.68.68,0,0,0-.66-.71h-2.22a.68.68,0,0,0-.66.66A.69.69,0,0,0,145.77,164.71Z" transform="translate(-19.37 -43.79)"/><path class="g" d="M133.51,164.71h2.22a.7.7,0,0,0,.66-.67.68.68,0,0,0-.66-.71h-2.22a.68.68,0,0,0-.66.66A.69.69,0,0,0,133.51,164.71Z" transform="translate(-19.37 -43.79)"/><path class="g" d="M127.38,164.71h2.22a.7.7,0,0,0,.66-.67.68.68,0,0,0-.66-.71h-2.22a.68.68,0,0,0-.66.66A.7.7,0,0,0,127.38,164.71Z" transform="translate(-19.37 -43.79)"/><path class="g" d="M109,164.71h2.22a.7.7,0,0,0,.66-.67.68.68,0,0,0-.66-.71H109a.68.68,0,0,0-.66.66A.7.7,0,0,0,109,164.71Z" transform="translate(-19.37 -43.79)"/><path class="g" d="M121.25,164.71h2.22a.7.7,0,0,0,.66-.67.68.68,0,0,0-.66-.71h-2.22a.68.68,0,0,0-.66.66A.69.69,0,0,0,121.25,164.71Z" transform="translate(-19.37 -43.79)"/><path class="g" d="M182.55,164.71h2.22a.69.69,0,0,0,0-1.38h-2.22a.7.7,0,0,0-.67.66A.71.71,0,0,0,182.55,164.71Z" transform="translate(-19.37 -43.79)"/><path class="g" d="M158,164.71h2.22a.69.69,0,0,0,0-1.38H158a.68.68,0,0,0-.66.66A.69.69,0,0,0,158,164.71Z" transform="translate(-19.37 -43.79)"/><path class="g" d="M194.8,164.71H197a.71.71,0,0,0,.67-.67.7.7,0,0,0-.67-.71H194.8a.69.69,0,0,0-.66.66A.7.7,0,0,0,194.8,164.71Z" transform="translate(-19.37 -43.79)"/><path class="g" d="M188.67,164.71h2.23a.69.69,0,0,0,0-1.38h-2.23a.69.69,0,0,0-.66.66A.71.71,0,0,0,188.67,164.71Z" transform="translate(-19.37 -43.79)"/><path class="g" d="M213.19,164.71h2.22a.71.71,0,0,0,.67-.67.7.7,0,0,0-.67-.71h-2.22a.68.68,0,0,0-.66.66A.7.7,0,0,0,213.19,164.71Z" transform="translate(-19.37 -43.79)"/><path class="g" d="M200.93,164.71h2.22a.71.71,0,0,0,.67-.67.7.7,0,0,0-.67-.71h-2.22a.69.69,0,0,0-.66.66A.7.7,0,0,0,200.93,164.71Z" transform="translate(-19.37 -43.79)"/><path class="g" d="M207.06,164.71h2.22A.71.71,0,0,0,210,164a.7.7,0,0,0-.67-.71h-2.22a.68.68,0,0,0-.66.66A.7.7,0,0,0,207.06,164.71Z" transform="translate(-19.37 -43.79)"/><path class="g" d="M219.32,164.71h2.22a.7.7,0,0,0,.66-.67.68.68,0,0,0-.66-.71h-2.22a.68.68,0,0,0-.66.66A.7.7,0,0,0,219.32,164.71Z" transform="translate(-19.37 -43.79)"/><path class="g" d="M225.45,164.71h2.22a.7.7,0,0,0,.66-.67.68.68,0,0,0-.66-.71h-2.22a.68.68,0,0,0-.66.66A.7.7,0,0,0,225.45,164.71Z" transform="translate(-19.37 -43.79)"/><path class="g" d="M115.12,164.71h2.22A.7.7,0,0,0,118,164a.68.68,0,0,0-.66-.71h-2.22a.68.68,0,0,0-.66.66A.7.7,0,0,0,115.12,164.71Z" transform="translate(-19.37 -43.79)"/><path class="g" d="M105,163.33h-1.14a.69.69,0,0,0-.69.69v1.14a.69.69,0,0,0,.69.69h0a.69.69,0,0,0,.69-.69v-.46H105a0,0,0,0,0,0,0,.69.69,0,0,0,.67-.71A.7.7,0,0,0,105,163.33Z" transform="translate(-19.37 -43.79)"/><path class="g" d="M103.84,178.13h0a.68.68,0,0,0,.68-.69v-2.2a0,0,0,0,0,0-.05.69.69,0,0,0-1.37.05v2.2A.69.69,0,0,0,103.84,178.13Z" transform="translate(-19.37 -43.79)"/><path class="g" d="M103.84,184.26h0a.67.67,0,0,0,.68-.68v-2.2a0,0,0,0,0,0,0,.69.69,0,0,0-1.37,0v2.2A.68.68,0,0,0,103.84,184.26Z" transform="translate(-19.37 -43.79)"/><path class="g" d="M103.84,208.82a.69.69,0,0,0,.68-.69v-2.2a0,0,0,0,0,0-.05.69.69,0,0,0-1.37.05v2.2A.69.69,0,0,0,103.84,208.82Z" transform="translate(-19.37 -43.79)"/><path class="g" d="M103.84,202.68a.68.68,0,0,0,.68-.69v-2.2a.69.69,0,0,0-1.37,0V202A.69.69,0,0,0,103.84,202.68Z" transform="translate(-19.37 -43.79)"/><path class="g" d="M103.84,190.4a.68.68,0,0,0,.68-.69v-2.19a0,0,0,0,0,0-.05.69.69,0,0,0-.71-.67.7.7,0,0,0-.66.72v2.19A.69.69,0,0,0,103.84,190.4Z" transform="translate(-19.37 -43.79)"/><path class="g" d="M103.84,196.54h0a.68.68,0,0,0,.68-.69v-2.2a.69.69,0,0,0-1.37,0v2.2A.69.69,0,0,0,103.84,196.54Z" transform="translate(-19.37 -43.79)"/><path class="g" d="M103.84,172h0a.68.68,0,0,0,.68-.69v-2.2a.69.69,0,0,0-1.37,0v2.2A.69.69,0,0,0,103.84,172Z" transform="translate(-19.37 -43.79)"/><path class="g" d="M117.4,170v18.24a.67.67,0,0,0,.6.67l.08,0h18.25a.68.68,0,0,0,.68-.71V170a.69.69,0,0,0-.69-.69H118.08A.68.68,0,0,0,117.4,170Zm1.37,1.65,5.46,5.47a.68.68,0,0,0,.49.2h0a.67.67,0,0,0,.48-.2.68.68,0,0,0,0-1l-5.46-5.47h14.92l-5.46,5.47a.66.66,0,0,0-.2.48.69.69,0,0,0,1.18.49l5.45-5.46v14.92l-5.45-5.46a.7.7,0,0,0-.94,0,.68.68,0,0,0,0,1l5.46,5.46H119.74l5.46-5.46a.67.67,0,0,0,0-.93.68.68,0,0,0-1,0l-5.46,5.46Z" transform="translate(-19.37 -43.79)"/><path class="g" d="M160.08,169.32a.69.69,0,0,0-.69.69v18.24a.68.68,0,0,0,.61.67l.08,0h18.24a.58.58,0,0,0,.19,0l.07,0a.68.68,0,0,0,.43-.63V170a.69.69,0,0,0-.69-.69Zm17.56,17.27-5.47-5.46a.69.69,0,0,0-1,1l5.46,5.46H161.74l5.46-5.46a.69.69,0,0,0-1-1l-5.46,5.46V171.67l5.46,5.46a.67.67,0,0,0,.48.2h0a.69.69,0,0,0,.49-1.17l-5.46-5.47h14.92l-5.46,5.47a.66.66,0,0,0-.2.48.69.69,0,0,0,.69.69.67.67,0,0,0,.48-.2l5.47-5.47Z" transform="translate(-19.37 -43.79)"/><path class="g" d="M201.65,188.73h0a.6.6,0,0,0,.21.14h0a.58.58,0,0,0,.26.06h18.24a.7.7,0,0,0,.69-.69V170a.69.69,0,0,0-.69-.69H202.14a.69.69,0,0,0-.69.69v18.24h0a.86.86,0,0,0,.05.27h0A.8.8,0,0,0,201.65,188.73Zm1.17-17.06,5.46,5.46a.7.7,0,0,0,.49.2h0a.67.67,0,0,0,.48-.2.68.68,0,0,0,0-1l-5.46-5.47h14.93l-5.47,5.47a.7.7,0,0,0-.2.48.69.69,0,0,0,1.18.49l5.46-5.46v14.92l-5.46-5.46a.69.69,0,0,0-1,1l5.46,5.46H203.79l5.46-5.46a.69.69,0,0,0-1-1l-5.46,5.46Z" transform="translate(-19.37 -43.79)"/><path class="g" d="M114.33,196.4h27.48a.69.69,0,0,0,0-1.37H114.33a.69.69,0,0,0,0,1.37Z" transform="translate(-19.37 -43.79)"/><path class="g" d="M142.47,202.34a.69.69,0,0,0-.66-.72H114.33a.69.69,0,0,0,0,1.38h27.48A.69.69,0,0,0,142.47,202.34Z" transform="translate(-19.37 -43.79)"/><path class="g" d="M155.48,196.4H183a.69.69,0,0,0,0-1.37H155.48a.69.69,0,0,0,0,1.37Z" transform="translate(-19.37 -43.79)"/><path class="g" d="M183,203a.69.69,0,0,0,0-1.38H155.48a.71.71,0,0,0-.67.67.7.7,0,0,0,.67.71Z" transform="translate(-19.37 -43.79)"/><path class="g" d="M225,195H197.51a.69.69,0,0,0,0,1.37h27.54A.69.69,0,0,0,225,195Z" transform="translate(-19.37 -43.79)"/><path class="g" d="M225,201.62H197.51a.69.69,0,0,0,0,1.38h27.54a.69.69,0,0,0-.05-1.38Z" transform="translate(-19.37 -43.79)"/><path class="g" d="M207.4,130.73a4.42,4.42,0,1,0,4.42,4.42A4.42,4.42,0,0,0,207.4,130.73Zm0,7.47a3.06,3.06,0,1,1,3.06-3A3.05,3.05,0,0,1,207.4,138.2Z" transform="translate(-19.37 -43.79)"/><path class="g" d="M160.11,141.58h-47.2c-.66,0-1.18.3-1.18.68s.52.69,1.18.69h47.2c.65,0,1.18-.31,1.18-.69S160.77,141.58,160.11,141.58Z" transform="translate(-19.37 -43.79)"/><path class="g" d="M271.54,162.07,263,157.12a5.4,5.4,0,0,0-7.36,2l-3.29,5.71a5.48,5.48,0,0,0-6,2.59l-2.51,4.34V108.78a6.17,6.17,0,0,0-6.12-6.19H157.36a23,23,0,0,1-4.23,0H140.51V89.24A5.56,5.56,0,0,0,135,83.69H67.64l-.35-.35a1,1,0,0,1-.16-1.18A21.17,21.17,0,0,0,68.47,79a1,1,0,0,1,1-.69H74.1a2.63,2.63,0,0,0,2.61-2.62V69.17a2.61,2.61,0,0,0-2.61-2.61H69.8a1,1,0,0,1-1-.75,21.12,21.12,0,0,0-1.33-3.61,1,1,0,0,1,.19-1.14l2.91-2.91a2.62,2.62,0,0,0,0-3.7L66,49.84a2.64,2.64,0,0,0-3.7,0l-2.51,2.52a1,1,0,0,1-1.19.14,23.22,23.22,0,0,0-4-1.83,1,1,0,0,1-.68-.94V46.4h0a2.61,2.61,0,0,0-2.62-2.61H44.77a2.61,2.61,0,0,0-2.61,2.62v2.91a1,1,0,0,1-.75,1A22.42,22.42,0,0,0,37,52a1,1,0,0,1-1.18-.16l-2-2a2.62,2.62,0,0,0-3.7,0l-4.71,4.71a2.62,2.62,0,0,0,0,3.7l2,2a1,1,0,0,1,.18,1.14,24.58,24.58,0,0,0-1.76,4.44,1,1,0,0,1-1,.72H22a2.61,2.61,0,0,0-2.62,2.61v6.53A2.63,2.63,0,0,0,22,78.35h3.32a1,1,0,0,1,1,.68,21.75,21.75,0,0,0,1.82,4,1,1,0,0,1-.14,1.19l-2.55,2.55a2.62,2.62,0,0,0,0,3.7L30,95.07h0a2.62,2.62,0,0,0,3.7,0l2.94-2.95a1,1,0,0,1,1.15-.18,22,22,0,0,0,3.61,1.34,1,1,0,0,1,.75,1V98.5a2.61,2.61,0,0,0,2.61,2.61h1.68V131A5.55,5.55,0,0,0,52,136.56H92.7v30h-.17a1.21,1.21,0,0,1,0,.19c-.07.59-.14,1.17-.22,1.74h.4v51A6.42,6.42,0,0,0,99.09,226H218.65l-1.59,15.76a2.64,2.64,0,0,0,3.31,2.79,3,3,0,0,0,.83-.4l15.22-11a12.37,12.37,0,0,0,1.69-1.47s0,.08,0,.11l.19-.18v-.08a12.51,12.51,0,0,0,1.65-2.25L259.72,195a5.48,5.48,0,0,0,5.09-2.72L271,181.6a5.47,5.47,0,0,0-.75-6.47l3.29-5.71A5.38,5.38,0,0,0,271.54,162.07Zm-66.71-13.92,13.77-7.5a2.12,2.12,0,0,1,2.16.08l11.8,7.54a.65.65,0,0,0,.47.09v3H208.09Zm1.34,3.26H173.72l15.21-15.2h0a1.43,1.43,0,0,1,2,0Zm15.33-11.83a3.5,3.5,0,0,0-3.55-.12l-14,7.64-.06.06-11.92-11.92a2.79,2.79,0,0,0-3.95,0L171.8,151.41H103.65V136.56H135a5.2,5.2,0,0,0,1.43-.21h23.73c.65,0,1.18-.3,1.18-.68s-.52-.69-1.18-.69H138.83a5.54,5.54,0,0,0,1.68-4v-3.6H233V147ZM44.75,99.05a.57.57,0,0,1-.57-.56V94.23a3.05,3.05,0,0,0-2.25-2.93,20.09,20.09,0,0,1-3.27-1.22,3,3,0,0,0-1.33-.3,3.1,3.1,0,0,0-2.17.89l-2.94,3a.59.59,0,0,1-.8,0L26.81,89h0a.57.57,0,0,1,0-.8l2.56-2.55A3.05,3.05,0,0,0,29.83,82a20.79,20.79,0,0,1-1.66-3.62,3,3,0,0,0-2.88-2.07H22a.52.52,0,0,1-.39-.17.54.54,0,0,1-.17-.4V69.21a.58.58,0,0,1,.57-.57h2.91a3.05,3.05,0,0,0,2.93-2.2,22,22,0,0,1,1.61-4.07,3,3,0,0,0-.56-3.54l-2-2h0a.57.57,0,0,1,0-.8l4.71-4.71a.57.57,0,0,1,.8,0l2,2a3,3,0,0,0,3.58.54,19.86,19.86,0,0,1,4-1.6,3.06,3.06,0,0,0,2.24-2.94V46.4a.58.58,0,0,1,.57-.57H51.3a.57.57,0,0,1,.56.57v3.33a3.06,3.06,0,0,0,2.07,2.89,20.39,20.39,0,0,1,3.62,1.66,3,3,0,0,0,3.67-.46l2.52-2.52h0a.57.57,0,0,1,.8,0l4.6,4.61h0a.56.56,0,0,1,0,.79l-2.91,2.92a3.07,3.07,0,0,0-.59,3.47,19.48,19.48,0,0,1,1.21,3.27,3.06,3.06,0,0,0,2.94,2.26h4.29a.57.57,0,0,1,.57.56V75.7h0a.57.57,0,0,1-.57.56H69.4a3.05,3.05,0,0,0-2.89,2.09A19.23,19.23,0,0,1,65.3,81.2a3.06,3.06,0,0,0-.14,2.49H65a1.43,1.43,0,0,1,.21.12,3.06,3.06,0,0,0,.63,1l3.31,3.31h0a.57.57,0,0,1,0,.8L64.43,93.6a.59.59,0,0,1-.8,0l-3.31-3.31a3,3,0,0,0-3.58-.53A20,20,0,0,1,53.93,91a3,3,0,0,0-2.08,2.89v4.63h0a.57.57,0,0,1-.57.56Zm4.59,32v-29.9h2a2.61,2.61,0,0,0,2.61-2.62V93.85a1,1,0,0,1,.69-.94,20.78,20.78,0,0,0,3.11-1.33,1,1,0,0,1,1.17.17l3.31,3.31h0a2.62,2.62,0,0,0,3.7,0l4.71-4.71a2.62,2.62,0,0,0,0-3.7l0-.05H135a2.64,2.64,0,0,1,2.64,2.64v29.25l0,.08s0,.09,0,.14h0V131a2.64,2.64,0,0,1-2.64,2.64H52A2.64,2.64,0,0,1,49.34,131Zm169.52,92.58H99.09a4,4,0,0,1-4-4v-83h6.13v16.06a1.21,1.21,0,0,0,1.2,1.21h131.8a1.21,1.21,0,0,0,1.2-1.21V126.2a1.21,1.21,0,0,0-1.21-1.21H140.51v-6.28h85.11a1.21,1.21,0,1,0,0-2.42H140.51V114.2h27.75a1.21,1.21,0,0,0,1.21-1.21h0a1.21,1.21,0,0,0-1.21-1.21H140.51v-2.41h63a1.21,1.21,0,1,0,0-2.42h-63V105h97.27a3.71,3.71,0,0,1,3.63,3.77v7.51h-6.29a1.21,1.21,0,0,0-1.21,1.21h0a1.21,1.21,0,0,0,1.21,1.21h6.29v57.21l-1.24,2.13a5.47,5.47,0,0,0-.54,4.15,5.55,5.55,0,0,0,.72,1.61l-1.57,2.72a12.78,12.78,0,0,1-3.11,5.4l-2.07,3.58v-2.22a.69.69,0,0,0-1.38,0v2.2a.68.68,0,0,0,1.06.56l-11.1,19.23h-.25a17.23,17.23,0,0,1-1.08,2.3h0l-.33.58a12.17,12.17,0,0,0-1.59,4.94h-.08C218.87,223.27,218.86,223.43,218.86,223.59Zm1,18.18.66-6.58,4.71,2.72Zm7.81-5.62-6.84-4,.87-8.67,13,7.52Zm9.92-8.2a10.63,10.63,0,0,1-.76,1.13l-6.35-3.66,6.21-10.76h0a1.37,1.37,0,0,0-.5-1.87h0a1.37,1.37,0,0,0-1.88.5l-6.21,10.76-5.73-3.31a9.2,9.2,0,0,1,.6-1.22l19.52-33.84,5.82,3.36L242.55,199a1.35,1.35,0,0,0-.13,1,1.37,1.37,0,0,0,1.67,1,1.41,1.41,0,0,0,.83-.64l5.72-9.91,6.43,3.71Zm31.05-47.7-2.37,4.1-11.44-6.6a1.38,1.38,0,0,0-2,1.54,1.41,1.41,0,0,0,.64.83l11.45,6.6-2.42,4.19h0a2.73,2.73,0,0,1-3.59,1.07l-15.43-8.9a2.68,2.68,0,0,1-1.17-1.76c.21-.88.44-1.75.72-2.6l2-3.47,2.17,1.25h0A1.36,1.36,0,0,0,249,176h0a1.39,1.39,0,0,0-.51-1.88l-2.17-1.25,2.37-4.11a2.73,2.73,0,0,1,3.72-1l15.17,8.76a2.67,2.67,0,0,1,1.27,1.65A2.72,2.72,0,0,1,268.6,180.25Zm2.54-12.19-3.18,5.5L254.8,166l3.18-5.51a2.64,2.64,0,0,1,3.61-1l8.58,4.94h0A2.66,2.66,0,0,1,271.14,168.06Z" transform="translate(-19.37 -43.79)"/><path class="g" d="M168,94.51a1.47,1.47,0,0,0-1.59,1.32v2.34a1.22,1.22,0,0,0,0,.27,1.46,1.46,0,1,0,2.91-.27V95.83A1.46,1.46,0,0,0,168,94.51Z" transform="translate(-19.37 -43.79)"/><path class="g" d="M169.3,83a1.46,1.46,0,0,0-2.91,0v4.48a1.22,1.22,0,0,0,0,.27,1.46,1.46,0,1,0,2.91-.27Z" transform="translate(-19.37 -43.79)"/><path class="g" d="M165.41,73.86h1v1a1.31,1.31,0,0,0,0,.28,1.46,1.46,0,1,0,2.91-.28V72.41A1.46,1.46,0,0,0,167.84,71h-2.42a1.46,1.46,0,1,0,0,2.91Z" transform="translate(-19.37 -43.79)"/><path class="g" d="M153.55,73.86h4.28a1.22,1.22,0,0,0,.27,0,1.46,1.46,0,1,0-.27-2.91h-4.26a1.46,1.46,0,0,0-1.47,1.46h0A1.46,1.46,0,0,0,153.55,73.86Z" transform="translate(-19.37 -43.79)"/><path class="g" d="M141.71,73.86H146a1.31,1.31,0,0,0,.28,0A1.46,1.46,0,1,0,146,71h-4.27a1.46,1.46,0,0,0-1.47,1.46h0A1.47,1.47,0,0,0,141.71,73.86Z" transform="translate(-19.37 -43.79)"/><path class="g" d="M129.85,73.86h4.28a1.22,1.22,0,0,0,.27,0,1.46,1.46,0,0,0-.27-2.91h-4.28a1.46,1.46,0,1,0,0,2.91Z" transform="translate(-19.37 -43.79)"/><path class="g" d="M119.92,73.86h2.33a1.31,1.31,0,0,0,.28,0,1.46,1.46,0,1,0-.28-2.91h-2.32a1.46,1.46,0,0,0,0,2.91Z" transform="translate(-19.37 -43.79)"/><path class="g" d="M107.16,73.86h4.28a1.31,1.31,0,0,0,.28,0,1.46,1.46,0,1,0-.28-2.91h-4.26a1.46,1.46,0,0,0-1.47,1.46h0A1.46,1.46,0,0,0,107.16,73.86Z" transform="translate(-19.37 -43.79)"/><path class="g" d="M95.32,73.86H99.6a1.22,1.22,0,0,0,.27,0A1.46,1.46,0,0,0,99.6,71H95.32a1.46,1.46,0,0,0-1.46,1.46h0A1.47,1.47,0,0,0,95.32,73.86Z" transform="translate(-19.37 -43.79)"/><path class="g" d="M83.46,73.86h4.28a1.22,1.22,0,0,0,.27,0A1.46,1.46,0,1,0,87.74,71H83.46a1.46,1.46,0,1,0,0,2.91Z" transform="translate(-19.37 -43.79)"/><path class="g" d="M79.66,101.38h30.72a1.47,1.47,0,0,0,0-2.92H79.66a1.47,1.47,0,0,0,0,2.92Z" transform="translate(-19.37 -43.79)"/><path class="g" d="M126.12,108.76H60.53a1.48,1.48,0,0,0-1.32,1.6,1.46,1.46,0,0,0,1.6,1.32H126.4a1.47,1.47,0,1,0-.28-2.92Z" transform="translate(-19.37 -43.79)"/><path class="g" d="M126.12,118.87H60.81a1.31,1.31,0,0,0-.28,0,1.47,1.47,0,1,0,.28,2.92H126.4a1.47,1.47,0,1,0-.28-2.92Z" transform="translate(-19.37 -43.79)"/><path class="g" d="M57.13,61.84a13.92,13.92,0,1,0,0,19.69A13.92,13.92,0,0,0,57.13,61.84ZM38.89,80.11a11.88,11.88,0,1,1,16.8,0A11.89,11.89,0,0,1,38.89,80.11Z" transform="translate(-19.37 -43.79)"/><circle class="h" cx="73.95" cy="169.37" r="31.76"/><path class="e" d="M75.89,225.55a2.83,2.83,0,0,0,.06,3.91l.1.1a2.63,2.63,0,0,0,3.79-.06l20.84-22.12-4-3.95Z" transform="translate(-19.37 -43.79)"/><path class="f" d="M90.18,196.75l-.06.08c6.68-.18,12.4.16,6.61,6.6l4,3.95c2.69.2,5.52,1.87,8.47,4.71l4.44-4.72c-.69-2.38-5.23-6.61-9.75-10.83A9.47,9.47,0,0,0,90.18,196.75Z" transform="translate(-19.37 -43.79)"/><polygon class="f" points="94.2 163.6 89.78 168.29 89.2 168.91 90.78 170.48 96.45 164.46 94.87 162.89 94.2 163.6"/><path class="h" d="M95.26,207.51a.47.47,0,0,0-.35-.15.46.46,0,0,0-.35.16L83.9,218.82a.55.55,0,0,0-.14.37.51.51,0,0,0,.15.36.47.47,0,0,0,.29.14.44.44,0,0,0,.2,0,.55.55,0,0,0,.22-.14l10.65-11.31a.51.51,0,0,0,.15-.36A.52.52,0,0,0,95.26,207.51Z" transform="translate(-19.37 -43.79)"/><path class="h" d="M108.27,203.23l-3.31-3.3a.47.47,0,0,0-.35-.15.54.54,0,0,0-.36.16.53.53,0,0,0,0,.73l3.3,3.3a.47.47,0,0,0,.29.14.35.35,0,0,0,.2,0,.45.45,0,0,0,.22-.13A.53.53,0,0,0,108.27,203.23Z" transform="translate(-19.37 -43.79)"/><polygon class="f" points="84.99 186.42 84.98 186.41 84.98 186.41 84.99 186.42"/><path class="f" d="M104.39,230.19l-.5-.53.47.54Z" transform="translate(-19.37 -43.79)"/><polygon class="f" points="84.98 186.41 84.98 186.41 84.52 185.87 81.96 183.15 84.98 186.41"/><path class="f" d="M85.45,196.07a5.55,5.55,0,0,0-6-1.58h0l4.51,5.24-1.3,1.93-2,.9-4.5-5.24a5.5,5.5,0,0,0,.72,6.15,5.63,5.63,0,0,0,6,1.7l13,15.18h0l1.67,2a5.67,5.67,0,0,0,.78,6.24,5.5,5.5,0,0,0,6,1.64l-3-3.26,2.56,2.72-4-4.7,1.18-1.82,2.1-1,4.51,5.24,0,0a5.57,5.57,0,0,0-.67-6.2,5.7,5.7,0,0,0-6.1-1.68l-1.67-2v0l-13-15.16A5.73,5.73,0,0,0,85.45,196.07Z" transform="translate(-19.37 -43.79)"/><path class="f" d="M76.13,197.32h0v0Z" transform="translate(-19.37 -43.79)"/></svg>