<svg xmlns="http://www.w3.org/2000/svg" width="258.72" height="189.61" viewBox="0 0 258.72 189.61"><defs><style>.a{opacity:0.35;}.b{fill:#b9e3eb;}.c{fill:#fff;opacity:0.5;}.d{fill:#f47523;}.e{fill:#3e4449;}.f{fill:#47a8b5;}.g{fill:#e2e2e5;}</style></defs><title>tools-page-structure</title><g class="a"><path class="b" d="M29.6,190.42S100.91,258,164.51,243.88s102.7-91.62,109.33-118.11-19.53-73.87-72.75-60S-18.3,134.32,29.6,190.42Z" transform="translate(-21.03 -56.22)"/></g><rect class="c" x="70.03" y="35.79" width="154.99" height="128.01"/><rect class="c" x="17.25" y="5.22" width="126.59" height="97.58"/><rect class="b" x="79.94" y="99.99" width="134.53" height="49.99"/><polygon class="d" points="202.41 159.27 219.95 169.75 242.22 130.83 225.02 120.21 202.41 159.27"/><path class="e" d="M48.28,65.9a3.08,3.08,0,1,0-3.08-3.08A3.08,3.08,0,0,0,48.28,65.9Zm0-4.12h0a1,1,0,1,1-1,1A1,1,0,0,1,48.28,61.78Z" transform="translate(-21.03 -56.22)"/><path class="e" d="M56.56,65.9a3.08,3.08,0,1,0-3.08-3.08A3.08,3.08,0,0,0,56.56,65.9Zm0-4.12h0a1,1,0,1,1-1,1A1,1,0,0,1,56.56,61.78Z" transform="translate(-21.03 -56.22)"/><path class="e" d="M133,59.89H68.74a1,1,0,1,0,0,2H133a1,1,0,0,0,1-1h0A1,1,0,0,0,133,59.89Z" transform="translate(-21.03 -56.22)"/><path class="e" d="M103.23,64H68.74a1,1,0,0,0-1,1h0a1,1,0,0,0,1,1h34.49a1,1,0,0,0,1-1h0A1,1,0,0,0,103.23,64Z" transform="translate(-21.03 -56.22)"/><polygon class="e" points="38.52 60.1 38.52 60.1 38.52 60.1 38.52 60.1"/><path class="e" d="M52.45,127.7a.64.64,0,0,0,.48.2H71.14a.67.67,0,0,0,.68-.68V109a.67.67,0,0,0-.68-.68H52.93a.67.67,0,0,0-.68.68v18.21A.65.65,0,0,0,52.45,127.7Zm6.62-11.58a.7.7,0,0,0,.48.2.74.74,0,0,0,.49-.2.7.7,0,0,0,0-1l-5.45-5.45H69.48L64,115.15a.67.67,0,0,0-.2.48.69.69,0,0,0,.69.69.67.67,0,0,0,.48-.2l5.45-5.46v14.9L65,120.11a.69.69,0,0,0-1,1l5.45,5.45H54.58L60,121.08a.69.69,0,0,0-1-1l-5.45,5.45V110.67Z" transform="translate(-21.03 -56.22)"/><path class="e" d="M49.18,135.35H76.61a.68.68,0,0,0,.69-.68.69.69,0,0,0-.69-.69H49.18a.68.68,0,0,0-.68.69A.67.67,0,0,0,49.18,135.35Z" transform="translate(-21.03 -56.22)"/><path class="e" d="M76.61,140.57H49.18a.67.67,0,0,0-.68.68.68.68,0,0,0,.68.69H76.61a.69.69,0,0,0,.69-.69A.68.68,0,0,0,76.61,140.57Z" transform="translate(-21.03 -56.22)"/><path class="e" d="M76.61,147.36H49.18a.68.68,0,0,0-.68.69.67.67,0,0,0,.68.68H76.61a.68.68,0,0,0,.69-.68A.69.69,0,0,0,76.61,147.36Z" transform="translate(-21.03 -56.22)"/><path class="e" d="M136.21,79.93a3.73,3.73,0,1,0,3.73,3.72A3.72,3.72,0,0,0,136.21,79.93Zm0,6.3a2.58,2.58,0,1,1,2.58-2.58A2.58,2.58,0,0,1,136.21,86.23Z" transform="translate(-21.03 -56.22)"/><path class="e" d="M96.36,83.51H56.58c-.55,0-1,.26-1,.58s.45.58,1,.58H96.36c.55,0,1-.26,1-.58S96.91,83.51,96.36,83.51Z" transform="translate(-21.03 -56.22)"/><path class="e" d="M96.36,89.07H56.58c-.55,0-1,.26-1,.58s.45.58,1,.58H96.36c.55,0,1-.26,1-.58S96.91,89.07,96.36,89.07Z" transform="translate(-21.03 -56.22)"/><path class="e" d="M99.43,95.18A3.85,3.85,0,1,0,103.27,99,3.86,3.86,0,0,0,99.43,95.18Zm0,5.15a1.3,1.3,0,0,1,0-2.6h0a1.3,1.3,0,0,1,0,2.6Z" transform="translate(-21.03 -56.22)"/><path class="e" d="M109.78,95.18A3.85,3.85,0,1,0,113.62,99,3.86,3.86,0,0,0,109.78,95.18Zm0,5.15a1.3,1.3,0,0,1,0-2.6h0a1.3,1.3,0,0,1,0,2.6Z" transform="translate(-21.03 -56.22)"/><path class="e" d="M205.28,95.36H125a1.28,1.28,0,0,0,0,2.55h80.28a1.27,1.27,0,0,0,1.27-1.27h0A1.27,1.27,0,0,0,205.28,95.36Z" transform="translate(-21.03 -56.22)"/><path class="e" d="M168.12,100.45H125a1.27,1.27,0,0,0-1.28,1.27h0A1.27,1.27,0,0,0,125,103h43.11a1.27,1.27,0,0,0,1.27-1.28h0A1.27,1.27,0,0,0,168.12,100.45Z" transform="translate(-21.03 -56.22)"/><path class="e" d="M237.62,144.75a1.27,1.27,0,0,0,1.27-1.27V115.64h0a1.27,1.27,0,0,0-1.28-1.27H98.78a1.27,1.27,0,0,0-1.27,1.27v27.84a1.27,1.27,0,0,0,1.27,1.27H237.62ZM100.06,116.92H236.34v20.59l-12.15-7.77a3.67,3.67,0,0,0-3.73-.13l-14.8,8s0,.05-.06.06L193,125.17a2.94,2.94,0,0,0-4.16,0l-17,17H100.06Zm108,25.28H173.87l16-16h0a1.51,1.51,0,0,1,2.14,0Zm2,0-3.45-3.44,14.52-7.89a2.23,2.23,0,0,1,2.27.08l12.43,7.94a.67.67,0,0,0,.49.1v3.21Z" transform="translate(-21.03 -56.22)"/><path class="e" d="M101.46,206.19H101v-.53a.73.73,0,0,0-.75-.7.72.72,0,0,0-.69.75v1.21a.72.72,0,0,0,.72.72h1.26a.73.73,0,0,0-.05-1.45Z" transform="translate(-21.03 -56.22)"/><path class="e" d="M121,206.2h-2.34a.71.71,0,0,0-.7.69.73.73,0,0,0,.7.75H121a.72.72,0,0,0,0-1.44Z" transform="translate(-21.03 -56.22)"/><path class="e" d="M146.86,206.2h-2.34a.72.72,0,0,0,0,1.44h2.34a.72.72,0,0,0,.69-.69A.71.71,0,0,0,146.86,206.2Z" transform="translate(-21.03 -56.22)"/><path class="e" d="M140.4,206.2h-2.34a.72.72,0,0,0,0,1.44h2.34a.72.72,0,0,0,0-1.44Z" transform="translate(-21.03 -56.22)"/><path class="e" d="M153.32,206.2H151a.72.72,0,0,0,0,1.44h2.34A.72.72,0,0,0,154,207,.71.71,0,0,0,153.32,206.2Z" transform="translate(-21.03 -56.22)"/><path class="e" d="M159.77,206.2h-2.34a.72.72,0,0,0,0,1.44h2.34a.72.72,0,0,0,0-1.44Z" transform="translate(-21.03 -56.22)"/><path class="e" d="M114.57,206.2h-2.34a.72.72,0,0,0,0,1.44h2.34a.72.72,0,0,0,0-1.44Z" transform="translate(-21.03 -56.22)"/><path class="e" d="M108.11,206.2h-2.34a.72.72,0,0,0,0,1.44h2.34a.72.72,0,0,0,0-1.44Z" transform="translate(-21.03 -56.22)"/><path class="e" d="M166.23,206.2h-2.34a.71.71,0,0,0-.7.69.73.73,0,0,0,.7.75h2.34a.72.72,0,0,0,0-1.44Z" transform="translate(-21.03 -56.22)"/><path class="e" d="M127.49,206.2h-2.34a.72.72,0,0,0,0,1.44h2.34a.72.72,0,0,0,0-1.44Z" transform="translate(-21.03 -56.22)"/><path class="e" d="M133.94,206.2H131.6a.72.72,0,0,0,0,1.44h2.34a.72.72,0,0,0,0-1.44Z" transform="translate(-21.03 -56.22)"/><path class="e" d="M205,206.2h-2.34a.72.72,0,0,0,0,1.44H205a.72.72,0,0,0,0-1.44Z" transform="translate(-21.03 -56.22)"/><path class="e" d="M217.88,206.2h-2.34a.72.72,0,0,0,0,1.44h2.34a.72.72,0,0,0,0-1.44Z" transform="translate(-21.03 -56.22)"/><path class="e" d="M211.43,206.2h-2.34a.72.72,0,0,0,0,1.44h2.34a.72.72,0,0,0,0-1.44Z" transform="translate(-21.03 -56.22)"/><path class="e" d="M172.68,206.2h-2.34a.72.72,0,0,0,0,1.44h2.34a.72.72,0,0,0,0-1.44Z" transform="translate(-21.03 -56.22)"/><path class="e" d="M222,207.64h2.34a.72.72,0,0,0,0-1.44H222a.72.72,0,0,0,0,1.44Z" transform="translate(-21.03 -56.22)"/><path class="e" d="M179.14,206.2H176.8a.72.72,0,0,0,0,1.44h2.34a.72.72,0,0,0,0-1.44Z" transform="translate(-21.03 -56.22)"/><path class="e" d="M185.6,206.2h-2.34a.71.71,0,0,0-.7.69.73.73,0,0,0,.7.75h2.34a.72.72,0,0,0,0-1.44Z" transform="translate(-21.03 -56.22)"/><path class="e" d="M192.05,206.2h-2.34a.72.72,0,0,0,0,1.44h2.34a.72.72,0,0,0,0-1.44Z" transform="translate(-21.03 -56.22)"/><path class="e" d="M198.51,206.2h-2.34a.72.72,0,0,0,0,1.44h2.34a.72.72,0,0,0,0-1.44Z" transform="translate(-21.03 -56.22)"/><path class="e" d="M236.24,172.67a.71.71,0,0,0-.73.71v2.32a.72.72,0,1,0,1.44,0v-2.32A.71.71,0,0,0,236.24,172.67Z" transform="translate(-21.03 -56.22)"/><path class="e" d="M236.24,166.2a.73.73,0,0,0-.73.72v2.31a.73.73,0,0,0,.72.73h0a.73.73,0,0,0,.72-.73v-2.31A.71.71,0,0,0,236.24,166.2Z" transform="translate(-21.03 -56.22)"/><path class="e" d="M236.24,159.73a.73.73,0,0,0-.73.72v2.32a.72.72,0,0,0,.72.72h0a.72.72,0,0,0,.72-.72v-2.32A.73.73,0,0,0,236.24,159.73Z" transform="translate(-21.03 -56.22)"/><path class="e" d="M236.24,179.13a.73.73,0,0,0-.73.72v2.31a.73.73,0,0,0,.72.73h0a.73.73,0,0,0,.72-.73v-2.31A.71.71,0,0,0,236.24,179.13Z" transform="translate(-21.03 -56.22)"/><path class="e" d="M236.23,157.41a.72.72,0,0,0,.72-.72v-1.21a.72.72,0,0,0-.72-.72H235a.73.73,0,0,0,0,1.45h.48v.48A.73.73,0,0,0,236.23,157.41Z" transform="translate(-21.03 -56.22)"/><path class="e" d="M150.88,156.21h2.34a.74.74,0,0,0,.7-.7.73.73,0,0,0-.7-.75h-2.34a.73.73,0,0,0,0,1.45Z" transform="translate(-21.03 -56.22)"/><path class="e" d="M166.13,156.21a.73.73,0,0,0,.7-.7.72.72,0,0,0-.7-.75h-2.34a.73.73,0,0,0,0,1.45Z" transform="translate(-21.03 -56.22)"/><path class="e" d="M179.05,156.21a.72.72,0,0,0,.69-.7.71.71,0,0,0-.69-.75h-2.34a.72.72,0,0,0-.7.7.73.73,0,0,0,.7.75Z" transform="translate(-21.03 -56.22)"/><path class="e" d="M172.59,156.21a.74.74,0,0,0,.7-.7.73.73,0,0,0-.7-.75h-2.34a.73.73,0,0,0,0,1.45Z" transform="translate(-21.03 -56.22)"/><path class="e" d="M140.31,154.76H138a.73.73,0,0,0,0,1.45h2.34a.73.73,0,0,0,.69-.7A.71.71,0,0,0,140.31,154.76Z" transform="translate(-21.03 -56.22)"/><path class="e" d="M144.42,156.21h2.34a.73.73,0,0,0,0-1.45h-2.34a.73.73,0,0,0,0,1.45Z" transform="translate(-21.03 -56.22)"/><path class="e" d="M133.85,156.21a.74.74,0,0,0,.7-.7.73.73,0,0,0-.7-.75h-2.34a.73.73,0,0,0,0,1.45Z" transform="translate(-21.03 -56.22)"/><path class="e" d="M127.39,156.21a.74.74,0,0,0,.7-.7.73.73,0,0,0-.7-.75h-2.34a.73.73,0,0,0,0,1.45Z" transform="translate(-21.03 -56.22)"/><path class="e" d="M105.68,156.21H108a.74.74,0,0,0,.7-.7.73.73,0,0,0-.7-.75h-2.34a.73.73,0,0,0,0,1.45Z" transform="translate(-21.03 -56.22)"/><path class="e" d="M121.63,155.51a.73.73,0,0,0-.7-.75h-2.34a.73.73,0,0,0,0,1.45h2.34A.74.74,0,0,0,121.63,155.51Z" transform="translate(-21.03 -56.22)"/><path class="e" d="M186.2,155.51a.72.72,0,0,0-.7-.75h-2.34a.73.73,0,0,0,0,1.45h2.34A.73.73,0,0,0,186.2,155.51Z" transform="translate(-21.03 -56.22)"/><path class="e" d="M159.68,154.76h-2.34a.72.72,0,0,0-.7.7.73.73,0,0,0,.7.75h2.34a.72.72,0,0,0,.69-.7A.71.71,0,0,0,159.68,154.76Z" transform="translate(-21.03 -56.22)"/><path class="e" d="M196.08,156.21h2.34a.72.72,0,0,0,.69-.7.71.71,0,0,0-.69-.75h-2.34a.72.72,0,0,0-.7.7A.73.73,0,0,0,196.08,156.21Z" transform="translate(-21.03 -56.22)"/><path class="e" d="M189.62,156.21H192a.74.74,0,0,0,.7-.7.73.73,0,0,0-.7-.75h-2.34a.73.73,0,0,0,0,1.45Z" transform="translate(-21.03 -56.22)"/><path class="e" d="M217.79,156.21a.72.72,0,0,0,.69-.7.71.71,0,0,0-.69-.75h-2.34a.73.73,0,0,0,0,1.45Z" transform="translate(-21.03 -56.22)"/><path class="e" d="M204.87,154.76h-2.34a.73.73,0,0,0,0,1.45h2.34a.73.73,0,0,0,.7-.7A.72.72,0,0,0,204.87,154.76Z" transform="translate(-21.03 -56.22)"/><path class="e" d="M211.33,156.21a.74.74,0,0,0,.7-.7.73.73,0,0,0-.7-.75H209a.73.73,0,0,0,0,1.45Z" transform="translate(-21.03 -56.22)"/><path class="e" d="M224.24,156.21a.73.73,0,0,0,.7-.7.72.72,0,0,0-.7-.75h-2.33a.73.73,0,0,0,0,1.45Z" transform="translate(-21.03 -56.22)"/><path class="e" d="M230.7,154.76h-2.34a.73.73,0,0,0,0,1.45h2.34a.74.74,0,0,0,.7-.7A.73.73,0,0,0,230.7,154.76Z" transform="translate(-21.03 -56.22)"/><path class="e" d="M114.48,154.76h-2.34a.73.73,0,0,0,0,1.45h2.34a.72.72,0,0,0,.69-.7A.71.71,0,0,0,114.48,154.76Z" transform="translate(-21.03 -56.22)"/><path class="e" d="M101.46,154.76h-1.21a.72.72,0,0,0-.72.72v1.21a.72.72,0,0,0,.72.72h0a.73.73,0,0,0,.73-.72v-.48h.53a.74.74,0,0,0,.7-.76A.72.72,0,0,0,101.46,154.76Z" transform="translate(-21.03 -56.22)"/><path class="e" d="M101,167.3a0,0,0,0,0,0-.05.73.73,0,0,0-.75-.7.72.72,0,0,0-.69.75v2.32a.72.72,0,0,0,.72.72h0a.71.71,0,0,0,.72-.72Z" transform="translate(-21.03 -56.22)"/><path class="e" d="M101,173.77a0,0,0,0,0,0-.05.72.72,0,0,0-.75-.7.71.71,0,0,0-.69.75v2.32a.72.72,0,0,0,.72.72h0a.72.72,0,0,0,.72-.72Z" transform="translate(-21.03 -56.22)"/><path class="e" d="M100.22,198.88a.72.72,0,0,0-.69.75V202a.72.72,0,0,0,1.44,0v-2.32a0,0,0,0,0,0,0A.73.73,0,0,0,100.22,198.88Z" transform="translate(-21.03 -56.22)"/><path class="e" d="M101,193.17a.71.71,0,0,0-.69-.7.73.73,0,0,0-.75.7v2.31a.72.72,0,1,0,1.44,0Z" transform="translate(-21.03 -56.22)"/><path class="e" d="M101,180.24a.06.06,0,0,0,0-.06.72.72,0,0,0-1.44.06v2.31a.72.72,0,1,0,1.44,0Z" transform="translate(-21.03 -56.22)"/><path class="e" d="M101,186.7a.72.72,0,0,0-1.44,0V189a.72.72,0,0,0,.72.72h0A.71.71,0,0,0,101,189Z" transform="translate(-21.03 -56.22)"/><path class="e" d="M101,160.84a.71.71,0,0,0-.69-.7.73.73,0,0,0-.75.7v2.31a.73.73,0,0,0,.72.73h0a.72.72,0,0,0,.72-.73Z" transform="translate(-21.03 -56.22)"/><path class="e" d="M114.53,161.79V181a.71.71,0,0,0,.64.7l.09,0h19.21a.7.7,0,0,0,.72-.74v-19.2a.72.72,0,0,0-.72-.72H115.26A.73.73,0,0,0,114.53,161.79Zm7.2,7.5a.72.72,0,0,0,.52.21h0a.71.71,0,0,0,.51-.21.72.72,0,0,0,0-1L117,162.52h15.72L127,168.27a.74.74,0,0,0-.21.51.73.73,0,0,0,1.24.51l5.75-5.75v15.72L128,173.51a.73.73,0,0,0-1,0,.72.72,0,0,0,0,1l5.75,5.75H117l5.76-5.75a.73.73,0,0,0-1-1L116,179.26V163.54Z" transform="translate(-21.03 -56.22)"/><path class="e" d="M158.77,161.79V181a.71.71,0,0,0,.64.7l.09,0h19.22a.58.58,0,0,0,.19,0H179a.74.74,0,0,0,.45-.67V161.79a.72.72,0,0,0-.72-.72H159.5A.73.73,0,0,0,158.77,161.79Zm7.21,7.5a.69.69,0,0,0,.51.21h0a.71.71,0,0,0,.51-.21.72.72,0,0,0,0-1l-5.75-5.75H177l-5.76,5.75a.74.74,0,0,0-.21.51.73.73,0,0,0,.73.72.71.71,0,0,0,.51-.21l5.75-5.75v15.72l-5.75-5.75a.72.72,0,0,0-1,0,.71.71,0,0,0,0,1l5.75,5.75H161.25l5.75-5.75a.72.72,0,0,0,0-1,.74.74,0,0,0-1,0l-5.75,5.75V163.54Z" transform="translate(-21.03 -56.22)"/><path class="e" d="M203.08,161.79V181h0a.87.87,0,0,0,0,.28h0a.57.57,0,0,0,.15.23h0a.74.74,0,0,0,.22.14h0a.75.75,0,0,0,.26,0H223a.73.73,0,0,0,.73-.72V161.79a.72.72,0,0,0-.72-.72H203.8A.72.72,0,0,0,203.08,161.79Zm7.2,7.5a.69.69,0,0,0,.51.21h0a.71.71,0,0,0,.51-.21.72.72,0,0,0,0-1l-5.75-5.75h15.72l-5.76,5.75a.74.74,0,0,0-.21.51.73.73,0,0,0,.73.72.71.71,0,0,0,.51-.21l5.75-5.75v15.72l-5.75-5.75a.74.74,0,0,0-1,0,.72.72,0,0,0,0,1l5.76,5.75H205.55l5.75-5.75a.72.72,0,1,0-1-1l-5.76,5.75V163.54Z" transform="translate(-21.03 -56.22)"/><path class="e" d="M110.6,188.85a.74.74,0,0,0,.7.75h29a.73.73,0,0,0,0-1.45H111.3A.73.73,0,0,0,110.6,188.85Z" transform="translate(-21.03 -56.22)"/><path class="e" d="M141,195.85a.73.73,0,0,0-.7-.75H111.3a.72.72,0,0,0,0,1.44h29A.71.71,0,0,0,141,195.85Z" transform="translate(-21.03 -56.22)"/><path class="e" d="M154,188.85a.74.74,0,0,0,.7.75H183.6a.74.74,0,0,0,.7-.7.73.73,0,0,0-.7-.75H154.65A.73.73,0,0,0,154,188.85Z" transform="translate(-21.03 -56.22)"/><path class="e" d="M183.6,196.54a.72.72,0,0,0,0-1.44H154.65a.72.72,0,0,0,0,1.44Z" transform="translate(-21.03 -56.22)"/><path class="e" d="M227.88,188.15H198.93a.73.73,0,0,0-.7.7.74.74,0,0,0,.7.75h29a.73.73,0,0,0-.06-1.45Z" transform="translate(-21.03 -56.22)"/><path class="e" d="M227.88,195.1H198.93a.72.72,0,0,0,0,1.44h28.95a.06.06,0,0,0,.06,0,.72.72,0,1,0-.06-1.44Z" transform="translate(-21.03 -56.22)"/><path class="e" d="M209.35,129.72a4.66,4.66,0,1,0-4.66-4.65A4.65,4.65,0,0,0,209.35,129.72Zm0-7.88a3.23,3.23,0,1,1-3.23,3.23A3.23,3.23,0,0,1,209.35,121.84Z" transform="translate(-21.03 -56.22)"/><path class="e" d="M109.8,126.34h49.73c.69,0,1.25-.32,1.25-.72s-.56-.73-1.25-.73H109.8c-.68,0-1.24.33-1.24.73S109.12,126.34,109.8,126.34Z" transform="translate(-21.03 -56.22)"/><path class="e" d="M159.53,131.84H109.8c-.68,0-1.24.33-1.24.73s.56.72,1.24.72h49.73c.69,0,1.25-.32,1.25-.72S160.22,131.84,159.53,131.84Z" transform="translate(-21.03 -56.22)"/><path class="e" d="M276.92,153.43l-9-5.21a5.67,5.67,0,0,0-7.74,2.08l-3.47,6a5.76,5.76,0,0,0-6.31,2.72l-2.65,4.58V97.29a6.49,6.49,0,0,0-6.45-6.52H166.91V61.43a5.19,5.19,0,0,0-5.17-5.21H44.84a5.32,5.32,0,0,0-5.29,5.34v93.22a5.42,5.42,0,0,0,5.38,5.44H88.51V214a6.78,6.78,0,0,0,6.74,6.8H221.19l-1.67,16.61a2.66,2.66,0,0,0,.1,1h0a2.74,2.74,0,0,0,3.39,1.92,2.92,2.92,0,0,0,.87-.42l16-11.55a13.18,13.18,0,0,0,1.79-1.55s0,.08,0,.12l.2-.19v-.09a12.73,12.73,0,0,0,1.75-2.37l20.87-36.15a5.75,5.75,0,0,0,5.35-2.87L276.31,174a5.75,5.75,0,0,0-.79-6.82l3.47-6A5.69,5.69,0,0,0,276.92,153.43ZM44.84,58.26H63.17v9.5H41.59v-6.2a.16.16,0,0,1,0-.07A3.23,3.23,0,0,1,44.84,58.26Zm.1,99.93a3.38,3.38,0,0,1-3.35-3.41v-85h110a1,1,0,1,0,0-2H65.21v-9.5h96.6a3.12,3.12,0,0,1,3.06,3.17v6.33h-5.3a1,1,0,0,0-1,1h0a1,1,0,0,0,1,1h5.3v21h-5V76.11a1,1,0,0,0-1-1H47.76a1,1,0,0,0-1,1V98.38a1,1,0,0,0,1,1H88.51v58.79ZM153.39,90.77l-5.3-3.38a2.92,2.92,0,0,0-3-.11l-6.42,3.49h-8.48l-7-7a2.35,2.35,0,0,0-3.33,0l-7,7H95.13a6.66,6.66,0,0,0-6.61,6.59H48.78V77.13h109V90.77Zm-2.13,0H141.09l4.56-2.48a1.8,1.8,0,0,1,1.82.07ZM91.06,105.2V97.37a4.07,4.07,0,0,1,4.07-4.05h22.92V105.2Zm23.36-14.43,6.23-6.23a1.21,1.21,0,0,1,1.71,0l6.23,6.23ZM91.06,214V107.75H228.54a1.28,1.28,0,0,0,0-2.55H120.59V93.32H241.35a3.9,3.9,0,0,1,3.82,4v7.91h-6.62a1.27,1.27,0,0,0-1.27,1.28h0a1.27,1.27,0,0,0,1.27,1.27h6.62V168l-1.3,2.25a5.7,5.7,0,0,0-.57,4.37,5.59,5.59,0,0,0,.76,1.69l-1.66,2.87a13.39,13.39,0,0,1-3.28,5.69L237,188.65v-2.34a.72.72,0,0,0-1.44,0v2.32a.73.73,0,0,0,.72.73.82.82,0,0,0,.39-.13l-11.69,20.25h-.27a19.17,19.17,0,0,1-1.13,2.43h0l-.35.61a12.88,12.88,0,0,0-1.67,5.2h-.08c0,.17,0,.34,0,.51H95.25A4.23,4.23,0,0,1,91.06,214Zm131.37,23.41.7-6.93,5,2.86Zm8.23-5.93-7.21-4.16.92-9.13,13.74,7.93Zm10.45-8.63a10.4,10.4,0,0,1-.81,1.19l-6.68-3.85,6.54-11.34h0a1.44,1.44,0,0,0-.53-2h0a1.44,1.44,0,0,0-2,.53l-6.55,11.33-6-3.48a10.38,10.38,0,0,1,.63-1.3l20.57-35.64,6.13,3.54-6,10.44a1.44,1.44,0,0,0,1.63,2.11,1.4,1.4,0,0,0,.87-.67l6-10.44,6.77,3.91Zm32.71-50.25-2.5,4.32-12.06-7h0a1.44,1.44,0,0,0-2,.52,1.51,1.51,0,0,0-.15,1.1,1.41,1.41,0,0,0,.68.87l12.05,7-2.54,4.41h0a2.87,2.87,0,0,1-3.78,1.13l-16.26-9.38a2.89,2.89,0,0,1-1.24-1.86c.22-.92.47-1.83.76-2.74l2.11-3.65,2.29,1.32h0a1.44,1.44,0,0,0,2-.53h0a1.44,1.44,0,0,0-.53-2l-2.29-1.32,2.5-4.33a2.87,2.87,0,0,1,3.92-1l16,9.23a2.83,2.83,0,0,1,1.34,1.74A2.86,2.86,0,0,1,273.82,172.58Zm2.67-12.84-3.34,5.8-13.87-8,3.35-5.8h0a2.78,2.78,0,0,1,3.8-1l9,5.21h0A2.79,2.79,0,0,1,276.49,159.74Z" transform="translate(-21.03 -56.22)"/><circle class="e" cx="68.35" cy="157.72" r="31.44"/><path class="f" d="M72.13,226.2a2.8,2.8,0,0,0,.06,3.87l.1.09A2.58,2.58,0,0,0,76,230.1l20.64-21.89-3.92-3.91Z" transform="translate(-21.03 -56.22)"/><path class="g" d="M86.28,197.69l-.07.07c6.63-.17,12.28.16,6.55,6.54l3.92,3.91c2.65.2,5.46,1.85,8.38,4.66l4.39-4.67c-.68-2.35-5.18-6.54-9.65-10.72A9.37,9.37,0,0,0,86.28,197.69Z" transform="translate(-21.03 -56.22)"/><polygon class="g" points="88.41 152 84.03 156.65 83.46 157.25 85.02 158.81 90.63 152.85 89.07 151.29 88.41 152"/><path class="e" d="M91.31,208.33a.5.5,0,0,0-.35-.14.51.51,0,0,0-.35.15l-10.55,11.2a.52.52,0,0,0-.14.36.58.58,0,0,0,.15.36.53.53,0,0,0,.29.14.47.47,0,0,0,.2,0,.42.42,0,0,0,.21-.13l10.55-11.2a.51.51,0,0,0,.14-.36A.49.49,0,0,0,91.31,208.33Z" transform="translate(-21.03 -56.22)"/><path class="e" d="M104.19,204.1l-3.28-3.27a.5.5,0,0,0-.35-.14.47.47,0,0,0-.35.15.53.53,0,0,0,0,.72l3.28,3.27a.42.42,0,0,0,.28.14.45.45,0,0,0,.2,0,.64.64,0,0,0,.22-.14A.53.53,0,0,0,104.19,204.1Z" transform="translate(-21.03 -56.22)"/><polygon class="g" points="79.29 174.59 79.28 174.58 79.28 174.58 79.29 174.59"/><path class="g" d="M100.35,230.79l-.5-.53.46.54Z" transform="translate(-21.03 -56.22)"/><polygon class="g" points="79.28 174.58 79.28 174.58 78.82 174.05 76.29 171.35 79.28 174.58"/><path class="g" d="M81.6,197a5.54,5.54,0,0,0-6-1.57h0l4.46,5.19-1.29,1.9-2,.89-4.46-5.18a5.43,5.43,0,0,0,.71,6.09,5.59,5.59,0,0,0,6,1.69l12.92,15h0l1.66,2a5.59,5.59,0,0,0,.76,6.17,5.43,5.43,0,0,0,5.89,1.63l-3-3.23,2.53,2.69-4-4.64L97,223.81l2.08-1,4.46,5.19,0,0a5.52,5.52,0,0,0-.66-6.14,5.65,5.65,0,0,0-6-1.66l-1.65-1.95h0l-12.91-15A5.65,5.65,0,0,0,81.6,197Z" transform="translate(-21.03 -56.22)"/><path class="g" d="M72.37,198.25h0v0Z" transform="translate(-21.03 -56.22)"/></svg>